<?xml version="1.0" encoding="UTF-8" standalone="no"?>
<svg
   height="40px"
   viewBox="0 -960 960 960"
   width="40px"
   fill="#fff"
   version="1.1"
   id="svg1"
   sodipodi:docname="ads.svg"
   inkscape:version="1.4 (86a8ad7, 2024-10-11)"
   xmlns:inkscape="http://www.inkscape.org/namespaces/inkscape"
   xmlns:sodipodi="http://sodipodi.sourceforge.net/DTD/sodipodi-0.dtd"
   xmlns="http://www.w3.org/2000/svg"
   xmlns:svg="http://www.w3.org/2000/svg">
  <defs
     id="defs1" />
  <sodipodi:namedview
     id="namedview1"
     pagecolor="#ffffff"
     bordercolor="#cccccc"
     borderopacity="1"
     inkscape:showpageshadow="0"
     inkscape:pageopacity="1"
     inkscape:pagecheckerboard="0"
     inkscape:deskcolor="#d1d1d1"
     inkscape:zoom="20.925"
     inkscape:cx="20.023895"
     inkscape:cy="20"
     inkscape:window-width="1920"
     inkscape:window-height="1017"
     inkscape:window-x="-8"
     inkscape:window-y="-8"
     inkscape:window-maximized="1"
     inkscape:current-layer="svg1" />
  <path
     d="M468-240q-96-5-162-74t-66-166q0-100 70-170t170-70q97 0 166 66t74 162.67L650-513q-11.67-60.67-58.67-100.5T480-653.33q-72 0-122.67 50.66Q306.67-552 306.67-480q0 63.67 39.83 111T447-310l21 70Zm48 158q-9 1.33-18 1.67-9 .33-18 .33-83 0-156-31.5T197-197q-54-54-85.5-127T80-480q0-83 31.5-156T197-763q54-54 127-85.5T480-880q83 0 156 31.5T763-763q54 54 85.5 127T880-480q0 9-.33 18-.34 9-1.67 18l-64.67-20v-16q0-139.33-97-236.33t-236.33-97q-139.33 0-236.33 97t-97 236.33q0 139.33 97 236.33t236.33 97h16L516-82Zm305 22L650-231 600-80 480-480l400 120-151 50 171 171-79 79Z"
     id="path1"
     style="fill:#000000" />
</svg>
