<?xml version="1.0" encoding="UTF-8" standalone="no"?>
<!-- Created with Inkscape (http://www.inkscape.org/) -->

<svg
   width="1280"
   height="560"
   viewBox="0 0 338.66666 148.16666"
   version="1.1"
   id="svg1"
   xmlns="http://www.w3.org/2000/svg"
   xmlns:svg="http://www.w3.org/2000/svg"
   xmlns:rdf="http://www.w3.org/1999/02/22-rdf-syntax-ns#"
   xmlns:cc="http://creativecommons.org/ns#">
  <defs
     id="defs1" />
  <g
     id="layer1"
     transform="matrix(2.8340418,0,0,2.8340418,-127.97598,-339.04835)"
     style="stroke-width:0.352853">
    <ellipse
       style="fill:#2d00c8;fill-opacity:1;stroke:#2d00c8;stroke-width:0;stroke-linecap:round;stroke-linejoin:round;stroke-dasharray:none"
       id="path2"
       cx="69.531044"
       cy="146.20107"
       rx="16.702209"
       ry="16.702211" />
    <ellipse
       style="fill:#2d00c8;fill-opacity:1;stroke:#2d00c8;stroke-width:0;stroke-linecap:round;stroke-linejoin:round;stroke-dasharray:none"
       id="path2-3"
       cx="115.81199"
       cy="138.25299"
       rx="1.1161153"
       ry="1.1161155" />
    <path
       id="path6-2"
       style="fill:#ffffff;fill-opacity:1;stroke:none;stroke-width:0.259538;stroke-linecap:round;stroke-dasharray:none;stroke-opacity:1"
       d="m 83.863407,145.26253 c -0.43056,0.21532 -0.3171,0.82634 -0.39234,1.22592 -0.49222,2.98337 -2.21153,5.72352 -4.65871,7.49332 -4.16908,3.07564 -9.87067,3.70796 -14.70598,2.0086 -3.090365,-1.08583 -5.881191,-3.22851 -7.374014,-6.19744 -0.582006,-1.14683 -0.956335,-2.39933 -1.120983,-3.67968 -0.02996,-0.23282 -0.01175,-0.59022 -0.02777,-0.82441 -0.354206,-0.20716 -0.766736,0.32246 -0.622242,0.6727 0.06899,4.23772 2.47193,8.26475 5.982633,10.58198 4.675426,3.18211 11.133666,3.46581 16.072176,0.71152 3.41356,-1.86583 6.10255,-5.16935 6.87883,-9.01925 0.18655,-0.91707 0.32754,-1.87825 0.19012,-2.80698 -0.0449,-0.0806 -0.11743,-0.18173 -0.22171,-0.16628 z" />
    <path
       id="path6-2-1"
       style="fill:#2d00c8;fill-opacity:1;stroke:none;stroke-width:0.259538;stroke-linecap:round;stroke-dasharray:none;stroke-opacity:1"
       d="m 115.66652,133.3702 c -1.72431,0.0209 -3.37755,1.4959 -3.39719,3.25479 0.0238,0.36437 0.47676,0.71854 0.79548,0.43321 0.31397,-0.29428 0.12103,-0.79705 0.39696,-1.11793 0.83091,-1.47537 3.09668,-1.6937 4.29239,-0.54848 0.40204,0.35839 0.63666,0.87579 0.67301,1.40906 0.0958,0.37604 0.71652,0.49622 0.85153,0.0842 0.19924,-0.52247 -0.0405,-1.09045 -0.233,-1.5786 -0.61251,-1.23956 -2.01015,-2.00383 -3.37918,-1.93623 z" />
    <path
       id="text1-7"
       style="font-size:25.4px;font-family:'Hi.';-inkscape-font-specification:'Hi.';text-align:center;text-anchor:middle;display:inline;fill:#ffffff;fill-opacity:1;stroke-width:0;stroke-linecap:round;stroke-dasharray:none"
       d="m 69.596947,136.3289 c -3.41401,0.13405 -6.714435,2.428 -7.789893,5.71326 -0.930086,2.66164 -0.278624,5.88215 1.8438,7.79731 2.831293,2.58734 7.417733,2.89785 10.616743,0.81085 1.06451,-0.62637 1.95387,-1.48937 2.77383,-2.40301 0.39228,-0.3376 0.86534,-0.84418 0.60843,-1.40231 -0.26019,-0.80254 -1.41883,-1.17977 -2.02884,-0.53139 -1.32133,0.959 -2.54194,2.06824 -3.94502,2.90912 -2.24271,1.05814 -5.10515,0.23385 -6.6756,-1.66034 -1.130233,-1.40177 -1.264163,-3.42193 -0.52988,-5.00822 0.86521,-2.01951 2.98288,-3.53057 5.19164,-3.45284 1.4448,0.0341 2.82217,0.56025 4.12768,1.1618 -0.44171,0.63343 -1.12108,1.0463 -1.68576,1.56041 -0.75562,0.62444 -1.59722,1.17166 -2.25547,1.89727 -0.49525,0.86667 0.5886,2.07258 1.4938,1.57558 0.73989,-0.37024 1.31038,-0.99476 1.98184,-1.46865 1.29284,-1.03719 2.58174,-2.09646 3.74881,-3.27226 0.29811,-0.61015 -0.28624,-1.15718 -0.69488,-1.53272 -1.33001,-1.28758 -2.98722,-2.30289 -4.84246,-2.57252 -0.63887,-0.11126 -1.29074,-0.14606 -1.93877,-0.12134 z" />
    <path
       d="m 91.267517,141.7562 c -0.01792,-0.32265 -0.358498,-0.5736 -0.752846,-0.5736 -0.412272,0 -0.752845,0.25095 -0.77077,0.5736 l -0.1434,4.62462 v 0 c 0.179249,2.86798 2.401937,5.19822 5.502945,5.19822 2.903834,0 4.839723,0 4.839723,0 0.340571,0 0.591521,-0.3585 0.591521,-0.75285 0,-0.41227 -0.25095,-0.75284 -0.591521,-0.75284 0,0 -2.832134,0 -4.839723,0 -2.043439,0 -3.853854,-1.66702 -3.853854,-3.71046 0,-1.84626 0,-4.05102 0.01792,-4.51707 z m 12.565363,0 c -0.0179,-0.32265 -0.3585,-0.5736 -0.75285,-0.5736 -0.41227,0 -0.75285,0.25095 -0.77077,0.5736 l -0.1434,4.62462 v 0 c 0.17925,2.86798 2.40194,5.19822 5.50294,5.19822 2.90384,0 4.83973,0 4.83973,0 0.34057,0 0.59152,-0.3585 0.59152,-0.75285 0,-0.41227 -0.25095,-0.75284 -0.59152,-0.75284 0,0 -2.83214,0 -4.83973,0 -2.04343,0 -3.85385,-1.66702 -3.85385,-3.71046 0,-1.84626 0,-4.05102 0.0179,-4.51707 z m 12.69083,-0.23303 c 0,-0.2868 -0.34057,-0.51982 -0.75285,-0.51982 -0.39434,0 -0.73492,0.2151 -0.75284,0.51982 0,0 0,9.55397 0,9.55397 0,0.2868 0.34057,0.5019 0.75284,0.5019 0.41228,0 0.75285,-0.19717 0.75285,-0.5019 z m 2.9397,11.99176 c 0.2868,0 0.69907,-0.0358 0.69907,-0.2868 v -3.31611 c 1.02172,1.02172 2.50948,1.66702 4.15858,1.66702 3.13685,0 5.64634,-2.33024 5.64634,-5.23407 0,-2.90383 -2.50949,-5.252 -5.64634,-5.252 -3.15479,0 -5.66427,2.36609 -5.66427,5.26992 v 6.84732 c 0,0.26887 0.50189,0.30472 0.80662,0.30472 z m 4.85765,-3.58498 c -2.25854,0 -4.08688,-1.68494 -4.08688,-3.58498 0,-1.90004 1.82834,-3.58498 4.08688,-3.58498 2.24061,0 4.06895,1.68494 4.06895,3.58498 0,1.90004 -1.82834,3.58498 -4.06895,3.58498 z m 8.51433,3.58498 c 0.28679,0 0.69907,-0.0358 0.69907,-0.2868 v -3.31611 c 1.02172,1.02172 2.50948,1.66702 4.15857,1.66702 3.13686,0 5.64635,-2.33024 5.64635,-5.23407 0,-2.90383 -2.50949,-5.252 -5.64635,-5.252 -3.15478,0 -5.66426,2.36609 -5.66426,5.26992 v 6.84732 c 0,0.26887 0.50189,0.30472 0.80662,0.30472 z m 4.85764,-3.58498 c -2.25853,0 -4.08687,-1.68494 -4.08687,-3.58498 0,-1.90004 1.82834,-3.58498 4.08687,-3.58498 2.24062,0 4.06896,1.68494 4.06896,3.58498 0,1.90004 -1.82834,3.58498 -4.06896,3.58498 z m 12.81631,-1.75664 c -2.13306,0 -3.62083,-1.72079 -3.62083,-3.6746 0,-2.00759 0,-2.90384 0,-2.90384 0,-0.34057 -0.34057,-0.59152 -0.75284,-0.59152 -0.39435,0 -0.73492,0.23302 -0.75285,0.5736 0,0.0179 0,0.2151 0,2.86798 0,2.88591 2.11514,5.23407 5.12652,5.23407 1.52362,0 2.59912,-0.59152 3.53121,-1.55947 v 0.10755 c 0,0.0359 0,0.0179 0.0179,0.0717 v 0.25095 c 0,2.02552 -1.72079,2.68874 -3.78215,2.68874 -2.06136,0 -2.27646,0 -2.27646,0 -0.34057,0 -0.59152,0.3585 -0.59152,0.75284 0,0.3585 0.16132,0.6453 0.46604,0.73492 0.0896,0.0538 0.39435,0.0359 2.40194,0.0359 2.92176,0 5.28785,-1.21889 5.28785,-4.2482 0,-0.0896 0,-0.16132 0,-0.26887 0,-0.0359 0,-0.55567 0,-3.38781 0,-0.1434 0,-0.26887 0,-0.41227 0,-2.63496 0,-2.85006 0,-2.86798 -0.0179,-0.32265 -0.34058,-0.5736 -0.75285,-0.5736 -0.41227,0 -0.77077,0.25095 -0.77077,0.59152 v 3.08308 c -0.0896,1.88212 -1.45192,3.49536 -3.53121,3.49536 z"
       id="text1"
       style="font-size:17.9249px;line-height:0.9;font-family:'Hi.';-inkscape-font-specification:'Hi.';text-align:center;text-anchor:middle;fill:#2d00c8;stroke:none;stroke-width:1.55008;stroke-linecap:round;stroke-linejoin:round;stroke-dasharray:none"
       aria-label="llipPy" />
  </g>
  <metadata
     id="metadata1">
    <rdf:RDF>
      <cc:License
         rdf:about="http://creativecommons.org/licenses/by-nd/4.0/">
        <cc:permits
           rdf:resource="http://creativecommons.org/ns#Reproduction" />
        <cc:permits
           rdf:resource="http://creativecommons.org/ns#Distribution" />
        <cc:requires
           rdf:resource="http://creativecommons.org/ns#Notice" />
        <cc:requires
           rdf:resource="http://creativecommons.org/ns#Attribution" />
      </cc:License>
      <cc:Work
         rdf:about="">
        <cc:license
           rdf:resource="http://creativecommons.org/licenses/by-nd/4.0/" />
      </cc:Work>
    </rdf:RDF>
  </metadata>
</svg>
