<?xml version="1.0" encoding="UTF-8" standalone="no"?>
<svg
   id="Laag_3"
   version="1.1"
   viewBox="0 0 728.87531 126.66279"
   sodipodi:docname="logo_copy_naast.svg"
   inkscape:version="1.1.2 (0a00cf5339, 2022-02-04)"
   width="728.87531"
   height="126.66279"
   xmlns:inkscape="http://www.inkscape.org/namespaces/inkscape"
   xmlns:sodipodi="http://sodipodi.sourceforge.net/DTD/sodipodi-0.dtd"
   xmlns="http://www.w3.org/2000/svg"
   xmlns:svg="http://www.w3.org/2000/svg">
  <sodipodi:namedview
     id="namedview29"
     pagecolor="#ffffff"
     bordercolor="#666666"
     borderopacity="1.0"
     inkscape:pageshadow="2"
     inkscape:pageopacity="0.0"
     inkscape:pagecheckerboard="0"
     showgrid="false"
     inkscape:zoom="0.67826631"
     inkscape:cx="116.47342"
     inkscape:cy="309.6129"
     inkscape:window-width="1719"
     inkscape:window-height="1384"
     inkscape:window-x="1920"
     inkscape:window-y="0"
     inkscape:window-maximized="0"
     inkscape:current-layer="Laag_3"
     fit-margin-top="0"
     fit-margin-left="0"
     fit-margin-right="0"
     fit-margin-bottom="0" />
     <rect width="100%" height="100%" fill="white" />
  <!-- Generator: Adobe Illustrator 29.7.1, SVG Export Plug-In . SVG Version: 2.1.1 Build 8)  -->
  <defs
     id="defs6">
    <style
       id="style4">
      .st0 {
        fill: #164273;
      }

      .st1 {
        fill: #fff;
      }

      .st2 {
        fill: #164273;
      }
    </style>
  </defs>
  <g
     id="g20"
     transform="translate(173.17528,-346.46861)">
    <path
       class="st0"
       d="M 63.6,379.6 H 39.4 v -12.5 h 63.3 v 12.5 H 78.5 v 71.3 H 63.6 Z"
       id="path8" />
    <path
       class="st0"
       d="m 128.2,419.5 c 0,-21 14.2,-33.1 29.9,-33.1 15.7,0 29.9,12.1 29.9,33.1 0,21 -14.3,33 -29.9,33 -15.6,0 -29.9,-12.1 -29.9,-33 z m 44.7,0 c 0,-12.6 -5.5,-21 -14.8,-21 -9.3,0 -14.8,8.4 -14.8,21 0,12.6 5.5,20.9 14.8,20.9 9.3,0 14.8,-8.3 14.8,-20.9 z"
       id="path10" />
    <path
       class="st0"
       d="m 228,427.4 v -39.5 h 14.8 v 37.6 c 0,10.4 3,14.3 9.8,14.3 6.8,0 9.2,-2.6 13.9,-8.7 V 388 h 14.8 v 62.9 h -12.1 l -1.1,-9.3 h -0.4 c -5.5,6.6 -11.6,10.8 -20.2,10.8 -13.5,0 -19.4,-9.1 -19.4,-25 z"
       id="path12" />
    <path
       class="st0"
       d="m 321.8,419.5 c 0,-21 14.8,-33.1 31.6,-33.1 16.8,0 13.8,3.1 18.4,7.1 l -7.2,9.6 c -3.3,-2.9 -6.5,-4.6 -10.5,-4.6 -10.2,0 -17.2,8.4 -17.2,21 0,12.6 6.9,20.9 16.7,20.9 9.8,0 9.4,-2.4 13,-5.4 l 6,9.7 c -5.9,5.2 -13.4,7.7 -20.6,7.7 -17.2,0 -30.3,-12.1 -30.3,-33 z"
       id="path14" />
    <path
       class="st0"
       d="m 406.5,434 c 0,-13.5 11.2,-20.5 37,-23.3 -0.2,-6.8 -2.9,-12.4 -11.4,-12.4 -8.5,0 -12.1,2.8 -17.7,6.2 l -5.4,-9.8 c 6.9,-4.4 15.8,-8.3 25.8,-8.3 15.7,0 23.5,9.7 23.5,27.2 v 37.3 h -12.1 l -1.1,-7 h -0.4 c -5.6,4.8 -12.1,8.5 -19.5,8.5 -11,0 -18.6,-7.5 -18.6,-18.5 z m 37,0.1 V 420 c -17.1,2.2 -22.8,6.6 -22.8,13 0,6.4 3.8,8 9.1,8 5.3,0 9,-2.5 13.7,-6.8 z"
       id="path16" />
    <path
       class="st0"
       d="m 502,388 h 12.1 l 1.1,8.5 h 0.4 c 5.6,-5.5 12,-10 20.7,-10 13.5,0 19.4,9.1 19.4,25 V 451 h -14.8 v -37.6 c 0,-10.4 -3,-14.3 -9.8,-14.3 -6.8,0 -9.2,2.7 -14.4,7.8 v 44 H 501.9 V 388 Z"
       id="path18" />
  </g>
  <path
     class="st2"
     d="m 130.50042,11.549951 c 0.31257,-0.04 0.62514,-0.08 0.93771,-0.12003 5.31372,-0.3601 10.393,3.88111 11.60422,9.16262 1.21121,5.2815 -1.21122,11.12316 -5.47001,14.36409 -7.89242,6.00171 -21.52834,-1.08031 -19.57477,-11.64332 0.85957,-4.64132 4.376,-8.48242 8.55664,-10.523 1.25028,-0.60017 2.57871,-1.08031 3.94621,-1.28037 z"
     id="path22"
     style="stroke-width:0.395386" />
  <path
     class="st1"
     d="m 131.08649,18.151841 c 5.00115,0 5.04021,6.16176 0.89864,7.80223 -5.93885,0.20005 -6.32956,-6.2818 -0.89864,-7.80223 z"
     id="path24"
     style="stroke-width:0.395386" />
  <path
     class="st0"
     d="m 180.2774,53.441901 -0.35164,-1.0403 c 0.8205,-20.44583 -4.376,-35.17002 -15.51135,-43.8124902 -18.16821,-14.08402 -45.83077,-7.08202 -52.66827,-5.04144 l -1.87543,-0.3601 C 109.2065,3.0675408 93.773287,0.14670076 74.393867,0.26674076 48.137877,0.42678076 28.406817,6.0283808 15.786747,16.831461 5.1983974,25.874041 -0.11531259,36.277011 0.00189741,52.081521 l 1.71913999,4.76136 3.24293,-4.72135 v 0 c 0,0 0,0.04 0,0.12003 0,0 0,-0.04 0,-0.12003 l 0.66421,-0.16005 c 12.8154296,-3.24092 48.2922696,-4.88139 106.0788926,1.28036 h 0.0781 c -0.31257,0.24007 -0.62514,0.44013 -1.01586,0.72021 -4.96206,3.52101 -14.534563,11.12317 -22.544203,22.72649 -9.84599,14.20404 -14.45643,29.968539 -13.79221,46.813349 l 0.11722,2.56073 4.96206,-0.20006 -0.11721,-2.56073 c -1.25029,-30.208619 16.05835,-50.214319 28.014203,-60.337209 4.10251,17.1649 13.51872,25.44726 20.82507,29.40839 8.08778,4.36124 15.31599,4.44126 15.78485,4.44126 h 0.15628 c 10.90093,-0.68019 19.57478,-4.68133 25.709,-11.88338 4.88393,-5.72163 7.38449,-12.48356 8.67385,-18.36524 7.81428,33.3295 0.46886,55.695889 0.35164,56.015969 l -0.82049,2.40069 4.68856,1.68048 0.8205,-2.40069 c 0.39072,-1.16032 9.76785,-29.368369 -3.47736,-70.700159 z M 108.26879,8.0689608 105.18214,25.393901 h -1.75821 c -29.381703,0.16005 -50.363053,2.28065 -65.366473,5.28151 1.87542,-2.76079 2.30521,-6.3218 1.52378,-9.4827 -0.31257,-1.16033 -0.74236,-2.32067 -1.56286,-3.24093 -1.01585,-1.16033 -2.4615,-1.84052 -3.90713,-2.36067 -1.68008,-0.60017 -3.63365,-1.00029 -5.58722,-1.12032 C 56.928947,-0.09336924 101.93922,6.9886508 108.26879,8.0689608 Z M 10.512107,45.759721 c 8.90829,-6.28179 32.19484,-14.92426 92.950893,-15.24436 h 2.10986 c 0,0 5.82164,17.48499 5.82164,17.48499 -50.792843,-5.36153 -84.198903,-4.80137 -100.882393,-2.24063 z m 155.777733,35.69018 c -5.23557,6.12174 -12.69822,9.52271 -22.19256,10.12288 -0.66422,0 -6.83751,-0.24007 -13.59686,-3.96113 -9.49435,-5.20148 -15.70671,-14.48413 -18.4417,-27.60788 l -0.11722,-0.64018 c 0.62514,-0.48013 1.25028,-0.92026 1.79728,-1.32037 2.07079,-1.48043 3.39922,-2.24064 3.39922,-2.24064 l 1.13307,-3.04087 -8.40036,-25.28721 3.39922,-19.0854502 c 6.25143,-1.80051 32.15577,-8.24235004 48.21412,4.2412102 9.80693,7.60217 14.33921,21.00599 13.51871,39.89138 l -0.19536,0.08 0.19536,0.64018 c 0.0781,2.4407 0.2735,17.72506 -8.67386,28.20806 z"
     id="path26"
     style="stroke-width:0.395386" />
</svg>
