<svg id="prefix__Layer_1" data-name="Layer 1" xmlns="http://www.w3.org/2000/svg" viewBox="0 0 245.96 245.96"><defs><style>.prefix__cls-1,.prefix__cls-2{opacity:.7}.prefix__cls-1,.prefix__cls-3{fill:#fff;stroke-width:0}</style></defs><path class="prefix__cls-1" d="M122.98 0a65.77 65.77 0 0 0-65.7 65.69 65.2 65.2 0 0 0 19.24 46.45 66 66 0 0 0 19.33 13.4 27.3 27.3 0 0 1 3-15.25 51 51 0 0 1-11.72-8.76 50.4 50.4 0 0 1-14.85-35.85 50.5 50.5 0 0 1 14.86-35.83 50.5 50.5 0 0 1 35.83-14.86 50.4 50.4 0 0 1 35.85 14.85 50.4 50.4 0 0 1 14.85 35.85 50.7 50.7 0 0 1-26.57 44.58 27.3 27.3 0 0 1 3.02 15.22 66 66 0 0 0 19.29-13.37 65.5 65.5 0 0 0 19.26-46.43 65.2 65.2 0 0 0-19.24-46.45A65.3 65.3 0 0 0 122.98 0"/><path class="prefix__cls-1" d="M117.03 36.02a65.8 65.8 0 0 0-15.02 69.56 27 27 0 0 1 12.9-8.63 50.8 50.8 0 0 1 12.73-50.33 50.74 50.74 0 0 1 71.69 0 50.74 50.74 0 0 1 0 71.69 50.7 50.7 0 0 1-50.32 12.73 27.3 27.3 0 0 1-8.62 12.9 65.8 65.8 0 0 0 69.55-15.02c25.61-25.61 25.61-67.29 0-92.91s-67.29-25.62-92.91 0Z"/><path class="prefix__cls-1" d="M36.02 36.02a65.8 65.8 0 0 0 0 92.91 65.8 65.8 0 0 0 69.56 15.02 27 27 0 0 1-8.63-12.9 50.8 50.8 0 0 1-50.33-12.73c-19.77-19.77-19.77-51.93 0-71.69s51.93-19.77 71.69 0a50.7 50.7 0 0 1 12.73 50.32 27.3 27.3 0 0 1 12.9 8.62 65.8 65.8 0 0 0-15.02-69.55 65.77 65.77 0 0 0-92.91 0Z"/><path class="prefix__cls-1" d="M110.3 147.11a51 51 0 0 1-8.76 11.72 50.4 50.4 0 0 1-35.85 14.85A50.75 50.75 0 0 1 15 122.99a50.4 50.4 0 0 1 14.85-35.85A50.4 50.4 0 0 1 65.7 72.29a50.7 50.7 0 0 1 44.58 26.57 27.3 27.3 0 0 1 15.22-3.02 65.8 65.8 0 0 0-59.8-38.55 65.3 65.3 0 0 0-46.45 19.24A65.2 65.2 0 0 0 0 122.99a65.8 65.8 0 0 0 65.7 65.7 65.3 65.3 0 0 0 46.45-19.24 66 66 0 0 0 13.4-19.33 27.3 27.3 0 0 1-15.25-3Z"/><path class="prefix__cls-1" d="M142.25 142.25a27 27 0 0 1-11.2 6.76 50.8 50.8 0 0 1-12.73 50.33 50.74 50.74 0 0 1-71.69 0 50.74 50.74 0 0 1 0-71.69 50.7 50.7 0 0 1 50.32-12.73 27.3 27.3 0 0 1 8.62-12.9 65.8 65.8 0 0 0-69.55 15.02c-25.61 25.61-25.61 67.29 0 92.91s67.29 25.61 92.91 0a65.8 65.8 0 0 0 15.02-69.56q-.8.97-1.7 1.87Z"/><path class="prefix__cls-1" d="M147.1 135.69a50.7 50.7 0 0 1 26.58 44.58 50.4 50.4 0 0 1-14.85 35.85 50.4 50.4 0 0 1-35.85 14.85 50.75 50.75 0 0 1-50.69-50.69 50.4 50.4 0 0 1 14.85-35.85 51 51 0 0 1 11.71-8.75 27.3 27.3 0 0 1-3-15.25 66 66 0 0 0-19.31 13.39 65.3 65.3 0 0 0-19.24 46.45 65.8 65.8 0 0 0 65.7 65.7 65.3 65.3 0 0 0 46.45-19.24 65.3 65.3 0 0 0 19.24-46.45 65.8 65.8 0 0 0-38.56-59.81c.48 5.19-.53 10.5-3.02 15.22Z"/><path class="prefix__cls-1" d="M140.39 102.01a27 27 0 0 1 8.63 12.9 50.8 50.8 0 0 1 50.33 12.73 50.74 50.74 0 0 1 0 71.69 50.74 50.74 0 0 1-71.69 0 50.7 50.7 0 0 1-12.73-50.32 27.3 27.3 0 0 1-12.9-8.62 65.8 65.8 0 0 0 15.02 69.55 65.8 65.8 0 0 0 92.91 0 65.8 65.8 0 0 0 0-92.91 65.8 65.8 0 0 0-69.56-15.02Z"/><path class="prefix__cls-1" d="M180.27 57.28a65.8 65.8 0 0 0-59.81 38.56c5.19-.48 10.5.53 15.22 3.02a51 51 0 0 1 8.75-11.72 50.5 50.5 0 0 1 35.83-14.86 50.75 50.75 0 0 1 50.69 50.69 50.5 50.5 0 0 1-14.86 35.83 50.5 50.5 0 0 1-35.83 14.86 50.7 50.7 0 0 1-44.58-26.57 27.3 27.3 0 0 1-15.22 3.02 65.8 65.8 0 0 0 59.8 38.55 65.5 65.5 0 0 0 46.43-19.26 65.5 65.5 0 0 0 19.26-46.43 65.8 65.8 0 0 0-65.7-65.7Z"/><path class="prefix__cls-1" d="M122.98 44.38a43.55 43.55 0 0 0-43.5 43.5 43.2 43.2 0 0 0 16.28 33.93 27 27 0 0 1 5.58-15.39 28.3 28.3 0 0 1-6.86-18.54 28.53 28.53 0 0 1 28.5-28.5c7.61 0 14.77 2.97 20.15 8.35a28.3 28.3 0 0 1 8.35 20.15 28.3 28.3 0 0 1-6.86 18.53 27 27 0 0 1 5.59 15.39q1.83-1.47 3.53-3.16a43.2 43.2 0 0 0 12.74-30.76 43.3 43.3 0 0 0-12.74-30.76 43.2 43.2 0 0 0-30.76-12.74"/><path class="prefix__cls-1" d="M117.03 67.4a43.5 43.5 0 0 0-12.46 35.49 27 27 0 0 1 14.82-6.92 28.4 28.4 0 0 1 8.24-17.96 28.54 28.54 0 0 1 40.31 0 28.54 28.54 0 0 1 0 40.31c-5 5-11.4 7.74-17.95 8.24a27 27 0 0 1-6.91 14.82 43.4 43.4 0 0 0 35.47-12.46 43.55 43.55 0 0 0 0-61.52 43.55 43.55 0 0 0-61.52 0"/><path class="prefix__cls-1" d="M158.08 79.47a43.4 43.4 0 0 0-33.9 16.28c5.44.24 10.83 2.1 15.37 5.59a28.4 28.4 0 0 1 18.53-6.87c7.61 0 14.77 2.97 20.15 8.35s8.35 12.54 8.35 20.15-2.97 14.77-8.35 20.15-12.54 8.35-20.15 8.35a28.3 28.3 0 0 1-18.53-6.86 27 27 0 0 1-15.39 5.59q1.47 1.83 3.16 3.53a43.2 43.2 0 0 0 30.76 12.74 43.2 43.2 0 0 0 30.76-12.74 43.2 43.2 0 0 0 12.74-30.76 43.3 43.3 0 0 0-12.74-30.76 43.2 43.2 0 0 0-30.76-12.74"/><path class="prefix__cls-1" d="M143.08 104.58A27 27 0 0 1 150 119.4c6.55.5 12.96 3.24 17.96 8.24a28.54 28.54 0 0 1 0 40.31 28.54 28.54 0 0 1-40.31 0c-5-5-7.74-11.4-8.24-17.95a27 27 0 0 1-14.82-6.91 43.4 43.4 0 0 0 12.46 35.47 43.55 43.55 0 0 0 61.52 0 43.55 43.55 0 0 0 0-61.52 43.5 43.5 0 0 0-35.49-12.46"/><path class="prefix__cls-1" d="M144.63 139.54a28.3 28.3 0 0 1 6.86 18.54 28.53 28.53 0 0 1-28.5 28.5 28.3 28.3 0 0 1-20.15-8.35 28.3 28.3 0 0 1-8.35-20.15c0-6.87 2.42-13.37 6.86-18.53a27 27 0 0 1-5.59-15.39q-1.83 1.47-3.53 3.16a43.2 43.2 0 0 0-12.74 30.76 43.3 43.3 0 0 0 12.74 30.76 43.2 43.2 0 0 0 30.76 12.74 43.4 43.4 0 0 0 30.75-12.76 43.4 43.4 0 0 0 12.76-30.75 43.2 43.2 0 0 0-16.28-33.93 27 27 0 0 1-5.58 15.39Z"/><path class="prefix__cls-1" d="M126.57 150a28.4 28.4 0 0 1-8.24 17.96 28.54 28.54 0 0 1-40.31 0 28.54 28.54 0 0 1 0-40.31c5-5 11.4-7.74 17.95-8.24a27 27 0 0 1 6.91-14.82 43.4 43.4 0 0 0-35.47 12.46 43.55 43.55 0 0 0 0 61.52 43.55 43.55 0 0 0 61.52 0 43.5 43.5 0 0 0 12.46-35.49 27 27 0 0 1-14.82 6.92"/><path class="prefix__cls-1" d="M106.42 144.62a28.4 28.4 0 0 1-18.53 6.87 28.53 28.53 0 0 1-28.5-28.5 28.53 28.53 0 0 1 28.5-28.5c7.07 0 13.54 2.59 18.52 6.87a27 27 0 0 1 15.37-5.6 43.4 43.4 0 0 0-33.89-16.27 43.55 43.55 0 0 0-43.5 43.5 43.55 43.55 0 0 0 43.5 43.5 43.4 43.4 0 0 0 33.9-16.29 27 27 0 0 1-15.37-5.59Z"/><path class="prefix__cls-1" d="M67.4 67.41a43.55 43.55 0 0 0 0 61.52 43.5 43.5 0 0 0 35.49 12.46 27 27 0 0 1-6.92-14.82 28.4 28.4 0 0 1-17.96-8.24 28.54 28.54 0 0 1 0-40.31 28.54 28.54 0 0 1 40.31 0c5 5 7.74 11.4 8.24 17.95a27 27 0 0 1 14.82 6.91 43.4 43.4 0 0 0-12.46-35.47 43.55 43.55 0 0 0-61.52 0"/><path class="prefix__cls-1" d="M95.73 122.98a27.25 27.25 0 0 1 29.29-27.17 21.3 21.3 0 0 0-26.16 3.06 21.2 21.2 0 0 0-3.05 26.17q-.08-1.02-.09-2.06Z"/><g class="prefix__cls-2"><path class="prefix__cls-3" d="M103.71 142.25a27.26 27.26 0 0 1 1.5-39.92 21.3 21.3 0 0 0-16.33 20.66 21.2 21.2 0 0 0 16.35 20.66q-.78-.67-1.52-1.4"/></g><g class="prefix__cls-2"><path class="prefix__cls-3" d="M122.98 150.24a27.25 27.25 0 0 1-27.17-29.29 21.3 21.3 0 0 0 3.06 26.16 21.2 21.2 0 0 0 26.17 3.05q-1.02.08-2.06.09Z"/></g><g class="prefix__cls-2"><path class="prefix__cls-3" d="M142.25 142.25a27.26 27.26 0 0 1-39.92-1.5 21.3 21.3 0 0 0 20.66 16.33 21.2 21.2 0 0 0 20.66-16.35q-.67.78-1.4 1.52"/></g><g class="prefix__cls-2"><path class="prefix__cls-3" d="M150.24 122.98a27.25 27.25 0 0 1-29.29 27.17 21.3 21.3 0 0 0 26.16-3.06 21.2 21.2 0 0 0 3.05-26.17q.08 1.02.09 2.06Z"/></g><g class="prefix__cls-2"><path class="prefix__cls-3" d="M142.25 103.71a27.26 27.26 0 0 1-1.5 39.92 21.3 21.3 0 0 0 16.33-20.66 21.2 21.2 0 0 0-16.35-20.66q.78.67 1.52 1.4"/></g><g class="prefix__cls-2"><path class="prefix__cls-3" d="M122.98 95.73a27.25 27.25 0 0 1 27.17 29.29 21.3 21.3 0 0 0-3.06-26.16 21.2 21.2 0 0 0-26.17-3.05q1.02-.08 2.06-.09Z"/></g><g class="prefix__cls-2"><path class="prefix__cls-3" d="M103.71 103.71a27.26 27.26 0 0 1 39.92 1.5 21.3 21.3 0 0 0-20.66-16.33 21.2 21.2 0 0 0-20.66 16.35q.67-.78 1.4-1.52"/></g></svg>
