<?xml version="1.0" encoding="utf-8" standalone="no"?>
<!DOCTYPE svg PUBLIC "-//W3C//DTD SVG 1.1//EN"
  "http://www.w3.org/Graphics/SVG/1.1/DTD/svg11.dtd">
<svg xmlns:xlink="http://www.w3.org/1999/xlink" width="720pt" height="288pt" viewBox="0 0 720 288" xmlns="http://www.w3.org/2000/svg" version="1.1">
 <metadata>
  <rdf:RDF xmlns:dc="http://purl.org/dc/elements/1.1/" xmlns:cc="http://creativecommons.org/ns#" xmlns:rdf="http://www.w3.org/1999/02/22-rdf-syntax-ns#">
   <cc:Work>
    <dc:type rdf:resource="http://purl.org/dc/dcmitype/StillImage"/>
    <dc:date>2025-05-14T11:20:05.871191</dc:date>
    <dc:format>image/svg+xml</dc:format>
    <dc:creator>
     <cc:Agent>
      <dc:title>Matplotlib v3.10.1, https://matplotlib.org/</dc:title>
     </cc:Agent>
    </dc:creator>
   </cc:Work>
  </rdf:RDF>
 </metadata>
 <defs>
  <style type="text/css">*{stroke-linejoin: round; stroke-linecap: butt}</style>
 </defs>
 <g id="figure_1">
  <g id="patch_1">
   <path d="M 0 288 
L 720 288 
L 720 0 
L 0 0 
z
" style="fill: #ffffff"/>
  </g>
  <g id="axes_1">
   <g id="patch_2">
    <path d="M 273.881626 268.595344 
L 267.612678 270.162581 
L 267.612678 268.752067 
L 173.578456 268.752067 
L 173.578456 268.43862 
L 267.612678 268.43862 
L 267.612678 267.028107 
z
" clip-path="url(#pd962a71b3d)" style="stroke: #000000; stroke-linejoin: miter"/>
   </g>
   <g id="patch_3">
    <path d="M 173.578456 168.292174 
L 175.145694 174.561122 
L 173.73518 174.561122 
L 173.73518 268.595344 
L 173.421733 268.595344 
L 173.421733 174.561122 
L 172.011219 174.561122 
z
" clip-path="url(#pd962a71b3d)" style="stroke: #000000; stroke-linejoin: miter"/>
   </g>
   <g id="patch_4">
    <path d="M 210.530315 250.119415 
L 205.624087 254.324753 
L 204.993286 253.063151 
L 173.648545 268.735522 
L 173.508368 268.455166 
L 204.853108 252.782795 
L 204.222307 251.521194 
z
" clip-path="url(#pd962a71b3d)" style="stroke: #000000; stroke-linejoin: miter"/>
   </g>
   <g id="patch_5">
    <path d="M 331.401062 143.216381 
Q 345.971038 143.216381 360.541015 143.216381 
" clip-path="url(#pd962a71b3d)" style="fill: none; stroke: #0000ff; stroke-width: 2; stroke-linecap: round"/>
    <path d="M 335.401062 145.216381 
L 331.401062 143.216381 
L 335.401062 141.216381 
" clip-path="url(#pd962a71b3d)" style="fill: none; stroke: #0000ff; stroke-width: 2; stroke-linecap: round"/>
    <path d="M 356.541015 141.216381 
L 360.541015 143.216381 
L 356.541015 145.216381 
" clip-path="url(#pd962a71b3d)" style="fill: none; stroke: #0000ff; stroke-width: 2; stroke-linecap: round"/>
   </g>
   <g id="patch_6">
    <path d="M 470.636467 192.517792 
Q 472.643655 184.175689 471.579967 173.411894 
" clip-path="url(#pd962a71b3d)" style="fill: none; stroke: #0000ff; stroke-width: 2; stroke-linecap: round"/>
    <path d="M 473.516705 189.096648 
L 470.636467 192.517792 
L 469.627694 188.160915 
" clip-path="url(#pd962a71b3d)" style="fill: none; stroke: #0000ff; stroke-width: 2; stroke-linecap: round"/>
   </g>
   <g id="line2d_1">
    <defs>
     <path id="m3c839bde35" d="M 0 3 
C 0.795609 3 1.55874 2.683901 2.12132 2.12132 
C 2.683901 1.55874 3 0.795609 3 0 
C 3 -0.795609 2.683901 -1.55874 2.12132 -2.12132 
C 1.55874 -2.683901 0.795609 -3 0 -3 
C -0.795609 -3 -1.55874 -2.683901 -2.12132 -2.12132 
C -2.683901 -1.55874 -3 -0.795609 -3 0 
C -3 0.795609 -2.683901 1.55874 -2.12132 2.12132 
C -1.55874 2.683901 -0.795609 3 0 3 
z
" style="stroke: #000000"/>
    </defs>
    <g clip-path="url(#pd962a71b3d)">
     <use xlink:href="#m3c839bde35" x="173.578456" y="268.595344" style="stroke: #000000"/>
    </g>
   </g>
   <g id="line2d_2">
    <g clip-path="url(#pd962a71b3d)">
     <use xlink:href="#m3c839bde35" x="330.302159" y="174.561122" style="stroke: #000000"/>
    </g>
   </g>
   <g id="line2d_3">
    <path d="M 547.580029 205.097535 
L 547.988781 202.189116 
L 543.002732 200.234922 
L 537.356981 198.04241 
L 531.074253 195.605279 
L 524.195035 192.910226 
L 516.751801 189.949154 
L 508.778744 186.749026 
L 500.314597 183.324782 
L 491.400426 179.704032 
L 482.07226 175.920961 
L 472.376442 172.003923 
L 462.355788 167.990588 
L 452.054419 163.92514 
L 441.520428 159.84599 
L 430.799301 155.794351 
L 419.942673 151.805965 
L 408.997766 147.925452 
L 398.013607 144.191357 
L 387.038777 140.66115 
L 376.118316 137.394972 
L 365.303483 134.43801 
L 354.637958 131.837552 
L 344.168529 129.641321 
L 333.944658 127.884756 
L 324.006049 126.620917 
L 314.395463 125.881136 
L 305.164542 125.685332 
L 296.343631 126.063091 
L 287.981595 127.002289 
L 280.124205 128.474542 
L 272.807863 130.443815 
L 266.077667 132.859474 
L 259.967611 135.659823 
L 254.520689 138.784435 
L 249.764433 142.177039 
L 245.729423 145.775462 
L 242.435932 149.548051 
L 239.907806 153.415227 
L 238.152619 157.41319 
L 237.13116 161.84346 
L 237.026262 165.427639 
L 237.65291 169.459646 
L 239.048571 173.650374 
L 241.203839 177.976663 
L 244.107694 182.426833 
L 247.750243 186.958664 
L 252.118793 191.507064 
L 257.204135 195.997939 
L 262.983339 200.348935 
L 269.442045 204.482065 
L 276.553037 208.320705 
L 284.293002 211.807767 
L 292.628821 214.881622 
L 301.517734 217.510939 
L 310.930226 219.660232 
L 320.815614 221.302755 
L 331.130659 222.41059 
L 341.830899 222.964511 
L 352.865042 222.942115 
L 364.1798 222.341928 
L 375.723204 221.175638 
L 387.433525 219.472551 
L 399.247403 217.302897 
L 411.093569 214.770608 
L 422.897698 212.017172 
L 434.582031 209.215247 
L 446.064003 206.54916 
L 457.268814 204.186288 
L 468.124421 202.258625 
L 478.571871 200.827523 
L 488.551772 199.973264 
L 498.02044 199.648557 
L 506.943069 199.81053 
L 515.278637 200.431259 
L 522.993645 201.458558 
L 530.063498 202.797177 
L 536.468807 204.362093 
L 542.177813 206.104529 
L 547.191344 207.863172 
L 547.580029 205.097535 
" clip-path="url(#pd962a71b3d)" style="fill: none; stroke: #1f77b4; stroke-width: 1.5; stroke-linecap: square"/>
   </g>
   <g id="line2d_4">
    <path d="M 237.183072 161.474088 
L 271.671623 166.321138 
L 306.160174 171.168187 
L 340.648724 176.015237 
L 375.137275 180.862287 
L 409.625826 185.709336 
L 444.114377 190.556386 
L 478.602927 195.403436 
L 513.091478 200.250485 
L 547.580029 205.097535 
" clip-path="url(#pd962a71b3d)" style="fill: none; stroke-dasharray: 3.7,1.6; stroke-dashoffset: 0; stroke: #000000"/>
   </g>
   <g id="line2d_5">
    <path d="M 361.6469 133.509368 
L 361.6469 135.325973 
L 361.6469 137.142578 
L 361.6469 138.959183 
L 361.6469 140.775788 
L 361.6469 142.592393 
L 361.6469 144.408998 
L 361.6469 146.225603 
L 361.6469 148.042208 
L 361.6469 149.858813 
L 361.6469 151.675418 
L 361.6469 153.492023 
L 361.6469 155.308628 
L 361.6469 157.125233 
L 361.6469 158.941838 
L 361.6469 160.758443 
L 361.6469 162.575048 
L 361.6469 164.391653 
L 361.6469 166.208258 
L 361.6469 168.024863 
L 361.6469 169.841468 
L 361.6469 171.658073 
L 361.6469 173.474678 
L 361.6469 175.291283 
L 361.6469 177.107888 
L 361.6469 178.924493 
L 361.6469 180.741099 
L 361.6469 182.557704 
L 361.6469 184.374309 
L 361.6469 186.190914 
L 361.6469 188.007519 
L 361.6469 189.824124 
L 361.6469 191.640729 
L 361.6469 193.457334 
L 361.6469 195.273939 
L 361.6469 197.090544 
L 361.6469 198.907149 
L 361.6469 200.723754 
L 361.6469 202.540359 
L 361.6469 204.356964 
L 361.6469 206.173569 
L 361.6469 207.990174 
L 361.6469 209.806779 
L 361.6469 211.623384 
L 361.6469 213.439989 
L 361.6469 215.256594 
L 361.6469 217.073199 
L 361.6469 218.889804 
L 361.6469 220.706409 
L 361.6469 222.523014 
" clip-path="url(#pd962a71b3d)" style="fill: none; stroke: #ff7f0e; stroke-width: 4; stroke-linecap: square"/>
   </g>
   <g id="line2d_6">
    <defs>
     <path id="m659b392769" d="M 0 2.5 
C 0.663008 2.5 1.29895 2.236584 1.767767 1.767767 
C 2.236584 1.29895 2.5 0.663008 2.5 0 
C 2.5 -0.663008 2.236584 -1.29895 1.767767 -1.767767 
C 1.29895 -2.236584 0.663008 -2.5 0 -2.5 
C -0.663008 -2.5 -1.29895 -2.236584 -1.767767 -1.767767 
C -2.236584 -1.29895 -2.5 -0.663008 -2.5 0 
C -2.5 0.663008 -2.236584 1.29895 -1.767767 1.767767 
C -1.29895 2.236584 -0.663008 2.5 0 2.5 
z
" style="stroke: #008000"/>
    </defs>
    <g clip-path="url(#pd962a71b3d)">
     <use xlink:href="#m659b392769" x="361.6469" y="133.509368" style="fill: #008000; stroke: #008000"/>
     <use xlink:href="#m659b392769" x="361.6469" y="222.523014" style="fill: #008000; stroke: #008000"/>
    </g>
   </g>
   <g id="line2d_7">
    <path d="M 330.302159 237.250603 
L 330.302159 182.397307 
L 330.302159 127.544011 
L 330.302159 72.690715 
L 330.302159 17.837419 
" clip-path="url(#pd962a71b3d)" style="fill: none; stroke-dasharray: 3.7,1.6; stroke-dashoffset: 0; stroke: #000000"/>
   </g>
   <g id="line2d_8">
    <path d="M 361.6469 237.250603 
L 361.6469 182.397307 
L 361.6469 127.544011 
L 361.6469 72.690715 
L 361.6469 17.837419 
" clip-path="url(#pd962a71b3d)" style="fill: none; stroke-dasharray: 3.7,1.6; stroke-dashoffset: 0; stroke: #000000"/>
   </g>
   <g id="line2d_9">
    <path d="M 204.923197 174.561122 
L 275.448863 174.561122 
L 345.974529 174.561122 
L 416.500196 174.561122 
L 487.025862 174.561122 
" clip-path="url(#pd962a71b3d)" style="fill: none; stroke-dasharray: 3.7,1.6; stroke-dashoffset: 0; stroke: #000000"/>
   </g>
   <g id="text_1">
    <!-- x -->
    <g transform="translate(173.578456 168.292174) scale(0.12 -0.12)">
     <defs>
      <path id="DejaVuSans-78" d="M 3513 3500 
L 2247 1797 
L 3578 0 
L 2900 0 
L 1881 1375 
L 863 0 
L 184 0 
L 1544 1831 
L 300 3500 
L 978 3500 
L 1906 2253 
L 2834 3500 
L 3513 3500 
z
" transform="scale(0.015625)"/>
     </defs>
     <use xlink:href="#DejaVuSans-78"/>
    </g>
   </g>
   <g id="text_2">
    <!-- y -->
    <g transform="translate(273.881626 268.595344) scale(0.12 -0.12)">
     <defs>
      <path id="DejaVuSans-79" d="M 2059 -325 
Q 1816 -950 1584 -1140 
Q 1353 -1331 966 -1331 
L 506 -1331 
L 506 -850 
L 844 -850 
Q 1081 -850 1212 -737 
Q 1344 -625 1503 -206 
L 1606 56 
L 191 3500 
L 800 3500 
L 1894 763 
L 2988 3500 
L 3597 3500 
L 2059 -325 
z
" transform="scale(0.015625)"/>
     </defs>
     <use xlink:href="#DejaVuSans-79"/>
    </g>
   </g>
   <g id="text_3">
    <!-- z -->
    <g transform="translate(208.057671 249.788499) scale(0.12 -0.12)">
     <defs>
      <path id="DejaVuSans-7a" d="M 353 3500 
L 3084 3500 
L 3084 2975 
L 922 459 
L 3084 459 
L 3084 0 
L 275 0 
L 275 525 
L 2438 3041 
L 353 3041 
L 353 3500 
z
" transform="scale(0.015625)"/>
     </defs>
     <use xlink:href="#DejaVuSans-7a"/>
    </g>
   </g>
   <g id="patch_7">
    <path d="M 134.705237 241.876967 
Q 153.180931 247.126921 170.581165 252.071279 
" style="fill: none; stroke: #000000; stroke-linecap: round"/>
    <path d="M 167.280156 249.054105 
L 170.581165 252.071279 
L 166.186821 252.901782 
" style="fill: none; stroke: #000000; stroke-linecap: round"/>
   </g>
   <g id="text_4">
    <!-- Reference system -->
    <g transform="translate(63.871865 237.250603) scale(0.1 -0.1)">
     <defs>
      <path id="DejaVuSans-52" d="M 2841 2188 
Q 3044 2119 3236 1894 
Q 3428 1669 3622 1275 
L 4263 0 
L 3584 0 
L 2988 1197 
Q 2756 1666 2539 1819 
Q 2322 1972 1947 1972 
L 1259 1972 
L 1259 0 
L 628 0 
L 628 4666 
L 2053 4666 
Q 2853 4666 3247 4331 
Q 3641 3997 3641 3322 
Q 3641 2881 3436 2590 
Q 3231 2300 2841 2188 
z
M 1259 4147 
L 1259 2491 
L 2053 2491 
Q 2509 2491 2742 2702 
Q 2975 2913 2975 3322 
Q 2975 3731 2742 3939 
Q 2509 4147 2053 4147 
L 1259 4147 
z
" transform="scale(0.015625)"/>
      <path id="DejaVuSans-65" d="M 3597 1894 
L 3597 1613 
L 953 1613 
Q 991 1019 1311 708 
Q 1631 397 2203 397 
Q 2534 397 2845 478 
Q 3156 559 3463 722 
L 3463 178 
Q 3153 47 2828 -22 
Q 2503 -91 2169 -91 
Q 1331 -91 842 396 
Q 353 884 353 1716 
Q 353 2575 817 3079 
Q 1281 3584 2069 3584 
Q 2775 3584 3186 3129 
Q 3597 2675 3597 1894 
z
M 3022 2063 
Q 3016 2534 2758 2815 
Q 2500 3097 2075 3097 
Q 1594 3097 1305 2825 
Q 1016 2553 972 2059 
L 3022 2063 
z
" transform="scale(0.015625)"/>
      <path id="DejaVuSans-66" d="M 2375 4863 
L 2375 4384 
L 1825 4384 
Q 1516 4384 1395 4259 
Q 1275 4134 1275 3809 
L 1275 3500 
L 2222 3500 
L 2222 3053 
L 1275 3053 
L 1275 0 
L 697 0 
L 697 3053 
L 147 3053 
L 147 3500 
L 697 3500 
L 697 3744 
Q 697 4328 969 4595 
Q 1241 4863 1831 4863 
L 2375 4863 
z
" transform="scale(0.015625)"/>
      <path id="DejaVuSans-72" d="M 2631 2963 
Q 2534 3019 2420 3045 
Q 2306 3072 2169 3072 
Q 1681 3072 1420 2755 
Q 1159 2438 1159 1844 
L 1159 0 
L 581 0 
L 581 3500 
L 1159 3500 
L 1159 2956 
Q 1341 3275 1631 3429 
Q 1922 3584 2338 3584 
Q 2397 3584 2469 3576 
Q 2541 3569 2628 3553 
L 2631 2963 
z
" transform="scale(0.015625)"/>
      <path id="DejaVuSans-6e" d="M 3513 2113 
L 3513 0 
L 2938 0 
L 2938 2094 
Q 2938 2591 2744 2837 
Q 2550 3084 2163 3084 
Q 1697 3084 1428 2787 
Q 1159 2491 1159 1978 
L 1159 0 
L 581 0 
L 581 3500 
L 1159 3500 
L 1159 2956 
Q 1366 3272 1645 3428 
Q 1925 3584 2291 3584 
Q 2894 3584 3203 3211 
Q 3513 2838 3513 2113 
z
" transform="scale(0.015625)"/>
      <path id="DejaVuSans-63" d="M 3122 3366 
L 3122 2828 
Q 2878 2963 2633 3030 
Q 2388 3097 2138 3097 
Q 1578 3097 1268 2742 
Q 959 2388 959 1747 
Q 959 1106 1268 751 
Q 1578 397 2138 397 
Q 2388 397 2633 464 
Q 2878 531 3122 666 
L 3122 134 
Q 2881 22 2623 -34 
Q 2366 -91 2075 -91 
Q 1284 -91 818 406 
Q 353 903 353 1747 
Q 353 2603 823 3093 
Q 1294 3584 2113 3584 
Q 2378 3584 2631 3529 
Q 2884 3475 3122 3366 
z
" transform="scale(0.015625)"/>
      <path id="DejaVuSans-20" transform="scale(0.015625)"/>
      <path id="DejaVuSans-73" d="M 2834 3397 
L 2834 2853 
Q 2591 2978 2328 3040 
Q 2066 3103 1784 3103 
Q 1356 3103 1142 2972 
Q 928 2841 928 2578 
Q 928 2378 1081 2264 
Q 1234 2150 1697 2047 
L 1894 2003 
Q 2506 1872 2764 1633 
Q 3022 1394 3022 966 
Q 3022 478 2636 193 
Q 2250 -91 1575 -91 
Q 1294 -91 989 -36 
Q 684 19 347 128 
L 347 722 
Q 666 556 975 473 
Q 1284 391 1588 391 
Q 1994 391 2212 530 
Q 2431 669 2431 922 
Q 2431 1156 2273 1281 
Q 2116 1406 1581 1522 
L 1381 1569 
Q 847 1681 609 1914 
Q 372 2147 372 2553 
Q 372 3047 722 3315 
Q 1072 3584 1716 3584 
Q 2034 3584 2315 3537 
Q 2597 3491 2834 3397 
z
" transform="scale(0.015625)"/>
      <path id="DejaVuSans-74" d="M 1172 4494 
L 1172 3500 
L 2356 3500 
L 2356 3053 
L 1172 3053 
L 1172 1153 
Q 1172 725 1289 603 
Q 1406 481 1766 481 
L 2356 481 
L 2356 0 
L 1766 0 
Q 1100 0 847 248 
Q 594 497 594 1153 
L 594 3053 
L 172 3053 
L 172 3500 
L 594 3500 
L 594 4494 
L 1172 4494 
z
" transform="scale(0.015625)"/>
      <path id="DejaVuSans-6d" d="M 3328 2828 
Q 3544 3216 3844 3400 
Q 4144 3584 4550 3584 
Q 5097 3584 5394 3201 
Q 5691 2819 5691 2113 
L 5691 0 
L 5113 0 
L 5113 2094 
Q 5113 2597 4934 2840 
Q 4756 3084 4391 3084 
Q 3944 3084 3684 2787 
Q 3425 2491 3425 1978 
L 3425 0 
L 2847 0 
L 2847 2094 
Q 2847 2600 2669 2842 
Q 2491 3084 2119 3084 
Q 1678 3084 1418 2786 
Q 1159 2488 1159 1978 
L 1159 0 
L 581 0 
L 581 3500 
L 1159 3500 
L 1159 2956 
Q 1356 3278 1631 3431 
Q 1906 3584 2284 3584 
Q 2666 3584 2933 3390 
Q 3200 3197 3328 2828 
z
" transform="scale(0.015625)"/>
     </defs>
     <use xlink:href="#DejaVuSans-52"/>
     <use xlink:href="#DejaVuSans-65" transform="translate(64.982422 0)"/>
     <use xlink:href="#DejaVuSans-66" transform="translate(126.505859 0)"/>
     <use xlink:href="#DejaVuSans-65" transform="translate(161.710938 0)"/>
     <use xlink:href="#DejaVuSans-72" transform="translate(223.234375 0)"/>
     <use xlink:href="#DejaVuSans-65" transform="translate(262.097656 0)"/>
     <use xlink:href="#DejaVuSans-6e" transform="translate(323.621094 0)"/>
     <use xlink:href="#DejaVuSans-63" transform="translate(387 0)"/>
     <use xlink:href="#DejaVuSans-65" transform="translate(441.980469 0)"/>
     <use xlink:href="#DejaVuSans-20" transform="translate(503.503906 0)"/>
     <use xlink:href="#DejaVuSans-73" transform="translate(535.291016 0)"/>
     <use xlink:href="#DejaVuSans-79" transform="translate(587.390625 0)"/>
     <use xlink:href="#DejaVuSans-73" transform="translate(646.570312 0)"/>
     <use xlink:href="#DejaVuSans-74" transform="translate(698.669922 0)"/>
     <use xlink:href="#DejaVuSans-65" transform="translate(737.878906 0)"/>
     <use xlink:href="#DejaVuSans-6d" transform="translate(799.402344 0)"/>
    </g>
   </g>
   <g id="patch_8">
    <path d="M 473.64765 23.369719 
Q 402.662804 98.23987 332.447195 172.29868 
" style="fill: none; stroke: #000000; stroke-linecap: round"/>
    <path d="M 336.650672 170.771992 
L 332.447195 172.29868 
L 333.747931 168.019885 
" style="fill: none; stroke: #000000; stroke-linecap: round"/>
   </g>
   <g id="text_5">
    <!-- Reference axis (x, y, z) -->
    <g transform="translate(424.336381 17.837419) scale(0.1 -0.1)">
     <defs>
      <path id="DejaVuSans-61" d="M 2194 1759 
Q 1497 1759 1228 1600 
Q 959 1441 959 1056 
Q 959 750 1161 570 
Q 1363 391 1709 391 
Q 2188 391 2477 730 
Q 2766 1069 2766 1631 
L 2766 1759 
L 2194 1759 
z
M 3341 1997 
L 3341 0 
L 2766 0 
L 2766 531 
Q 2569 213 2275 61 
Q 1981 -91 1556 -91 
Q 1019 -91 701 211 
Q 384 513 384 1019 
Q 384 1609 779 1909 
Q 1175 2209 1959 2209 
L 2766 2209 
L 2766 2266 
Q 2766 2663 2505 2880 
Q 2244 3097 1772 3097 
Q 1472 3097 1187 3025 
Q 903 2953 641 2809 
L 641 3341 
Q 956 3463 1253 3523 
Q 1550 3584 1831 3584 
Q 2591 3584 2966 3190 
Q 3341 2797 3341 1997 
z
" transform="scale(0.015625)"/>
      <path id="DejaVuSans-69" d="M 603 3500 
L 1178 3500 
L 1178 0 
L 603 0 
L 603 3500 
z
M 603 4863 
L 1178 4863 
L 1178 4134 
L 603 4134 
L 603 4863 
z
" transform="scale(0.015625)"/>
      <path id="DejaVuSans-28" d="M 1984 4856 
Q 1566 4138 1362 3434 
Q 1159 2731 1159 2009 
Q 1159 1288 1364 580 
Q 1569 -128 1984 -844 
L 1484 -844 
Q 1016 -109 783 600 
Q 550 1309 550 2009 
Q 550 2706 781 3412 
Q 1013 4119 1484 4856 
L 1984 4856 
z
" transform="scale(0.015625)"/>
      <path id="DejaVuSans-2c" d="M 750 794 
L 1409 794 
L 1409 256 
L 897 -744 
L 494 -744 
L 750 256 
L 750 794 
z
" transform="scale(0.015625)"/>
      <path id="DejaVuSans-29" d="M 513 4856 
L 1013 4856 
Q 1481 4119 1714 3412 
Q 1947 2706 1947 2009 
Q 1947 1309 1714 600 
Q 1481 -109 1013 -844 
L 513 -844 
Q 928 -128 1133 580 
Q 1338 1288 1338 2009 
Q 1338 2731 1133 3434 
Q 928 4138 513 4856 
z
" transform="scale(0.015625)"/>
     </defs>
     <use xlink:href="#DejaVuSans-52"/>
     <use xlink:href="#DejaVuSans-65" transform="translate(64.982422 0)"/>
     <use xlink:href="#DejaVuSans-66" transform="translate(126.505859 0)"/>
     <use xlink:href="#DejaVuSans-65" transform="translate(161.710938 0)"/>
     <use xlink:href="#DejaVuSans-72" transform="translate(223.234375 0)"/>
     <use xlink:href="#DejaVuSans-65" transform="translate(262.097656 0)"/>
     <use xlink:href="#DejaVuSans-6e" transform="translate(323.621094 0)"/>
     <use xlink:href="#DejaVuSans-63" transform="translate(387 0)"/>
     <use xlink:href="#DejaVuSans-65" transform="translate(441.980469 0)"/>
     <use xlink:href="#DejaVuSans-20" transform="translate(503.503906 0)"/>
     <use xlink:href="#DejaVuSans-61" transform="translate(535.291016 0)"/>
     <use xlink:href="#DejaVuSans-78" transform="translate(596.570312 0)"/>
     <use xlink:href="#DejaVuSans-69" transform="translate(655.75 0)"/>
     <use xlink:href="#DejaVuSans-73" transform="translate(683.533203 0)"/>
     <use xlink:href="#DejaVuSans-20" transform="translate(735.632812 0)"/>
     <use xlink:href="#DejaVuSans-28" transform="translate(767.419922 0)"/>
     <use xlink:href="#DejaVuSans-78" transform="translate(806.433594 0)"/>
     <use xlink:href="#DejaVuSans-2c" transform="translate(865.613281 0)"/>
     <use xlink:href="#DejaVuSans-20" transform="translate(897.400391 0)"/>
     <use xlink:href="#DejaVuSans-79" transform="translate(929.1875 0)"/>
     <use xlink:href="#DejaVuSans-2c" transform="translate(988.367188 0)"/>
     <use xlink:href="#DejaVuSans-20" transform="translate(1020.154297 0)"/>
     <use xlink:href="#DejaVuSans-7a" transform="translate(1051.941406 0)"/>
     <use xlink:href="#DejaVuSans-29" transform="translate(1104.431641 0)"/>
    </g>
   </g>
   <g id="patch_9">
    <path d="M 388.996905 132.252483 
Q 376.32182 132.834974 364.763591 133.366139 
" style="fill: none; stroke: #000000; stroke-linecap: round"/>
    <path d="M 370.894986 136.087533 
L 364.763591 133.366139 
L 370.619543 130.093859 
" style="fill: none; stroke: #000000; stroke-linecap: round"/>
   </g>
   <g id="text_6">
    <!-- start_nd_arc -->
    <g transform="translate(392.99164 133.509368) scale(0.15 -0.15)">
     <defs>
      <path id="DejaVuSansMono-73" d="M 3041 3378 
L 3041 2816 
Q 2794 2959 2544 3031 
Q 2294 3103 2034 3103 
Q 1644 3103 1451 2976 
Q 1259 2850 1259 2591 
Q 1259 2356 1403 2240 
Q 1547 2125 2119 2016 
L 2350 1972 
Q 2778 1891 2998 1647 
Q 3219 1403 3219 1013 
Q 3219 494 2850 201 
Q 2481 -91 1825 -91 
Q 1566 -91 1281 -36 
Q 997 19 666 128 
L 666 722 
Q 988 556 1281 473 
Q 1575 391 1838 391 
Q 2219 391 2428 545 
Q 2638 700 2638 978 
Q 2638 1378 1872 1531 
L 1847 1538 
L 1631 1581 
Q 1134 1678 906 1908 
Q 678 2138 678 2534 
Q 678 3038 1018 3311 
Q 1359 3584 1991 3584 
Q 2272 3584 2531 3532 
Q 2791 3481 3041 3378 
z
" transform="scale(0.015625)"/>
      <path id="DejaVuSansMono-74" d="M 1919 4494 
L 1919 3500 
L 3225 3500 
L 3225 3053 
L 1919 3053 
L 1919 1153 
Q 1919 766 2066 612 
Q 2213 459 2578 459 
L 3225 459 
L 3225 0 
L 2522 0 
Q 1875 0 1609 259 
Q 1344 519 1344 1153 
L 1344 3053 
L 409 3053 
L 409 3500 
L 1344 3500 
L 1344 4494 
L 1919 4494 
z
" transform="scale(0.015625)"/>
      <path id="DejaVuSansMono-61" d="M 2194 1759 
L 2003 1759 
Q 1500 1759 1245 1582 
Q 991 1406 991 1056 
Q 991 741 1181 566 
Q 1372 391 1709 391 
Q 2184 391 2456 720 
Q 2728 1050 2731 1631 
L 2731 1759 
L 2194 1759 
z
M 3309 1997 
L 3309 0 
L 2731 0 
L 2731 519 
Q 2547 206 2267 57 
Q 1988 -91 1588 -91 
Q 1053 -91 734 211 
Q 416 513 416 1019 
Q 416 1603 808 1906 
Q 1200 2209 1959 2209 
L 2731 2209 
L 2731 2300 
Q 2728 2719 2518 2908 
Q 2309 3097 1850 3097 
Q 1556 3097 1256 3012 
Q 956 2928 672 2766 
L 672 3341 
Q 991 3463 1283 3523 
Q 1575 3584 1850 3584 
Q 2284 3584 2592 3456 
Q 2900 3328 3091 3072 
Q 3209 2916 3259 2686 
Q 3309 2456 3309 1997 
z
" transform="scale(0.015625)"/>
      <path id="DejaVuSansMono-72" d="M 3609 2778 
Q 3425 2922 3234 2987 
Q 3044 3053 2816 3053 
Q 2278 3053 1993 2715 
Q 1709 2378 1709 1741 
L 1709 0 
L 1131 0 
L 1131 3500 
L 1709 3500 
L 1709 2816 
Q 1853 3188 2151 3386 
Q 2450 3584 2859 3584 
Q 3072 3584 3256 3531 
Q 3441 3478 3609 3366 
L 3609 2778 
z
" transform="scale(0.015625)"/>
      <path id="DejaVuSansMono-5f" d="M 3853 -1259 
L 3853 -1509 
L 0 -1509 
L 0 -1259 
L 3853 -1259 
z
" transform="scale(0.015625)"/>
      <path id="DejaVuSansMono-6e" d="M 3284 2169 
L 3284 0 
L 2706 0 
L 2706 2169 
Q 2706 2641 2540 2862 
Q 2375 3084 2022 3084 
Q 1619 3084 1401 2798 
Q 1184 2513 1184 1978 
L 1184 0 
L 609 0 
L 609 3500 
L 1184 3500 
L 1184 2975 
Q 1338 3275 1600 3429 
Q 1863 3584 2222 3584 
Q 2756 3584 3020 3232 
Q 3284 2881 3284 2169 
z
" transform="scale(0.015625)"/>
      <path id="DejaVuSansMono-64" d="M 2681 3053 
L 2681 4863 
L 3256 4863 
L 3256 0 
L 2681 0 
L 2681 441 
Q 2538 181 2298 45 
Q 2059 -91 1747 -91 
Q 1113 -91 748 401 
Q 384 894 384 1759 
Q 384 2613 750 3098 
Q 1116 3584 1747 3584 
Q 2063 3584 2303 3448 
Q 2544 3313 2681 3053 
z
M 991 1747 
Q 991 1078 1203 737 
Q 1416 397 1831 397 
Q 2247 397 2464 740 
Q 2681 1084 2681 1747 
Q 2681 2413 2464 2755 
Q 2247 3097 1831 3097 
Q 1416 3097 1203 2756 
Q 991 2416 991 1747 
z
" transform="scale(0.015625)"/>
      <path id="DejaVuSansMono-63" d="M 3316 178 
Q 3084 44 2839 -23 
Q 2594 -91 2338 -91 
Q 1525 -91 1067 396 
Q 609 884 609 1747 
Q 609 2609 1067 3096 
Q 1525 3584 2338 3584 
Q 2591 3584 2831 3518 
Q 3072 3453 3316 3316 
L 3316 2713 
Q 3088 2916 2858 3006 
Q 2628 3097 2338 3097 
Q 1797 3097 1506 2747 
Q 1216 2397 1216 1747 
Q 1216 1100 1508 748 
Q 1800 397 2338 397 
Q 2638 397 2875 489 
Q 3113 581 3316 775 
L 3316 178 
z
" transform="scale(0.015625)"/>
     </defs>
     <use xlink:href="#DejaVuSansMono-73"/>
     <use xlink:href="#DejaVuSansMono-74" transform="translate(60.205078 0)"/>
     <use xlink:href="#DejaVuSansMono-61" transform="translate(120.410156 0)"/>
     <use xlink:href="#DejaVuSansMono-72" transform="translate(180.615234 0)"/>
     <use xlink:href="#DejaVuSansMono-74" transform="translate(240.820312 0)"/>
     <use xlink:href="#DejaVuSansMono-5f" transform="translate(301.025391 0)"/>
     <use xlink:href="#DejaVuSansMono-6e" transform="translate(361.230469 0)"/>
     <use xlink:href="#DejaVuSansMono-64" transform="translate(421.435547 0)"/>
     <use xlink:href="#DejaVuSansMono-5f" transform="translate(481.640625 0)"/>
     <use xlink:href="#DejaVuSansMono-61" transform="translate(541.845703 0)"/>
     <use xlink:href="#DejaVuSansMono-72" transform="translate(602.050781 0)"/>
     <use xlink:href="#DejaVuSansMono-63" transform="translate(662.255859 0)"/>
    </g>
   </g>
   <g id="patch_10">
    <path d="M 419.963756 256.089968 
Q 391.672036 239.805365 364.349298 224.078503 
" style="fill: none; stroke: #000000; stroke-linecap: round"/>
    <path d="M 368.052818 229.671708 
L 364.349298 224.078503 
L 371.045974 224.471611 
" style="fill: none; stroke: #000000; stroke-linecap: round"/>
   </g>
   <g id="text_7">
    <!-- end_nd_arc -->
    <g transform="translate(392.99164 270.484905) scale(0.15 -0.15)">
     <defs>
      <path id="DejaVuSansMono-65" d="M 3475 1894 
L 3475 1613 
L 984 1613 
L 984 1594 
Q 984 1022 1282 709 
Q 1581 397 2125 397 
Q 2400 397 2700 484 
Q 3000 572 3341 750 
L 3341 178 
Q 3013 44 2708 -23 
Q 2403 -91 2119 -91 
Q 1303 -91 843 398 
Q 384 888 384 1747 
Q 384 2584 834 3084 
Q 1284 3584 2034 3584 
Q 2703 3584 3089 3131 
Q 3475 2678 3475 1894 
z
M 2900 2063 
Q 2888 2569 2661 2833 
Q 2434 3097 2009 3097 
Q 1594 3097 1325 2822 
Q 1056 2547 1006 2059 
L 2900 2063 
z
" transform="scale(0.015625)"/>
     </defs>
     <use xlink:href="#DejaVuSansMono-65"/>
     <use xlink:href="#DejaVuSansMono-6e" transform="translate(60.205078 0)"/>
     <use xlink:href="#DejaVuSansMono-64" transform="translate(120.410156 0)"/>
     <use xlink:href="#DejaVuSansMono-5f" transform="translate(180.615234 0)"/>
     <use xlink:href="#DejaVuSansMono-6e" transform="translate(240.820312 0)"/>
     <use xlink:href="#DejaVuSansMono-64" transform="translate(301.025391 0)"/>
     <use xlink:href="#DejaVuSansMono-5f" transform="translate(361.230469 0)"/>
     <use xlink:href="#DejaVuSansMono-61" transform="translate(421.435547 0)"/>
     <use xlink:href="#DejaVuSansMono-72" transform="translate(481.640625 0)"/>
     <use xlink:href="#DejaVuSansMono-63" transform="translate(541.845703 0)"/>
    </g>
   </g>
   <g id="patch_11">
    <path d="M 375.533387 56.194889 
Q 361.075544 98.758884 346.97729 140.264248 
" style="fill: none; stroke: #000000; stroke-linecap: round"/>
    <path d="M 351.747642 135.547922 
L 346.97729 140.264248 
L 346.06644 133.61817 
" style="fill: none; stroke: #000000; stroke-linecap: round"/>
   </g>
   <g id="text_8">
    <!-- offset -->
    <g transform="translate(352.243478 49.18216) scale(0.15 -0.15)">
     <defs>
      <path id="DejaVuSansMono-6f" d="M 1925 3097 
Q 1488 3097 1263 2756 
Q 1038 2416 1038 1747 
Q 1038 1081 1263 739 
Q 1488 397 1925 397 
Q 2366 397 2591 739 
Q 2816 1081 2816 1747 
Q 2816 2416 2591 2756 
Q 2366 3097 1925 3097 
z
M 1925 3584 
Q 2653 3584 3039 3112 
Q 3425 2641 3425 1747 
Q 3425 850 3040 379 
Q 2656 -91 1925 -91 
Q 1197 -91 812 379 
Q 428 850 428 1747 
Q 428 2641 812 3112 
Q 1197 3584 1925 3584 
z
" transform="scale(0.015625)"/>
      <path id="DejaVuSansMono-66" d="M 3322 4863 
L 3322 4384 
L 2669 4384 
Q 2359 4384 2239 4257 
Q 2119 4131 2119 3809 
L 2119 3500 
L 3322 3500 
L 3322 3053 
L 2119 3053 
L 2119 0 
L 1544 0 
L 1544 3053 
L 609 3053 
L 609 3500 
L 1544 3500 
L 1544 3744 
Q 1544 4319 1808 4591 
Q 2072 4863 2631 4863 
L 3322 4863 
z
" transform="scale(0.015625)"/>
     </defs>
     <use xlink:href="#DejaVuSansMono-6f"/>
     <use xlink:href="#DejaVuSansMono-66" transform="translate(60.205078 0)"/>
     <use xlink:href="#DejaVuSansMono-66" transform="translate(120.410156 0)"/>
     <use xlink:href="#DejaVuSansMono-73" transform="translate(180.615234 0)"/>
     <use xlink:href="#DejaVuSansMono-65" transform="translate(240.820312 0)"/>
     <use xlink:href="#DejaVuSansMono-74" transform="translate(301.025391 0)"/>
    </g>
   </g>
   <g id="patch_12">
    <path d="M 290.190754 70.258286 
Q 324.930984 75.250635 358.564549 80.083951 
" style="fill: none; stroke: #000000; stroke-linecap: round"/>
    <path d="M 353.05229 76.260993 
L 358.564549 80.083951 
L 352.198827 82.199982 
" style="fill: none; stroke: #000000; stroke-linecap: round"/>
   </g>
   <g id="text_9">
    <!-- intersection plane -->
    <g transform="translate(142.233716 64.85453) scale(0.15 -0.15)">
     <defs>
      <path id="DejaVuSansMono-69" d="M 800 3500 
L 2272 3500 
L 2272 447 
L 3413 447 
L 3413 0 
L 556 0 
L 556 447 
L 1697 447 
L 1697 3053 
L 800 3053 
L 800 3500 
z
M 1697 4863 
L 2272 4863 
L 2272 4134 
L 1697 4134 
L 1697 4863 
z
" transform="scale(0.015625)"/>
      <path id="DejaVuSansMono-20" transform="scale(0.015625)"/>
      <path id="DejaVuSansMono-70" d="M 1172 441 
L 1172 -1331 
L 594 -1331 
L 594 3500 
L 1172 3500 
L 1172 3053 
Q 1316 3313 1555 3448 
Q 1794 3584 2106 3584 
Q 2741 3584 3102 3093 
Q 3463 2603 3463 1734 
Q 3463 881 3100 395 
Q 2738 -91 2106 -91 
Q 1788 -91 1548 45 
Q 1309 181 1172 441 
z
M 2859 1747 
Q 2859 2416 2648 2756 
Q 2438 3097 2022 3097 
Q 1603 3097 1387 2755 
Q 1172 2413 1172 1747 
Q 1172 1084 1387 740 
Q 1603 397 2022 397 
Q 2438 397 2648 737 
Q 2859 1078 2859 1747 
z
" transform="scale(0.015625)"/>
      <path id="DejaVuSansMono-6c" d="M 1997 1269 
Q 1997 881 2139 684 
Q 2281 488 2559 488 
L 3231 488 
L 3231 0 
L 2503 0 
Q 1988 0 1705 331 
Q 1422 663 1422 1269 
L 1422 4447 
L 500 4447 
L 500 4897 
L 1997 4897 
L 1997 1269 
z
" transform="scale(0.015625)"/>
     </defs>
     <use xlink:href="#DejaVuSansMono-69"/>
     <use xlink:href="#DejaVuSansMono-6e" transform="translate(60.205078 0)"/>
     <use xlink:href="#DejaVuSansMono-74" transform="translate(120.410156 0)"/>
     <use xlink:href="#DejaVuSansMono-65" transform="translate(180.615234 0)"/>
     <use xlink:href="#DejaVuSansMono-72" transform="translate(240.820312 0)"/>
     <use xlink:href="#DejaVuSansMono-73" transform="translate(301.025391 0)"/>
     <use xlink:href="#DejaVuSansMono-65" transform="translate(361.230469 0)"/>
     <use xlink:href="#DejaVuSansMono-63" transform="translate(421.435547 0)"/>
     <use xlink:href="#DejaVuSansMono-74" transform="translate(481.640625 0)"/>
     <use xlink:href="#DejaVuSansMono-69" transform="translate(541.845703 0)"/>
     <use xlink:href="#DejaVuSansMono-6f" transform="translate(602.050781 0)"/>
     <use xlink:href="#DejaVuSansMono-6e" transform="translate(662.255859 0)"/>
     <use xlink:href="#DejaVuSansMono-20" transform="translate(722.460938 0)"/>
     <use xlink:href="#DejaVuSansMono-70" transform="translate(782.666016 0)"/>
     <use xlink:href="#DejaVuSansMono-6c" transform="translate(842.871094 0)"/>
     <use xlink:href="#DejaVuSansMono-61" transform="translate(903.076172 0)"/>
     <use xlink:href="#DejaVuSansMono-6e" transform="translate(963.28125 0)"/>
     <use xlink:href="#DejaVuSansMono-65" transform="translate(1023.486328 0)"/>
    </g>
   </g>
   <g id="patch_13">
    <path d="M 514.373496 179.423984 
Q 493.859959 180.841775 474.461796 182.182477 
" style="fill: none; stroke: #000000; stroke-linecap: round"/>
    <path d="M 480.654368 184.761635 
L 474.461796 182.182477 
L 480.240665 178.775914 
" style="fill: none; stroke: #000000; stroke-linecap: round"/>
   </g>
   <g id="text_10">
    <!-- rotation -->
    <g transform="translate(518.370602 180.83007) scale(0.15 -0.15)">
     <use xlink:href="#DejaVuSansMono-72"/>
     <use xlink:href="#DejaVuSansMono-6f" transform="translate(60.205078 0)"/>
     <use xlink:href="#DejaVuSansMono-74" transform="translate(120.410156 0)"/>
     <use xlink:href="#DejaVuSansMono-61" transform="translate(180.615234 0)"/>
     <use xlink:href="#DejaVuSansMono-74" transform="translate(240.820312 0)"/>
     <use xlink:href="#DejaVuSansMono-69" transform="translate(301.025391 0)"/>
     <use xlink:href="#DejaVuSansMono-6f" transform="translate(361.230469 0)"/>
     <use xlink:href="#DejaVuSansMono-6e" transform="translate(421.435547 0)"/>
    </g>
   </g>
  </g>
 </g>
 <defs>
  <clipPath id="pd962a71b3d">
   <rect x="10.8" y="10.8" width="698.4" height="266.4"/>
  </clipPath>
 </defs>
</svg>
