<?xml version="1.0" encoding="utf-8" standalone="no"?>
<!DOCTYPE svg PUBLIC "-//W3C//DTD SVG 1.1//EN"
  "http://www.w3.org/Graphics/SVG/1.1/DTD/svg11.dtd">
<svg xmlns:xlink="http://www.w3.org/1999/xlink" width="720pt" height="288pt" viewBox="0 0 720 288" xmlns="http://www.w3.org/2000/svg" version="1.1">
 <metadata>
  <rdf:RDF xmlns:dc="http://purl.org/dc/elements/1.1/" xmlns:cc="http://creativecommons.org/ns#" xmlns:rdf="http://www.w3.org/1999/02/22-rdf-syntax-ns#">
   <cc:Work>
    <dc:type rdf:resource="http://purl.org/dc/dcmitype/StillImage"/>
    <dc:date>2025-06-24T15:52:02.426419</dc:date>
    <dc:format>image/svg+xml</dc:format>
    <dc:creator>
     <cc:Agent>
      <dc:title>Matplotlib v3.10.3, https://matplotlib.org/</dc:title>
     </cc:Agent>
    </dc:creator>
   </cc:Work>
  </rdf:RDF>
 </metadata>
 <defs>
  <style type="text/css">*{stroke-linejoin: round; stroke-linecap: butt}</style>
 </defs>
 <g id="figure_1">
  <g id="patch_1">
   <path d="M 0 288 
L 720 288 
L 720 0 
L 0 0 
z
" style="fill: #ffffff"/>
  </g>
  <g id="axes_1">
   <g id="patch_2">
    <path d="M 275.012109 244.417937 
L 267.723856 246.24 
L 267.723856 244.600143 
L 158.400066 244.600143 
L 158.400066 244.235731 
L 267.723856 244.235731 
L 267.723856 242.595874 
z
" clip-path="url(#p0d3414548f)" style="stroke: #000000; stroke-linejoin: miter"/>
   </g>
   <g id="patch_3">
    <path d="M 158.400066 127.805894 
L 160.222129 135.094147 
L 158.582272 135.094147 
L 158.582272 244.417937 
L 158.21786 244.417937 
L 158.21786 135.094147 
L 156.578003 135.094147 
z
" clip-path="url(#p0d3414548f)" style="stroke: #000000; stroke-linejoin: miter"/>
   </g>
   <g id="patch_4">
    <path d="M 201.360141 222.937899 
L 195.656181 227.827008 
L 194.922814 226.360275 
L 158.481551 244.580907 
L 158.318581 244.254967 
L 194.759844 226.034335 
L 194.026478 224.567602 
z
" clip-path="url(#p0d3414548f)" style="stroke: #000000; stroke-linejoin: miter"/>
   </g>
   <g id="patch_5">
    <path d="M 431.731314 133.09408 
Q 431.715209 119.029715 427.682568 107.910096 
" clip-path="url(#p0d3414548f)" style="fill: none; stroke: #0000ff; stroke-width: 2; stroke-linecap: round"/>
    <path d="M 427.166121 112.352312 
L 427.682568 107.910096 
L 430.926473 110.988584 
" clip-path="url(#p0d3414548f)" style="fill: none; stroke: #0000ff; stroke-width: 2; stroke-linecap: round"/>
   </g>
   <g id="line2d_1">
    <path d="M 580.311486 47.848624 
L 579.143643 44.64 
L 572.958798 45.355412 
L 565.966687 46.186257 
L 558.187197 47.113663 
L 549.654627 48.101877 
L 540.397894 49.124864 
L 530.466814 50.191636 
L 519.909301 51.29639 
L 508.78258 52.445055 
L 497.142292 53.653056 
L 485.051484 54.924206 
L 472.574671 56.273802 
L 459.781256 57.72312 
L 446.741574 59.28534 
L 433.524809 60.977938 
L 420.203476 62.809424 
L 406.850402 64.799827 
L 393.53695 66.961952 
L 380.344357 69.32828 
L 367.351684 71.935962 
L 354.63621 74.803404 
L 342.268585 77.955308 
L 330.322884 81.415126 
L 318.869223 85.19224 
L 307.97732 89.319445 
L 297.708169 93.805563 
L 288.125655 98.642857 
L 279.277074 103.845134 
L 271.205971 109.373278 
L 263.943837 115.173169 
L 257.508371 121.187952 
L 251.91823 127.341031 
L 247.174636 133.550524 
L 243.28874 139.730934 
L 240.258093 145.809471 
L 238.080149 151.705624 
L 236.758444 157.375834 
L 236.274022 162.725399 
L 236.654414 167.787344 
L 238.023941 172.892584 
L 239.872527 176.629038 
L 242.71648 180.425909 
L 246.436465 183.965979 
L 251.010185 187.230605 
L 256.419952 190.213814 
L 262.632568 192.877665 
L 269.599477 195.162269 
L 277.270782 196.996595 
L 285.577997 198.308617 
L 294.463816 199.026124 
L 303.85848 199.08531 
L 313.7069 198.440302 
L 323.941438 197.045911 
L 334.501102 194.893315 
L 345.336227 191.962197 
L 356.380186 188.252765 
L 367.573357 183.75996 
L 378.859607 178.488314 
L 390.174053 172.442827 
L 401.461193 165.651069 
L 412.674058 158.153404 
L 423.76528 150.013607 
L 434.708147 141.338351 
L 445.486231 132.273223 
L 456.100461 123.00403 
L 466.565252 113.750448 
L 476.896459 104.746755 
L 487.108654 96.20559 
L 497.199925 88.301772 
L 507.143246 81.130453 
L 516.921465 74.806459 
L 526.463932 69.305092 
L 535.711517 64.601337 
L 544.606867 60.688923 
L 553.087115 57.532561 
L 561.075023 55.047902 
L 568.504285 53.158251 
L 575.315674 51.830874 
L 581.421997 50.899728 
L 580.311486 47.848624 
" clip-path="url(#p0d3414548f)" style="fill: none; stroke: #000000; stroke-width: 1.5; stroke-linecap: square"/>
   </g>
   <g id="line2d_2">
    <path d="M 237.875624 172.485085 
L 275.924053 158.636589 
L 313.972482 144.788094 
L 352.020911 130.939598 
L 390.069341 117.091102 
L 428.11777 103.242607 
L 466.166199 89.394111 
L 504.214628 75.545615 
L 542.263057 61.69712 
L 580.311486 47.848624 
" clip-path="url(#p0d3414548f)" style="fill: none; stroke-dasharray: 5.55,2.4; stroke-dashoffset: 0; stroke: #000000; stroke-width: 1.5"/>
   </g>
   <g id="line2d_3">
    <defs>
     <path id="m108a056727" d="M 0 3 
C 0.795609 3 1.55874 2.683901 2.12132 2.12132 
C 2.683901 1.55874 3 0.795609 3 0 
C 3 -0.795609 2.683901 -1.55874 2.12132 -2.12132 
C 1.55874 -2.683901 0.795609 -3 0 -3 
C -0.795609 -3 -1.55874 -2.683901 -2.12132 -2.12132 
C -2.683901 -1.55874 -3 -0.795609 -3 0 
C -3 0.795609 -2.683901 1.55874 -2.12132 2.12132 
C -1.55874 2.683901 -0.795609 3 0 3 
z
" style="stroke: #000000"/>
    </defs>
    <g clip-path="url(#p0d3414548f)">
     <use xlink:href="#m108a056727" x="158.400066" y="244.417937" style="stroke: #000000"/>
    </g>
   </g>
   <g id="line2d_4">
    <g clip-path="url(#p0d3414548f)">
     <use xlink:href="#m108a056727" x="347.894635" y="149.670652" style="stroke: #000000"/>
    </g>
   </g>
   <g id="line2d_5">
    <path d="M 194.841329 135.094147 
L 276.834172 135.094147 
L 358.827014 135.094147 
L 440.819857 135.094147 
L 522.812699 135.094147 
" clip-path="url(#p0d3414548f)" style="fill: none; stroke-dasharray: 3.7,1.6; stroke-dashoffset: 0; stroke: #000000"/>
   </g>
   <g id="line2d_6">
    <g clip-path="url(#p0d3414548f)">
     <use xlink:href="#m108a056727" x="318.741625" y="142.382399" style="stroke: #000000"/>
    </g>
   </g>
   <g id="text_1">
    <!-- x -->
    <g transform="translate(158.400066 127.805894) scale(0.12 -0.12)">
     <defs>
      <path id="DejaVuSans-78" d="M 3513 3500 
L 2247 1797 
L 3578 0 
L 2900 0 
L 1881 1375 
L 863 0 
L 184 0 
L 1544 1831 
L 300 3500 
L 978 3500 
L 1906 2253 
L 2834 3500 
L 3513 3500 
z
" transform="scale(0.015625)"/>
     </defs>
     <use xlink:href="#DejaVuSans-78"/>
    </g>
   </g>
   <g id="text_2">
    <!-- y -->
    <g transform="translate(275.012109 244.417937) scale(0.12 -0.12)">
     <defs>
      <path id="DejaVuSans-79" d="M 2059 -325 
Q 1816 -950 1584 -1140 
Q 1353 -1331 966 -1331 
L 506 -1331 
L 506 -850 
L 844 -850 
Q 1081 -850 1212 -737 
Q 1344 -625 1503 -206 
L 1606 56 
L 191 3500 
L 800 3500 
L 1894 763 
L 2988 3500 
L 3597 3500 
L 2059 -325 
z
" transform="scale(0.015625)"/>
     </defs>
     <use xlink:href="#DejaVuSans-79"/>
    </g>
   </g>
   <g id="text_3">
    <!-- z -->
    <g transform="translate(198.485456 222.553179) scale(0.12 -0.12)">
     <defs>
      <path id="DejaVuSans-7a" d="M 353 3500 
L 3084 3500 
L 3084 2975 
L 922 459 
L 3084 459 
L 3084 0 
L 275 0 
L 275 525 
L 2438 3041 
L 353 3041 
L 353 3500 
z
" transform="scale(0.015625)"/>
     </defs>
     <use xlink:href="#DejaVuSans-7a"/>
    </g>
   </g>
   <g id="patch_6">
    <path d="M 104.590759 212.547022 
Q 130.524914 219.125968 155.375361 225.430001 
" style="fill: none; stroke: #000000; stroke-linecap: round"/>
    <path d="M 151.989951 222.507845 
L 155.375361 225.430001 
L 151.00639 226.385035 
" style="fill: none; stroke: #000000; stroke-linecap: round"/>
   </g>
   <g id="text_4">
    <!-- Reference system -->
    <g transform="translate(30.855644 207.976673) scale(0.1 -0.1)">
     <defs>
      <path id="DejaVuSans-52" d="M 2841 2188 
Q 3044 2119 3236 1894 
Q 3428 1669 3622 1275 
L 4263 0 
L 3584 0 
L 2988 1197 
Q 2756 1666 2539 1819 
Q 2322 1972 1947 1972 
L 1259 1972 
L 1259 0 
L 628 0 
L 628 4666 
L 2053 4666 
Q 2853 4666 3247 4331 
Q 3641 3997 3641 3322 
Q 3641 2881 3436 2590 
Q 3231 2300 2841 2188 
z
M 1259 4147 
L 1259 2491 
L 2053 2491 
Q 2509 2491 2742 2702 
Q 2975 2913 2975 3322 
Q 2975 3731 2742 3939 
Q 2509 4147 2053 4147 
L 1259 4147 
z
" transform="scale(0.015625)"/>
      <path id="DejaVuSans-65" d="M 3597 1894 
L 3597 1613 
L 953 1613 
Q 991 1019 1311 708 
Q 1631 397 2203 397 
Q 2534 397 2845 478 
Q 3156 559 3463 722 
L 3463 178 
Q 3153 47 2828 -22 
Q 2503 -91 2169 -91 
Q 1331 -91 842 396 
Q 353 884 353 1716 
Q 353 2575 817 3079 
Q 1281 3584 2069 3584 
Q 2775 3584 3186 3129 
Q 3597 2675 3597 1894 
z
M 3022 2063 
Q 3016 2534 2758 2815 
Q 2500 3097 2075 3097 
Q 1594 3097 1305 2825 
Q 1016 2553 972 2059 
L 3022 2063 
z
" transform="scale(0.015625)"/>
      <path id="DejaVuSans-66" d="M 2375 4863 
L 2375 4384 
L 1825 4384 
Q 1516 4384 1395 4259 
Q 1275 4134 1275 3809 
L 1275 3500 
L 2222 3500 
L 2222 3053 
L 1275 3053 
L 1275 0 
L 697 0 
L 697 3053 
L 147 3053 
L 147 3500 
L 697 3500 
L 697 3744 
Q 697 4328 969 4595 
Q 1241 4863 1831 4863 
L 2375 4863 
z
" transform="scale(0.015625)"/>
      <path id="DejaVuSans-72" d="M 2631 2963 
Q 2534 3019 2420 3045 
Q 2306 3072 2169 3072 
Q 1681 3072 1420 2755 
Q 1159 2438 1159 1844 
L 1159 0 
L 581 0 
L 581 3500 
L 1159 3500 
L 1159 2956 
Q 1341 3275 1631 3429 
Q 1922 3584 2338 3584 
Q 2397 3584 2469 3576 
Q 2541 3569 2628 3553 
L 2631 2963 
z
" transform="scale(0.015625)"/>
      <path id="DejaVuSans-6e" d="M 3513 2113 
L 3513 0 
L 2938 0 
L 2938 2094 
Q 2938 2591 2744 2837 
Q 2550 3084 2163 3084 
Q 1697 3084 1428 2787 
Q 1159 2491 1159 1978 
L 1159 0 
L 581 0 
L 581 3500 
L 1159 3500 
L 1159 2956 
Q 1366 3272 1645 3428 
Q 1925 3584 2291 3584 
Q 2894 3584 3203 3211 
Q 3513 2838 3513 2113 
z
" transform="scale(0.015625)"/>
      <path id="DejaVuSans-63" d="M 3122 3366 
L 3122 2828 
Q 2878 2963 2633 3030 
Q 2388 3097 2138 3097 
Q 1578 3097 1268 2742 
Q 959 2388 959 1747 
Q 959 1106 1268 751 
Q 1578 397 2138 397 
Q 2388 397 2633 464 
Q 2878 531 3122 666 
L 3122 134 
Q 2881 22 2623 -34 
Q 2366 -91 2075 -91 
Q 1284 -91 818 406 
Q 353 903 353 1747 
Q 353 2603 823 3093 
Q 1294 3584 2113 3584 
Q 2378 3584 2631 3529 
Q 2884 3475 3122 3366 
z
" transform="scale(0.015625)"/>
      <path id="DejaVuSans-20" transform="scale(0.015625)"/>
      <path id="DejaVuSans-73" d="M 2834 3397 
L 2834 2853 
Q 2591 2978 2328 3040 
Q 2066 3103 1784 3103 
Q 1356 3103 1142 2972 
Q 928 2841 928 2578 
Q 928 2378 1081 2264 
Q 1234 2150 1697 2047 
L 1894 2003 
Q 2506 1872 2764 1633 
Q 3022 1394 3022 966 
Q 3022 478 2636 193 
Q 2250 -91 1575 -91 
Q 1294 -91 989 -36 
Q 684 19 347 128 
L 347 722 
Q 666 556 975 473 
Q 1284 391 1588 391 
Q 1994 391 2212 530 
Q 2431 669 2431 922 
Q 2431 1156 2273 1281 
Q 2116 1406 1581 1522 
L 1381 1569 
Q 847 1681 609 1914 
Q 372 2147 372 2553 
Q 372 3047 722 3315 
Q 1072 3584 1716 3584 
Q 2034 3584 2315 3537 
Q 2597 3491 2834 3397 
z
" transform="scale(0.015625)"/>
      <path id="DejaVuSans-74" d="M 1172 4494 
L 1172 3500 
L 2356 3500 
L 2356 3053 
L 1172 3053 
L 1172 1153 
Q 1172 725 1289 603 
Q 1406 481 1766 481 
L 2356 481 
L 2356 0 
L 1766 0 
Q 1100 0 847 248 
Q 594 497 594 1153 
L 594 3053 
L 172 3053 
L 172 3500 
L 594 3500 
L 594 4494 
L 1172 4494 
z
" transform="scale(0.015625)"/>
      <path id="DejaVuSans-6d" d="M 3328 2828 
Q 3544 3216 3844 3400 
Q 4144 3584 4550 3584 
Q 5097 3584 5394 3201 
Q 5691 2819 5691 2113 
L 5691 0 
L 5113 0 
L 5113 2094 
Q 5113 2597 4934 2840 
Q 4756 3084 4391 3084 
Q 3944 3084 3684 2787 
Q 3425 2491 3425 1978 
L 3425 0 
L 2847 0 
L 2847 2094 
Q 2847 2600 2669 2842 
Q 2491 3084 2119 3084 
Q 1678 3084 1418 2786 
Q 1159 2488 1159 1978 
L 1159 0 
L 581 0 
L 581 3500 
L 1159 3500 
L 1159 2956 
Q 1356 3278 1631 3431 
Q 1906 3584 2284 3584 
Q 2666 3584 2933 3390 
Q 3200 3197 3328 2828 
z
" transform="scale(0.015625)"/>
     </defs>
     <use xlink:href="#DejaVuSans-52"/>
     <use xlink:href="#DejaVuSans-65" transform="translate(64.982422 0)"/>
     <use xlink:href="#DejaVuSans-66" transform="translate(126.505859 0)"/>
     <use xlink:href="#DejaVuSans-65" transform="translate(161.710938 0)"/>
     <use xlink:href="#DejaVuSans-72" transform="translate(223.234375 0)"/>
     <use xlink:href="#DejaVuSans-65" transform="translate(262.097656 0)"/>
     <use xlink:href="#DejaVuSans-6e" transform="translate(323.621094 0)"/>
     <use xlink:href="#DejaVuSans-63" transform="translate(387 0)"/>
     <use xlink:href="#DejaVuSans-65" transform="translate(441.980469 0)"/>
     <use xlink:href="#DejaVuSans-20" transform="translate(503.503906 0)"/>
     <use xlink:href="#DejaVuSans-73" transform="translate(535.291016 0)"/>
     <use xlink:href="#DejaVuSans-79" transform="translate(587.390625 0)"/>
     <use xlink:href="#DejaVuSans-73" transform="translate(646.570312 0)"/>
     <use xlink:href="#DejaVuSans-74" transform="translate(698.669922 0)"/>
     <use xlink:href="#DejaVuSans-65" transform="translate(737.878906 0)"/>
     <use xlink:href="#DejaVuSans-6d" transform="translate(799.402344 0)"/>
    </g>
   </g>
   <g id="patch_7">
    <path d="M 485.613238 197.719728 
Q 417.697474 174.024384 350.837339 150.697341 
" style="fill: none; stroke: #000000; stroke-linecap: round"/>
    <path d="M 353.955236 153.903386 
L 350.837339 150.697341 
L 355.272913 150.126651 
" style="fill: none; stroke: #000000; stroke-linecap: round"/>
   </g>
   <g id="text_5">
    <!-- Reference axis (x, y, z) -->
    <g transform="translate(449.930173 207.976673) scale(0.1 -0.1)">
     <defs>
      <path id="DejaVuSans-61" d="M 2194 1759 
Q 1497 1759 1228 1600 
Q 959 1441 959 1056 
Q 959 750 1161 570 
Q 1363 391 1709 391 
Q 2188 391 2477 730 
Q 2766 1069 2766 1631 
L 2766 1759 
L 2194 1759 
z
M 3341 1997 
L 3341 0 
L 2766 0 
L 2766 531 
Q 2569 213 2275 61 
Q 1981 -91 1556 -91 
Q 1019 -91 701 211 
Q 384 513 384 1019 
Q 384 1609 779 1909 
Q 1175 2209 1959 2209 
L 2766 2209 
L 2766 2266 
Q 2766 2663 2505 2880 
Q 2244 3097 1772 3097 
Q 1472 3097 1187 3025 
Q 903 2953 641 2809 
L 641 3341 
Q 956 3463 1253 3523 
Q 1550 3584 1831 3584 
Q 2591 3584 2966 3190 
Q 3341 2797 3341 1997 
z
" transform="scale(0.015625)"/>
      <path id="DejaVuSans-69" d="M 603 3500 
L 1178 3500 
L 1178 0 
L 603 0 
L 603 3500 
z
M 603 4863 
L 1178 4863 
L 1178 4134 
L 603 4134 
L 603 4863 
z
" transform="scale(0.015625)"/>
      <path id="DejaVuSans-28" d="M 1984 4856 
Q 1566 4138 1362 3434 
Q 1159 2731 1159 2009 
Q 1159 1288 1364 580 
Q 1569 -128 1984 -844 
L 1484 -844 
Q 1016 -109 783 600 
Q 550 1309 550 2009 
Q 550 2706 781 3412 
Q 1013 4119 1484 4856 
L 1984 4856 
z
" transform="scale(0.015625)"/>
      <path id="DejaVuSans-2c" d="M 750 794 
L 1409 794 
L 1409 256 
L 897 -744 
L 494 -744 
L 750 256 
L 750 794 
z
" transform="scale(0.015625)"/>
      <path id="DejaVuSans-29" d="M 513 4856 
L 1013 4856 
Q 1481 4119 1714 3412 
Q 1947 2706 1947 2009 
Q 1947 1309 1714 600 
Q 1481 -109 1013 -844 
L 513 -844 
Q 928 -128 1133 580 
Q 1338 1288 1338 2009 
Q 1338 2731 1133 3434 
Q 928 4138 513 4856 
z
" transform="scale(0.015625)"/>
     </defs>
     <use xlink:href="#DejaVuSans-52"/>
     <use xlink:href="#DejaVuSans-65" transform="translate(64.982422 0)"/>
     <use xlink:href="#DejaVuSans-66" transform="translate(126.505859 0)"/>
     <use xlink:href="#DejaVuSans-65" transform="translate(161.710938 0)"/>
     <use xlink:href="#DejaVuSans-72" transform="translate(223.234375 0)"/>
     <use xlink:href="#DejaVuSans-65" transform="translate(262.097656 0)"/>
     <use xlink:href="#DejaVuSans-6e" transform="translate(323.621094 0)"/>
     <use xlink:href="#DejaVuSans-63" transform="translate(387 0)"/>
     <use xlink:href="#DejaVuSans-65" transform="translate(441.980469 0)"/>
     <use xlink:href="#DejaVuSans-20" transform="translate(503.503906 0)"/>
     <use xlink:href="#DejaVuSans-61" transform="translate(535.291016 0)"/>
     <use xlink:href="#DejaVuSans-78" transform="translate(596.570312 0)"/>
     <use xlink:href="#DejaVuSans-69" transform="translate(655.75 0)"/>
     <use xlink:href="#DejaVuSans-73" transform="translate(683.533203 0)"/>
     <use xlink:href="#DejaVuSans-20" transform="translate(735.632812 0)"/>
     <use xlink:href="#DejaVuSans-28" transform="translate(767.419922 0)"/>
     <use xlink:href="#DejaVuSans-78" transform="translate(806.433594 0)"/>
     <use xlink:href="#DejaVuSans-2c" transform="translate(865.613281 0)"/>
     <use xlink:href="#DejaVuSans-20" transform="translate(897.400391 0)"/>
     <use xlink:href="#DejaVuSans-79" transform="translate(929.1875 0)"/>
     <use xlink:href="#DejaVuSans-2c" transform="translate(988.367188 0)"/>
     <use xlink:href="#DejaVuSans-20" transform="translate(1020.154297 0)"/>
     <use xlink:href="#DejaVuSans-7a" transform="translate(1051.941406 0)"/>
     <use xlink:href="#DejaVuSans-29" transform="translate(1104.431641 0)"/>
    </g>
   </g>
   <g id="text_6">
    <!-- twist, positive towards feather -->
    <g transform="translate(442.64192 116.873515) scale(0.12 -0.12)">
     <defs>
      <path id="DejaVuSans-77" d="M 269 3500 
L 844 3500 
L 1563 769 
L 2278 3500 
L 2956 3500 
L 3675 769 
L 4391 3500 
L 4966 3500 
L 4050 0 
L 3372 0 
L 2619 2869 
L 1863 0 
L 1184 0 
L 269 3500 
z
" transform="scale(0.015625)"/>
      <path id="DejaVuSans-70" d="M 1159 525 
L 1159 -1331 
L 581 -1331 
L 581 3500 
L 1159 3500 
L 1159 2969 
Q 1341 3281 1617 3432 
Q 1894 3584 2278 3584 
Q 2916 3584 3314 3078 
Q 3713 2572 3713 1747 
Q 3713 922 3314 415 
Q 2916 -91 2278 -91 
Q 1894 -91 1617 61 
Q 1341 213 1159 525 
z
M 3116 1747 
Q 3116 2381 2855 2742 
Q 2594 3103 2138 3103 
Q 1681 3103 1420 2742 
Q 1159 2381 1159 1747 
Q 1159 1113 1420 752 
Q 1681 391 2138 391 
Q 2594 391 2855 752 
Q 3116 1113 3116 1747 
z
" transform="scale(0.015625)"/>
      <path id="DejaVuSans-6f" d="M 1959 3097 
Q 1497 3097 1228 2736 
Q 959 2375 959 1747 
Q 959 1119 1226 758 
Q 1494 397 1959 397 
Q 2419 397 2687 759 
Q 2956 1122 2956 1747 
Q 2956 2369 2687 2733 
Q 2419 3097 1959 3097 
z
M 1959 3584 
Q 2709 3584 3137 3096 
Q 3566 2609 3566 1747 
Q 3566 888 3137 398 
Q 2709 -91 1959 -91 
Q 1206 -91 779 398 
Q 353 888 353 1747 
Q 353 2609 779 3096 
Q 1206 3584 1959 3584 
z
" transform="scale(0.015625)"/>
      <path id="DejaVuSans-76" d="M 191 3500 
L 800 3500 
L 1894 563 
L 2988 3500 
L 3597 3500 
L 2284 0 
L 1503 0 
L 191 3500 
z
" transform="scale(0.015625)"/>
      <path id="DejaVuSans-64" d="M 2906 2969 
L 2906 4863 
L 3481 4863 
L 3481 0 
L 2906 0 
L 2906 525 
Q 2725 213 2448 61 
Q 2172 -91 1784 -91 
Q 1150 -91 751 415 
Q 353 922 353 1747 
Q 353 2572 751 3078 
Q 1150 3584 1784 3584 
Q 2172 3584 2448 3432 
Q 2725 3281 2906 2969 
z
M 947 1747 
Q 947 1113 1208 752 
Q 1469 391 1925 391 
Q 2381 391 2643 752 
Q 2906 1113 2906 1747 
Q 2906 2381 2643 2742 
Q 2381 3103 1925 3103 
Q 1469 3103 1208 2742 
Q 947 2381 947 1747 
z
" transform="scale(0.015625)"/>
      <path id="DejaVuSans-68" d="M 3513 2113 
L 3513 0 
L 2938 0 
L 2938 2094 
Q 2938 2591 2744 2837 
Q 2550 3084 2163 3084 
Q 1697 3084 1428 2787 
Q 1159 2491 1159 1978 
L 1159 0 
L 581 0 
L 581 4863 
L 1159 4863 
L 1159 2956 
Q 1366 3272 1645 3428 
Q 1925 3584 2291 3584 
Q 2894 3584 3203 3211 
Q 3513 2838 3513 2113 
z
" transform="scale(0.015625)"/>
     </defs>
     <use xlink:href="#DejaVuSans-74"/>
     <use xlink:href="#DejaVuSans-77" transform="translate(39.208984 0)"/>
     <use xlink:href="#DejaVuSans-69" transform="translate(120.996094 0)"/>
     <use xlink:href="#DejaVuSans-73" transform="translate(148.779297 0)"/>
     <use xlink:href="#DejaVuSans-74" transform="translate(200.878906 0)"/>
     <use xlink:href="#DejaVuSans-2c" transform="translate(240.087891 0)"/>
     <use xlink:href="#DejaVuSans-20" transform="translate(271.875 0)"/>
     <use xlink:href="#DejaVuSans-70" transform="translate(303.662109 0)"/>
     <use xlink:href="#DejaVuSans-6f" transform="translate(367.138672 0)"/>
     <use xlink:href="#DejaVuSans-73" transform="translate(428.320312 0)"/>
     <use xlink:href="#DejaVuSans-69" transform="translate(480.419922 0)"/>
     <use xlink:href="#DejaVuSans-74" transform="translate(508.203125 0)"/>
     <use xlink:href="#DejaVuSans-69" transform="translate(547.412109 0)"/>
     <use xlink:href="#DejaVuSans-76" transform="translate(575.195312 0)"/>
     <use xlink:href="#DejaVuSans-65" transform="translate(634.375 0)"/>
     <use xlink:href="#DejaVuSans-20" transform="translate(695.898438 0)"/>
     <use xlink:href="#DejaVuSans-74" transform="translate(727.685547 0)"/>
     <use xlink:href="#DejaVuSans-6f" transform="translate(766.894531 0)"/>
     <use xlink:href="#DejaVuSans-77" transform="translate(828.076172 0)"/>
     <use xlink:href="#DejaVuSans-61" transform="translate(909.863281 0)"/>
     <use xlink:href="#DejaVuSans-72" transform="translate(971.142578 0)"/>
     <use xlink:href="#DejaVuSans-64" transform="translate(1010.505859 0)"/>
     <use xlink:href="#DejaVuSans-73" transform="translate(1073.982422 0)"/>
     <use xlink:href="#DejaVuSans-20" transform="translate(1126.082031 0)"/>
     <use xlink:href="#DejaVuSans-66" transform="translate(1157.869141 0)"/>
     <use xlink:href="#DejaVuSans-65" transform="translate(1193.074219 0)"/>
     <use xlink:href="#DejaVuSans-61" transform="translate(1254.597656 0)"/>
     <use xlink:href="#DejaVuSans-74" transform="translate(1315.876953 0)"/>
     <use xlink:href="#DejaVuSans-68" transform="translate(1355.085938 0)"/>
     <use xlink:href="#DejaVuSans-65" transform="translate(1418.464844 0)"/>
     <use xlink:href="#DejaVuSans-72" transform="translate(1479.988281 0)"/>
    </g>
   </g>
   <g id="patch_8">
    <path d="M 242.527604 191.895042 
Q 292.704384 172.808108 344.97113 152.926164 
" style="fill: none; stroke: #0000ff; stroke-width: 2; stroke-linecap: round"/>
    <path d="M 246.977328 192.342207 
L 242.527604 191.895042 
L 245.555171 188.603562 
" style="fill: none; stroke: #0000ff; stroke-width: 2; stroke-linecap: round"/>
   </g>
   <g id="text_7">
    <!-- section_offset_y -->
    <g transform="translate(289.588614 178.823663) scale(0.1 -0.1)">
     <defs>
      <path id="DejaVuSans-5f" d="M 3263 -1063 
L 3263 -1509 
L -63 -1509 
L -63 -1063 
L 3263 -1063 
z
" transform="scale(0.015625)"/>
     </defs>
     <use xlink:href="#DejaVuSans-73"/>
     <use xlink:href="#DejaVuSans-65" transform="translate(52.099609 0)"/>
     <use xlink:href="#DejaVuSans-63" transform="translate(113.623047 0)"/>
     <use xlink:href="#DejaVuSans-74" transform="translate(168.603516 0)"/>
     <use xlink:href="#DejaVuSans-69" transform="translate(207.8125 0)"/>
     <use xlink:href="#DejaVuSans-6f" transform="translate(235.595703 0)"/>
     <use xlink:href="#DejaVuSans-6e" transform="translate(296.777344 0)"/>
     <use xlink:href="#DejaVuSans-5f" transform="translate(360.15625 0)"/>
     <use xlink:href="#DejaVuSans-6f" transform="translate(410.15625 0)"/>
     <use xlink:href="#DejaVuSans-66" transform="translate(471.337891 0)"/>
     <use xlink:href="#DejaVuSans-66" transform="translate(506.542969 0)"/>
     <use xlink:href="#DejaVuSans-73" transform="translate(541.748047 0)"/>
     <use xlink:href="#DejaVuSans-65" transform="translate(593.847656 0)"/>
     <use xlink:href="#DejaVuSans-74" transform="translate(655.371094 0)"/>
     <use xlink:href="#DejaVuSans-5f" transform="translate(694.580078 0)"/>
     <use xlink:href="#DejaVuSans-79" transform="translate(744.580078 0)"/>
    </g>
   </g>
   <g id="patch_9">
    <path d="M 346.999618 147.880617 
Q 344.250183 142.381748 342.500749 138.882879 
" style="fill: none; stroke: #0000ff; stroke-width: 2; stroke-linecap: round"/>
    <path d="M 342.500749 143.355015 
L 342.500749 138.882879 
L 346.078458 141.566161 
" style="fill: none; stroke: #0000ff; stroke-width: 2; stroke-linecap: round"/>
   </g>
   <g id="text_8">
    <!-- section_offset_x -->
    <g transform="translate(347.894635 146.026526) scale(0.1 -0.1)">
     <use xlink:href="#DejaVuSans-73"/>
     <use xlink:href="#DejaVuSans-65" transform="translate(52.099609 0)"/>
     <use xlink:href="#DejaVuSans-63" transform="translate(113.623047 0)"/>
     <use xlink:href="#DejaVuSans-74" transform="translate(168.603516 0)"/>
     <use xlink:href="#DejaVuSans-69" transform="translate(207.8125 0)"/>
     <use xlink:href="#DejaVuSans-6f" transform="translate(235.595703 0)"/>
     <use xlink:href="#DejaVuSans-6e" transform="translate(296.777344 0)"/>
     <use xlink:href="#DejaVuSans-5f" transform="translate(360.15625 0)"/>
     <use xlink:href="#DejaVuSans-6f" transform="translate(410.15625 0)"/>
     <use xlink:href="#DejaVuSans-66" transform="translate(471.337891 0)"/>
     <use xlink:href="#DejaVuSans-66" transform="translate(506.542969 0)"/>
     <use xlink:href="#DejaVuSans-73" transform="translate(541.748047 0)"/>
     <use xlink:href="#DejaVuSans-65" transform="translate(593.847656 0)"/>
     <use xlink:href="#DejaVuSans-74" transform="translate(655.371094 0)"/>
     <use xlink:href="#DejaVuSans-5f" transform="translate(694.580078 0)"/>
     <use xlink:href="#DejaVuSans-78" transform="translate(744.580078 0)"/>
    </g>
   </g>
   <g id="patch_10">
    <path d="M 292.163359 68.173942 
Q 305.115884 104.338336 317.691426 139.450169 
" style="fill: none; stroke: #000000; stroke-linecap: round"/>
    <path d="M 318.225573 135.010046 
L 317.691426 139.450169 
L 314.459816 136.358778 
" style="fill: none; stroke: #000000; stroke-linecap: round"/>
   </g>
   <g id="text_9">
    <!-- Aerodynamic center (-) -->
    <g transform="translate(231.282593 62.21162) scale(0.1 -0.1)">
     <defs>
      <path id="DejaVuSans-41" d="M 2188 4044 
L 1331 1722 
L 3047 1722 
L 2188 4044 
z
M 1831 4666 
L 2547 4666 
L 4325 0 
L 3669 0 
L 3244 1197 
L 1141 1197 
L 716 0 
L 50 0 
L 1831 4666 
z
" transform="scale(0.015625)"/>
      <path id="DejaVuSans-2d" d="M 313 2009 
L 1997 2009 
L 1997 1497 
L 313 1497 
L 313 2009 
z
" transform="scale(0.015625)"/>
     </defs>
     <use xlink:href="#DejaVuSans-41"/>
     <use xlink:href="#DejaVuSans-65" transform="translate(66.658203 0)"/>
     <use xlink:href="#DejaVuSans-72" transform="translate(128.181641 0)"/>
     <use xlink:href="#DejaVuSans-6f" transform="translate(167.044922 0)"/>
     <use xlink:href="#DejaVuSans-64" transform="translate(228.226562 0)"/>
     <use xlink:href="#DejaVuSans-79" transform="translate(291.703125 0)"/>
     <use xlink:href="#DejaVuSans-6e" transform="translate(350.882812 0)"/>
     <use xlink:href="#DejaVuSans-61" transform="translate(414.261719 0)"/>
     <use xlink:href="#DejaVuSans-6d" transform="translate(475.541016 0)"/>
     <use xlink:href="#DejaVuSans-69" transform="translate(572.953125 0)"/>
     <use xlink:href="#DejaVuSans-63" transform="translate(600.736328 0)"/>
     <use xlink:href="#DejaVuSans-20" transform="translate(655.716797 0)"/>
     <use xlink:href="#DejaVuSans-63" transform="translate(687.503906 0)"/>
     <use xlink:href="#DejaVuSans-65" transform="translate(742.484375 0)"/>
     <use xlink:href="#DejaVuSans-6e" transform="translate(804.007812 0)"/>
     <use xlink:href="#DejaVuSans-74" transform="translate(867.386719 0)"/>
     <use xlink:href="#DejaVuSans-65" transform="translate(906.595703 0)"/>
     <use xlink:href="#DejaVuSans-72" transform="translate(968.119141 0)"/>
     <use xlink:href="#DejaVuSans-20" transform="translate(1009.232422 0)"/>
     <use xlink:href="#DejaVuSans-28" transform="translate(1041.019531 0)"/>
     <use xlink:href="#DejaVuSans-2d" transform="translate(1080.033203 0)"/>
     <use xlink:href="#DejaVuSans-29" transform="translate(1116.117188 0)"/>
    </g>
   </g>
  </g>
 </g>
 <defs>
  <clipPath id="p0d3414548f">
   <rect x="90" y="34.56" width="558" height="221.76"/>
  </clipPath>
 </defs>
</svg>
