<?xml version="1.0" encoding="UTF-8"?>
<svg id="Ebene_1" xmlns="http://www.w3.org/2000/svg" version="1.1" xmlns:xlink="http://www.w3.org/1999/xlink" viewBox="0 0 841.89 595.28">
  <!-- Generator: Adobe Illustrator 29.5.1, SVG Export Plug-In . SVG Version: 2.1.0 Build 141)  -->
  <defs>
    <style>
      .st0 {
        fill: url(#Unbenannter_Verlauf_8);
      }

      .st1 {
        fill: url(#Unbenannter_Verlauf_81);
      }

      .st2 {
        fill: url(#Unbenannter_Verlauf_84);
      }

      .st3 {
        fill: url(#Unbenannter_Verlauf_83);
      }

      .st4 {
        fill: url(#Unbenannter_Verlauf_82);
      }
    </style>
    <linearGradient id="Unbenannter_Verlauf_8" data-name="Unbenannter Verlauf 8" x1="646.63" y1="447.35" x2="105.1" y2="254.33" gradientUnits="userSpaceOnUse">
      <stop offset="0" stop-color="#05739e"/>
      <stop offset="1" stop-color="#42b4e8"/>
    </linearGradient>
    <linearGradient id="Unbenannter_Verlauf_81" data-name="Unbenannter Verlauf 8" x1="661.22" y1="406.41" x2="119.69" y2="213.39" xlink:href="#Unbenannter_Verlauf_8"/>
    <linearGradient id="Unbenannter_Verlauf_82" data-name="Unbenannter Verlauf 8" x1="672.56" y1="374.59" x2="131.03" y2="181.57" xlink:href="#Unbenannter_Verlauf_8"/>
    <linearGradient id="Unbenannter_Verlauf_83" data-name="Unbenannter Verlauf 8" x1="694.52" y1="313" x2="152.98" y2="119.98" xlink:href="#Unbenannter_Verlauf_8"/>
    <linearGradient id="Unbenannter_Verlauf_84" data-name="Unbenannter Verlauf 8" x1="685.42" y1="338.53" x2="143.88" y2="145.51" xlink:href="#Unbenannter_Verlauf_8"/>
  </defs>
  <path class="st0" d="M203.26,231.86c26.25,0,41.29,12.98,41.29,35.83,0,24.03-15.04,37.89-41.29,37.89h-20.49v29.49h-23.3v-103.21h43.79ZM182.76,286.12h19.32c12.98,0,20.35-5.9,20.35-17.69s-7.37-17.25-20.35-17.25h-19.32v34.94Z"/>
  <path class="st1" d="M309.12,335.07h-23.3v-32.73l-38.19-70.48h23.44l26.39,46.3,25.8-46.3h23.44l-37.6,69.89v33.32Z"/>
  <path class="st4" d="M424.72,324.5h-15.67l-31.79-59.02v69.59h-21.08v-103.21h26.1l34.65,63,34.89-63h25.78l-52.87,92.64Z"/>
  <path class="st3" d="M630.79,305.67h-23.74v29.49h-23.3v-103.21h44.82c26.98,0,42.32,12.98,42.32,35.83,0,15.92-6.78,27.42-19.32,33.32l21.97,34.06h-26.39l-16.37-29.49ZM628.58,286.21c12.83,0,20.2-5.9,20.2-17.69s-7.37-17.25-20.2-17.25h-21.53v34.94h21.53Z"/>
  <path class="st2" d="M576.44,280.39l-10.33-17.87-4.78,2.82c-1.82,1.07-3.89,1.64-6,1.64h-10.37l7.98,13.82c.9,1.6.9,3.7,0,5.3l-14.9,25.8c-1,1.6-2.7,2.6-4.6,2.6h-29.8c-1.9,0-3.6-1-4.6-2.6l-14.9-25.8c-.9-1.6-.9-3.7,0-5.3l14.9-25.8c1-1.6,2.7-2.6,4.6-2.6h29.03l6.25,4.45c1.04.74,2.28,1.13,3.55,1.13h11.49c1.09,0,2.16-.29,3.11-.85l12.33-7.27c1.87-1.1,3.01-3.1,3.01-5.27v-4.17c0-2.08-1.06-4.02-2.81-5.14l-12.46-8c-.99-.63-2.13-.97-3.3-.97h-11.22c-1.36,0-2.68.45-3.75,1.28l-5.54,4.3h-41.08c-2.2,0-4.2,1.1-5.3,3l-26.3,45.5c-1.1,1.9-1.1,4.2,0,6.1l26.3,45.5c1.1,1.8,3.1,3,5.3,3h52.6c2.2,0,4.2-1.2,5.3-3l26.3-45.5c1.1-1.9,1.1-4.2,0-6.1ZM558.71,235.36c1.06,0,1.92.86,1.92,1.92s-.86,1.92-1.92,1.92-1.92-.86-1.92-1.92.86-1.92,1.92-1.92ZM558.71,244.64c1.06,0,1.92.86,1.92,1.92s-.86,1.92-1.92,1.92-1.92-.86-1.92-1.92.86-1.92,1.92-1.92Z"/>
</svg>
