<?xml version="1.0" encoding="UTF-8"?>
<!DOCTYPE svg PUBLIC "-//W3C//DTD SVG 1.1//EN" "http://www.w3.org/Graphics/SVG/1.1/DTD/svg11.dtd">
<svg version="1.2" width="381mm" height="254mm" viewBox="0 0 38100 25400" preserveAspectRatio="xMidYMid" fill-rule="evenodd" stroke-width="28.222" stroke-linejoin="round" xmlns="http://www.w3.org/2000/svg" xmlns:ooo="http://xml.openoffice.org/svg/export" xmlns:xlink="http://www.w3.org/1999/xlink" xmlns:presentation="http://sun.com/xmlns/staroffice/presentation" xmlns:smil="http://www.w3.org/2001/SMIL20/" xmlns:anim="urn:oasis:names:tc:opendocument:xmlns:animation:1.0" xmlns:svg="urn:oasis:names:tc:opendocument:xmlns:svg-compatible:1.0" xml:space="preserve">
 <defs class="ClipPathGroup">
  <clipPath id="presentation_clip_path" clipPathUnits="userSpaceOnUse">
   <rect x="0" y="0" width="38100" height="25400"/>
  </clipPath>
  <clipPath id="presentation_clip_path_shrink" clipPathUnits="userSpaceOnUse">
   <rect x="38" y="25" width="38024" height="25350"/>
  </clipPath>
 </defs>
 <defs class="TextShapeIndex">
  <g ooo:slide="id1" ooo:id-list="id3 id4"/>
 </defs>
 <defs class="EmbeddedBulletChars">
  <g id="bullet-char-template-57356" transform="scale(0.00048828125,-0.00048828125)">
   <path d="M 580,1141 L 1163,571 580,0 -4,571 580,1141 Z"/>
  </g>
  <g id="bullet-char-template-57354" transform="scale(0.00048828125,-0.00048828125)">
   <path d="M 8,1128 L 1137,1128 1137,0 8,0 8,1128 Z"/>
  </g>
  <g id="bullet-char-template-10146" transform="scale(0.00048828125,-0.00048828125)">
   <path d="M 174,0 L 602,739 174,1481 1456,739 174,0 Z M 1358,739 L 309,1346 659,739 1358,739 Z"/>
  </g>
  <g id="bullet-char-template-10132" transform="scale(0.00048828125,-0.00048828125)">
   <path d="M 2015,739 L 1276,0 717,0 1260,543 174,543 174,936 1260,936 717,1481 1274,1481 2015,739 Z"/>
  </g>
  <g id="bullet-char-template-10007" transform="scale(0.00048828125,-0.00048828125)">
   <path d="M 0,-2 C -7,14 -16,27 -25,37 L 356,567 C 262,823 215,952 215,954 215,979 228,992 255,992 264,992 276,990 289,987 310,991 331,999 354,1012 L 381,999 492,748 772,1049 836,1024 860,1049 C 881,1039 901,1025 922,1006 886,937 835,863 770,784 769,783 710,716 594,584 L 774,223 C 774,196 753,168 711,139 L 727,119 C 717,90 699,76 672,76 641,76 570,178 457,381 L 164,-76 C 142,-110 111,-127 72,-127 30,-127 9,-110 8,-76 1,-67 -2,-52 -2,-32 -2,-23 -1,-13 0,-2 Z"/>
  </g>
  <g id="bullet-char-template-10004" transform="scale(0.00048828125,-0.00048828125)">
   <path d="M 285,-33 C 182,-33 111,30 74,156 52,228 41,333 41,471 41,549 55,616 82,672 116,743 169,778 240,778 293,778 328,747 346,684 L 369,508 C 377,444 397,411 428,410 L 1163,1116 C 1174,1127 1196,1133 1229,1133 1271,1133 1292,1118 1292,1087 L 1292,965 C 1292,929 1282,901 1262,881 L 442,47 C 390,-6 338,-33 285,-33 Z"/>
  </g>
  <g id="bullet-char-template-9679" transform="scale(0.00048828125,-0.00048828125)">
   <path d="M 813,0 C 632,0 489,54 383,161 276,268 223,411 223,592 223,773 276,916 383,1023 489,1130 632,1184 813,1184 992,1184 1136,1130 1245,1023 1353,916 1407,772 1407,592 1407,412 1353,268 1245,161 1136,54 992,0 813,0 Z"/>
  </g>
  <g id="bullet-char-template-8226" transform="scale(0.00048828125,-0.00048828125)">
   <path d="M 346,457 C 273,457 209,483 155,535 101,586 74,649 74,723 74,796 101,859 155,911 209,963 273,989 346,989 419,989 480,963 531,910 582,859 608,796 608,723 608,648 583,586 532,535 482,483 420,457 346,457 Z"/>
  </g>
  <g id="bullet-char-template-8211" transform="scale(0.00048828125,-0.00048828125)">
   <path d="M -4,459 L 1135,459 1135,606 -4,606 -4,459 Z"/>
  </g>
  <g id="bullet-char-template-61548" transform="scale(0.00048828125,-0.00048828125)">
   <path d="M 173,740 C 173,903 231,1043 346,1159 462,1274 601,1332 765,1332 928,1332 1067,1274 1183,1159 1299,1043 1357,903 1357,740 1357,577 1299,437 1183,322 1067,206 928,148 765,148 601,148 462,206 346,322 231,437 173,577 173,740 Z"/>
  </g>
 </defs>
 <g>
  <g id="id2" class="Master_Slide">
   <g id="bg-id2" class="Background"/>
   <g id="bo-id2" class="BackgroundObjects"/>
  </g>
 </g>
 <g class="SlideGroup">
  <g>
   <g id="container-id1">
    <g id="id1" class="Slide" clip-path="url(#presentation_clip_path)">
     <g class="Page">
      <g class="com.sun.star.drawing.CustomShape">
       <g id="id3">
        <rect class="BoundingBox" stroke="none" fill="none" x="6428" y="250" width="24769" height="24598"/>
        <path fill="rgb(255,255,255)" stroke="none" d="M 31195,12549 C 31195,14707 30623,16828 29536,18697 28449,20567 26886,22119 25004,23198 23121,24278 20986,24846 18812,24846 16638,24846 14503,24278 12621,23198 10738,22119 9175,20567 8088,18697 7001,16828 6429,14707 6429,12549 6429,10390 7001,8269 8088,6400 9175,4530 10738,2978 12620,1899 14503,819 16638,251 18812,251 20986,251 23121,819 25003,1899 26886,2978 28449,4530 29536,6400 30623,8269 31195,10390 31195,12548 L 31195,12549 Z"/>
        <path fill="none" stroke="rgb(255,255,255)" d="M 31195,12549 C 31195,14707 30623,16828 29536,18697 28449,20567 26886,22119 25004,23198 23121,24278 20986,24846 18812,24846 16638,24846 14503,24278 12621,23198 10738,22119 9175,20567 8088,18697 7001,16828 6429,14707 6429,12549 6429,10390 7001,8269 8088,6400 9175,4530 10738,2978 12620,1899 14503,819 16638,251 18812,251 20986,251 23121,819 25003,1899 26886,2978 28449,4530 29536,6400 30623,8269 31195,10390 31195,12548 L 31195,12549 Z"/>
       </g>
      </g>
      <g class="Graphic">
       <g id="id4">
        <rect class="BoundingBox" stroke="none" fill="none" x="9880" y="2965" width="18941" height="18940"/>
        <defs>
         <clipPath id="clip_path_1" clipPathUnits="userSpaceOnUse">
          <path d="M 10138,3097 L 28810,3097 28810,21894 10138,21894 10138,3097 Z"/>
         </clipPath>
        </defs>
        <g clip-path="url(#clip_path_1)">
         <path fill="rgb(10,10,10)" stroke="none" d="M 16190,20188 C 15856,20276 15526,20380 15186,20445 15030,20474 14882,20520 14741,20420 14589,20311 14482,20151 14464,19965 14456,19877 14487,19653 14367,19625 14238,19594 14216,19800 14212,19882 14201,20173 14309,20360 14490,20578 L 13570,20662 C 13552,20477 13687,20200 13633,20040 13602,19949 13499,20016 13460,20062 13373,20164 13344,20311 13319,20439 L 13290,20439 C 13266,19956 13585,19628 13713,19184 13882,18604 13818,18007 13681,17428 13944,17342 14145,16850 14352,16652 15004,16026 15843,15748 16720,15993 16984,16067 17134,16249 17361,16384 17428,16423 17582,16478 17608,16358 17634,16233 17440,16106 17361,16037 17042,15760 16601,15678 16190,15644 15175,15562 13909,16293 13653,17317 L 13625,17317 C 13358,16174 12352,15321 11676,14417 10967,13468 10595,12394 10586,11211 11041,11814 11607,12588 12314,12907 12678,13071 13175,13102 13570,13102 14037,13102 14512,13000 14963,12887 15059,12864 15391,12809 15335,12647 15272,12464 14628,12694 14490,12725 13714,12900 12771,12942 12092,12466 10416,11294 9792,8598 11030,6891 11782,5854 13013,5280 14210,4903 14769,4727 15516,4652 16078,4831 16837,5072 17477,5704 18000,6278 18352,6663 18648,7127 18894,7588 18948,7687 19052,8017 19213,7961 19355,7911 19247,7698 19208,7615 19067,7322 18714,6960 18677,6640 18642,6325 18906,5951 19051,5692 19336,5183 19556,4644 19769,4103 19841,3918 20054,3304 19889,3136 19807,3055 19676,3119 19591,3160 19348,3277 19100,3401 18839,3474 18037,3697 17171,3720 16385,3966 16040,4074 15779,4293 15465,4450 15184,4592 14770,4544 14461,4590 13927,4671 13413,4822 12928,5066 12387,5338 11838,5646 11395,6060 10434,6955 10097,8231 10142,9511 10157,9968 10410,10368 10458,10811 10478,10989 10399,11175 10380,11351 10350,11623 10364,11972 10408,12243 10557,13185 11050,14068 11634,14808 12463,15860 13488,16867 13565,18292 13604,19005 13146,19476 13030,20133 12992,20349 13019,20748 13266,20824 13652,20943 14099,20820 14490,20761 15466,20614 16515,20378 17333,19786 17889,19385 18139,18705 17608,18188 17521,18104 17421,18005 17306,17961 17210,17923 17077,17965 17134,18089 17241,18327 17550,18423 17643,18682 17846,19255 17001,19840 16557,19975 16252,20068 16024,19579 15968,19352 15949,19272 15956,19091 15864,19055 15689,18985 15696,19324 15713,19407 15780,19723 15965,19967 16190,20188 L 16190,20188 16190,20188 Z M 18309,5162 C 18179,5305 17976,5596 17751,5563 17528,5530 17311,5257 17138,5127 16770,4850 16318,4582 15856,4521 16122,4146 16672,4145 17083,4092 17894,3986 18689,3819 19452,3517 19234,4121 18737,4695 18309,5162 L 18309,5162 Z M 18449,6361 L 17947,5776 C 18726,5285 19192,4368 19647,3601 19492,4575 18840,5472 18449,6361 L 18449,6361 Z M 15661,5335 C 16074,5534 16490,5750 16830,6064 17344,6537 17703,7244 17933,7894 17987,8044 18037,8636 18206,8680 18371,8723 18303,8410 18289,8340 18221,7989 18160,7604 18000,7281 17474,6222 16452,5007 15158,4995 15213,5209 15481,5248 15661,5335 L 15661,5335 Z M 13782,5936 C 13856,6027 14052,5997 14155,6011 14491,6053 14830,6091 15158,6178 15821,6354 16388,6899 16773,7448 17045,7835 17172,8269 17249,8730 17264,8820 17283,9105 17435,9068 17587,9031 17509,8744 17486,8647 17391,8228 17295,7758 17062,7393 16411,6372 15255,5655 14016,5789 13963,5794 13689,5824 13782,5936 L 13782,5936 Z M 12522,8759 C 12405,8199 12450,7727 12538,7169 12779,7185 13026,7022 13263,6969 13826,6841 14528,6793 15075,7023 15280,7110 15468,7224 15660,7333 15719,7367 15813,7416 15873,7356 16054,7173 15512,6941 15410,6890 14895,6633 14194,6536 13625,6654 13257,6731 12658,6867 12416,7183 12290,7347 12256,7583 12230,7783 12148,8368 12177,9270 12788,9567 12869,9280 12580,9038 12522,8759 L 12522,8759 Z M 12881,7581 C 12760,7737 12785,8153 12809,8340 12830,8501 12907,9138 13190,9046 13333,9000 13167,8751 13140,8674 13048,8423 12916,7852 13185,7675 13511,7460 14320,7550 14685,7638 14828,7672 15146,7875 15279,7812 15553,7683 15015,7459 14936,7433 14523,7300 13943,7256 13514,7326 13328,7356 13002,7425 12881,7581 L 12881,7581 Z M 18058,11909 C 18204,12175 18525,12458 18087,12604 18023,12626 17957,12644 17891,12661 L 17863,12020 C 17648,12105 17784,12511 17807,12689 L 17222,12745 17445,12020 17361,11992 17110,12745 16358,12627 15744,12160 C 15778,12500 16112,12819 16441,12897 16590,12932 16884,12900 16978,13048 17065,13185 16977,13452 16988,13609 17025,14147 16992,15125 17473,15476 17322,14890 17186,14358 17126,13748 17107,13562 17049,13202 17197,13055 17336,12916 17681,12942 17863,12940 L 18169,15031 18254,15031 C 18243,14336 18081,13593 17947,12912 L 18532,12717 19254,14139 19591,15142 C 19591,14546 19368,13993 19096,13470 18989,13266 18669,12910 18686,12675 18697,12498 19014,12296 19120,12160 19243,11999 19327,11510 19493,11435 19610,11382 19765,11475 19871,11521 20073,11611 20294,11702 20479,11824 20566,11883 20622,11999 20721,12037 20918,12116 21127,12054 21293,12239 21426,12387 21364,12646 21404,12829 21474,13140 21632,13424 21840,13664 22049,13903 22345,14125 22631,14265 22727,14312 22925,14374 22998,14255 23081,14119 22558,13911 22464,13845 21938,13474 21628,13004 21627,12355 L 22770,12995 C 22545,12655 22121,12523 21798,12298 21708,12235 21657,12070 21556,12037 21479,12012 21393,12058 21313,12044 21191,12023 21074,11950 20957,11909 21139,11666 21441,11292 21738,11196 22064,11091 22565,11211 22910,11211 22952,11385 23063,11532 23216,11628 23281,11669 23417,11709 23429,11591 23444,11445 23237,11294 23160,11184 L 23384,11156 23160,11100 C 23191,11020 23354,10744 23244,10681 23069,10582 22932,11009 22814,11067 22577,11184 22082,11065 21822,11045 L 21822,11016 C 22960,10422 23871,9378 25285,9574 25842,9652 26793,10088 26464,10819 26241,11317 25588,11474 25140,11674 24710,11865 24387,12160 24097,12522 23442,13339 23235,14668 22213,15178 21983,15293 21744,15138 21572,14989 21197,14665 20936,14178 20844,13693 20823,13585 20864,13065 20724,13050 20627,13041 20583,13175 20569,13247 20528,13450 20578,13689 20625,13888 20768,14496 21210,15268 21850,15449 21034,16343 19869,16502 18727,16665 18370,16716 18001,16732 17640,16731 17550,16731 17304,16682 17242,16764 17139,16899 17529,16925 17584,16927 17499,17251 17394,17999 17751,18181 17782,17887 17616,17072 18006,16969 18216,16914 18455,16969 18671,16942 19277,16867 19951,16752 20540,16591 21181,16416 21597,16022 22101,15617 22359,15410 22672,15218 22893,14970 23580,14198 23815,13089 24533,12359 25143,11738 26242,11784 26683,10989 27010,10396 26530,9661 25948,9480 25323,9285 24657,9247 24025,9461 23668,9582 23354,9808 22993,9930 L 22993,9901 23133,9845 23133,9818 C 22607,9821 22283,9294 21850,9039 21179,8645 20250,8451 19480,8591 19457,8459 19445,8271 19342,8173 19074,7920 18814,8448 18781,8647 18698,9132 18770,9676 18974,10125 19097,10397 19359,10917 19142,11203 18765,11700 18344,11255 18067,10932 18028,10886 17774,10544 17699,10684 17633,10806 17879,11069 17945,11156 18117,11379 18324,11602 18560,11759 18640,11812 18832,11865 18844,11977 18862,12139 18586,12324 18476,12410 18403,12207 18293,11947 18058,11909 L 18058,11909 Z M 19201,9344 L 19173,9344 C 19193,9079 19213,8835 19034,8619 L 19257,8368 19201,9344 19201,9344 Z M 22435,9874 C 21343,9889 20421,10205 19424,10626 L 19208,9962 19382,9511 19508,8730 C 20554,8947 21734,8890 22435,9874 L 22435,9874 Z M 19062,9567 L 19034,9455 19173,9428 19062,9567 19062,9567 Z M 16998,9533 C 16490,9612 16068,10052 15605,10236 15084,10442 14539,10357 14072,10715 13879,10863 13315,11404 13465,11693 13581,11920 13825,11389 13871,11323 14259,10765 14694,10770 15270,10575 15425,10522 15679,10307 15842,10341 15953,10363 16016,10543 16088,10619 16264,10802 16544,10949 16803,10916 17127,10878 18026,10402 17556,10013 17547,9752 17274,9491 16998,9533 L 16998,9533 Z M 24771,9954 C 24867,10084 24962,10172 24948,10347 24940,10452 24862,10566 24888,10670 24905,10741 24979,10769 25042,10738 25284,10621 25241,10121 25124,9936 25063,9841 24892,9713 24774,9784 24706,9825 24733,9903 24771,9954 L 24771,9954 Z M 16971,9818 C 17439,9809 17466,10424 17054,10570 L 16971,9818 16971,9818 Z M 25906,10292 C 25861,10475 25682,10569 25629,10739 25602,10825 25656,10911 25752,10887 25994,10827 26145,10485 26158,10264 26162,10198 26156,9903 26021,9962 25913,10009 25928,10198 25906,10292 L 25906,10292 Z M 21933,10654 L 21432,10994 20645,10969 19480,10933 C 19500,10572 19925,10528 20205,10411 20798,10163 21402,10026 22045,10012 22314,10006 22523,9962 22770,10096 L 21933,10654 21933,10654 Z M 16748,10626 C 16578,10660 16110,10513 16177,10272 16218,10125 16454,10057 16580,10013 16507,10269 16546,10444 16748,10626 L 16748,10626 Z M 21348,11128 C 21202,11298 20923,11669 20701,11722 20566,11756 20404,11638 20289,11581 20027,11451 19766,11333 19480,11267 L 19508,11016 C 20064,11172 20768,11096 21348,11128 L 21348,11128 Z M 14266,14012 C 13712,14176 13052,14224 12482,14131 12289,14100 12113,14038 11925,13990 11874,13976 11747,13950 11747,14040 11747,14329 12377,14369 12566,14396 13262,14496 14094,14399 14741,14113 14885,14049 15216,13967 15305,13833 15396,13696 15188,13671 15103,13686 14811,13738 14551,13928 14266,14012 L 14266,14012 Z M 14991,17873 C 15288,17693 15710,17622 16051,17570 16373,17520 16542,17578 16830,17711 16882,17735 16983,17767 17007,17688 17112,17344 16367,17309 16190,17327 15497,17402 14829,17609 14367,18153 14207,18341 14032,18564 14043,18822 14359,18492 14589,18118 14991,17873 L 14991,17873 Z"/>
         <path fill="rgb(203,60,51)" stroke="none" d="M 28649,15556 C 28649,16411 28424,17251 27997,17992 27569,18732 26954,19347 26213,19775 25472,20203 24633,20428 23778,20428 22922,20428 22082,20203 21341,19775 20601,19347 19985,18732 19558,17992 19130,17251 18905,16411 18905,15556 18905,14701 19130,13861 19558,13121 19985,12380 20601,11765 21341,11337 22082,10910 22922,10685 23777,10685 24633,10685 25472,10910 26213,11337 26954,11765 27569,12380 27997,13121 28424,13861 28649,14701 28649,15556 L 28649,15556 28649,15556 Z"/>
        </g>
        <defs>
         <clipPath id="clip_path_2" clipPathUnits="userSpaceOnUse">
          <path d="M 11814,11238 L 28810,8850 28810,21453 25673,21894 13312,21894 11814,11238 Z"/>
         </clipPath>
        </defs>
        <g clip-path="url(#clip_path_2)">
         <path fill="rgb(0,0,0)" stroke="none" d="M 21951,21295 C 21504,21250 20318,20912 19746,20666 18309,20048 16749,20320 14469,21587 14166,21756 14574,21348 14952,21105 16539,20083 18626,19828 19959,20494 20043,20536 20166,20585 20233,20603 20298,20620 20531,20692 20750,20763 22015,21169 22641,21147 23769,20661 24423,20378 25486,20071 25499,20162 25510,20237 25531,20226 24532,20620 23031,21213 22503,21351 21951,21295 L 21951,21295 Z M 22163,12908 C 22212,12049 22535,10857 22688,10972 22712,10991 22680,11156 22591,11468 22320,12422 22297,13453 22514,14978 22680,16158 23106,17812 23449,18620 23568,18900 24116,20098 24168,20192 24222,20288 24083,20244 23974,20131 23066,19189 22038,15084 22163,12908 L 22163,12908 Z M 24782,19061 C 24779,19042 24657,18758 24512,18428 24022,17321 23878,16880 23516,15366 23133,13766 23169,11455 23586,10902 23721,10723 23761,10832 23658,11104 23471,11603 23419,13367 23562,14385 23699,15359 24158,17029 24508,17826 24613,18066 24788,18469 24898,18723 25007,18977 25173,19303 25264,19448 25356,19593 25426,19724 25419,19739 25393,19798 25311,19777 25185,19678 25071,19590 24797,19171 24782,19061 L 24782,19061 Z M 26412,19271 C 26307,19108 26158,18879 26080,18763 25910,18508 25101,16632 24904,16032 24628,15197 24356,13623 24371,12938 24391,11873 24586,10989 24754,11192 24769,11211 24765,11238 24745,11255 24726,11271 24691,11412 24668,11568 24359,13632 24942,16088 26415,18935 26751,19585 26749,19794 26412,19271 L 26412,19271 Z M 22356,19907 C 21791,19552 21027,16864 21002,15141 20975,13269 21235,11584 21559,11538 21617,11530 21673,11620 21632,11655 21433,11824 21258,13190 21230,14795 21202,16373 21750,18635 22398,19610 22597,19910 22578,20045 22356,19907 L 22356,19907 Z M 26846,18531 C 27014,18485 27487,18190 27764,17958 28070,17703 28199,17739 27956,18013 27554,18469 26815,18901 26651,18776 26548,18699 26636,18588 26846,18531 L 26846,18531 Z M 20530,18368 C 20473,18167 20359,17780 20277,17510 19864,16151 19808,14910 20084,13227 20165,12740 20190,12657 20261,12648 20328,12638 20327,12721 20241,13590 20077,15246 20166,16469 20522,17492 20552,17578 20640,17879 20718,18159 20813,18504 20911,18775 21019,18997 21217,19406 21212,19531 21004,19374 20855,19261 20674,18880 20530,18368 L 20530,18368 Z M 26593,17812 C 27043,17605 27804,17052 28141,16685 28381,16426 28414,16536 28184,16824 27681,17453 26622,18165 26382,18034 26289,17982 26340,17929 26593,17812 L 26593,17812 Z M 19811,18194 C 19749,18122 19737,18092 19475,17275 19176,16347 19034,14955 19176,14347 19261,13980 19396,14028 19360,14413 19284,15210 19455,16425 19789,17463 20011,18154 20020,18431 19811,18194 L 19811,18194 19811,18194 Z M 26687,16409 C 27449,15857 27992,15380 28263,15025 28368,14887 28462,14865 28477,14974 28522,15290 26496,17024 26242,16887 26140,16832 26219,16748 26687,16409 L 26687,16409 Z M 25680,15861 C 26002,15678 26288,15459 26689,15087 26914,14878 27167,14646 27250,14571 27504,14341 27942,13894 27992,13814 28076,13677 28193,13722 28149,13876 28114,13995 27606,14562 27183,14951 26966,15152 26719,15383 26636,15464 26238,15853 25616,16185 25494,16074 25434,16019 25466,15981 25680,15861 L 25680,15861 Z M 25392,14950 C 25347,14910 25346,14897 25384,14867 25409,14848 25597,14703 25802,14545 26007,14387 26312,14116 26479,13944 26645,13771 26942,13470 27137,13275 27332,13080 27503,12891 27516,12854 27544,12780 27644,12719 27700,12744 27845,12807 26716,14122 26069,14643 25702,14939 25486,15036 25392,14950 L 25392,14950 25392,14950 Z M 24947,13890 C 24896,13843 24892,13845 25177,13731 25508,13599 26000,13176 26310,12759 26549,12435 26902,12045 26964,12036 27095,12018 27022,12155 26623,12686 25968,13558 25494,13941 25081,13932 25032,13932 24972,13912 24947,13890 L 24947,13890 Z M 24856,13071 C 24755,12996 24815,12895 25045,12748 25337,12563 25646,12259 25948,11858 26187,11542 26296,11468 26316,11608 26362,11940 25072,13234 24856,13071 L 24856,13071 Z M 24860,12011 C 24817,11934 25555,11308 25715,11285 25887,11261 25770,11421 25355,11779 25048,12043 24913,12107 24860,12011 L 24860,12011 Z"/>
        </g>
        <g clip-path="url(#clip_path_1)"/>
       </g>
      </g>
     </g>
    </g>
   </g>
  </g>
 </g>
</svg>