<?xml version="1.0" encoding="utf-8"?>
<!-- Generator: Adobe Illustrator 27.9.0, SVG Export Plug-In . SVG Version: 6.00 Build 0)  -->
<svg version="1.1" id="Layer_1" xmlns="http://www.w3.org/2000/svg" xmlns:xlink="http://www.w3.org/1999/xlink" x="0px" y="0px"
	 viewBox="0 0 106 106" style="enable-background:new 0 0 106 106;" xml:space="preserve">
<style type="text/css">
	.st0{fill:none;stroke:#181818;stroke-width:3;}
	.st1{fill:#181818;}
</style>
<path class="st0" d="M9.7,3h86.7c3.7,0,6.7,3,6.7,6.7v86.7c0,3.7-3,6.7-6.7,6.7H9.7C6,103,3,100,3,96.3V9.7C3,6,6,3,9.7,3z"/>
<g>
	<path class="st1" d="M52.9,51.5h14V38h-14V51.5z M52.9,68h14V54.3h-14V68z M70.1,68H91V38H70.1V68z"/>
	<polygon class="st1" points="41.2,68 36.7,68 31.7,49.8 26.7,68 22.3,68 15,38 20.5,38 24.7,56.9 29.7,38 33.7,38 38.7,56.9 
		42.9,38 48.5,38 	"/>
</g>
</svg>
