<?xml version="1.0" encoding="utf-8"?>
<!-- Generator: Adobe Illustrator 27.9.0, SVG Export Plug-In . SVG Version: 6.00 Build 0)  -->
<svg version="1.1" id="Layer_1" xmlns="http://www.w3.org/2000/svg" xmlns:xlink="http://www.w3.org/1999/xlink" x="0px" y="0px"
	 viewBox="0 0 231 100" style="enable-background:new 0 0 231 100;" xml:space="preserve">
<style type="text/css">
	.st0{clip-path:url(#SVGID_00000021110963050669299780000017873505144891653011_);}
	.st1{fill:#F97306;}
	.st2{fill:#231F20;}
	.st3{fill:#FFFFFF;}
</style>
<g>
	<g>
		<g>
			<g>
				<defs>
					<path id="SVGID_1_" d="M5,0h221c2.8,0,5,2.2,5,5v90c0,2.8-2.2,5-5,5H5c-2.8,0-5-2.2-5-5V5C0,2.2,2.2,0,5,0z"/>
				</defs>
				<clipPath id="SVGID_00000111182563810646041230000015437531148724008126_">
					<use xlink:href="#SVGID_1_"  style="overflow:visible;"/>
				</clipPath>
				<g style="clip-path:url(#SVGID_00000111182563810646041230000015437531148724008126_);">
					<rect y="0" class="st1" width="231" height="100"/>
					<g>
						<g>
							<path class="st2" d="M86.3,55.4L83,45.9l-3.3,9.5H86.3z M73,43.1v18h2.8l6.5-18H73z M92.2,55.3v-12h-8.3l6.5,18H97
								C94,60.6,92.2,58.3,92.2,55.3 M79.1,57.1l-1.5,4.1h10.5l-1.3-4.1H79.1z M113.4,59.7c2.5,0,4.1-1.2,4.1-3.3
								c0-0.9-0.3-1.7-0.8-2.3c-0.5-0.5-1.1-0.7-2.3-0.8l-2-0.4c-1.3-0.3-2.5-0.7-3.2-1.3c-0.9-0.8-1.3-1.9-1.3-3.3
								c0-2.5,1.6-4.4,4.1-4.9h-7.3v12c0,3.1-1.9,5.3-4.7,6h11.6c-1.6-0.3-2.9-0.9-4.1-2.3l1.3-1.3
								C109.9,59.1,111.4,59.7,113.4,59.7 M115.1,43.1c1.3,0.3,2.4,0.8,3.5,1.9l-1.2,1.2c-1.1-1.1-2.3-1.6-4.1-1.6
								c-2.4,0-3.7,1.3-3.7,3.3c0,0.9,0.3,1.6,0.8,2.1s1.5,0.8,2.4,0.9l2,0.3c1.7,0.3,2.5,0.7,3.2,1.2c0.9,0.8,1.5,2.1,1.5,3.6
								c0,2.7-1.7,4.4-4.4,4.9h114V43.1H115.1z M62.7,61.3h8.4V53h-8.4C62.7,53,62.7,61.3,62.7,61.3z M102.6,55.1V43.3H94v11.9
								c0,2.8,1.7,4.5,4.3,4.5C100.8,59.7,102.6,57.8,102.6,55.1 M62.7,51.3h8.4v-8.1h-8.4C62.7,43.2,62.7,51.3,62.7,51.3z"/>
						</g>
						<polygon class="st3" points="19.1,61.1 16.2,61.1 13,50.3 9.8,61.1 6.8,61.1 2.2,43.1 5.8,43.1 8.4,54.6 11.6,43.1 14.3,43.1 
							17.5,54.6 20.3,43.1 23.9,43.1 						"/>
						<g>
							<path class="st3" d="M33.6,47.3c-0.5-0.5-1.3-0.9-2.3-0.9s-1.7,0.4-2.3,0.9c-0.7,0.8-0.8,1.6-0.8,4.9c0,3.5,0.1,4.3,0.8,4.9
								c0.5,0.5,1.3,0.9,2.3,0.9s1.7-0.4,2.3-0.9c0.7-0.8,0.9-1.6,0.9-4.9C34.6,48.7,34.3,47.9,33.6,47.3 M36.2,59.3
								c-1.2,1.2-2.8,2-4.8,2s-3.6-0.7-4.8-2c-1.7-1.7-1.7-4-1.7-7.1s0-5.2,1.7-7.1c1.2-1.2,2.8-2,4.8-2s3.5,0.7,4.8,2
								c1.9,1.7,1.7,4,1.7,7.1C38,55.3,38,57.4,36.2,59.3"/>
						</g>
						<polygon class="st3" points="54.7,61.1 52,61.1 49.1,50.3 46,61.1 43.4,61.1 39,43.1 42.3,43.1 44.8,54.6 47.9,43.1 
							50.3,43.1 53.2,54.6 55.8,43.1 59.1,43.1 						"/>
					</g>
				</g>
			</g>
		</g>
	</g>
</g>
</svg>
