<?xml version="1.0" encoding="utf-8"?>
<!-- Generator: Adobe Illustrator 28.3.0, SVG Export Plug-In . SVG Version: 6.00 Build 0)  -->
<svg version="1.1" id="Layer_1" xmlns="http://www.w3.org/2000/svg" xmlns:xlink="http://www.w3.org/1999/xlink" x="0px" y="0px"
	 viewBox="0 0 116 50" style="enable-background:new 0 0 116 50;" xml:space="preserve">
<style type="text/css">
	.st0{clip-path:url(#SVGID_00000090275292026305776520000004675571271338583937_);}
	.st1{fill:#181818;}
	.st2{fill:#FFFFFF;}
</style>
<g>
	<g>
		<defs>
			<path id="SVGID_1_" d="M4,0h108c2.2,0,4,1.8,4,4v42c0,2.2-1.8,4-4,4H4c-2.2,0-4-1.8-4-4V4C0,1.8,1.8,0,4,0z"/>
		</defs>
		<clipPath id="SVGID_00000106853405700040309980000015579204925034771860_">
			<use xlink:href="#SVGID_1_"  style="overflow:visible;"/>
		</clipPath>
		<g style="clip-path:url(#SVGID_00000106853405700040309980000015579204925034771860_);">
			<rect class="st1" width="50" height="50"/>
			<rect x="50" class="st1" width="66" height="50"/>
			<g>
				<g>
					<path class="st2" d="M43.7,27.6l-1.6-4.7l-1.6,4.7H43.7z M37.1,21.6v8.9h1.3l3.1-8.9C41.5,21.6,37.1,21.6,37.1,21.6z
						 M46.5,27.5v-5.9h-4.1l3.1,8.9h3.3C47.4,30.2,46.5,29.1,46.5,27.5 M40.2,28.5l-0.7,2h5.2l-0.7-2H40.2z M57,29.7
						c1.3,0,2.1-0.7,2.1-1.6c0-0.5-0.1-0.9-0.4-1c-0.3-0.3-0.5-0.3-1.2-0.4l-1-0.1c-0.7-0.1-1.2-0.4-1.6-0.7
						c-0.4-0.4-0.7-0.9-0.7-1.7c0-1.3,0.8-2.2,2-2.5h-3.7v5.9c0,1.6-0.9,2.6-2.4,2.9h5.6c-0.8-0.1-1.4-0.5-2.1-1l0.7-0.7
						C55.3,29.5,55.9,29.7,57,29.7 M57.8,21.6c0.7,0.1,1.2,0.4,1.7,0.9l-0.7,0.7c-0.5-0.5-1-0.8-2-0.8C55.7,22.4,55,23,55,24
						c0,0.4,0.1,0.8,0.4,1c0.3,0.3,0.8,0.4,1.2,0.5l0.9,0.1c0.8,0.1,1.2,0.3,1.6,0.7c0.5,0.4,0.8,1,0.8,1.7c0,1.3-0.8,2.2-2.2,2.5
						h55.9v-8.9C113.5,21.6,57.8,21.6,57.8,21.6z M32.1,30.5h4.1v-4.1h-4.1V30.5z M51.7,27.5v-5.9h-4.2v5.9c0,1.3,0.8,2.2,2.1,2.2
						C50.8,29.7,51.7,28.8,51.7,27.5 M32.1,25.7h4.1v-3.9h-4.1V25.7z"/>
				</g>
				<polygon class="st2" points="10.8,30.5 9.3,30.5 7.8,25.1 6.1,30.5 4.7,30.5 2.4,21.6 4.1,21.6 5.5,27.2 7.1,21.6 8.3,21.6 
					9.9,27.2 11.3,21.6 13,21.6 				"/>
				<g>
					<path class="st2" d="M17.8,23.6c-0.3-0.3-0.7-0.5-1-0.5c-0.5,0-0.9,0.1-1,0.5c-0.4,0.4-0.4,0.8-0.4,2.5s0.1,2.1,0.4,2.5
						c0.3,0.3,0.7,0.4,1,0.4c0.5,0,0.8-0.1,1-0.4c0.4-0.4,0.4-0.8,0.4-2.5C18.2,24.3,18.2,24,17.8,23.6 M19.1,29.5
						c-0.7,0.7-1.3,0.9-2.4,0.9s-1.7-0.4-2.4-0.9c-0.9-0.8-0.9-2-0.9-3.4s0-2.6,0.9-3.4c0.7-0.7,1.3-0.9,2.4-0.9s1.7,0.4,2.4,0.9
						c0.9,0.9,0.9,2,0.9,3.4C19.9,27.5,19.9,28.7,19.1,29.5"/>
				</g>
				<polygon class="st2" points="28.2,30.5 26.9,30.5 25.4,25.1 24,30.5 22.7,30.5 20.5,21.6 22.2,21.6 23.3,27.2 24.8,21.6 
					25.9,21.6 27.5,27.2 28.7,21.6 30.4,21.6 				"/>
			</g>
		</g>
	</g>
</g>
</svg>
