<svg width="960" height="600" xmlns="http://www.w3.org/2000/svg" stroke-miterlimit="10" stroke-linecap="square" fill="none" version="1.1">
 <clipPath id="g35b24b9a603_18_12.0">
  <path id="svg_1" clip-rule="nonzero" d="m0,0l960,0l0,600l-960,0l0,-600z"/>
 </clipPath>

 <g>
  <title>Layer 1</title>
  <path id="svg_4" fill-rule="evenodd" d="m474.92584,144.48758c-10.39484,8.21762 -39.10284,39.02817 -62.36908,49.30576c-23.26627,10.27758 -58.57321,11.00665 -77.22839,12.35975c-18.65521,1.35312 -29.44986,-13.70479 -34.70282,-4.24109c-5.25296,9.4637 -4.03354,36.04526 3.18509,61.0233c7.21866,24.97803 25.29635,60.81729 40.1268,88.84485c14.83041,28.02759 26.75561,49.80661 48.85577,79.32059c22.10016,29.51398 69.78766,81.46939 83.74518,97.76328" fill-opacity="0" fill="#000000"/>
  <path id="svg_5" fill-rule="evenodd" d="m474.92584,144.48758c-10.39484,8.21762 -39.10284,39.02817 -62.36908,49.30576c-23.26627,10.27758 -58.57321,11.00665 -77.22839,12.35975c-18.65521,1.35312 -29.44986,-13.70479 -34.70282,-4.24109c-5.25296,9.4637 -4.03354,36.04526 3.18509,61.0233c7.21866,24.97803 25.29635,60.81729 40.1268,88.84485c14.83041,28.02759 26.75561,49.80661 48.85577,79.32059c22.10016,29.51398 69.78766,81.46939 83.74518,97.76328" stroke-linejoin="round" stroke-width="2" stroke="#000000"/>
  <path id="svg_6" fill-rule="evenodd" d="m473.49673,145.17097c10.05502,8.10251 37.40369,38.45058 60.33011,48.61507c22.92639,10.16449 58.57544,11.01674 77.22839,12.37187c18.65302,1.35513 29.43652,-13.70479 34.68951,-4.24109c5.25293,9.4637 4.04462,36.04729 -3.17181,61.0233c-7.21643,24.97598 -25.29633,60.80518 -40.12677,88.83273c-14.83044,28.02759 -27.81512,50.1257 -48.85577,79.3327c-21.04071,29.207 -64.49027,79.92444 -77.38834,95.90933" fill-opacity="0" fill="#000000"/>
  <path id="svg_7" fill-rule="evenodd" d="m473.49673,145.17097c10.05502,8.10251 37.40369,38.45058 60.33011,48.61507c22.92639,10.16449 58.57544,11.01674 77.22839,12.37187c18.65302,1.35513 29.43652,-13.70479 34.68951,-4.24109c5.25293,9.4637 4.04462,36.04729 -3.17181,61.0233c-7.21643,24.97598 -25.29633,60.80518 -40.12677,88.83273c-14.83044,28.02759 -27.81512,50.1257 -48.85577,79.3327c-21.04071,29.207 -64.49027,79.92444 -77.38834,95.90933" stroke-linejoin="round" stroke-width="2" stroke="#000000"/>
  <path id="svg_8" fill-rule="evenodd" d="m474.58588,181.69795c-8.37805,6.62593 -31.51611,31.4687 -50.26822,39.7556c-18.75214,8.2869 -47.2088,8.87474 -62.24451,9.96576c-15.0357,1.09103 -23.73599,-11.05028 -27.96975,-3.41962c-4.23377,7.63065 -3.25098,29.06357 2.5671,49.20352c5.81809,20.13999 20.38837,49.03745 32.34137,71.63629c11.95304,22.59885 21.56449,40.15943 39.37677,63.95676c17.81229,23.79736 56.24741,65.68939 67.49689,78.82727" fill="#0b5394"/>
  <path id="svg_9" fill-rule="evenodd" d="m474.58588,181.69795c-8.37805,6.62593 -31.51611,31.4687 -50.26822,39.7556c-18.75214,8.2869 -47.2088,8.87474 -62.24451,9.96576c-15.0357,1.09103 -23.73599,-11.05028 -27.96975,-3.41962c-4.23377,7.63065 -3.25098,29.06357 2.5671,49.20352c5.81809,20.13999 20.38837,49.03745 32.34137,71.63629c11.95304,22.59885 21.56449,40.15943 39.37677,63.95676c17.81229,23.79736 56.24741,65.68939 67.49689,78.82727" stroke-linejoin="round" stroke="#0b5394"/>
  <path id="svg_10" fill-rule="evenodd" d="m474.29504,181.38866c7.96094,6.8018 29.43231,32.34804 47.76556,40.81079c18.33319,8.46277 47.19983,8.87474 62.23377,9.96577c15.03387,1.09102 23.73596,-11.05027 27.96973,-3.41963c4.23376,7.63066 3.24914,29.06356 -2.56714,49.20354c-5.81629,20.13995 -20.37757,49.03744 -32.33063,71.63629c-11.953,22.59882 -22.42914,40.40857 -39.38745,63.95676c-16.95837,23.54818 -51.9689,64.44366 -62.36267,77.3324" fill="#9fc5e8"/>
  <path id="svg_11" fill-rule="evenodd" d="m474.29504,180.38866c7.96094,6.8018 29.43231,32.34804 47.76556,40.81079c18.33319,8.46277 47.19983,8.87474 62.23377,9.96577c15.03387,1.09102 23.73596,-11.05027 27.96973,-3.41963c4.23376,7.63066 3.24914,29.06356 -2.56714,49.20354c-5.81629,20.13995 -20.37757,49.03744 -32.33063,71.63629c-11.953,22.59882 -22.42914,40.40857 -39.38745,63.95676c-16.95837,23.54818 -51.9689,64.44366 -62.36267,77.3324" stroke-linejoin="round" stroke="#9fc5e8"/>
  <path id="svg_12" fill-rule="evenodd" d="m589.4201,313.62103l-9.95746,-24.37521l0,0c-5.49933,-13.46207 0.88593,-28.29663 14.2619,-33.13394c13.37604,-4.83732 28.67749,2.15445 34.17688,15.61648l9.95746,24.37525l-48.43878,17.51742z" fill="#0b5394"/>
  <path id="svg_13" fill-rule="evenodd" d="m589.4201,313.62103l-9.95746,-24.37521l0,0c-5.49933,-13.46207 0.88593,-28.29663 14.2619,-33.13394c13.37604,-4.83732 28.67749,2.15445 34.17688,15.61648l9.95746,24.37525l-48.43878,17.51742z" stroke-linejoin="round" stroke="#595959"/>
  <path id="svg_14" fill-rule="evenodd" d="m638.11597,296.0945l9.95746,24.37521l0,0c5.49933,13.46207 -0.88593,28.29663 -14.26196,33.13394c-13.37598,4.83728 -28.67749,-2.15445 -34.17682,-15.61651l-9.95746,-24.37522l48.43878,-17.51742z" fill="#cfe2f3"/>
  <path id="svg_15" fill-rule="evenodd" d="m638.11597,296.0945l9.95746,24.37521l0,0c5.49933,13.46207 -0.88593,28.29663 -14.26196,33.13394c-13.37598,4.83728 -28.67749,-2.15445 -34.17682,-15.61651l-9.95746,-24.37522l48.43878,-17.51742z" stroke-linejoin="round" stroke="#595959"/>
  <path id="svg_16" fill-rule="evenodd" d="m394.49368,455.55435l-22.28409,35.09518l0,0c-12.30716,19.38254 -37.40262,24.58771 -56.05228,11.6261c-18.64965,-12.96164 -23.79126,-39.18173 -11.48413,-58.56427l22.28409,-35.09518l67.53641,46.93817z" fill="#0b5394"/>
  <path id="svg_17" fill-rule="evenodd" d="m394.49368,455.55435l-22.28409,35.09518l0,0c-12.30716,19.38254 -37.40262,24.58771 -56.05228,11.6261c-18.64965,-12.96164 -23.79126,-39.18173 -11.48413,-58.56427l22.28409,-35.09518l67.53641,46.93817z" stroke-linejoin="round" stroke="#595959"/>
  <path id="svg_18" fill-rule="evenodd" d="m326.70724,408.29074l22.28409,-35.09518l0,0c12.30716,-19.38251 37.40262,-24.58771 56.05228,-11.62607c18.64965,12.96161 23.79126,39.18173 11.48413,58.56427l-22.28409,35.09515l-67.53641,-46.93817z" fill="#cfe2f3"/>
  <path id="svg_19" fill-rule="evenodd" d="m326.70724,408.29074l22.28409,-35.09518l0,0c12.30716,-19.38251 37.40262,-24.58771 56.05228,-11.62607c18.64965,12.96161 23.79126,39.18173 11.48413,58.56427l-22.28409,35.09515l-67.53641,-46.93817z" stroke-linejoin="round" stroke="#595959"/>
  <path id="svg_20" fill-rule="evenodd" d="m311.64734,139.79837l-11.23908,-22.91312l0,0c-6.20715,-12.65458 -1.54467,-27.74854 10.41398,-33.71332c11.95864,-5.96478 26.68493,-0.54164 32.89212,12.11293l11.23904,22.91312l-43.30606,21.60039z" fill="#0b5394"/>
  <path id="svg_21" fill-rule="evenodd" d="m311.64734,139.79837l-11.23908,-22.91312l0,0c-6.20715,-12.65458 -1.54467,-27.74854 10.41398,-33.71332c11.95864,-5.96478 26.68493,-0.54164 32.89212,12.11293l11.23904,22.91312l-43.30606,21.60039z" stroke-linejoin="round" stroke="#595959"/>
  <path id="svg_22" fill-rule="evenodd" d="m355.19028,118.16535l11.23907,22.91312l0,0c6.20716,12.65458 1.54465,27.74855 -10.414,33.71334c-11.95861,5.96478 -26.68493,0.54164 -32.89209,-12.11293l-11.23907,-22.91313l43.30609,-21.6004z" fill="#cfe2f3"/>
  <path id="svg_23" fill-rule="evenodd" d="m355.19028,118.16535l11.23907,22.91312l0,0c6.20716,12.65458 1.54465,27.74855 -10.414,33.71334c-11.95861,5.96478 -26.68493,0.54164 -32.89209,-12.11293l-11.23907,-22.91313l43.30609,-21.6004z" stroke-linejoin="round" stroke="#595959"/>
  <path id="svg_24" fill-rule="evenodd" d="m607.598,110.95464l-9.47327,16.04661l0,0c-5.23193,8.86229 -16.30951,12.07271 -24.74237,7.17064c-8.43286,-4.90205 -11.02777,-16.06027 -5.79583,-24.92257l9.47326,-16.04661l30.53821,17.75193z" fill="#0b5394"/>
  <path id="svg_25" fill-rule="evenodd" d="m607.598,110.95464l-9.47327,16.04661l0,0c-5.23193,8.86229 -16.30951,12.07271 -24.74237,7.17064c-8.43286,-4.90205 -11.02777,-16.06027 -5.79583,-24.92257l9.47326,-16.04661l30.53821,17.75193z" stroke-linejoin="round" stroke="#595959"/>
  <path id="svg_26" fill-rule="evenodd" d="m576.94495,93.07131l9.47333,-16.04661l0,0c5.23193,-8.8623 16.30945,-12.07271 24.74231,-7.17064c8.43292,4.90206 11.02777,16.06027 5.79584,24.92257l-9.47327,16.04661l-30.53821,-17.75193z" fill="#cfe2f3"/>
  <path id="svg_27" fill-rule="evenodd" d="m576.94495,93.07131l9.47333,-16.04661l0,0c5.23193,-8.8623 16.30945,-12.07271 24.74231,-7.17064c8.43292,4.90206 11.02777,16.06027 5.79584,24.92257l-9.47327,16.04661l-30.53821,-17.75193z" stroke-linejoin="round" stroke="#595959"/>
  <path id="svg_28" fill-rule="evenodd" d="m473.77246,73.89259l-2.89661,11.79242l0,0c-1.59976,6.51277 -8.56411,10.37193 -15.55532,8.61968c-6.99125,-1.75224 -11.36188,-8.45237 -9.76212,-14.96514l2.89661,-11.79242l25.31744,6.34546z" fill="#0b5394"/>
  <path id="svg_29" fill-rule="evenodd" d="m473.77246,73.89259l-2.89661,11.79242l0,0c-1.59976,6.51277 -8.56411,10.37193 -15.55532,8.61968c-6.99125,-1.75224 -11.36188,-8.45237 -9.76212,-14.96514l2.89661,-11.79242l25.31744,6.34546z" stroke-linejoin="round" stroke="#595959"/>
  <path id="svg_30" fill-rule="evenodd" d="m448.34494,67.48201l2.89661,-11.79242l0,0c1.59976,-6.51277 8.56411,-10.37193 15.55532,-8.61968c6.99122,1.75225 11.36188,8.45237 9.76212,14.96514l-2.89661,11.79242l-25.31744,-6.34546z" fill="#cfe2f3"/>
  <path id="svg_31" fill-rule="evenodd" d="m448.34494,67.48201l2.89661,-11.79242l0,0c1.59976,-6.51277 8.56411,-10.37193 15.55532,-8.61968c6.99122,1.75225 11.36188,8.45237 9.76212,14.96514l-2.89661,11.79242l-25.31744,-6.34546z" stroke-linejoin="round" stroke="#595959"/>
 </g>
</svg>