<?xml version="1.0" encoding="UTF-8" standalone="no"?>
<!-- Created with Inkscape (http://www.inkscape.org/) -->

<svg
   width="20.540001mm"
   height="20.540003mm"
   viewBox="0 0 20.540001 20.540004"
   version="1.1"
   id="svg5"
   xml:space="preserve"
   xmlns="http://www.w3.org/2000/svg"
   xmlns:svg="http://www.w3.org/2000/svg"><defs
     id="defs2"><marker
       style="overflow:visible"
       id="RoundedArrow"
       refX="0"
       refY="0"
       orient="auto-start-reverse"
       markerWidth="6.1347523"
       markerHeight="5.9304953"
       viewBox="0 0 6.1347524 5.9304951"
       preserveAspectRatio="xMidYMid"><path
         transform="scale(0.7)"
         d="m -0.21114562,-4.1055728 6.42229122,3.21114561 a 1,1 90 0 1 0,1.78885438 L -0.21114562,4.1055728 A 1.236068,1.236068 31.717474 0 1 -2,3 v -6 a 1.236068,1.236068 148.28253 0 1 1.78885438,-1.1055728 z"
         style="fill:context-stroke;fill-rule:evenodd;stroke:none"
         id="path1367" /></marker></defs><g
     id="layer1"><g
       id="g7187"
       transform="matrix(0.39684999,0,0,0.39684999,24.969975,13.839997)"><g
         id="g7175"><path
           style="fill:#d8a323;fill-opacity:1;stroke-width:0.304001"
           d="m -62.177083,6.35 c 0,0.79375 0,1.0583333 1.322916,1.0583333 H -23.8125 V -21.166667 c 0,-1.5875 -0.264583,-1.852083 -1.852083,-1.852083 H -39.6875 c -1.058333,0 -4.7625,-5.55625 -5.55625,-5.55625 h -15.610417 c -1.322916,0 -1.322916,0 -1.322916,1.058333 z"
           id="path320" /><path
           style="fill:#f4bd36;fill-opacity:1;stroke-width:0.304001"
           d="m -60.854167,7.4082933 c 1.868763,0.173 7.138098,-20.9617993 7.138098,-20.9617993 0.270236,-0.733994 1.328569,-2.321494 3.445236,-2.321494 h 33.602083 c 0,0 2.327335,-0.268719 1.322917,3.175 0,0 0,0 -5.55625,19.05 -0.165655,0.5679614 -0.264584,1.0583333 -2.38125,1.0583333 h -37.570834 z"
           id="path844" /></g><g
         id="g7159"><circle
           style="fill:#7ad32d;fill-opacity:1;stroke-width:0.304001"
           id="path3218"
           cx="-22.489584"
           cy="-3.1789145e-07"
           r="10.583333" /><path
           style="fill:none;fill-opacity:1;stroke:#ffffff;stroke-width:1.204;stroke-linecap:round;stroke-linejoin:round;stroke-dasharray:none;stroke-opacity:1"
           d="M -29.104166,2.6458333 V 5.2916666 H -15.875 V 2.6458333"
           id="path4988" /><path
           style="fill:none;fill-opacity:1;stroke:#ffffff;stroke-width:0.804;stroke-dasharray:none;stroke-opacity:1;marker-start:url(#RoundedArrow)"
           d="M -22.489583,-1.3229167 V -5.2916666"
           id="path6310" /><path
           style="fill:none;fill-opacity:1;stroke:#ffffff;stroke-width:1.204;stroke-linecap:round;stroke-linejoin:round;stroke-dasharray:none;stroke-opacity:1"
           d="M -22.489583,0 V -5.2916666"
           id="path6585" /></g></g></g></svg>
