<svg width="20" height="20" viewBox="0 0 20 20" fill="none" xmlns="http://www.w3.org/2000/svg">
<path d="M2 2C2 0.895431 2.89543 0 4 0H12L18 6V18C18 19.1046 17.1046 20 16 20H4C2.89543 20 2 19.1046 2 18V2Z" fill="#155EEF"/>
<path opacity="0.3" d="M12 0L18 6H14C12.8954 6 12 5.10457 12 4V0Z" fill="white"/>
<path d="M6.35574 15.5H5.19558V12.2273H6.36532C6.69451 12.2273 6.97789 12.2928 7.21547 12.4238C7.45304 12.5538 7.63574 12.7408 7.76358 12.9847C7.89249 13.2287 7.95694 13.5206 7.95694 13.8604C7.95694 14.2013 7.89249 14.4943 7.76358 14.7393C7.63574 14.9844 7.45197 15.1724 7.21227 15.3034C6.97363 15.4345 6.68812 15.5 6.35574 15.5ZM5.88752 14.9071H6.32697C6.53152 14.9071 6.70357 14.8709 6.84313 14.7985C6.98375 14.725 7.08922 14.6115 7.15953 14.4581C7.23091 14.3036 7.2666 14.1044 7.2666 13.8604C7.2666 13.6186 7.23091 13.421 7.15953 13.2676C7.08922 13.1142 6.98429 13.0012 6.84473 12.9288C6.70517 12.8564 6.53311 12.8201 6.32857 12.8201H5.88752V14.9071ZM11.477 13.8636C11.477 14.2205 11.4093 14.5241 11.274 14.7745C11.1398 15.0249 10.9565 15.2161 10.7243 15.3482C10.4931 15.4792 10.2332 15.5447 9.94447 15.5447C9.65363 15.5447 9.39262 15.4787 9.16144 15.3466C8.93026 15.2145 8.74756 15.0233 8.61333 14.7729C8.47909 14.5225 8.41198 14.2195 8.41198 13.8636C8.41198 13.5067 8.47909 13.2031 8.61333 12.9528C8.74756 12.7024 8.93026 12.5117 9.16144 12.3807C9.39262 12.2486 9.65363 12.1825 9.94447 12.1825C10.2332 12.1825 10.4931 12.2486 10.7243 12.3807C10.9565 12.5117 11.1398 12.7024 11.274 12.9528C11.4093 13.2031 11.477 13.5067 11.477 13.8636ZM10.7754 13.8636C10.7754 13.6325 10.7408 13.4375 10.6716 13.2788C10.6034 13.12 10.507 12.9996 10.3823 12.9176C10.2577 12.8356 10.1117 12.7946 9.94447 12.7946C9.77721 12.7946 9.63126 12.8356 9.50661 12.9176C9.38197 12.9996 9.28502 13.12 9.21578 13.2788C9.14759 13.4375 9.1135 13.6325 9.1135 13.8636C9.1135 14.0948 9.14759 14.2898 9.21578 14.4485C9.28502 14.6072 9.38197 14.7276 9.50661 14.8097C9.63126 14.8917 9.77721 14.9327 9.94447 14.9327C10.1117 14.9327 10.2577 14.8917 10.3823 14.8097C10.507 14.7276 10.6034 14.6072 10.6716 14.4485C10.7408 14.2898 10.7754 14.0948 10.7754 13.8636ZM14.8771 13.373H14.1772C14.1644 13.2825 14.1383 13.2021 14.0989 13.1317C14.0595 13.0604 14.0089 12.9996 13.9471 12.9496C13.8853 12.8995 13.8139 12.8612 13.733 12.8345C13.6531 12.8079 13.5662 12.7946 13.4725 12.7946C13.3031 12.7946 13.1555 12.8366 13.0298 12.9208C12.9041 13.0039 12.8066 13.1254 12.7374 13.2852C12.6681 13.4439 12.6335 13.6367 12.6335 13.8636C12.6335 14.0969 12.6681 14.293 12.7374 14.4517C12.8077 14.6104 12.9057 14.7303 13.0314 14.8113C13.1571 14.8922 13.3026 14.9327 13.4677 14.9327C13.5604 14.9327 13.6461 14.9205 13.725 14.896C13.8049 14.8714 13.8757 14.8358 13.9375 14.7889C13.9993 14.7409 14.0504 14.6829 14.0909 14.6147C14.1325 14.5465 14.1612 14.4687 14.1772 14.3814L14.8771 14.3846C14.859 14.5348 14.8137 14.6797 14.7413 14.8192C14.6699 14.9577 14.5735 15.0819 14.4521 15.1916C14.3317 15.3002 14.1879 15.3865 14.0206 15.4505C13.8544 15.5133 13.6664 15.5447 13.4565 15.5447C13.1646 15.5447 12.9036 15.4787 12.6735 15.3466C12.4444 15.2145 12.2633 15.0233 12.1301 14.7729C11.998 14.5225 11.932 14.2195 11.932 13.8636C11.932 13.5067 11.9991 13.2031 12.1333 12.9528C12.2676 12.7024 12.4498 12.5117 12.6799 12.3807C12.91 12.2486 13.1689 12.1825 13.4565 12.1825C13.6461 12.1825 13.8219 12.2092 13.9838 12.2624C14.1468 12.3157 14.2912 12.3935 14.4169 12.4957C14.5426 12.5969 14.6449 12.7211 14.7237 12.8681C14.8036 13.0151 14.8548 13.1834 14.8771 13.373Z" fill="white"/>
</svg>
