<svg width="16" height="16" viewBox="0 0 16 16" fill="none" xmlns="http://www.w3.org/2000/svg">
<path d="M1.6001 1.6C1.6001 0.716345 2.31644 0 3.2001 0H9.6001L14.4001 4.8V14.4C14.4001 15.2837 13.6838 16 12.8001 16H3.2001C2.31644 16 1.6001 15.2837 1.6001 14.4V1.6Z" fill="#D92D20"/>
<path opacity="0.3" d="M9.6001 0L14.4001 4.8H11.2001C10.3164 4.8 9.6001 4.08366 9.6001 3.2V0Z" fill="white"/>
<path d="M4.69972 12.2002V9.58201H5.73268C5.93126 9.58201 6.10044 9.61994 6.24021 9.69579C6.37998 9.77079 6.48651 9.8752 6.55981 10.009C6.63396 10.142 6.67103 10.2954 6.67103 10.4692C6.67103 10.6431 6.63353 10.7965 6.55853 10.9295C6.48353 11.0624 6.37487 11.166 6.23254 11.2401C6.09106 11.3143 5.91975 11.3513 5.71862 11.3513H5.06024V10.9077H5.62913C5.73566 10.9077 5.82345 10.8894 5.89248 10.8528C5.96237 10.8153 6.01436 10.7637 6.04845 10.6981C6.08339 10.6316 6.10086 10.5553 6.10086 10.4692C6.10086 10.3823 6.08339 10.3064 6.04845 10.2417C6.01436 10.176 5.96237 10.1253 5.89248 10.0895C5.82259 10.0529 5.73396 10.0346 5.62657 10.0346H5.25328V12.2002H4.69972ZM7.95871 12.2002H7.03058V9.58201H7.96638C8.22973 9.58201 8.45644 9.63443 8.64649 9.73926C8.83655 9.84323 8.98271 9.99281 9.08499 10.188C9.18811 10.3831 9.23968 10.6167 9.23968 10.8885C9.23968 11.1613 9.18811 11.3956 9.08499 11.5917C8.98271 11.7877 8.8357 11.9381 8.64394 12.043C8.45303 12.1478 8.22462 12.2002 7.95871 12.2002ZM7.58414 11.7259H7.9357C8.09933 11.7259 8.23698 11.6969 8.34862 11.639C8.46112 11.5802 8.5455 11.4894 8.60175 11.3667C8.65885 11.2431 8.6874 11.0837 8.6874 10.8885C8.6874 10.6951 8.65885 10.537 8.60175 10.4143C8.5455 10.2915 8.46155 10.2012 8.3499 10.1432C8.23825 10.0853 8.10061 10.0563 7.93698 10.0563H7.58414V11.7259ZM9.64972 12.2002V9.58201H11.3832V10.0384H10.2033V10.6623H11.2682V11.1187H10.2033V12.2002H9.64972Z" fill="white"/>
</svg>
