<?xml version="1.0" encoding="UTF-8" standalone="no"?>
<svg
   xmlns:dc="http://purl.org/dc/elements/1.1/"
   xmlns:cc="http://creativecommons.org/ns#"
   xmlns:rdf="http://www.w3.org/1999/02/22-rdf-syntax-ns#"
   xmlns:svg="http://www.w3.org/2000/svg"
   xmlns="http://www.w3.org/2000/svg"
   xmlns:sodipodi="http://sodipodi.sourceforge.net/DTD/sodipodi-0.dtd"
   xmlns:inkscape="http://www.inkscape.org/namespaces/inkscape"
   width="500"
   height="500"
   viewBox="0 0 132.29166 132.29167"
   version="1.1"
   id="svg8"
   inkscape:version="1.0.2 (e86c870879, 2021-01-15)"
   sodipodi:docname="pyd_logo.svg"
   inkscape:export-filename="/home/kristian/Documents/pydelica/media/pyd_logo.png"
   inkscape:export-xdpi="102.095"
   inkscape:export-ydpi="102.095">
  <defs
     id="defs2" />
  <sodipodi:namedview
     id="base"
     pagecolor="#ffffff"
     bordercolor="#666666"
     borderopacity="1.0"
     inkscape:pageopacity="0.0"
     inkscape:pageshadow="2"
     inkscape:zoom="0.66795897"
     inkscape:cx="219.55946"
     inkscape:cy="283.98355"
     inkscape:document-units="mm"
     inkscape:current-layer="layer1"
     inkscape:document-rotation="0"
     showgrid="false"
     units="px"
     inkscape:window-width="1514"
     inkscape:window-height="752"
     inkscape:window-x="122"
     inkscape:window-y="114"
     inkscape:window-maximized="0" />
  <metadata
     id="metadata5">
    <rdf:RDF>
      <cc:Work
         rdf:about="">
        <dc:format>image/svg+xml</dc:format>
        <dc:type
           rdf:resource="http://purl.org/dc/dcmitype/StillImage" />
        <dc:title></dc:title>
      </cc:Work>
    </rdf:RDF>
  </metadata>
  <g
     inkscape:label="Layer 1"
     inkscape:groupmode="layer"
     id="layer1">
    <g
       id="g1231">
      <path
         style="fill:none;stroke:#000000;stroke-width:1.42752;stroke-linecap:butt;stroke-linejoin:miter;stroke-miterlimit:4;stroke-dasharray:2.85502, 1.42752;stroke-dashoffset:0;stroke-opacity:1"
         d="M 64.530571,5.966103 64.809035,128.45647"
         id="path855"
         sodipodi:nodetypes="cc" />
      <path
         sodipodi:type="star"
         style="opacity:1;fill:#000000;fill-opacity:1;stroke-width:0.860916;stroke-miterlimit:4;stroke-dasharray:1.72182, 0.860916;stroke-dashoffset:0"
         id="path879"
         sodipodi:sides="3"
         sodipodi:cx="64.530579"
         sodipodi:cy="5.9661031"
         sodipodi:r1="3.5936062"
         sodipodi:r2="1.796803"
         sodipodi:arg1="0.52359878"
         sodipodi:arg2="1.5707963"
         inkscape:flatsided="false"
         inkscape:rounded="0"
         inkscape:randomized="0"
         d="m 67.642733,7.7629062 -3.112154,-10e-8 -3.112155,10e-8 1.556078,-2.6952046 1.556077,-2.6952048 1.556077,2.6952047 z"
         inkscape:transform-center-y="-0.8984014"
         inkscape:transform-center-x="-6.5957882e-06" />
      <path
         style="opacity:0.986932;fill:#00aaff;fill-opacity:0;stroke:#000000;stroke-width:8.22231;stroke-linecap:butt;stroke-linejoin:miter;stroke-miterlimit:4;stroke-dasharray:none;stroke-opacity:1"
         d="m 64.457561,67.914124 c 0,0 -31.463125,-0.932807 -30.906945,24.18809 0.561357,25.354836 30.906945,25.125106 30.906945,25.125106"
         id="path833-6"
         sodipodi:nodetypes="csc" />
      <path
         style="opacity:0.986932;fill:#ff0000;fill-opacity:0;stroke:#000000;stroke-width:8.22231;stroke-linecap:butt;stroke-linejoin:miter;stroke-miterlimit:4;stroke-dasharray:none;stroke-opacity:1"
         d="m 64.457561,18.600928 c 0,0 31.463126,-0.932809 30.906945,24.188089 -0.561357,25.354836 -30.906945,25.125107 -30.906945,25.125107"
         id="path833"
         sodipodi:nodetypes="csc" />
      <path
         style="fill:#000000;fill-opacity:1;stroke:#000000;stroke-width:0.293486px;stroke-linecap:butt;stroke-linejoin:miter;stroke-opacity:1"
         d="m 63.86694,113.5849 c 2.794104,-0.12188 4.139518,0.62169 6.480452,0.52977 29.38244,-1.15376 26.026838,-0.97348 31.384098,-2.18137 5.78408,-1.30411 -10.752769,10.19623 -35.578285,9.43848 -24.825517,-0.75776 -2.286264,-7.78688 -2.286264,-7.78688 z"
         id="path883"
         sodipodi:nodetypes="cssscc" />
      <g
         id="g1087"
         transform="rotate(90,65.588911,66.472815)">
        <path
           style="fill:none;stroke:#000000;stroke-width:1.42752;stroke-linecap:butt;stroke-linejoin:miter;stroke-miterlimit:4;stroke-dasharray:2.85502, 1.42752;stroke-dashoffset:0;stroke-opacity:1"
           d="M 64.530573,5.9661007 64.809037,128.45647"
           id="path855-1"
           sodipodi:nodetypes="cc" />
        <path
           sodipodi:type="star"
           style="fill:#000000;fill-opacity:1;stroke-width:0.860916;stroke-miterlimit:4;stroke-dasharray:1.72182, 0.860916;stroke-dashoffset:0"
           id="path879-2"
           sodipodi:sides="3"
           sodipodi:cx="64.530579"
           sodipodi:cy="5.9661031"
           sodipodi:r1="3.5936062"
           sodipodi:r2="1.796803"
           sodipodi:arg1="0.52359878"
           sodipodi:arg2="1.5707963"
           inkscape:flatsided="false"
           inkscape:rounded="0"
           inkscape:randomized="0"
           inkscape:transform-center-y="-0.89840139"
           inkscape:transform-center-x="-6.6026243e-06"
           d="m 67.642733,7.7629062 -3.112154,-10e-8 -3.112155,10e-8 1.556078,-2.6952046 1.556077,-2.6952048 1.556077,2.6952047 z" />
      </g>
      <path
         style="opacity:0.986932;fill:none;fill-opacity:0.649691;stroke:#000000;stroke-width:8.22231;stroke-linecap:butt;stroke-linejoin:miter;stroke-miterlimit:4;stroke-dasharray:none;stroke-opacity:1"
         d="m 64.45758,67.914124 c 0,0 -30.327708,1.979479 -29.848627,24.18809 0.546959,25.355146 29.848627,25.125106 29.848627,25.125106"
         id="path833-6-5"
         sodipodi:nodetypes="csc" />
      <path
         style="opacity:0.986932;fill:none;fill-opacity:0.649691;stroke:#000000;stroke-width:8.22231;stroke-linecap:butt;stroke-linejoin:miter;stroke-miterlimit:4;stroke-dasharray:none;stroke-opacity:1"
         d="m 64.45756,18.600928 c 0,0 31.46313,-0.932809 30.90695,24.188089 -0.56136,25.354836 -30.90695,25.125107 -30.90695,25.125107"
         id="path833-5"
         sodipodi:nodetypes="csc" />
      <path
         style="fill:#000000;fill-opacity:1;stroke:#000000;stroke-width:0.293486px;stroke-linecap:butt;stroke-linejoin:miter;stroke-opacity:1"
         d="m 63.86696,113.5849 c 2.7941,-0.12188 4.13952,0.62169 6.48045,0.52977 29.38246,-1.15376 26.02686,-0.97348 31.38412,-2.18137 5.78408,-1.30411 -13.00454,9.10306 -37.83007,8.34531 -24.82553,-0.75776 -0.0345,-6.69371 -0.0345,-6.69371 z"
         id="path883-2"
         sodipodi:nodetypes="csssc" />
      <path
         style="fill:none;stroke:#0000ff;stroke-width:5.244;stroke-linecap:butt;stroke-linejoin:miter;stroke-miterlimit:4;stroke-dasharray:none;stroke-opacity:1"
         d="m 63.415047,73.564016 c 0,0 -23.292722,1.990593 -23.292722,18.497656 0,16.507028 15.645608,19.445588 23.292722,19.445588 V 17.099913"
         id="path896-9"
         sodipodi:nodetypes="cscc" />
      <path
         style="fill:none;stroke:#ff0000;stroke-width:5.27348;stroke-linecap:butt;stroke-linejoin:miter;stroke-miterlimit:4;stroke-dasharray:none;stroke-opacity:1"
         d="m 67.19134,62.336237 c 0,0 22.682057,-1.990593 22.682057,-18.497656 0,-16.507063 -15.235427,-19.445621 -22.682057,-19.445621 v 89.64488"
         id="path896"
         sodipodi:nodetypes="cscc" />
      <path
         style="fill:#000000;fill-opacity:1;stroke:#000000;stroke-width:0.361793px;stroke-linecap:butt;stroke-linejoin:miter;stroke-opacity:1"
         d="m 69.644149,14.89844 c 0,0 -7.754627,-2.095416 -11.7405,-5.7542462 C 53.917778,5.4853664 45.495372,8.0579224 45.495372,8.0579224 L 33.542047,11.444099 c 0,0 13.251129,3.850198 13.012638,4.067267 -0.23849,0.217066 -12.477972,1.074906 -12.477972,1.074906 0,0 5.242646,1.033792 9.191149,2.520457 2.70206,1.017363 6.232392,2.07121 7.674044,2.267137 6.83215,0.928519 11.143729,0.200652 17.774165,0.259103 5.803211,0.05116 0.928078,-6.734529 0.928078,-6.734529 z"
         id="path881"
         sodipodi:nodetypes="csccscsssc" />
    </g>
  </g>
</svg>
