<svg width="476" height="439" xmlns="http://www.w3.org/2000/svg" xmlns:xlink="http://www.w3.org/1999/xlink" xml:space="preserve" overflow="hidden"><defs><clipPath id="clip0"><rect x="1973" y="1424" width="476" height="439"/></clipPath></defs><g clip-path="url(#clip0)" transform="translate(-1973 -1424)"><path d="M2051.11 1483.36C2025.16 1517.59 1978.51 1605.41 1976.09 1637.36 1973.66 1669.31 1979.88 1691.76 2036.55 1675.05 2093.23 1658.35 2267.27 1576 2316.13 1537.13 2365 1498.25 2360.46 1459.33 2329.74 1441.81 2299.03 1424.29 2175.2 1428.6 2131.84 1432.01 2088.48 1435.42 2077.07 1449.14 2051.11 1483.36Z" stroke="#000000" stroke-width="3.4375" stroke-miterlimit="8" fill="#0086EA" fill-rule="evenodd" fill-opacity="0.898039"/><path d="M67.0228 64.2472C42.8672 99.7679 0.823896 189.883 0.0510252 221.914-0.721845 253.945 6.65075 276.044 62.3863 256.433 118.122 236.822 287.673 145.594 334.464 104.247 381.255 62.8998 374.713 24.2598 343.133 8.3503 311.553-7.55923 188.11 3.14001 144.985 8.78954 101.86 14.4391 91.1784 28.7265 67.0228 64.2472Z" stroke="#000000" stroke-width="3.4375" stroke-miterlimit="8" fill="#CD1541" fill-rule="evenodd" fill-opacity="0.898039" transform="matrix(-0.531025 -0.847356 -0.847356 0.531025 2509.65 1728.95)"/><path d="M66.9876 64.2887C42.8447 99.8324 0.823464 190.006 0.0509984 222.058-0.721467 254.109 6.64727 276.223 62.3536 256.599 118.06 236.975 287.522 145.688 334.289 104.314 381.055 62.9405 374.516 24.2755 342.953 8.3557 311.389-7.56412 188.011 3.14205 144.909 8.79523 101.807 14.4484 91.1306 28.7451 66.9876 64.2887Z" stroke="#000000" stroke-width="3.4375" stroke-miterlimit="8" fill="#DF6613" fill-rule="evenodd" fill-opacity="0.898039" transform="matrix(1 -1.22465e-16 -1.22465e-16 -1 1978.5 1861.5)"/><path d="M2054.02 1478.38C2041.69 1539.75 2045.17 1742.96 2059.73 1804.95 2074.28 1866.94 2082.17 1868.69 2141.35 1850.31 2200.53 1831.93 2370.18 1737.99 2414.81 1694.68 2459.45 1651.36 2459.14 1631.54 2409.15 1590.43 2359.16 1549.32 2192.94 1455.4 2133.75 1436.73 2074.56 1418.05 2066.36 1417.01 2054.02 1478.38Z" stroke="#000000" stroke-width="3.4375" stroke-miterlimit="8" fill="#9149C7" fill-rule="evenodd" fill-opacity="0.898039"/><path d="M2082.5 1479.5C2082.5 1465.14 2094.14 1453.5 2108.5 1453.5 2122.86 1453.5 2134.5 1465.14 2134.5 1479.5 2134.5 1493.86 2122.86 1505.5 2108.5 1505.5 2094.14 1505.5 2082.5 1493.86 2082.5 1479.5Z" stroke="#000000" stroke-width="6.875" stroke-miterlimit="8" fill="#FFFFFF" fill-rule="evenodd"/><path d="M2274.5 1472.5C2274.5 1458.14 2286.14 1446.5 2300.5 1446.5 2314.86 1446.5 2326.5 1458.14 2326.5 1472.5 2326.5 1486.86 2314.86 1498.5 2300.5 1498.5 2286.14 1498.5 2274.5 1486.86 2274.5 1472.5Z" stroke="#000000" stroke-width="6.875" stroke-miterlimit="8" fill="#FFFFFF" fill-rule="evenodd"/><path d="M2369.5 1644.5C2369.5 1630.14 2381.14 1618.5 2395.5 1618.5 2409.86 1618.5 2421.5 1630.14 2421.5 1644.5 2421.5 1658.86 2409.86 1670.5 2395.5 1670.5 2381.14 1670.5 2369.5 1658.86 2369.5 1644.5Z" stroke="#000000" stroke-width="6.875" stroke-miterlimit="8" fill="#FFFFFF" fill-rule="evenodd"/><path d="M1988.5 1644.5C1988.5 1630.14 2000.14 1618.5 2014.5 1618.5 2028.86 1618.5 2040.5 1630.14 2040.5 1644.5 2040.5 1658.86 2028.86 1670.5 2014.5 1670.5 2000.14 1670.5 1988.5 1658.86 1988.5 1644.5Z" stroke="#000000" stroke-width="6.875" stroke-miterlimit="8" fill="#FFFFFF" fill-rule="evenodd"/><path d="M2083.5 1810.5C2083.5 1796.14 2095.14 1784.5 2109.5 1784.5 2123.86 1784.5 2135.5 1796.14 2135.5 1810.5 2135.5 1824.86 2123.86 1836.5 2109.5 1836.5 2095.14 1836.5 2083.5 1824.86 2083.5 1810.5Z" stroke="#000000" stroke-width="6.875" stroke-miterlimit="8" fill="#FFFFFF" fill-rule="evenodd"/><path d="M2274.5 1810.5C2274.5 1796.14 2286.14 1784.5 2300.5 1784.5 2314.86 1784.5 2326.5 1796.14 2326.5 1810.5 2326.5 1824.86 2314.86 1836.5 2300.5 1836.5 2286.14 1836.5 2274.5 1824.86 2274.5 1810.5Z" stroke="#000000" stroke-width="6.875" stroke-miterlimit="8" fill="#FFFFFF" fill-rule="evenodd"/><path d="M2214.69 1600.46C2218.44 1600.46 2221.53 1601.25 2223.97 1602.82 2226.41 1604.39 2228.12 1606.62 2229.11 1609.49L2220.94 1613.17C2219.71 1610.48 2218.24 1608.53 2216.53 1607.33 2214.83 1606.14 2212.84 1605.54 2210.56 1605.54 2207.41 1605.54 2204.56 1606.43 2202 1608.21 2199.44 1609.99 2197.23 1612.58 2195.38 1615.98 2193.52 1619.38 2192.09 1623.33 2191.09 1627.82 2190.08 1632.31 2189.58 1636.2 2189.58 1639.5 2189.58 1643.81 2190.47 1647.05 2192.25 1649.22 2194.04 1651.4 2196.69 1652.48 2200.23 1652.48 2202.32 1652.48 2204.34 1652.01 2206.27 1651.07 2208.2 1650.12 2209.79 1648.76 2211.03 1646.98 2212.27 1645.2 2213.13 1643.05 2213.61 1640.53L2214.74 1634.47 2223 1634.42 2218.02 1658.14C2217.12 1662.48 2215.88 1666.17 2214.31 1669.19 2212.74 1672.22 2210.78 1674.69 2208.45 1676.6 2206.11 1678.52 2203.75 1679.87 2201.35 1680.65 2198.95 1681.43 2196.45 1681.82 2193.85 1681.82 2190.22 1681.82 2186.93 1680.8 2183.97 1678.76 2181 1676.72 2178.6 1673.79 2176.78 1669.96L2183.61 1666.23C2185.34 1670.09 2187.24 1672.94 2189.31 1674.78 2191.38 1676.63 2193.74 1677.55 2196.41 1677.55 2199.7 1677.55 2202.29 1676.45 2204.18 1674.25 2206.07 1672.04 2207.64 1668.44 2208.9 1663.44L2211.64 1652.48 2211.14 1652.21C2209.14 1653.92 2206.94 1655.27 2204.54 1656.25 2202.14 1657.24 2199.9 1657.74 2197.8 1657.74 2192.38 1657.74 2188.29 1656.11 2185.54 1652.86 2182.78 1649.61 2181.4 1644.87 2181.4 1638.65 2181.4 1635.11 2181.93 1631.32 2182.98 1627.26 2184.03 1623.2 2185.59 1619.52 2187.67 1616.21 2189.75 1612.9 2192.2 1610.07 2195.02 1607.72 2197.83 1605.37 2200.92 1603.57 2204.29 1602.33 2207.66 1601.08 2211.13 1600.46 2214.69 1600.46Z" fill="#FFFFFF" fill-rule="evenodd"/><text fill="#000000" fill-opacity="0" font-family="Arial,Arial_MSFontService,sans-serif" font-size="81.3535" x="2176.78" y="1671.65">𝒢</text></g></svg>