<?xml version="1.0" encoding="UTF-8"?>
<svg id="Ebene_1" xmlns="http://www.w3.org/2000/svg" version="1.1" xmlns:xlink="http://www.w3.org/1999/xlink" viewBox="0 0 1000 1000">
  <!-- Generator: Adobe Illustrator 29.7.0, SVG Export Plug-In . SVG Version: 2.1.1 Build 138)  -->
  <defs>
    <style>
      .st0 {
        fill: url(#Unbenannter_Verlauf_3);
      }
    </style>
    <linearGradient id="Unbenannter_Verlauf_3" data-name="Unbenannter Verlauf 3" x1="1447.36" y1="500.12" x2="-2375.39" y2="500.12" gradientUnits="userSpaceOnUse">
      <stop offset="0" stop-color="#01729c"/>
      <stop offset="1" stop-color="#42b3e7"/>
    </linearGradient>
  </defs>
  <path class="st0" d="M806.72,383.25l-30.83,18.17c-11.72,6.9-25.08,10.54-38.67,10.54h-66.84l51.44,89.07c5.8,10.31,5.8,23.85,0,34.17l-96.05,166.32c-6.45,10.31-17.41,16.76-29.65,16.76h-192.11c-12.25,0-23.21-6.45-29.65-16.76l-96.05-166.32c-5.8-10.31-5.8-23.85,0-34.17l96.05-166.32c6.45-10.31,17.41-16.76,29.65-16.76h187.15l40.29,28.69c6.68,4.75,14.67,7.31,22.86,7.31h74.06c7.04,0,13.95-1.89,20.02-5.46l79.49-46.85c12.02-7.09,19.4-20,19.4-33.96v-26.86c0-13.42-6.83-25.91-18.11-33.17l-80.31-51.59c-6.36-4.08-13.75-6.25-21.31-6.25h-72.34c-8.75,0-17.25,2.91-24.17,8.28l-35.72,27.72h-264.81c-14.18,0-27.08,7.09-34.17,19.34L126.81,498.46c-7.09,12.25-7.09,27.08,0,39.32l169.54,293.32c7.09,11.6,19.98,19.34,34.17,19.34h339.09c14.18,0,27.08-7.74,34.17-19.34l169.54-293.32c7.09-12.25,7.09-27.08,0-39.32l-66.59-115.21ZM759,208.15c6.82,0,12.36,5.53,12.36,12.36s-5.53,12.36-12.36,12.36-12.36-5.53-12.36-12.36,5.53-12.36,12.36-12.36ZM759,267.96c6.82,0,12.36,5.53,12.36,12.36s-5.53,12.36-12.36,12.36-12.36-5.53-12.36-12.36,5.53-12.36,12.36-12.36Z"/>
</svg>
