<svg xmlns="http://www.w3.org/2000/svg" width="1400" height="200">
  <defs>
    <linearGradient id="wave-line" gradientTransform="rotate(90)">
      <stop stop-color="#0D417A" offset="5%"/>
      <stop stop-color="#5AC5CA" offset="95%" stop-opacity=".7"/>
    </linearGradient>
  </defs>
  <g transform="translate(0.000000,200.000000) scale(0.100000,-0.100000)" fill="url(#wave-line)" stroke="none">
    <path d="M6600 1729 c-545 -29 -1132 -112 -1670 -235 -488 -113 -1028 -282 -1366 -430 -321 -140 -471 -191 -789 -270 -495 -123 -1115 -223 -1985 -320 -175 -20 -306 -28 -512 -31 l-278 -5 0 -219 0 -219 7000 0 7000 0 0 220 0 220 -45 0 c-42 0 -657 42 -1105 75 -107 8 -289 21 -405 30 -388 28 -504 48 -861 146 -493 135 -883 267 -1344 454 -832 337 -1735 533 -2700 585 -209 11 -722 11 -940 -1z"/>
  </g>
</svg>
