<?xml version="1.0" standalone="no"?>
<!DOCTYPE svg PUBLIC "-//W3C//DTD SVG 20010904//EN"
 "http://www.w3.org/TR/2001/REC-SVG-20010904/DTD/svg10.dtd">
<svg version="1.0" xmlns="http://www.w3.org/2000/svg"
 width="809.000000pt" height="809.000000pt" viewBox="0 0 809.000000 809.000000"
 preserveAspectRatio="xMidYMid meet">

<g transform="translate(0.000000,809.000000) scale(0.100000,-0.100000)"
fill="#000000" stroke="none">
<path d="M3845 7600 c-683 -38 -1333 -259 -1875 -639 -702 -492 -1223 -1251
-1434 -2089 -83 -330 -111 -602 -103 -980 6 -273 19 -393 67 -632 167 -829
642 -1593 1321 -2122 512 -399 1133 -656 1794 -745 165 -22 666 -25 825 -5
779 99 1451 397 2020 898 687 603 1095 1401 1201 2344 17 147 17 571 0 715
-59 518 -204 977 -442 1402 -180 322 -355 552 -629 823 -518 515 -1164 850
-1887 979 -254 45 -594 66 -858 51z m655 -234 c545 -76 1005 -248 1445 -541
195 -130 336 -245 506 -415 457 -456 758 -987 909 -1605 134 -547 132 -1119
-5 -1665 -149 -593 -445 -1112 -885 -1550 -624 -623 -1414 -966 -2315 -1006
-412 -18 -935 73 -1339 232 -656 259 -1228 720 -1610 1299 -298 450 -461 890
-538 1451 -28 210 -31 620 -4 819 103 786 437 1477 975 2016 149 149 266 249
417 357 315 225 692 405 1059 506 211 58 342 81 675 120 87 10 601 -3 710 -18z"/>
<path d="M3691 6759 c-231 -17 -522 -67 -660 -114 -227 -77 -354 -211 -381
-400 -14 -105 -13 -628 2 -643 9 -9 158 -12 611 -12 598 0 628 -2 649 -34 14
-21 8 -66 -12 -86 -20 -20 -33 -20 -908 -20 -857 0 -892 -1 -967 -20 -294 -75
-500 -321 -599 -715 -49 -195 -61 -309 -60 -585 0 -221 3 -272 23 -385 44
-251 116 -418 232 -540 78 -82 143 -123 254 -162 78 -27 85 -27 351 -31 l272
-4 16 23 c14 20 16 58 16 259 0 334 20 446 107 613 80 153 268 310 447 374
128 45 138 46 881 52 683 7 713 8 786 28 201 56 353 177 437 348 80 162 86
240 74 905 -11 608 -10 600 -84 743 -80 153 -240 271 -453 332 -252 73 -653
101 -1034 74z m-383 -466 c126 -78 147 -245 44 -355 -144 -154 -396 -54 -395
157 0 97 62 187 154 222 54 20 143 10 197 -24z"/>
<path d="M5451 5491 c-20 -20 -21 -30 -21 -283 0 -276 -7 -351 -42 -458 -81
-251 -281 -454 -523 -534 -149 -48 -151 -48 -890 -56 -678 -6 -703 -7 -780
-28 -139 -38 -219 -84 -315 -181 -61 -61 -95 -105 -117 -151 -65 -134 -64
-129 -75 -780 -12 -665 -10 -694 47 -817 122 -265 419 -429 895 -494 127 -18
592 -18 730 -1 377 48 646 169 785 355 57 75 67 94 96 182 20 64 23 94 27 325
4 238 3 257 -15 278 l-18 23 -551 -1 c-399 0 -559 3 -577 11 -51 23 -56 102
-8 126 9 4 439 10 956 13 1044 7 981 2 1125 75 178 89 305 255 386 502 84 257
111 618 73 973 -39 364 -167 655 -351 801 -63 50 -121 80 -213 110 -64 20 -93
23 -337 27 -260 4 -267 3 -287 -17z m-2104 -1698 c78 -52 531 -413 561 -447
17 -19 33 -48 37 -65 15 -71 3 -84 -323 -356 -275 -229 -310 -255 -342 -255
-78 1 -112 75 -61 134 9 10 86 75 171 144 247 201 355 294 358 311 1 9 -15 28
-38 44 -127 89 -503 393 -512 413 -23 50 20 103 82 104 15 0 45 -12 67 -27z
m1388 -1244 c59 -15 129 -77 151 -134 36 -96 0 -204 -88 -262 -36 -24 -51 -28
-118 -28 -67 0 -82 4 -118 28 -153 101 -124 338 48 392 57 17 71 18 125 4z"/>
</g>
</svg>
