<?xml version="1.0" encoding="UTF-8"?>
<!DOCTYPE svg PUBLIC "-//W3C//DTD SVG 1.1//EN" "http://www.w3.org/Graphics/SVG/1.1/DTD/svg11.dtd">
<svg version="1.2" width="381mm" height="203.2mm" viewBox="0 0 38100 20320" preserveAspectRatio="xMidYMid" fill-rule="evenodd" stroke-width="28.222" stroke-linejoin="round" xmlns="http://www.w3.org/2000/svg" xmlns:ooo="http://xml.openoffice.org/svg/export" xmlns:xlink="http://www.w3.org/1999/xlink" xmlns:presentation="http://sun.com/xmlns/staroffice/presentation" xmlns:smil="http://www.w3.org/2001/SMIL20/" xmlns:anim="urn:oasis:names:tc:opendocument:xmlns:animation:1.0" xmlns:svg="urn:oasis:names:tc:opendocument:xmlns:svg-compatible:1.0" xml:space="preserve">
 <defs class="ClipPathGroup">
  <clipPath id="presentation_clip_path" clipPathUnits="userSpaceOnUse">
   <rect x="0" y="0" width="38100" height="20320"/>
  </clipPath>
  <clipPath id="presentation_clip_path_shrink" clipPathUnits="userSpaceOnUse">
   <rect x="38" y="20" width="38024" height="20280"/>
  </clipPath>
 </defs>
 <defs class="TextShapeIndex">
  <g ooo:slide="id1" ooo:id-list="id3 id4 id5"/>
 </defs>
 <defs class="EmbeddedBulletChars">
  <g id="bullet-char-template-57356" transform="scale(0.00048828125,-0.00048828125)">
   <path d="M 580,1141 L 1163,571 580,0 -4,571 580,1141 Z"/>
  </g>
  <g id="bullet-char-template-57354" transform="scale(0.00048828125,-0.00048828125)">
   <path d="M 8,1128 L 1137,1128 1137,0 8,0 8,1128 Z"/>
  </g>
  <g id="bullet-char-template-10146" transform="scale(0.00048828125,-0.00048828125)">
   <path d="M 174,0 L 602,739 174,1481 1456,739 174,0 Z M 1358,739 L 309,1346 659,739 1358,739 Z"/>
  </g>
  <g id="bullet-char-template-10132" transform="scale(0.00048828125,-0.00048828125)">
   <path d="M 2015,739 L 1276,0 717,0 1260,543 174,543 174,936 1260,936 717,1481 1274,1481 2015,739 Z"/>
  </g>
  <g id="bullet-char-template-10007" transform="scale(0.00048828125,-0.00048828125)">
   <path d="M 0,-2 C -7,14 -16,27 -25,37 L 356,567 C 262,823 215,952 215,954 215,979 228,992 255,992 264,992 276,990 289,987 310,991 331,999 354,1012 L 381,999 492,748 772,1049 836,1024 860,1049 C 881,1039 901,1025 922,1006 886,937 835,863 770,784 769,783 710,716 594,584 L 774,223 C 774,196 753,168 711,139 L 727,119 C 717,90 699,76 672,76 641,76 570,178 457,381 L 164,-76 C 142,-110 111,-127 72,-127 30,-127 9,-110 8,-76 1,-67 -2,-52 -2,-32 -2,-23 -1,-13 0,-2 Z"/>
  </g>
  <g id="bullet-char-template-10004" transform="scale(0.00048828125,-0.00048828125)">
   <path d="M 285,-33 C 182,-33 111,30 74,156 52,228 41,333 41,471 41,549 55,616 82,672 116,743 169,778 240,778 293,778 328,747 346,684 L 369,508 C 377,444 397,411 428,410 L 1163,1116 C 1174,1127 1196,1133 1229,1133 1271,1133 1292,1118 1292,1087 L 1292,965 C 1292,929 1282,901 1262,881 L 442,47 C 390,-6 338,-33 285,-33 Z"/>
  </g>
  <g id="bullet-char-template-9679" transform="scale(0.00048828125,-0.00048828125)">
   <path d="M 813,0 C 632,0 489,54 383,161 276,268 223,411 223,592 223,773 276,916 383,1023 489,1130 632,1184 813,1184 992,1184 1136,1130 1245,1023 1353,916 1407,772 1407,592 1407,412 1353,268 1245,161 1136,54 992,0 813,0 Z"/>
  </g>
  <g id="bullet-char-template-8226" transform="scale(0.00048828125,-0.00048828125)">
   <path d="M 346,457 C 273,457 209,483 155,535 101,586 74,649 74,723 74,796 101,859 155,911 209,963 273,989 346,989 419,989 480,963 531,910 582,859 608,796 608,723 608,648 583,586 532,535 482,483 420,457 346,457 Z"/>
  </g>
  <g id="bullet-char-template-8211" transform="scale(0.00048828125,-0.00048828125)">
   <path d="M -4,459 L 1135,459 1135,606 -4,606 -4,459 Z"/>
  </g>
  <g id="bullet-char-template-61548" transform="scale(0.00048828125,-0.00048828125)">
   <path d="M 173,740 C 173,903 231,1043 346,1159 462,1274 601,1332 765,1332 928,1332 1067,1274 1183,1159 1299,1043 1357,903 1357,740 1357,577 1299,437 1183,322 1067,206 928,148 765,148 601,148 462,206 346,322 231,437 173,577 173,740 Z"/>
  </g>
 </defs>
 <g>
  <g id="id2" class="Master_Slide">
   <g id="bg-id2" class="Background"/>
   <g id="bo-id2" class="BackgroundObjects"/>
  </g>
 </g>
 <g class="SlideGroup">
  <g>
   <g id="container-id1">
    <g id="id1" class="Slide" clip-path="url(#presentation_clip_path)">
     <g class="Page">
      <g class="com.sun.star.drawing.ClosedBezierShape">
       <g id="id3">
        <rect class="BoundingBox" stroke="none" fill="none" x="10558" y="1033" width="16652" height="17777"/>
        <path fill="rgb(0,0,0)" stroke="none" d="M 16610,18123 C 16276,18211 15946,18315 15606,18380 15450,18409 15302,18455 15161,18355 15009,18246 14902,18086 14884,17900 14876,17812 14907,17588 14787,17560 14658,17529 14636,17735 14632,17817 14621,18108 14729,18295 14910,18513 L 13990,18597 C 13972,18412 14107,18135 14053,17975 14022,17884 13919,17951 13880,17997 13793,18099 13764,18246 13739,18374 L 13710,18374 C 13686,17891 14005,17563 14133,17119 14302,16539 14238,15942 14101,15363 14364,15277 14565,14785 14772,14587 15424,13961 16263,13683 17140,13928 17404,14002 17554,14184 17781,14319 17848,14358 18002,14413 18028,14293 18054,14168 17860,14041 17781,13972 17462,13695 17021,13613 16610,13579 15595,13497 14329,14228 14073,15252 L 14045,15252 C 13778,14109 12772,13256 12096,12352 11387,11403 11015,10329 11006,9147 11461,9750 12027,10523 12734,10842 13098,11006 13595,11037 13990,11037 14457,11037 14932,10935 15383,10822 15479,10799 15811,10744 15755,10582 15692,10399 15048,10629 14910,10660 14134,10835 13191,10877 12512,10401 10836,9230 10212,6534 11450,4827 12202,3790 13433,3216 14630,2839 15189,2663 15936,2588 16498,2767 17257,3008 17897,3640 18420,4214 18771,4599 19067,5063 19313,5524 19367,5623 19471,5953 19632,5897 19774,5847 19666,5634 19627,5551 19486,5258 19133,4896 19096,4576 19061,4261 19325,3887 19470,3628 19755,3119 19975,2580 20188,2039 20260,1854 20473,1240 20308,1072 20226,991 20095,1055 20010,1096 19767,1213 19519,1337 19258,1410 18457,1633 17591,1656 16805,1902 16460,2010 16199,2229 15885,2386 15604,2528 15190,2480 14881,2526 14347,2607 13833,2758 13348,3002 12807,3274 12258,3582 11815,3996 10854,4891 10517,6167 10562,7447 10577,7904 10829,8304 10878,8747 10897,8925 10819,9111 10800,9287 10770,9559 10784,9907 10828,10178 10977,11120 11470,12003 12054,12743 12883,13795 13908,14802 13985,16227 14024,16940 13566,17411 13450,18068 13412,18284 13439,18683 13686,18759 14072,18878 14519,18755 14910,18696 15886,18549 16935,18313 17753,17721 18309,17320 18559,16640 18028,16123 17941,16039 17841,15940 17726,15896 17630,15858 17497,15900 17554,16024 17661,16262 17970,16358 18063,16617 18266,17190 17421,17775 16977,17910 16672,18003 16444,17514 16388,17287 16369,17207 16376,17026 16284,16990 16109,16920 16116,17259 16133,17342 16200,17658 16385,17902 16610,18123 Z M 18728,3098 C 18599,3241 18396,3532 18171,3499 17948,3466 17731,3193 17558,3063 17190,2786 16738,2518 16276,2457 16542,2082 17092,2081 17503,2028 18314,1922 19108,1755 19871,1453 19653,2057 19156,2631 18728,3098 Z M 18868,4297 L 18367,3712 C 19145,3221 19611,2304 20066,1537 19911,2511 19259,3408 18868,4297 Z M 16081,3271 C 16494,3470 16910,3686 17250,4000 17764,4473 18123,5180 18353,5830 18407,5980 18457,6572 18626,6616 18790,6659 18722,6346 18708,6276 18641,5925 18580,5540 18420,5217 17894,4158 16872,2943 15578,2931 15633,3145 15901,3184 16081,3271 Z M 14202,3872 C 14276,3963 14472,3933 14575,3947 14911,3989 15250,4027 15578,4114 16241,4290 16808,4835 17193,5384 17465,5771 17592,6205 17669,6666 17684,6756 17703,7041 17855,7004 18007,6967 17929,6680 17906,6583 17811,6164 17715,5694 17482,5329 16831,4308 15675,3591 14436,3725 14383,3730 14109,3760 14202,3872 Z M 12942,6695 C 12825,6135 12870,5663 12958,5105 13199,5121 13446,4958 13683,4905 14246,4777 14948,4729 15495,4959 15700,5046 15888,5160 16080,5269 16139,5303 16233,5352 16293,5292 16474,5109 15932,4877 15830,4826 15315,4569 14614,4472 14045,4590 13677,4667 13078,4803 12836,5119 12710,5283 12676,5519 12650,5719 12568,6304 12597,7206 13208,7503 13289,7216 13000,6974 12942,6695 Z M 13301,5517 C 13180,5673 13205,6089 13229,6276 13250,6437 13327,7074 13610,6982 13753,6936 13587,6687 13560,6610 13468,6359 13336,5788 13605,5611 13931,5396 14740,5486 15105,5574 15248,5608 15566,5811 15699,5748 15973,5619 15435,5395 15356,5369 14943,5236 14363,5192 13934,5262 13748,5292 13422,5361 13301,5517 Z M 18478,9845 C 18624,10110 18944,10393 18507,10539 18443,10561 18377,10579 18311,10596 L 18283,9955 C 18068,10040 18204,10446 18227,10624 L 17642,10680 17865,9955 17781,9927 17530,10680 16778,10562 16164,10095 C 16198,10435 16532,10754 16861,10832 17010,10867 17304,10835 17398,10983 17485,11120 17397,11387 17408,11544 17445,12082 17412,13060 17893,13411 17742,12825 17606,12293 17546,11683 17527,11497 17469,11137 17617,10990 17756,10851 18101,10877 18283,10875 L 18589,12966 18673,12966 C 18662,12271 18501,11528 18367,10847 L 18951,10652 19673,12074 20010,13077 C 20010,12481 19787,11928 19515,11405 19408,11201 19088,10845 19105,10610 19116,10433 19433,10231 19539,10095 19662,9934 19746,9446 19912,9371 20029,9318 20184,9411 20290,9457 20492,9547 20713,9638 20898,9760 20985,9819 21041,9934 21140,9972 21337,10051 21546,9989 21712,10174 21845,10322 21783,10581 21823,10764 21893,11075 22051,11359 22259,11599 22468,11838 22764,12060 23050,12200 23146,12247 23344,12309 23417,12190 23500,12054 22977,11846 22883,11780 22357,11409 22047,10939 22046,10290 L 23189,10930 C 22964,10590 22540,10458 22217,10233 22127,10170 22076,10005 21975,9972 21898,9947 21812,9993 21732,9979 21610,9958 21493,9885 21376,9845 21558,9602 21860,9228 22157,9132 22483,9027 22984,9147 23329,9147 23371,9321 23482,9468 23635,9564 23700,9605 23836,9645 23848,9527 23863,9381 23656,9230 23579,9120 L 23803,9092 23579,9036 C 23610,8956 23773,8680 23663,8617 23488,8518 23351,8945 23233,9003 22996,9120 22501,9001 22241,8981 L 22241,8952 C 23379,8358 24290,7314 25704,7510 26261,7588 27212,8024 26883,8755 26660,9253 26007,9410 25559,9610 25129,9801 24806,10095 24516,10457 23861,11274 23654,12603 22632,13113 22402,13228 22163,13073 21991,12924 21616,12600 21355,12113 21263,11628 21242,11520 21283,11000 21143,10985 21046,10976 21002,11110 20988,11182 20947,11385 20997,11624 21044,11823 21187,12431 21629,13203 22269,13384 21453,14278 20288,14437 19146,14600 18789,14651 18421,14667 18060,14666 17970,14666 17724,14617 17662,14699 17559,14834 17949,14860 18004,14862 17919,15186 17814,15934 18171,16116 18202,15822 18036,15007 18426,14904 18636,14849 18874,14904 19090,14877 19696,14802 20370,14687 20959,14526 21600,14351 22016,13957 22520,13552 22778,13345 23091,13153 23312,12905 23999,12133 24234,11024 24952,10294 25562,9674 26661,9720 27102,8925 27429,8332 26949,7597 26367,7416 25742,7221 25076,7183 24444,7397 24087,7518 23773,7744 23412,7866 L 23412,7837 23552,7781 23552,7754 C 23026,7757 22702,7230 22269,6975 21598,6581 20669,6387 19899,6527 19876,6395 19864,6207 19761,6109 19493,5856 19233,6384 19200,6583 19117,7068 19189,7612 19393,8061 19516,8333 19778,8853 19561,9139 19184,9636 18763,9191 18487,8868 18448,8822 18194,8480 18119,8620 18053,8742 18299,9005 18365,9092 18537,9315 18743,9538 18979,9695 19059,9748 19251,9801 19263,9912 19281,10074 19005,10259 18895,10345 18822,10142 18712,9882 18478,9845 Z M 19620,7280 L 19592,7280 C 19612,7015 19632,6771 19453,6555 L 19676,6304 19620,7280 Z M 22854,7810 C 21762,7825 20840,8141 19843,8562 L 19627,7898 19801,7447 19927,6666 C 20973,6883 22153,6826 22854,7810 Z M 19481,7503 L 19453,7391 19592,7364 19481,7503 Z M 17418,7469 C 16910,7548 16488,7988 16025,8172 15504,8378 14959,8293 14492,8651 14299,8799 13735,9340 13885,9629 14001,9855 14245,9325 14291,9259 14679,8701 15114,8706 15690,8511 15845,8458 16099,8243 16262,8277 16373,8299 16436,8479 16508,8555 16684,8738 16964,8885 17223,8852 17547,8814 18446,8338 17976,7949 17967,7688 17694,7427 17418,7469 Z M 25190,7890 C 25286,8020 25381,8108 25367,8283 25359,8388 25281,8502 25307,8606 25324,8677 25398,8705 25461,8674 25703,8557 25660,8057 25543,7872 25482,7777 25311,7649 25193,7720 25125,7761 25152,7839 25190,7890 Z M 17391,7754 C 17859,7745 17886,8360 17474,8506 L 17391,7754 Z M 26325,8228 C 26280,8411 26101,8505 26048,8675 26021,8761 26075,8847 26171,8823 26413,8763 26564,8421 26577,8200 26581,8134 26575,7839 26440,7898 26332,7945 26347,8134 26325,8228 Z M 22352,8590 L 21851,8930 21064,8905 19899,8869 C 19919,8508 20344,8464 20624,8347 21217,8099 21821,7962 22464,7948 22733,7942 22942,7898 23189,8032 L 22352,8590 Z M 17168,8562 C 16998,8596 16530,8449 16597,8208 16638,8061 16874,7993 17000,7949 16927,8205 16966,8380 17168,8562 Z M 21767,9064 C 21621,9234 21342,9605 21120,9658 20985,9692 20823,9574 20708,9517 20446,9387 20185,9269 19899,9203 L 19927,8952 C 20483,9108 21187,9032 21767,9064 Z M 14686,11947 C 14132,12111 13472,12159 12902,12066 12709,12035 12533,11973 12345,11925 12294,11911 12167,11885 12167,11975 12167,12264 12797,12304 12986,12331 13682,12431 14514,12334 15161,12048 15305,11984 15636,11902 15725,11768 15816,11631 15608,11606 15523,11621 15231,11673 14971,11863 14686,11947 Z M 15411,15808 C 15708,15628 16130,15557 16471,15505 16793,15455 16962,15513 17250,15646 17302,15670 17403,15702 17427,15623 17532,15279 16787,15244 16610,15262 15917,15337 15249,15544 14787,16088 14627,16276 14452,16499 14463,16757 14779,16427 15009,16053 15411,15808 Z"/>
       </g>
      </g>
      <g class="com.sun.star.drawing.ClosedBezierShape">
       <g id="id4">
        <rect class="BoundingBox" stroke="none" fill="none" x="19324" y="8621" width="9745" height="9743"/>
        <path fill="rgb(204,204,204)" stroke="none" d="M 29068,13492 C 29068,14347 28844,15187 28417,15928 27989,16668 27374,17283 26633,17711 25892,18138 25053,18363 24198,18363 23342,18363 22502,18138 21761,17711 21021,17283 20405,16668 19978,15928 19550,15187 19325,14347 19325,13492 19325,12637 19550,11797 19978,11057 20405,10316 21021,9701 21761,9273 22502,8846 23342,8621 24197,8621 25053,8621 25892,8846 26633,9273 27374,9701 27989,10316 28417,11057 28844,11797 29068,12637 29068,13492 Z"/>
       </g>
      </g>
      <g class="com.sun.star.drawing.ClosedBezierShape">
       <g id="id5">
        <rect class="BoundingBox" stroke="none" fill="none" x="14783" y="8749" width="14115" height="10814"/>
        <path fill="rgb(17,17,17)" stroke="none" d="M 22370,19230 C 21923,19185 20737,18847 20165,18601 18728,17983 17168,18255 14889,19522 14586,19691 14994,19283 15372,19040 16958,18018 19045,17763 20378,18429 20462,18471 20585,18520 20652,18538 20717,18555 20950,18627 21169,18698 22434,19104 23060,19082 24188,18596 24842,18313 25905,18006 25918,18097 25929,18172 25950,18161 24951,18555 23450,19148 22922,19286 22370,19230 Z M 22582,10844 C 22631,9985 22954,8793 23107,8908 23131,8927 23099,9092 23010,9404 22739,10358 22716,11388 22933,12913 23099,14093 23525,15747 23868,16555 23987,16835 24535,18033 24587,18127 24641,18223 24502,18179 24393,18066 23485,17124 22457,13019 22582,10844 Z M 25201,16996 C 25198,16977 25076,16693 24931,16363 24441,15256 24297,14815 23935,13301 23552,11701 23588,9391 24005,8838 24140,8659 24180,8768 24077,9040 23890,9539 23838,11302 23981,12320 24118,13294 24577,14964 24927,15761 25032,16001 25207,16404 25317,16658 25426,16912 25591,17238 25683,17383 25774,17528 25845,17659 25838,17674 25812,17733 25730,17712 25604,17613 25490,17525 25216,17106 25201,16996 Z M 26831,17206 C 26726,17043 26577,16814 26499,16698 26329,16443 25520,14567 25323,13967 25047,13132 24775,11558 24790,10874 24810,9809 25005,8925 25173,9128 25188,9147 25184,9174 25164,9191 25145,9207 25110,9348 25087,9504 24778,11567 25361,14023 26834,16870 27170,17520 27168,17729 26831,17206 Z M 22775,17842 C 22210,17487 21446,14799 21421,13076 21394,11205 21654,9520 21978,9474 22036,9466 22092,9556 22051,9591 21852,9760 21677,11126 21649,12730 21621,14308 22169,16570 22817,17545 23016,17845 22997,17980 22775,17842 Z M 27265,16466 C 27433,16420 27906,16125 28183,15893 28489,15638 28618,15674 28375,15948 27973,16404 27234,16836 27070,16711 26967,16634 27055,16523 27265,16466 Z M 20949,16303 C 20892,16102 20778,15715 20696,15445 20283,14086 20227,12845 20503,11163 20584,10676 20609,10593 20680,10584 20747,10574 20746,10657 20660,11525 20496,13181 20585,14404 20941,15427 20971,15513 21059,15814 21137,16094 21232,16439 21330,16710 21438,16932 21636,17341 21631,17466 21423,17309 21274,17196 21093,16815 20949,16303 Z M 27012,15747 C 27462,15540 28223,14987 28560,14620 28800,14361 28833,14471 28603,14759 28100,15388 27041,16100 26801,15969 26708,15917 26759,15864 27012,15747 Z M 20230,16129 C 20168,16057 20156,16027 19894,15210 19595,14282 19453,12890 19595,12282 19680,11915 19815,11963 19779,12348 19703,13145 19874,14360 20208,15398 20430,16089 20439,16366 20230,16129 Z M 27106,14344 C 27868,13792 28411,13315 28682,12960 28787,12822 28881,12800 28896,12909 28941,13225 26915,14959 26661,14822 26559,14767 26638,14683 27106,14344 Z M 26099,13796 C 26421,13613 26707,13394 27108,13022 27333,12813 27586,12581 27669,12506 27923,12276 28361,11829 28411,11749 28495,11612 28612,11657 28568,11811 28533,11930 28025,12497 27602,12886 27385,13087 27138,13318 27055,13399 26657,13788 26035,14120 25913,14009 25853,13954 25885,13916 26099,13796 Z M 25811,12885 C 25766,12845 25765,12832 25803,12802 25828,12783 26016,12638 26221,12480 26426,12322 26731,12052 26898,11879 27064,11707 27361,11405 27556,11211 27751,11016 27922,10827 27935,10790 27963,10716 28063,10655 28119,10680 28264,10743 27135,12057 26488,12578 26121,12874 25905,12971 25811,12885 Z M 25366,11825 C 25315,11778 25311,11780 25596,11666 25927,11534 26419,11112 26729,10695 26968,10371 27321,9981 27383,9972 27514,9954 27441,10091 27042,10622 26387,11493 25913,11876 25500,11867 25451,11867 25391,11847 25366,11825 Z M 25275,11007 C 25174,10932 25234,10831 25464,10684 25756,10499 26065,10195 26367,9794 26606,9478 26715,9404 26735,9544 26781,9876 25491,11170 25275,11007 Z M 25279,9947 C 25236,9870 25974,9244 26134,9221 26306,9197 26189,9357 25774,9715 25467,9979 25332,10043 25279,9947 Z"/>
       </g>
      </g>
     </g>
    </g>
   </g>
  </g>
 </g>
</svg>