<?xml version="1.0" encoding="UTF-8"?>
<!DOCTYPE svg PUBLIC "-//W3C//DTD SVG 1.1//EN" "http://www.w3.org/Graphics/SVG/1.1/DTD/svg11.dtd">
<svg version="1.2" width="381mm" height="203.2mm" viewBox="0 0 38100 20320" preserveAspectRatio="xMidYMid" fill-rule="evenodd" stroke-width="28.222" stroke-linejoin="round" xmlns="http://www.w3.org/2000/svg" xmlns:ooo="http://xml.openoffice.org/svg/export" xmlns:xlink="http://www.w3.org/1999/xlink" xmlns:presentation="http://sun.com/xmlns/staroffice/presentation" xmlns:smil="http://www.w3.org/2001/SMIL20/" xmlns:anim="urn:oasis:names:tc:opendocument:xmlns:animation:1.0" xmlns:svg="urn:oasis:names:tc:opendocument:xmlns:svg-compatible:1.0" xml:space="preserve">
 <defs class="ClipPathGroup">
  <clipPath id="presentation_clip_path" clipPathUnits="userSpaceOnUse">
   <rect x="0" y="0" width="38100" height="20320"/>
  </clipPath>
  <clipPath id="presentation_clip_path_shrink" clipPathUnits="userSpaceOnUse">
   <rect x="38" y="20" width="38024" height="20280"/>
  </clipPath>
 </defs>
 <defs class="TextShapeIndex">
  <g ooo:slide="id1" ooo:id-list="id3"/>
 </defs>
 <defs class="EmbeddedBulletChars">
  <g id="bullet-char-template-57356" transform="scale(0.00048828125,-0.00048828125)">
   <path d="M 580,1141 L 1163,571 580,0 -4,571 580,1141 Z"/>
  </g>
  <g id="bullet-char-template-57354" transform="scale(0.00048828125,-0.00048828125)">
   <path d="M 8,1128 L 1137,1128 1137,0 8,0 8,1128 Z"/>
  </g>
  <g id="bullet-char-template-10146" transform="scale(0.00048828125,-0.00048828125)">
   <path d="M 174,0 L 602,739 174,1481 1456,739 174,0 Z M 1358,739 L 309,1346 659,739 1358,739 Z"/>
  </g>
  <g id="bullet-char-template-10132" transform="scale(0.00048828125,-0.00048828125)">
   <path d="M 2015,739 L 1276,0 717,0 1260,543 174,543 174,936 1260,936 717,1481 1274,1481 2015,739 Z"/>
  </g>
  <g id="bullet-char-template-10007" transform="scale(0.00048828125,-0.00048828125)">
   <path d="M 0,-2 C -7,14 -16,27 -25,37 L 356,567 C 262,823 215,952 215,954 215,979 228,992 255,992 264,992 276,990 289,987 310,991 331,999 354,1012 L 381,999 492,748 772,1049 836,1024 860,1049 C 881,1039 901,1025 922,1006 886,937 835,863 770,784 769,783 710,716 594,584 L 774,223 C 774,196 753,168 711,139 L 727,119 C 717,90 699,76 672,76 641,76 570,178 457,381 L 164,-76 C 142,-110 111,-127 72,-127 30,-127 9,-110 8,-76 1,-67 -2,-52 -2,-32 -2,-23 -1,-13 0,-2 Z"/>
  </g>
  <g id="bullet-char-template-10004" transform="scale(0.00048828125,-0.00048828125)">
   <path d="M 285,-33 C 182,-33 111,30 74,156 52,228 41,333 41,471 41,549 55,616 82,672 116,743 169,778 240,778 293,778 328,747 346,684 L 369,508 C 377,444 397,411 428,410 L 1163,1116 C 1174,1127 1196,1133 1229,1133 1271,1133 1292,1118 1292,1087 L 1292,965 C 1292,929 1282,901 1262,881 L 442,47 C 390,-6 338,-33 285,-33 Z"/>
  </g>
  <g id="bullet-char-template-9679" transform="scale(0.00048828125,-0.00048828125)">
   <path d="M 813,0 C 632,0 489,54 383,161 276,268 223,411 223,592 223,773 276,916 383,1023 489,1130 632,1184 813,1184 992,1184 1136,1130 1245,1023 1353,916 1407,772 1407,592 1407,412 1353,268 1245,161 1136,54 992,0 813,0 Z"/>
  </g>
  <g id="bullet-char-template-8226" transform="scale(0.00048828125,-0.00048828125)">
   <path d="M 346,457 C 273,457 209,483 155,535 101,586 74,649 74,723 74,796 101,859 155,911 209,963 273,989 346,989 419,989 480,963 531,910 582,859 608,796 608,723 608,648 583,586 532,535 482,483 420,457 346,457 Z"/>
  </g>
  <g id="bullet-char-template-8211" transform="scale(0.00048828125,-0.00048828125)">
   <path d="M -4,459 L 1135,459 1135,606 -4,606 -4,459 Z"/>
  </g>
  <g id="bullet-char-template-61548" transform="scale(0.00048828125,-0.00048828125)">
   <path d="M 173,740 C 173,903 231,1043 346,1159 462,1274 601,1332 765,1332 928,1332 1067,1274 1183,1159 1299,1043 1357,903 1357,740 1357,577 1299,437 1183,322 1067,206 928,148 765,148 601,148 462,206 346,322 231,437 173,577 173,740 Z"/>
  </g>
 </defs>
 <g>
  <g id="id2" class="Master_Slide">
   <g id="bg-id2" class="Background"/>
   <g id="bo-id2" class="BackgroundObjects"/>
  </g>
 </g>
 <g class="SlideGroup">
  <g>
   <g id="container-id1">
    <g id="id1" class="Slide" clip-path="url(#presentation_clip_path)">
     <g class="Page">
      <g class="Graphic">
       <g id="id3">
        <rect class="BoundingBox" stroke="none" fill="none" x="9080" y="826" width="18941" height="18940"/>
        <defs>
         <clipPath id="clip_path_1" clipPathUnits="userSpaceOnUse">
          <path d="M 9338,958 L 28010,958 28010,19755 9338,19755 9338,958 Z"/>
         </clipPath>
        </defs>
        <g clip-path="url(#clip_path_1)">
         <path fill="rgb(10,10,10)" stroke="none" d="M 15390,18049 C 15056,18137 14726,18241 14386,18306 14230,18335 14082,18381 13941,18281 13789,18172 13682,18012 13664,17826 13656,17738 13687,17514 13567,17486 13438,17455 13416,17661 13412,17743 13401,18034 13509,18221 13690,18439 L 12770,18523 C 12752,18338 12887,18061 12833,17901 12802,17810 12699,17877 12660,17923 12573,18025 12544,18172 12519,18300 L 12490,18300 C 12466,17817 12785,17489 12913,17045 13082,16465 13018,15868 12881,15289 13144,15203 13345,14711 13552,14513 14204,13887 15043,13609 15920,13854 16184,13928 16334,14110 16561,14245 16628,14284 16782,14339 16808,14219 16834,14094 16640,13967 16561,13898 16242,13621 15801,13539 15390,13505 14375,13423 13109,14154 12853,15178 L 12825,15178 C 12558,14035 11552,13182 10876,12278 10167,11329 9795,10255 9786,9072 10241,9675 10807,10449 11514,10768 11878,10932 12375,10963 12770,10963 13237,10963 13712,10861 14163,10748 14259,10725 14591,10670 14535,10508 14472,10325 13828,10555 13690,10586 12914,10761 11971,10803 11292,10327 9616,9155 8992,6459 10230,4752 10982,3715 12213,3141 13410,2764 13969,2588 14716,2513 15278,2692 16037,2933 16677,3565 17200,4139 17552,4524 17848,4988 18094,5449 18148,5548 18252,5878 18413,5822 18555,5772 18447,5559 18408,5476 18267,5183 17914,4821 17877,4501 17842,4186 18106,3812 18251,3553 18536,3044 18756,2505 18969,1964 19041,1779 19254,1165 19089,997 19007,916 18876,980 18791,1021 18548,1138 18300,1262 18039,1335 17237,1558 16371,1581 15585,1827 15240,1935 14979,2154 14665,2311 14384,2453 13970,2405 13661,2451 13127,2532 12613,2683 12128,2927 11587,3199 11038,3507 10595,3921 9634,4816 9297,6092 9342,7372 9357,7829 9610,8229 9658,8672 9678,8850 9599,9036 9580,9212 9550,9484 9564,9833 9608,10104 9757,11046 10250,11929 10834,12669 11663,13721 12688,14728 12765,16153 12804,16866 12346,17337 12230,17994 12192,18210 12219,18609 12466,18685 12852,18804 13299,18681 13690,18622 14666,18475 15715,18239 16533,17647 17089,17246 17339,16566 16808,16049 16721,15965 16621,15866 16506,15822 16410,15784 16277,15826 16334,15950 16441,16188 16750,16284 16843,16543 17046,17116 16201,17701 15757,17836 15452,17929 15224,17440 15168,17213 15149,17133 15156,16952 15064,16916 14889,16846 14896,17185 14913,17268 14980,17584 15165,17828 15390,18049 L 15390,18049 15390,18049 Z M 17509,3023 C 17379,3166 17176,3457 16951,3424 16728,3391 16511,3118 16338,2988 15970,2711 15518,2443 15056,2382 15322,2007 15872,2006 16283,1953 17094,1847 17889,1680 18652,1378 18434,1982 17937,2556 17509,3023 L 17509,3023 Z M 17649,4222 L 17147,3637 C 17926,3146 18392,2229 18847,1462 18692,2436 18040,3333 17649,4222 L 17649,4222 Z M 14861,3196 C 15274,3395 15690,3611 16030,3925 16544,4398 16903,5105 17133,5755 17187,5905 17237,6497 17406,6541 17571,6584 17503,6271 17489,6201 17421,5850 17360,5465 17200,5142 16674,4083 15652,2868 14358,2856 14413,3070 14681,3109 14861,3196 L 14861,3196 Z M 12982,3797 C 13056,3888 13252,3858 13355,3872 13691,3914 14030,3952 14358,4039 15021,4215 15588,4760 15973,5309 16245,5696 16372,6130 16449,6591 16464,6681 16483,6966 16635,6929 16787,6892 16709,6605 16686,6508 16591,6089 16495,5619 16262,5254 15611,4233 14455,3516 13216,3650 13163,3655 12889,3685 12982,3797 L 12982,3797 Z M 11722,6620 C 11605,6060 11650,5588 11738,5030 11979,5046 12226,4883 12463,4830 13026,4702 13728,4654 14275,4884 14480,4971 14668,5085 14860,5194 14919,5228 15013,5277 15073,5217 15254,5034 14712,4802 14610,4751 14095,4494 13394,4397 12825,4515 12457,4592 11858,4728 11616,5044 11490,5208 11456,5444 11430,5644 11348,6229 11377,7131 11988,7428 12069,7141 11780,6899 11722,6620 L 11722,6620 Z M 12081,5442 C 11960,5598 11985,6014 12009,6201 12030,6362 12107,6999 12390,6907 12533,6861 12367,6612 12340,6535 12248,6284 12116,5713 12385,5536 12711,5321 13520,5411 13885,5499 14028,5533 14346,5736 14479,5673 14753,5544 14215,5320 14136,5294 13723,5161 13143,5117 12714,5187 12528,5217 12202,5286 12081,5442 L 12081,5442 Z M 17258,9770 C 17404,10036 17725,10319 17287,10465 17223,10487 17157,10505 17091,10522 L 17063,9881 C 16848,9966 16984,10372 17007,10550 L 16422,10606 16645,9881 16561,9853 16310,10606 15558,10488 14944,10021 C 14978,10361 15312,10680 15641,10758 15790,10793 16084,10761 16178,10909 16265,11046 16177,11313 16188,11470 16225,12008 16192,12986 16673,13337 16522,12751 16386,12219 16326,11609 16307,11423 16249,11063 16397,10916 16536,10777 16881,10803 17063,10801 L 17369,12892 17454,12892 C 17443,12197 17281,11454 17147,10773 L 17732,10578 18454,12000 18791,13003 C 18791,12407 18568,11854 18296,11331 18189,11127 17869,10771 17886,10536 17897,10359 18214,10157 18320,10021 18443,9860 18527,9371 18693,9296 18810,9243 18965,9336 19071,9382 19273,9472 19494,9563 19679,9685 19766,9744 19822,9860 19921,9898 20118,9977 20327,9915 20493,10100 20626,10248 20564,10507 20604,10690 20674,11001 20832,11285 21040,11525 21249,11764 21545,11986 21831,12126 21927,12173 22125,12235 22198,12116 22281,11980 21758,11772 21664,11706 21138,11335 20828,10865 20827,10216 L 21970,10856 C 21745,10516 21321,10384 20998,10159 20908,10096 20857,9931 20756,9898 20679,9873 20593,9919 20513,9905 20391,9884 20274,9811 20157,9770 20339,9527 20641,9153 20938,9057 21264,8952 21765,9072 22110,9072 22152,9246 22263,9393 22416,9489 22481,9530 22617,9570 22629,9452 22644,9306 22437,9155 22360,9045 L 22584,9017 22360,8961 C 22391,8881 22554,8605 22444,8542 22269,8443 22132,8870 22014,8928 21777,9045 21282,8926 21022,8906 L 21022,8877 C 22160,8283 23071,7239 24485,7435 25042,7513 25993,7949 25664,8680 25441,9178 24788,9335 24340,9535 23910,9726 23587,10021 23297,10383 22642,11200 22435,12529 21413,13039 21183,13154 20944,12999 20772,12850 20397,12526 20136,12039 20044,11554 20023,11446 20064,10926 19924,10911 19827,10902 19783,11036 19769,11108 19728,11311 19778,11550 19825,11749 19968,12357 20410,13129 21050,13310 20234,14204 19069,14363 17927,14526 17570,14577 17201,14593 16840,14592 16750,14592 16504,14543 16442,14625 16339,14760 16729,14786 16784,14788 16699,15112 16594,15860 16951,16042 16982,15748 16816,14933 17206,14830 17416,14775 17655,14830 17871,14803 18477,14728 19151,14613 19740,14452 20381,14277 20797,13883 21301,13478 21559,13271 21872,13079 22093,12831 22780,12059 23015,10950 23733,10220 24343,9599 25442,9645 25883,8850 26210,8257 25730,7522 25148,7341 24523,7146 23857,7108 23225,7322 22868,7443 22554,7669 22193,7791 L 22193,7762 22333,7706 22333,7679 C 21807,7682 21483,7155 21050,6900 20379,6506 19450,6312 18680,6452 18657,6320 18645,6132 18542,6034 18274,5781 18014,6309 17981,6508 17898,6993 17970,7537 18174,7986 18297,8258 18559,8778 18342,9064 17965,9561 17544,9116 17267,8793 17228,8747 16974,8405 16899,8545 16833,8667 17079,8930 17145,9017 17317,9240 17524,9463 17760,9620 17840,9673 18032,9726 18044,9838 18062,10000 17786,10185 17676,10271 17603,10068 17493,9808 17258,9770 L 17258,9770 Z M 18401,7205 L 18373,7205 C 18393,6940 18413,6696 18234,6480 L 18457,6229 18401,7205 18401,7205 Z M 21635,7735 C 20543,7750 19621,8066 18624,8487 L 18408,7823 18582,7372 18708,6591 C 19754,6808 20934,6751 21635,7735 L 21635,7735 Z M 18262,7428 L 18234,7316 18373,7289 18262,7428 18262,7428 Z M 16198,7394 C 15690,7473 15268,7913 14805,8097 14284,8303 13739,8218 13272,8576 13079,8724 12515,9265 12665,9554 12781,9781 13025,9250 13071,9184 13459,8626 13894,8631 14470,8436 14625,8383 14879,8168 15042,8202 15153,8224 15216,8404 15288,8480 15464,8663 15744,8810 16003,8777 16327,8739 17226,8263 16756,7874 16747,7613 16474,7352 16198,7394 L 16198,7394 Z M 23971,7815 C 24067,7945 24162,8033 24148,8208 24140,8313 24062,8427 24088,8531 24105,8602 24179,8630 24242,8599 24484,8482 24441,7982 24324,7797 24263,7702 24092,7574 23974,7645 23906,7686 23933,7764 23971,7815 L 23971,7815 Z M 16171,7679 C 16639,7670 16666,8285 16254,8431 L 16171,7679 16171,7679 Z M 25106,8153 C 25061,8336 24882,8430 24829,8600 24802,8686 24856,8772 24952,8748 25194,8688 25345,8346 25358,8125 25362,8059 25356,7764 25221,7823 25113,7870 25128,8059 25106,8153 L 25106,8153 Z M 21133,8515 L 20632,8855 19845,8830 18680,8794 C 18700,8433 19125,8389 19405,8272 19998,8024 20602,7887 21245,7873 21514,7867 21723,7823 21970,7957 L 21133,8515 21133,8515 Z M 15948,8487 C 15778,8521 15310,8374 15377,8133 15418,7986 15654,7918 15780,7874 15707,8130 15746,8305 15948,8487 L 15948,8487 Z M 20548,8989 C 20402,9159 20123,9530 19901,9583 19766,9617 19604,9499 19489,9442 19227,9312 18966,9194 18680,9128 L 18708,8877 C 19264,9033 19968,8957 20548,8989 L 20548,8989 Z M 13466,11873 C 12912,12037 12252,12085 11682,11992 11489,11961 11313,11899 11125,11851 11074,11837 10947,11811 10947,11901 10947,12190 11577,12230 11766,12257 12462,12357 13294,12260 13941,11974 14085,11910 14416,11828 14505,11694 14596,11557 14388,11532 14303,11547 14011,11599 13751,11789 13466,11873 L 13466,11873 Z M 14191,15734 C 14488,15554 14910,15483 15251,15431 15573,15381 15742,15439 16030,15572 16082,15596 16183,15628 16207,15549 16312,15205 15567,15170 15390,15188 14697,15263 14029,15470 13567,16014 13407,16202 13232,16425 13243,16683 13559,16353 13789,15979 14191,15734 L 14191,15734 Z"/>
         <path fill="rgb(203,60,51)" stroke="none" d="M 27849,13417 C 27849,14272 27624,15112 27197,15853 26769,16593 26154,17208 25413,17636 24672,18064 23833,18289 22978,18289 22122,18289 21282,18064 20541,17636 19801,17208 19185,16593 18758,15853 18330,15112 18105,14272 18105,13417 18105,12562 18330,11722 18758,10982 19185,10241 19801,9626 20541,9198 21282,8771 22122,8546 22977,8546 23833,8546 24672,8771 25413,9198 26154,9626 26769,10241 27197,10982 27624,11722 27849,12562 27849,13417 L 27849,13417 27849,13417 Z"/>
        </g>
        <defs>
         <clipPath id="clip_path_2" clipPathUnits="userSpaceOnUse">
          <path d="M 11014,9099 L 28010,6711 28010,19314 24873,19755 12512,19755 11014,9099 Z"/>
         </clipPath>
        </defs>
        <g clip-path="url(#clip_path_2)">
         <path fill="rgb(0,0,0)" stroke="none" d="M 21151,19156 C 20704,19111 19518,18773 18946,18527 17509,17909 15949,18181 13669,19448 13366,19617 13774,19209 14152,18966 15739,17944 17826,17689 19159,18355 19243,18397 19366,18446 19433,18464 19498,18481 19731,18553 19950,18624 21215,19030 21841,19008 22969,18522 23623,18239 24686,17932 24699,18023 24710,18098 24731,18087 23732,18481 22231,19074 21703,19212 21151,19156 L 21151,19156 Z M 21363,10769 C 21412,9910 21735,8718 21888,8833 21912,8852 21880,9017 21791,9329 21520,10283 21497,11314 21714,12839 21880,14019 22306,15673 22649,16481 22768,16761 23316,17959 23368,18053 23422,18149 23283,18105 23174,17992 22266,17050 21238,12945 21363,10769 L 21363,10769 Z M 23982,16922 C 23979,16903 23857,16619 23712,16289 23222,15182 23078,14741 22716,13227 22333,11627 22369,9316 22786,8763 22921,8584 22961,8693 22858,8965 22671,9464 22619,11228 22762,12246 22899,13220 23358,14890 23708,15687 23813,15927 23988,16330 24098,16584 24207,16838 24373,17164 24464,17309 24556,17454 24626,17585 24619,17600 24593,17659 24511,17638 24385,17539 24271,17451 23997,17032 23982,16922 L 23982,16922 Z M 25612,17132 C 25507,16969 25358,16740 25280,16624 25110,16369 24301,14493 24104,13893 23828,13058 23556,11484 23571,10799 23591,9734 23786,8850 23954,9053 23969,9072 23965,9099 23945,9116 23926,9132 23891,9273 23868,9429 23559,11493 24142,13949 25615,16796 25951,17446 25949,17655 25612,17132 L 25612,17132 Z M 21556,17768 C 20991,17413 20227,14725 20202,13002 20175,11130 20435,9445 20759,9399 20817,9391 20873,9481 20832,9516 20633,9685 20458,11051 20430,12656 20402,14234 20950,16496 21598,17471 21797,17771 21778,17906 21556,17768 L 21556,17768 Z M 26046,16392 C 26214,16346 26687,16051 26964,15819 27270,15564 27399,15600 27156,15874 26754,16330 26015,16762 25851,16637 25748,16560 25836,16449 26046,16392 L 26046,16392 Z M 19730,16229 C 19673,16028 19559,15641 19477,15371 19064,14012 19008,12771 19284,11088 19365,10601 19390,10518 19461,10509 19528,10499 19527,10582 19441,11451 19277,13107 19366,14330 19722,15353 19752,15439 19840,15740 19918,16020 20013,16365 20111,16636 20219,16858 20417,17267 20412,17392 20204,17235 20055,17122 19874,16741 19730,16229 L 19730,16229 Z M 25793,15673 C 26243,15466 27004,14913 27341,14546 27581,14287 27614,14397 27384,14685 26881,15314 25822,16026 25582,15895 25489,15843 25540,15790 25793,15673 L 25793,15673 Z M 19011,16055 C 18949,15983 18937,15953 18675,15136 18376,14208 18234,12816 18376,12208 18461,11841 18596,11889 18560,12274 18484,13071 18655,14286 18989,15324 19211,16015 19220,16292 19011,16055 L 19011,16055 19011,16055 Z M 25887,14270 C 26649,13718 27192,13241 27463,12886 27568,12748 27662,12726 27677,12835 27722,13151 25696,14885 25442,14748 25340,14693 25419,14609 25887,14270 L 25887,14270 Z M 24880,13722 C 25202,13539 25488,13320 25889,12948 26114,12739 26367,12507 26450,12432 26704,12202 27142,11755 27192,11675 27276,11538 27393,11583 27349,11737 27314,11856 26806,12423 26383,12812 26166,13013 25919,13244 25836,13325 25438,13714 24816,14046 24694,13935 24634,13880 24666,13842 24880,13722 L 24880,13722 Z M 24592,12811 C 24547,12771 24546,12758 24584,12728 24609,12709 24797,12564 25002,12406 25207,12248 25512,11977 25679,11805 25845,11632 26142,11331 26337,11136 26532,10941 26703,10752 26716,10715 26744,10641 26844,10580 26900,10605 27045,10668 25916,11983 25269,12504 24902,12800 24686,12897 24592,12811 L 24592,12811 24592,12811 Z M 24147,11751 C 24096,11704 24092,11706 24377,11592 24708,11460 25200,11037 25510,10620 25749,10296 26102,9906 26164,9897 26295,9879 26222,10016 25823,10547 25168,11419 24694,11802 24281,11793 24232,11793 24172,11773 24147,11751 L 24147,11751 Z M 24056,10932 C 23955,10857 24015,10756 24245,10609 24537,10424 24846,10120 25148,9719 25387,9403 25496,9329 25516,9469 25562,9801 24272,11095 24056,10932 L 24056,10932 Z M 24060,9872 C 24017,9795 24755,9169 24915,9146 25087,9122 24970,9282 24555,9640 24248,9904 24113,9968 24060,9872 L 24060,9872 Z"/>
        </g>
        <g clip-path="url(#clip_path_1)"/>
       </g>
      </g>
     </g>
    </g>
   </g>
  </g>
 </g>
</svg>