<?xml version="1.0" encoding="utf-8"?>
<!-- Generator: Adobe Illustrator 28.3.0, SVG Export Plug-In . SVG Version: 6.00 Build 0)  -->
<svg version="1.1" id="Layer_1" xmlns="http://www.w3.org/2000/svg" xmlns:xlink="http://www.w3.org/1999/xlink" x="0px" y="0px"
	 viewBox="0 0 231 100" style="enable-background:new 0 0 231 100;" xml:space="preserve">
<style type="text/css">
	.st0{clip-path:url(#SVGID_00000016795512092131493010000000544699133847106192_);}
	.st1{fill:#181818;}
	.st2{fill:#FFFFFF;}
</style>
<g>
	<g>
		<defs>
			<path id="SVGID_1_" d="M5,0h221c2.8,0,5,2.2,5,5v90c0,2.8-2.2,5-5,5H5c-2.8,0-5-2.2-5-5V5C0,2.2,2.2,0,5,0z"/>
		</defs>
		<clipPath id="SVGID_00000065066188817835492660000002476149679897194942_">
			<use xlink:href="#SVGID_1_"  style="overflow:visible;"/>
		</clipPath>
		<g style="clip-path:url(#SVGID_00000065066188817835492660000002476149679897194942_);">
			<rect class="st1" width="100" height="100"/>
			<rect x="100" class="st1" width="131" height="100"/>
			<g>
				<g>
					<path class="st2" d="M86.2,53.2l-3.3-9.5l-3.3,9.5H86.2z M72.9,40.9v18h2.8l6.5-18H72.9z M92.1,53.1v-12h-8.3l6.5,18h6.5
						C94,58.4,92.1,56.1,92.1,53.1 M79,54.9l-1.5,4.1h10.5l-1.3-4.1H79z M113.3,57.5c2.5,0,4.1-1.2,4.1-3.3c0-0.9-0.3-1.7-0.8-2.3
						c-0.5-0.5-1.1-0.7-2.3-0.8l-2-0.4c-1.3-0.3-2.5-0.7-3.2-1.3c-0.9-0.8-1.3-1.9-1.3-3.3c0-2.5,1.6-4.4,4.1-4.9h-7.3v12
						c0,3.1-1.9,5.3-4.7,6h11.6c-1.6-0.3-2.9-0.9-4.1-2.3l1.3-1.3C109.8,56.9,111.3,57.5,113.3,57.5 M115,40.9
						c1.3,0.3,2.4,0.8,3.5,1.9l-1.2,1.2c-1.1-1.1-2.3-1.6-4.1-1.6c-2.4,0-3.7,1.3-3.7,3.3c0,0.9,0.3,1.6,0.8,2.1
						c0.5,0.5,1.5,0.8,2.4,0.9l2,0.3c1.7,0.3,2.5,0.7,3.2,1.2c0.9,0.8,1.5,2.1,1.5,3.6c0,2.7-1.7,4.4-4.4,4.9h114V40.9H115z
						 M62.6,59.1H71v-8.3h-8.4V59.1z M102.5,52.9V41.1H94v11.9c0,2.8,1.7,4.5,4.3,4.5C100.8,57.5,102.5,55.6,102.5,52.9 M62.6,49.1
						H71v-8.1h-8.4V49.1z"/>
				</g>
				<polygon class="st2" points="19,58.9 16.1,58.9 12.9,48.1 9.7,58.9 6.8,58.9 2.1,40.9 5.7,40.9 8.4,52.4 11.6,40.9 14.2,40.9 
					17.4,52.4 20.2,40.9 23.8,40.9 				"/>
				<g>
					<path class="st2" d="M33.6,45.1c-0.5-0.5-1.3-0.9-2.3-0.9s-1.7,0.4-2.3,0.9c-0.7,0.8-0.8,1.6-0.8,4.9c0,3.5,0.1,4.3,0.8,4.9
						c0.5,0.5,1.3,0.9,2.3,0.9s1.7-0.4,2.3-0.9c0.7-0.8,0.9-1.6,0.9-4.9C34.5,46.5,34.2,45.7,33.6,45.1 M36.1,57.1
						c-1.2,1.2-2.8,2-4.8,2s-3.6-0.7-4.8-2c-1.7-1.7-1.7-4-1.7-7.1s0-5.2,1.7-7.1c1.2-1.2,2.8-2,4.8-2s3.5,0.7,4.8,2
						c1.9,1.7,1.7,4,1.7,7.1C38,53.1,38,55.2,36.1,57.1"/>
				</g>
				<polygon class="st2" points="54.6,58.9 52,58.9 49,48.1 46,58.9 43.3,58.9 38.9,40.9 42.2,40.9 44.8,52.4 47.8,40.9 50.2,40.9 
					53.2,52.4 55.7,40.9 59,40.9 				"/>
			</g>
		</g>
	</g>
</g>
</svg>
