<?xml version="1.0" encoding="utf-8"?>
<!-- Generator: Adobe Illustrator 27.9.0, SVG Export Plug-In . SVG Version: 6.00 Build 0)  -->
<svg version="1.1" id="Layer_1" xmlns="http://www.w3.org/2000/svg" xmlns:xlink="http://www.w3.org/1999/xlink" x="0px" y="0px"
	 viewBox="0 0 1024 1024" style="enable-background:new 0 0 1024 1024;" xml:space="preserve">
<style type="text/css">
	.st0{fill:#F97306;}
	.st1{fill:#231F20;}
	.st2{fill:#FFFFFF;}
</style>
<path class="st0" d="M128.1,0h768.4c70.4,0,128.1,57.6,128.1,128.1v768.4c0,70.4-57.6,128.1-128.1,128.1H128.1
	C57.6,1024.5,0,966.9,0,896.4V128.1C0,57.6,57.6,0,128.1,0z"/>
<g>
	<path class="st1" d="M512.2,493h172.9V320.2H512.2V493z M512.2,704.3h172.9V525.1H512.2V704.3z M730,704.3h262.5V320.2H730V704.3z"
		/>
	<polygon class="st2" points="365,704.3 307.4,704.3 243.3,473.8 179.3,704.3 128.1,704.3 32,320.2 102.5,320.2 153.7,557.1 
		224.1,320.2 268.9,320.2 326.6,557.1 384.2,320.2 461,320.2 	"/>
</g>
</svg>
