<?xml version="1.0" encoding="utf-8"?>
<!-- Generator: Adobe Illustrator 27.9.0, SVG Export Plug-In . SVG Version: 6.00 Build 0)  -->
<svg version="1.1" id="Layer_1" xmlns="http://www.w3.org/2000/svg" xmlns:xlink="http://www.w3.org/1999/xlink" x="0px" y="0px"
	 viewBox="0 0 116 50" style="enable-background:new 0 0 116 50;" xml:space="preserve">
<style type="text/css">
	.st0{clip-path:url(#SVGID_00000000912333091161054210000011743534351268615332_);}
	.st1{fill:#F97306;}
	.st2{fill:#231F20;}
	.st3{fill:#FFFFFF;}
</style>
<g>
	<g>
		<g>
			<defs>
				<path id="SVGID_1_" d="M2.5-0.1h111c1.4,0,2.5,1.1,2.5,2.5v45.2c0,1.4-1.1,2.5-2.5,2.5H2.5C1.1,50.1,0,49,0,47.6V2.4
					C0,1,1.1-0.1,2.5-0.1z"/>
			</defs>
			<clipPath id="SVGID_00000142145833785225849110000005734131322593268137_">
				<use xlink:href="#SVGID_1_"  style="overflow:visible;"/>
			</clipPath>
			<g style="clip-path:url(#SVGID_00000142145833785225849110000005734131322593268137_);">
				<rect y="-0.1" class="st1" width="116" height="50.2"/>
				<g>
					<g>
						<path class="st2" d="M43.4,26.5l-1.6-4.8l-1.7,4.8H43.4z M36.8,20.4v9h1.3l3.3-9C41.5,20.4,36.8,20.4,36.8,20.4z M46.4,26.4
							v-6h-4.1l3.2,9h3.3C47.3,29.2,46.4,28,46.4,26.4 M39.9,27.5l-0.7,2h5.3l-0.7-2H39.9z M57,28.7c1.3,0,2.1-0.7,2.1-1.7
							c0-0.5-0.1-0.9-0.4-1.1c-0.3-0.3-0.5-0.3-1.2-0.4l-1.1-0.1c-0.7-0.1-1.2-0.4-1.6-0.7c-0.4-0.4-0.7-0.9-0.7-1.7
							c0-1.3,0.8-2.3,2.1-2.5h-3.7v6c0,1.6-0.9,2.7-2.4,2.9h5.8c-0.8-0.1-1.5-0.5-2.1-1.1l0.7-0.7C55.3,28.4,55.9,28.7,57,28.7
							 M57.8,20.4c0.7,0.1,1.2,0.4,1.7,0.9L58.9,22c-0.5-0.5-1.1-0.8-2-0.8c-1.2,0-1.9,0.7-1.9,1.7c0,0.4,0.1,0.8,0.4,1.1
							s0.8,0.4,1.2,0.5l0.9,0.1c0.8,0.1,1.2,0.3,1.6,0.7c0.5,0.4,0.8,1.1,0.8,1.7c0,1.3-0.8,2.3-2.3,2.5h57v-9H57.8V20.4z
							 M31.6,29.5h4.3v-4.1h-4.3C31.6,25.4,31.6,29.5,31.6,29.5z M51.6,26.4v-6h-4.3v6c0,1.3,0.8,2.3,2.1,2.3
							C50.8,28.7,51.6,27.7,51.6,26.4 M31.6,24.5h4.3v-4h-4.3C31.6,20.5,31.6,24.5,31.6,24.5z"/>
					</g>
					<polygon class="st3" points="9.8,29.5 8.4,29.5 6.8,24 5.2,29.5 3.7,29.5 1.3,20.4 3.2,20.4 4.5,26.1 6.1,20.4 7.4,20.4 
						9,26.1 10.3,20.4 12.2,20.4 					"/>
					<g>
						<path class="st3" d="M17.1,22.4c-0.3-0.3-0.7-0.5-1.1-0.5c-0.5,0-0.9,0.1-1.1,0.5c-0.4,0.4-0.4,0.8-0.4,2.5s0.1,2.1,0.4,2.5
							c0.3,0.3,0.7,0.4,1.1,0.4c0.5,0,0.8-0.1,1.1-0.4c0.4-0.4,0.4-0.8,0.4-2.5C17.5,23.2,17.4,22.8,17.1,22.4 M18.3,28.5
							c-0.7,0.7-1.3,0.9-2.4,0.9s-1.7-0.4-2.4-0.9c-0.9-0.9-0.9-2-0.9-3.6c0-1.5,0-2.7,0.9-3.6c0.7-0.7,1.3-0.9,2.4-0.9
							s1.7,0.4,2.4,0.9c0.9,0.9,0.9,2,0.9,3.6C19.3,26.4,19.3,27.6,18.3,28.5"/>
					</g>
					<polygon class="st3" points="27.6,29.5 26.3,29.5 24.8,24 23.2,29.5 21.9,29.5 19.8,20.4 21.5,20.4 22.7,26.1 24.2,20.4 
						25.4,20.4 27,26.1 28.2,20.4 29.9,20.4 					"/>
				</g>
			</g>
		</g>
	</g>
</g>
</svg>
