<?xml version="1.0" encoding="utf-8"?>
<!-- Generator: Adobe Illustrator 28.3.0, SVG Export Plug-In . SVG Version: 6.00 Build 0)  -->
<svg version="1.1" id="Layer_1" xmlns="http://www.w3.org/2000/svg" xmlns:xlink="http://www.w3.org/1999/xlink" x="0px" y="0px"
	 viewBox="0 0 293 65" style="enable-background:new 0 0 293 65;" xml:space="preserve">
<style type="text/css">
	.st0{fill:#231F20;}
</style>
<g>
	<g>
		<path class="st0" d="M203.1,40.4l-7.9-22.9l-8,22.9H203.1z M170.9,10.8v43.4h6.6l15.7-43.4H170.9z M217.1,39.9V10.8h-20l15.7,43.4
			h15.7C221.6,52.8,217.1,47.3,217.1,39.9 M185.8,44.4l-3.4,9.8h25.5l-3.4-9.8H185.8z M268.2,50.4c6.2,0,10-3,10-8
			c0-2.3-0.6-4.2-2-5.4c-1.4-1.2-2.5-1.6-5.6-2.1l-5-0.8c-3.3-0.5-6-1.7-7.9-3.3c-2.2-2-3.2-4.7-3.2-8.1c0-6.2,3.7-10.7,10-11.9
			h-17.7v29.1c0,7.5-4.6,12.9-11.4,14.4h28c-4-0.7-7-2.4-10-5.4l3.1-3.2C260.1,49.3,263.4,50.4,268.2,50.4 M272.4,10.8
			c3.3,0.6,5.8,2,8.5,4.4l-2.9,3c-2.6-2.4-5.4-3.7-9.9-3.7c-5.7,0-9,3.2-9,8c0,2.2,0.6,3.8,1.9,5c1.3,1.2,3.5,2,5.7,2.4l4.7,0.7
			c4,0.6,6,1.5,7.8,3c2.3,2,3.6,5,3.6,8.6c0,6.4-4.1,10.7-10.7,11.9h21V10.8H272.4z M146,54.2h20.2V34.4H146V54.2z M242.3,39.5V10.8
			h-20.7v28.7c0,6.6,4.1,10.9,10.3,10.9C238.1,50.4,242.3,46.1,242.3,39.5 M146,30.3h20.2V10.8H146V30.3z"/>
	</g>
	<polygon class="st0" points="43.7,10.8 37.1,38.1 29.3,10.8 23.1,10.8 15.3,38.1 8.7,10.8 0,10.8 11.4,54.2 18.4,54.2 26.2,27.8 
		34,54.2 41,54.2 52.5,10.8 	"/>
	<g>
		<path class="st0" d="M76.1,20.5c-1.2-1.4-3.1-2.3-5.3-2.3c-2.3,0-4.2,0.9-5.4,2.3c-1.6,1.8-2.1,3.7-2.1,12c0,8.3,0.4,10.2,2.1,12
			c1.2,1.3,3.1,2.2,5.4,2.2c2.3,0,4.1-0.9,5.3-2.2c1.6-1.8,2.1-3.8,2.1-12C78.2,24.2,77.7,22.3,76.1,20.5 M82.2,49.5
			c-3,3-6.6,4.7-11.5,4.7c-4.9,0-8.6-1.7-11.6-4.7c-4.3-4.3-4.2-9.6-4.2-17c0-7.3-0.1-12.6,4.2-17c3-3,6.7-4.7,11.6-4.7
			c4.9,0,8.5,1.7,11.5,4.7c4.3,4.3,4.3,9.7,4.3,17C86.5,39.9,86.6,45.2,82.2,49.5"/>
	</g>
	<polygon class="st0" points="126.9,54.2 120.5,54.2 113.2,27.8 106,54.2 99.5,54.2 89,10.8 97,10.8 103.1,38.1 110.4,10.8 
		116.1,10.8 123.3,38.1 129.5,10.8 137.5,10.8 	"/>
</g>
</svg>
