<?xml version="1.0" encoding="utf-8"?>
<!-- Generator: Adobe Illustrator 27.9.0, SVG Export Plug-In . SVG Version: 6.00 Build 0)  -->
<svg version="1.1" id="Layer_1" xmlns="http://www.w3.org/2000/svg" xmlns:xlink="http://www.w3.org/1999/xlink" x="0px" y="0px"
	 viewBox="0 0 42 42" style="enable-background:new 0 0 42 42;" xml:space="preserve">
<style type="text/css">
	.st0{fill:none;stroke:#181818;}
	.st1{fill:#181818;}
</style>
<path class="st0" d="M5,1h32c2.2,0,4,1.8,4,4v32c0,2.2-1.8,4-4,4H5c-2.2,0-4-1.8-4-4V5C1,2.8,2.8,1,5,1z"/>
<g>
	<path class="st1" d="M21,20.4h5.6V15H21V20.4z M21,27h5.6v-5.5H21V27z M27.8,27h8.4V15h-8.4C27.8,15,27.8,27,27.8,27z"/>
	<polygon class="st1" points="16.3,27 14.5,27 12.5,19.7 10.5,27 8.7,27 5.8,15 8,15 9.7,22.6 11.7,15 13.3,15 15.3,22.6 17,15 
		19.2,15 	"/>
</g>
</svg>
