<?xml version="1.0" encoding="utf-8"?>
<!-- Generator: Adobe Illustrator 27.9.0, SVG Export Plug-In . SVG Version: 6.00 Build 0)  -->
<svg version="1.1" id="Layer_1" xmlns="http://www.w3.org/2000/svg" xmlns:xlink="http://www.w3.org/1999/xlink" x="0px" y="0px"
	 viewBox="0 0 16 16" style="enable-background:new 0 0 16 16;" xml:space="preserve">
<style type="text/css">
	.st0{fill:#F97306;}
	.st1{fill:#231F20;}
	.st2{fill:#FFFFFF;}
</style>
<path class="st0" d="M2,0h12c1.1,0,2,0.9,2,2v12c0,1.1-0.9,2-2,2H2c-1.1,0-2-0.9-2-2V2C0,0.9,0.9,0,2,0z"/>
<g>
	<path class="st1" d="M8,7.7h2.7V5H8V7.7z M8,11h2.7V8.2H8V11z M11.4,11h4.1V5h-4.1V11z"/>
	<polygon class="st2" points="5.7,11 4.8,11 3.8,7.4 2.8,11 2,11 0.5,5 1.6,5 2.4,8.7 3.5,5 4.2,5 5.1,8.7 6,5 7.2,5 	"/>
</g>
</svg>
