<svg width="24" height="24" viewBox="0 0 24 24" fill="none" xmlns="http://www.w3.org/2000/svg">
<g clip-path="url(#clip0_325_6528)">
<rect width="24" height="24" rx="4" fill="#101219"/>
<path d="M14.7318 16H16L12.5974 7H11.4026L8 16H9.28049L9.76462 14.6922L10.4754 12.6629H10.4651L11.9997 8.4553L13.1418 11.5835C13.1875 11.7122 13.2345 11.8414 13.2829 11.971C13.3669 12.2023 13.4513 12.4337 13.5362 12.665H13.5232L14.1628 14.5122L14.7318 16Z" fill="#EEEFFC"/>
</g>
<defs>
<clipPath id="clip0_325_6528">
<path d="M0 4C0 1.79086 1.79086 0 4 0H20C22.2091 0 24 1.79086 24 4V20C24 22.2091 22.2091 24 20 24H4C1.79086 24 0 22.2091 0 20V4Z" fill="white"/>
</clipPath>
</defs>
</svg>
