<?xml version="1.0" encoding="UTF-8" standalone="no"?>
<!-- Created with Inkscape (http://www.inkscape.org/) -->

<svg
   width="2546.6667"
   height="2546.6667"
   viewBox="0 0 673.80556 673.80557"
   version="1.1"
   id="svg1"
   inkscape:version="1.4 (e7c3feb100, 2024-10-09)"
   sodipodi:docname="logo.svg"
   inkscape:export-filename="logo.png"
   inkscape:export-xdpi="96"
   inkscape:export-ydpi="96"
   xmlns:inkscape="http://www.inkscape.org/namespaces/inkscape"
   xmlns:sodipodi="http://sodipodi.sourceforge.net/DTD/sodipodi-0.dtd"
   xmlns="http://www.w3.org/2000/svg"
   xmlns:svg="http://www.w3.org/2000/svg">
  <sodipodi:namedview
     id="namedview1"
     pagecolor="#ffffff"
     bordercolor="#000000"
     borderopacity="0.25"
     inkscape:showpageshadow="2"
     inkscape:pageopacity="0.0"
     inkscape:pagecheckerboard="0"
     inkscape:deskcolor="#d1d1d1"
     inkscape:document-units="mm"
     showguides="true"
     inkscape:zoom="0.25612023"
     inkscape:cx="1464.1561"
     inkscape:cy="1118.6153"
     inkscape:window-width="1920"
     inkscape:window-height="1080"
     inkscape:window-x="0"
     inkscape:window-y="0"
     inkscape:window-maximized="1"
     inkscape:current-layer="layer1">
    <inkscape:page
       x="0"
       y="0"
       width="673.80554"
       height="673.80554"
       id="page2"
       margin="0"
       bleed="0" />
  </sodipodi:namedview>
  <defs
     id="defs1" />
  <g
     inkscape:label="logo"
     inkscape:groupmode="layer"
     id="layer1"
     transform="translate(4.586115,4.5861149)">
    <rect
       style="display:inline;fill:#78a5a5;fill-opacity:1;stroke:#122626;stroke-width:9.17223;stroke-linecap:round;stroke-linejoin:round;stroke-opacity:1"
       id="rect1"
       width="664.6333"
       height="664.6333"
       x="0"
       y="0"
       inkscape:label="border" />
    <circle
       style="fill:#cb9252;fill-opacity:1;stroke:#122626;stroke-width:11.5315;stroke-linecap:round;stroke-linejoin:round;stroke-opacity:1"
       id="path3"
       cx="332.31665"
       cy="334.18958"
       r="266.89514"
       inkscape:label="body" />
    <circle
       style="fill:#122626;fill-opacity:1;stroke:#122626;stroke-width:9.17223;stroke-linecap:round;stroke-linejoin:round;stroke-opacity:1"
       id="path4"
       cx="247.93042"
       cy="288.47488"
       r="39.25565"
       inkscape:label="left-eye" />
    <circle
       style="fill:#ffffff;fill-opacity:1;stroke:none;stroke-width:13.29;stroke-linecap:round;stroke-linejoin:round;stroke-opacity:1"
       id="path5"
       cx="228.897"
       cy="272.45667"
       r="14.447563"
       inkscape:label="left-eye-glint" />
    <circle
       style="fill:#122626;fill-opacity:1;stroke:#122626;stroke-width:9.17223;stroke-linecap:round;stroke-linejoin:round;stroke-opacity:1"
       id="path4-2"
       cx="247.93042"
       cy="288.47488"
       r="39.25565"
       transform="translate(168.77248)"
       inkscape:label="right-eye" />
    <circle
       style="fill:#ffffff;fill-opacity:1;stroke:none;stroke-width:13.29;stroke-linecap:round;stroke-linejoin:round;stroke-opacity:1"
       id="path5-9"
       cx="397.66949"
       cy="272.45667"
       r="14.447563"
       inkscape:label="right-eye-glint" />
    <g
       id="g10"
       inkscape:label="mouth">
      <path
         style="fill:#e14545;fill-opacity:1;stroke:#122626;stroke-width:9.17223;stroke-linecap:round;stroke-linejoin:round;stroke-opacity:1"
         d="m 247.93042,397.72174 c 0,0 7.13788,2.23978 30.21653,3.61565 23.07865,1.37587 85.26286,1.3877 108.28566,0 23.02281,-1.3877 29.88392,-3.61565 29.88392,-3.61565 0,0 -23.12346,71.08682 -83.99987,71.08682 -60.87641,0 -84.38624,-71.08682 -84.38624,-71.08682 z"
         id="path7"
         sodipodi:nodetypes="czzccc"
         inkscape:label="mouth-border" />
      <path
         id="path7-2"
         style="fill:#e97373;fill-opacity:1;stroke:#122626;stroke-width:5.272;stroke-linecap:round;stroke-linejoin:round;stroke-dasharray:none;stroke-opacity:1"
         d="m 372.71472,456.64758 a 40.737656,19.627825 0 0 0 0.14624,-1.07539 40.737656,19.627825 0 0 0 -40.73756,-19.62774 40.737656,19.627825 0 0 0 -40.73757,19.62774 40.737656,19.627825 0 0 0 0.11472,0.84284 c 11.1532,7.35943 24.65562,12.39356 40.81612,12.39356 15.99039,0 29.35208,-4.9283 40.39805,-12.16101 z"
         inkscape:label="tongue" />
      <path
         style="fill:none;fill-opacity:1;stroke:#122626;stroke-width:9.172;stroke-linecap:round;stroke-linejoin:round;stroke-dasharray:none;stroke-opacity:1"
         d="m 247.93042,397.72174 c 0,0 7.13788,2.23978 30.21653,3.61565 23.07865,1.37587 85.26286,1.3877 108.28566,0 23.02281,-1.3877 29.88392,-3.61565 29.88392,-3.61565 0,0 -23.12346,71.08682 -83.99987,71.08682 -60.87641,0 -84.38624,-71.08682 -84.38624,-71.08682 z"
         id="path7-4"
         sodipodi:nodetypes="czzccc"
         inkscape:label="mouth-fill" />
    </g>
  </g>
</svg>
