<?xml version='1.0' encoding='utf-8'?>
<svg xmlns="http://www.w3.org/2000/svg" width="1280" height="720" viewBox="0 0 1280 720" xmlns:inkscape="http://www.inkscape.org/namespaces/inkscape">
  <title>Body Landmark Trajectories</title>
  <g inkscape:label="body" id="body">
    <g inkscape:label="face" id="body_face">
      <g inkscape:label="right eye" id="body_face_right_eye">
        <path d="M 728.82 75.53 L 716.93 75.96 L 692.02 75.45 L 662.98 72.89 L 638.37 73.84 L 612.50 75.47 L 585.77 79.91 L 557.88 89.39 L 529.83 103.85 L 499.23 131.13 L 470.41 161.49 L 450.11 193.78 L 432.26 227.59 L 419.79 262.59 L 411.03 297.64 L 402.67 324.64 L 397.68 349.80 L 393.25 370.03 L 388.35 387.67 L 384.31 400.66 L 380.61 410.13 L 377.28 415.46 L 373.75 416.55 L 370.31 417.10 L 367.81 418.17 L 366.37 418.77 L 365.89 419.75 L 367.79 421.15 L 369.81 422.07 L 371.51 426.00 L 373.95 431.46 L 382.46 439.43 L 396.25 446.57 L 404.53 457.48 L 413.18 471.77 L 422.71 480.49 L 430.76 492.19 L 439.10 497.50 L 451.71 491.97 L 472.86 500.39 L 490.62 505.14 L 493.12 508.74 L 498.13 510.95 L 511.58 515.02 L 523.67 520.54 L 534.73 526.72 L 550.05 531.42 L 560.86 534.06 L 567.66 534.72 L 577.98 535.87 L 584.53 544.70 L 596.88 550.57 L 604.91 550.27 L 634.70 585.57 L 649.16 585.92 L 669.16 585.09 L 722.69 563.30 L 731.33 566.78 L 741.29 567.14 L 736.63 561.05 L 740.38 553.08 L 741.30 554.30 L 758.50 555.66 L 768.60 546.46 L 774.49 549.73 L 780.58 548.50 L 784.50 547.36 L 785.88 547.26 L 792.38 547.72 L 804.57 546.01 L 812.27 544.74 L 817.61 541.91 L 826.85 537.64 L 826.28 528.59 L 821.99 524.55 L 822.27 519.02 L 824.61 513.03 L 824.57 507.42 L 825.01 494.46 L 823.29 473.55 L 821.35 448.17 L 813.22 422.07 L 800.20 392.49 L 774.96 361.90 L 757.26 335.57 L 725.88 310.88 L 693.42 280.15 L 659.36 271.70 L 628.96 279.79 L 616.14 284.85 L 604.18 293.92 L 597.05 302.12 L 591.37 302.80 L 585.44 307.89 L 573.44 308.24 L 556.93 326.72 L 547.38 339.04 L 537.80 345.08 L 526.29 352.49 L 513.21 358.79 L 502.48 363.79 L 494.20 369.58 L 486.61 372.82 L 479.83 376.08 L 472.78 381.90 L 464.35 384.80 L 459.58 386.36 L 458.61 389.22 L 456.73 392.81 L 453.65 393.56 L 452.25 394.66 L 451.07 396.79 L 450.08 397.81 L 450.25 397.43 L 451.64 397.61 L 453.61 397.37 L 454.33 396.54 L 459.05 396.87 L 464.55 397.11 L 472.15 397.28 L 479.58 397.24 L 488.85 397.34 L 499.14 398.01 L 511.76 397.99 L 522.43 398.75 L 534.14 398.68 L 544.79 398.64 L 556.78 398.61 L 570.75 397.99 L 585.49 396.50 L 599.93 391.30 L 616.39 385.81 L 632.10 380.99 L 647.27 375.99 L 660.69 371.28 L 674.44 370.22 L 688.85 371.60 L 703.43 372.54 L 717.57 373.12 L 732.88 374.14 L 746.87 374.62 L 758.90 378.88 L 771.90 382.31 L 784.89 388.88 L 797.25 393.73 L 808.42 398.81 L 820.81 404.79 L 833.41 411.10 L 846.16 418.72 L 856.85 429.19 L 868.91 437.57 L 878.15 450.75 L 875.54 477.46 L 877.15 501.62 L 869.08 510.88 L 860.94 510.14 L 860.18 504.84 L 848.06 495.61 L 828.27 495.27 L 812.37 470.08 L 796.30 445.60 L 776.33 426.79 L 749.52 414.50 L 721.09 407.98 L 693.35 407.30 L 667.01 408.25 L 644.91 414.00 L 629.81 463.15 L 621.92 475.04 L 584.19 459.76 L 599.12 473.84 L 587.65 498.56 L 579.14 502.21 L 535.37 494.37 L 534.04 500.78 L 570.39 519.45 L 558.01 522.55 L 515.85 530.31 L 512.65 538.61 L 511.76 545.74 L 508.65 544.67 L 504.13 541.11 L 498.65 551.40 L 495.21 552.97 L 492.30 554.42 L 487.66 552.53 L 485.22 553.98" stroke="#f87171" stroke-width="1" fill="none" opacity="0.7" inkscape:label="RIGHT_EYE_INNER" data-landmark="RIGHT_EYE_INNER" />
        <path d="M 736.24 73.94 L 719.50 75.21 L 693.53 74.97 L 664.04 72.66 L 639.72 73.61 L 614.32 75.16 L 588.43 79.40 L 560.11 88.67 L 531.65 102.92 L 500.97 130.14 L 472.34 160.50 L 451.78 192.65 L 433.69 226.32 L 421.31 261.08 L 412.08 296.06 L 403.10 322.86 L 397.69 348.17 L 393.23 368.39 L 388.21 386.34 L 384.17 399.22 L 380.52 408.73 L 377.16 413.87 L 373.59 415.12 L 370.09 415.71 L 367.64 416.66 L 366.24 417.31 L 365.81 418.28 L 367.69 419.79 L 369.64 420.68 L 371.50 424.44 L 373.83 430.04 L 382.21 438.08 L 396.10 445.36 L 404.48 456.39 L 413.24 470.81 L 422.50 478.83 L 430.69 490.43 L 439.26 495.24 L 456.41 490.14 L 473.44 497.70 L 487.10 500.13 L 494.46 504.96 L 500.36 507.04 L 513.66 511.74 L 525.64 517.11 L 537.20 522.88 L 552.59 528.05 L 563.20 530.56 L 570.93 532.34 L 580.48 533.34 L 586.24 542.20 L 598.41 548.03 L 606.84 547.84 L 635.40 586.75 L 650.05 587.26 L 669.92 586.90 L 723.81 565.65 L 732.40 568.53 L 742.11 568.38 L 737.49 562.15 L 741.01 554.13 L 742.13 555.32 L 758.48 556.79 L 768.75 547.15 L 774.25 549.20 L 780.86 549.60 L 784.42 549.31 L 786.07 549.74 L 792.93 550.79 L 805.40 550.16 L 812.76 548.95 L 818.08 545.83 L 826.33 540.98 L 825.87 531.32 L 821.61 527.47 L 821.82 521.04 L 824.10 514.46 L 823.94 507.30 L 824.35 494.04 L 822.72 473.16 L 821.10 447.26 L 812.10 421.14 L 798.43 391.54 L 774.06 361.47 L 756.30 334.96 L 724.74 310.44 L 692.39 280.53 L 659.90 272.36 L 630.85 279.38 L 618.19 283.78 L 606.49 292.65 L 598.91 300.68 L 593.77 301.47 L 588.18 306.57 L 576.32 308.36 L 559.31 325.76 L 549.86 338.04 L 540.50 343.94 L 528.90 351.23 L 515.68 357.42 L 504.76 362.51 L 496.51 368.31 L 489.14 371.61 L 481.99 374.94 L 474.21 380.56 L 465.32 383.79 L 460.42 385.29 L 459.38 388.21 L 457.50 391.90 L 454.43 392.59 L 452.96 393.60 L 451.71 395.68 L 450.68 396.66 L 450.85 396.31 L 452.39 396.46 L 454.40 396.27 L 455.08 395.45 L 459.78 395.85 L 465.28 396.12 L 472.94 396.28 L 480.45 396.20 L 489.60 396.32 L 499.76 397.02 L 512.53 397.01 L 523.17 397.89 L 534.84 397.85 L 545.39 397.78 L 557.26 397.72 L 571.17 397.24 L 585.95 395.91 L 600.50 390.72 L 616.89 385.31 L 632.99 380.33 L 648.28 375.34 L 661.89 370.71 L 675.45 369.65 L 689.58 371.21 L 704.07 372.15 L 718.45 372.69 L 733.72 373.63 L 747.95 373.89 L 759.71 378.50 L 772.68 382.16 L 785.54 388.80 L 797.86 393.69 L 809.10 398.87 L 821.25 404.95 L 833.59 411.30 L 846.72 419.22 L 857.47 429.44 L 869.52 438.03 L 878.37 450.86 L 875.73 477.64 L 876.74 499.11 L 869.06 508.84 L 860.99 508.14 L 860.43 502.79 L 848.01 493.86 L 827.65 492.19 L 811.16 468.49 L 795.23 444.95 L 775.04 426.98 L 747.99 414.14 L 719.38 407.63 L 691.60 407.87 L 665.43 409.18 L 644.10 414.66 L 629.67 465.39 L 622.39 477.47 L 583.69 461.12 L 599.96 475.62 L 588.81 500.17 L 580.58 504.00 L 535.20 496.22 L 537.16 504.93 L 572.20 521.94 L 560.13 525.27 L 516.21 528.83 L 514.35 540.98 L 513.75 548.59 L 517.40 538.85 L 507.67 541.95 L 500.90 554.04 L 497.20 555.60 L 494.07 556.86 L 489.24 554.87 L 486.76 556.58" stroke="#f87171" stroke-width="1" fill="none" opacity="0.7" inkscape:label="RIGHT_EYE" data-landmark="RIGHT_EYE" />
        <path d="M 739.27 73.75 L 721.62 75.24 L 695.33 74.93 L 665.36 72.42 L 641.37 73.14 L 616.44 74.50 L 591.33 78.56 L 562.70 87.65 L 533.84 101.74 L 503.07 128.85 L 474.41 159.34 L 453.65 191.19 L 435.27 224.74 L 422.91 259.22 L 413.27 294.16 L 403.58 320.86 L 397.76 346.24 L 393.23 366.48 L 388.05 384.70 L 384.05 397.46 L 380.43 407.08 L 376.95 412.00 L 373.35 413.56 L 369.80 414.15 L 367.38 415.03 L 366.05 415.65 L 365.67 416.55 L 367.53 418.12 L 369.42 418.95 L 371.43 422.64 L 373.72 428.26 L 381.94 436.37 L 395.87 443.87 L 404.38 455.03 L 413.34 469.60 L 422.36 476.95 L 430.79 488.38 L 439.64 492.92 L 456.76 486.52 L 473.65 495.09 L 488.45 497.15 L 496.02 502.06 L 502.72 503.28 L 515.44 508.47 L 527.63 513.73 L 539.59 519.22 L 554.65 524.62 L 565.23 527.23 L 573.36 529.73 L 583.21 531.31 L 588.00 539.71 L 600.40 544.40 L 608.90 544.88 L 636.12 587.94 L 650.97 588.63 L 670.72 588.60 L 724.94 568.01 L 733.46 570.33 L 742.93 570.31 L 738.36 563.55 L 741.66 555.30 L 742.97 556.39 L 758.47 557.80 L 768.84 547.62 L 773.15 551.63 L 780.98 551.42 L 783.97 552.57 L 786.19 553.27 L 793.38 553.67 L 805.91 553.48 L 813.18 552.97 L 818.55 549.81 L 825.77 544.31 L 825.18 533.96 L 820.72 530.25 L 821.20 523.03 L 823.43 515.87 L 823.20 507.08 L 823.57 493.51 L 822.03 472.58 L 820.79 446.16 L 810.92 420.08 L 796.48 390.43 L 773.09 361.05 L 755.14 334.35 L 723.46 310.19 L 691.31 281.03 L 660.53 273.29 L 633.06 279.12 L 620.52 282.83 L 609.03 291.54 L 600.90 299.44 L 596.42 300.15 L 591.26 305.22 L 579.70 308.34 L 562.02 324.67 L 552.67 336.96 L 543.44 342.71 L 531.80 349.95 L 518.40 356.01 L 507.21 361.16 L 499.09 366.98 L 491.88 370.36 L 484.25 373.78 L 475.68 379.26 L 466.48 382.62 L 461.31 384.15 L 460.20 387.04 L 458.37 390.86 L 455.33 391.51 L 453.84 392.46 L 452.54 394.46 L 451.45 395.40 L 451.65 395.09 L 453.28 395.22 L 455.30 395.10 L 455.88 394.30 L 460.56 394.72 L 466.09 395.00 L 473.81 395.11 L 481.42 394.99 L 490.48 395.11 L 500.53 395.81 L 513.47 395.81 L 524.07 396.80 L 535.68 396.83 L 546.15 396.74 L 557.88 396.68 L 571.76 396.31 L 586.61 395.13 L 601.32 390.06 L 617.59 384.70 L 634.05 379.63 L 649.50 374.66 L 663.31 370.12 L 676.66 369.07 L 690.44 370.73 L 704.81 371.68 L 719.49 372.19 L 734.82 373.03 L 749.22 373.09 L 760.70 378.01 L 773.58 381.98 L 786.37 388.67 L 798.67 393.62 L 810.00 398.92 L 821.85 405.06 L 833.96 411.48 L 847.44 419.65 L 858.18 429.61 L 870.23 438.36 L 878.67 450.92 L 875.94 477.73 L 876.27 496.32 L 869.00 506.49 L 861.02 505.86 L 859.06 500.34 L 847.30 491.80 L 826.86 489.19 L 809.87 466.78 L 794.03 444.10 L 773.64 427.00 L 746.20 413.58 L 717.33 407.15 L 689.49 408.39 L 663.53 410.27 L 643.27 415.63 L 629.55 467.63 L 622.86 479.90 L 599.58 470.96 L 601.72 478.43 L 590.02 501.82 L 582.01 505.82 L 567.40 508.25 L 570.12 510.15 L 578.45 524.43 L 562.35 527.99 L 516.74 531.26 L 516.01 543.72 L 515.45 551.06 L 520.02 541.83 L 510.50 544.28 L 502.16 556.28 L 498.29 557.58 L 496.57 559.69 L 491.71 557.75 L 489.58 560.14" stroke="#f87171" stroke-width="1" fill="none" opacity="0.7" inkscape:label="RIGHT_EYE_OUTER" data-landmark="RIGHT_EYE_OUTER" />
      </g>
      <g inkscape:label="ears" id="body_face_ears">
        <path d="M 723.61 81.11 L 716.88 80.90 L 695.15 79.79 L 676.53 78.03 L 650.81 78.63 L 624.97 79.50 L 596.51 84.78 L 569.99 92.97 L 544.32 106.70 L 514.06 131.70 L 487.62 159.60 L 468.81 189.43 L 450.97 220.25 L 435.96 253.76 L 426.03 284.97 L 415.95 311.10 L 410.48 333.02 L 404.72 352.85 L 398.82 369.50 L 393.72 383.13 L 389.09 391.06 L 384.49 395.06 L 380.87 396.19 L 376.73 397.43 L 373.54 398.77 L 372.03 399.33 L 372.01 400.22 L 374.18 400.98 L 376.27 401.52 L 378.73 405.87 L 383.59 411.85 L 392.28 419.51 L 405.34 428.88 L 416.81 440.77 L 428.17 457.09 L 439.06 472.55 L 447.12 486.89 L 454.42 502.02 L 464.33 510.67 L 484.61 518.31 L 495.09 528.49 L 501.66 536.21 L 504.23 540.18 L 514.49 542.02 L 525.06 545.19 L 536.47 553.36 L 547.22 558.57 L 558.07 563.62 L 563.93 562.71 L 572.10 565.41 L 586.85 574.27 L 599.41 582.17 L 601.88 580.07 L 625.26 577.53 L 639.11 575.99 L 658.38 570.84 L 710.25 557.21 L 714.29 564.22 L 732.44 564.36 L 726.45 555.80 L 731.57 549.88 L 734.82 551.09 L 750.33 545.11 L 753.21 536.40 L 761.99 536.86 L 762.75 531.80 L 766.49 529.63 L 770.59 528.79 L 775.47 527.43 L 786.66 522.61 L 794.46 519.82 L 803.48 516.96 L 813.33 514.88 L 813.60 508.75 L 811.74 506.79 L 814.09 500.99 L 816.20 494.58 L 815.27 490.11 L 812.79 477.38 L 811.15 458.28 L 809.35 434.64 L 799.73 409.65 L 784.62 383.62 L 759.55 356.51 L 740.12 333.15 L 712.39 312.66 L 681.16 289.76 L 648.82 285.03 L 621.01 292.49 L 608.57 298.94 L 597.64 305.18 L 590.67 313.54 L 581.19 317.40 L 573.72 321.46 L 566.04 324.35 L 557.22 332.95 L 549.22 340.49 L 539.13 345.89 L 530.67 352.45 L 518.96 358.48 L 509.35 364.22 L 502.03 368.72 L 492.86 371.78 L 488.45 373.71 L 483.65 378.34 L 478.20 379.90 L 475.16 379.92 L 473.00 381.96 L 470.89 385.35 L 468.64 385.75 L 467.30 386.63 L 466.05 387.60 L 464.83 388.22 L 464.51 388.23 L 465.07 388.56 L 466.80 389.23 L 467.44 388.76 L 472.39 389.07 L 479.28 389.12 L 487.10 389.21 L 494.25 389.54 L 504.09 389.68 L 514.76 390.58 L 526.96 391.81 L 538.63 393.24 L 550.97 393.85 L 562.18 393.71 L 575.45 394.07 L 589.83 393.99 L 604.81 393.90 L 618.88 390.97 L 636.69 385.38 L 650.86 381.49 L 666.19 378.37 L 680.15 374.91 L 695.84 373.85 L 712.21 375.24 L 726.87 375.82 L 741.07 375.80 L 755.06 376.30 L 767.09 377.24 L 780.70 383.28 L 793.87 388.14 L 808.48 395.43 L 820.31 401.87 L 831.12 408.57 L 842.80 416.46 L 853.67 425.96 L 860.84 434.12 L 868.83 446.36 L 875.50 454.40 L 882.64 467.99 L 876.52 479.50 L 872.68 498.00 L 864.72 499.06 L 861.19 496.67 L 847.75 491.97 L 834.85 484.65 L 818.44 470.78 L 801.78 452.60 L 783.30 432.89 L 763.01 417.48 L 734.29 407.73 L 706.43 403.25 L 679.74 405.57 L 656.03 408.39 L 631.39 414.91 L 621.10 461.77 L 604.53 473.81 L 600.28 469.10 L 582.67 479.98 L 571.91 500.55 L 561.60 503.31 L 544.00 504.31 L 546.27 505.12 L 557.65 519.29 L 532.04 524.00 L 502.73 528.71 L 490.41 542.14 L 499.28 536.61 L 488.94 533.93 L 485.20 548.09 L 485.72 547.24 L 484.24 543.38 L 474.71 539.07 L 470.30 546.98 L 467.57 547.07" stroke="#f87171" stroke-width="1" fill="none" opacity="0.7" inkscape:label="LEFT_EAR" data-landmark="LEFT_EAR" />
        <path d="M 737.88 85.47 L 728.21 84.79 L 705.05 81.10 L 679.00 78.11 L 657.30 78.59 L 632.88 78.92 L 608.10 81.14 L 580.06 89.30 L 551.93 102.64 L 520.79 126.86 L 492.03 155.36 L 471.90 185.22 L 452.29 216.89 L 438.12 249.67 L 426.67 282.10 L 416.58 307.47 L 409.61 330.82 L 404.02 350.55 L 397.89 368.75 L 392.25 382.84 L 387.19 391.22 L 382.73 396.15 L 378.97 397.70 L 375.02 398.27 L 372.23 398.99 L 370.84 399.43 L 370.93 400.06 L 372.61 401.51 L 374.41 402.30 L 377.12 406.84 L 381.60 412.27 L 390.50 419.27 L 403.17 428.18 L 413.49 440.73 L 423.14 456.96 L 433.07 464.56 L 442.01 478.11 L 450.08 485.97 L 467.84 478.50 L 482.51 491.22 L 498.32 493.01 L 508.99 496.60 L 517.24 497.89 L 529.06 503.39 L 541.04 505.34 L 557.18 512.60 L 572.89 518.47 L 576.93 524.24 L 584.29 528.96 L 593.41 530.30 L 602.33 536.10 L 609.64 540.88 L 619.01 544.13 L 635.38 589.95 L 650.87 590.00 L 669.50 590.00 L 721.80 577.20 L 730.03 581.92 L 739.47 575.85 L 734.89 570.02 L 738.10 561.61 L 740.97 561.86 L 750.75 564.53 L 760.77 558.84 L 766.49 560.56 L 768.75 553.79 L 772.59 557.01 L 776.90 558.81 L 785.11 559.97 L 797.12 560.68 L 804.52 560.83 L 810.93 557.91 L 817.15 550.53 L 816.86 536.42 L 814.34 532.15 L 816.00 523.95 L 817.12 515.06 L 815.38 500.96 L 814.11 486.81 L 812.22 464.55 L 809.38 437.51 L 797.14 412.45 L 781.45 385.41 L 761.32 359.29 L 742.25 334.49 L 712.36 313.20 L 683.86 290.05 L 658.38 284.57 L 635.75 286.46 L 624.47 289.52 L 613.88 296.13 L 606.19 302.42 L 602.09 303.25 L 598.59 307.71 L 588.07 312.18 L 572.34 323.35 L 563.29 335.70 L 553.86 342.38 L 543.64 349.44 L 531.08 354.89 L 520.41 359.63 L 513.14 364.80 L 505.28 367.72 L 498.54 370.11 L 489.95 374.54 L 481.14 377.15 L 475.60 378.45 L 473.65 380.75 L 471.41 384.01 L 469.02 384.21 L 467.60 385.13 L 466.26 386.43 L 464.91 387.08 L 464.48 387.19 L 465.36 387.46 L 467.25 387.94 L 467.92 387.44 L 472.80 387.86 L 479.31 388.09 L 487.54 388.09 L 495.21 388.02 L 503.94 388.53 L 513.72 389.87 L 526.46 390.75 L 537.37 392.37 L 549.09 393.02 L 559.78 392.96 L 572.30 393.36 L 586.13 393.22 L 601.37 393.15 L 616.69 389.90 L 633.84 384.57 L 649.19 380.29 L 664.48 376.79 L 678.57 373.31 L 693.74 372.61 L 708.56 373.80 L 722.35 374.05 L 736.56 374.25 L 750.76 374.40 L 764.30 376.74 L 777.12 382.80 L 789.28 387.49 L 801.38 394.20 L 813.39 400.12 L 824.62 406.64 L 834.97 413.85 L 845.10 421.68 L 856.00 430.63 L 864.00 440.19 L 873.22 449.60 L 878.72 460.92 L 874.44 478.10 L 870.67 485.40 L 864.27 490.11 L 860.42 490.51 L 848.17 484.98 L 836.85 478.96 L 816.71 469.45 L 797.90 452.78 L 781.57 435.45 L 760.02 423.79 L 732.41 410.31 L 702.60 405.68 L 675.30 411.18 L 655.23 417.91 L 646.53 449.04 L 627.93 479.60 L 619.19 491.68 L 580.03 471.70 L 598.34 489.88 L 590.01 511.73 L 583.46 516.67 L 571.41 521.73 L 573.04 524.85 L 581.25 536.93 L 564.01 544.75 L 520.87 547.05 L 519.74 561.16 L 517.08 562.06 L 513.64 564.52 L 510.39 566.95 L 504.38 567.28 L 499.52 568.18 L 499.45 570.32 L 497.17 569.41 L 494.77 571.56" stroke="#f87171" stroke-width="1" fill="none" opacity="0.7" inkscape:label="RIGHT_EAR" data-landmark="RIGHT_EAR" />
      </g>
      <g inkscape:label="mouth" id="body_face_mouth">
        <path d="M 713.59 97.59 L 704.02 96.75 L 683.59 95.14 L 660.19 93.31 L 635.92 95.34 L 610.33 97.36 L 582.41 103.77 L 557.04 113.47 L 531.63 128.12 L 505.44 156.05 L 481.09 185.97 L 464.56 216.97 L 449.38 249.43 L 439.14 280.45 L 432.05 310.99 L 422.91 336.81 L 420.96 358.97 L 417.77 376.44 L 412.71 392.28 L 408.24 405.22 L 404.58 413.52 L 401.02 417.73 L 397.83 418.67 L 393.87 419.89 L 391.24 420.42 L 389.38 420.86 L 388.85 422.20 L 390.51 422.75 L 392.38 423.51 L 393.69 427.58 L 397.62 434.87 L 406.65 443.33 L 420.88 449.58 L 428.47 461.67 L 434.98 477.05 L 445.61 489.20 L 450.17 502.40 L 453.78 508.68 L 465.77 504.48 L 489.35 510.79 L 503.41 518.35 L 509.02 523.67 L 509.57 526.55 L 522.93 530.66 L 528.98 535.14 L 539.76 542.50 L 550.73 546.81 L 556.85 538.22 L 562.68 543.07 L 573.25 545.06 L 582.17 554.90 L 595.97 568.34 L 601.51 562.08 L 636.83 578.56 L 651.39 578.35 L 672.06 576.08 L 717.08 554.97 L 719.23 559.69 L 730.29 564.32 L 728.96 563.24 L 733.76 561.28 L 734.80 558.74 L 753.33 557.01 L 758.22 543.01 L 763.86 545.79 L 764.58 540.93 L 770.12 539.58 L 769.80 539.63 L 775.37 539.20 L 786.08 535.46 L 793.22 533.65 L 800.29 531.44 L 810.73 527.53 L 808.75 519.91 L 806.04 517.20 L 806.95 513.63 L 807.57 509.13 L 806.64 510.88 L 806.17 501.25 L 805.06 483.08 L 803.48 461.24 L 797.12 436.56 L 787.93 410.14 L 764.92 381.10 L 750.97 356.52 L 726.57 332.57 L 701.35 296.66 L 669.06 287.80 L 638.51 294.82 L 622.53 303.52 L 610.69 312.13 L 602.52 320.43 L 593.54 321.45 L 585.91 326.85 L 574.55 331.71 L 561.45 348.73 L 551.70 359.57 L 541.27 365.71 L 531.00 373.07 L 520.15 379.57 L 510.71 384.34 L 503.46 390.44 L 496.14 393.93 L 489.00 396.29 L 484.65 402.05 L 478.16 403.49 L 474.97 403.29 L 474.27 405.88 L 472.45 408.76 L 469.79 410.11 L 468.25 411.11 L 467.65 412.51 L 466.70 413.28 L 466.68 412.92 L 467.60 413.27 L 469.24 413.39 L 470.07 412.74 L 473.75 412.93 L 478.09 413.03 L 485.82 413.20 L 492.87 413.40 L 502.22 413.54 L 511.74 414.49 L 522.87 415.37 L 533.70 416.44 L 544.36 416.64 L 555.15 416.55 L 566.89 416.51 L 579.44 416.44 L 593.88 416.35 L 608.31 412.96 L 624.91 407.08 L 638.62 402.94 L 652.11 398.79 L 663.89 394.84 L 677.34 393.79 L 692.78 395.69 L 705.82 395.31 L 719.55 394.60 L 733.92 395.43 L 744.85 396.47 L 757.67 401.80 L 769.71 405.30 L 782.78 411.22 L 793.64 415.83 L 803.16 420.46 L 814.77 425.40 L 824.16 431.28 L 832.86 436.26 L 842.74 444.13 L 853.37 448.11 L 862.12 459.64 L 857.63 477.63 L 859.74 509.25 L 851.30 515.57 L 844.72 515.81 L 839.30 514.00 L 828.96 505.19 L 811.42 503.29 L 798.36 481.39 L 786.59 457.80 L 772.70 439.33 L 746.06 432.05 L 721.27 425.38 L 699.85 421.57 L 676.67 416.96 L 652.53 421.85 L 634.85 463.26 L 617.95 459.67 L 602.61 476.42 L 597.43 478.20 L 587.42 500.82 L 581.91 503.21 L 546.90 491.78 L 547.23 499.07 L 548.44 513.68 L 537.97 519.81 L 523.26 524.40 L 522.22 530.75 L 515.26 536.03 L 510.90 535.68 L 508.33 538.83 L 505.24 541.22 L 500.76 543.10 L 498.40 540.83 L 495.14 539.72 L 491.35 539.12" stroke="#f87171" stroke-width="1" fill="none" opacity="0.7" inkscape:label="MOUTH_LEFT" data-landmark="MOUTH_LEFT" />
        <path d="M 731.30 96.52 L 708.59 96.28 L 686.06 94.92 L 659.15 93.23 L 635.95 94.82 L 611.16 96.55 L 585.99 102.16 L 559.98 112.30 L 532.94 127.20 L 506.58 155.43 L 482.52 185.12 L 465.36 216.11 L 449.71 248.74 L 439.85 279.70 L 432.65 310.97 L 423.37 336.87 L 420.91 359.57 L 417.67 377.39 L 412.51 393.72 L 408.15 406.28 L 404.43 414.24 L 400.64 418.62 L 397.47 419.49 L 393.69 420.69 L 391.18 420.90 L 389.42 421.55 L 388.89 422.96 L 390.40 423.81 L 392.23 424.41 L 393.78 428.18 L 397.49 435.96 L 406.98 444.30 L 420.67 449.96 L 427.47 462.32 L 433.55 477.23 L 443.71 487.51 L 449.06 500.35 L 452.56 503.41 L 466.66 496.22 L 488.97 503.07 L 504.84 507.58 L 511.49 512.34 L 513.90 513.14 L 526.40 518.29 L 536.28 523.37 L 546.31 529.08 L 558.59 533.96 L 563.12 527.20 L 571.12 532.68 L 580.29 534.77 L 584.55 544.96 L 595.54 549.75 L 603.86 550.18 L 639.95 582.24 L 655.07 582.30 L 675.43 581.67 L 718.21 564.15 L 722.53 564.37 L 732.35 565.50 L 730.64 563.90 L 735.07 561.00 L 736.29 558.52 L 753.10 559.15 L 760.64 546.71 L 765.56 550.61 L 769.81 549.18 L 772.03 548.36 L 770.89 548.64 L 777.55 549.62 L 788.56 547.58 L 795.93 547.29 L 802.14 544.26 L 811.95 538.74 L 809.58 529.49 L 806.38 525.81 L 806.84 520.06 L 807.06 514.42 L 805.46 513.58 L 805.30 503.34 L 804.17 484.05 L 803.28 461.29 L 795.75 436.50 L 786.02 409.29 L 764.34 381.11 L 750.57 356.31 L 726.49 331.90 L 701.78 296.90 L 673.57 287.87 L 645.37 290.90 L 628.72 297.44 L 616.59 306.46 L 607.22 315.12 L 599.86 316.15 L 592.86 322.21 L 580.88 326.41 L 566.12 346.20 L 556.26 358.35 L 546.08 364.40 L 534.84 371.78 L 523.68 378.10 L 514.26 382.73 L 506.96 388.59 L 500.16 392.38 L 492.40 395.76 L 486.84 402.02 L 479.19 403.54 L 475.03 403.54 L 474.55 406.56 L 472.73 409.54 L 470.00 410.86 L 468.37 411.77 L 467.78 413.28 L 466.89 414.04 L 466.97 413.60 L 468.20 413.90 L 469.91 413.83 L 470.89 413.12 L 474.32 413.20 L 478.25 413.27 L 486.02 413.35 L 493.41 413.35 L 502.38 413.63 L 511.51 414.78 L 522.82 415.53 L 533.16 416.90 L 543.17 417.29 L 553.54 417.33 L 564.36 417.41 L 576.66 417.34 L 591.41 417.29 L 606.46 413.31 L 622.88 407.11 L 637.24 403.00 L 650.86 398.87 L 663.17 394.87 L 675.99 393.97 L 690.88 395.71 L 704.03 395.03 L 718.18 394.23 L 732.72 395.29 L 743.93 396.41 L 756.21 401.28 L 768.09 404.78 L 780.84 410.46 L 791.87 415.09 L 801.47 419.70 L 812.41 424.49 L 821.18 430.14 L 830.89 435.44 L 840.74 442.65 L 852.41 446.39 L 861.09 456.08 L 857.80 477.86 L 859.42 505.64 L 851.65 513.60 L 844.52 513.90 L 839.79 511.15 L 829.61 503.03 L 810.84 501.37 L 796.72 480.76 L 785.20 458.25 L 770.74 440.73 L 743.92 432.04 L 718.60 425.46 L 697.43 423.53 L 675.37 420.24 L 651.46 425.61 L 636.12 469.12 L 622.10 469.08 L 600.81 479.90 L 587.21 471.49 L 591.56 503.40 L 587.65 507.26 L 554.34 500.09 L 551.88 506.02 L 582.60 525.81 L 571.42 528.45 L 530.58 530.84 L 528.47 539.67 L 534.99 538.54 L 522.11 539.92 L 518.35 543.44 L 512.98 545.75 L 507.90 547.49 L 507.06 547.20 L 502.73 546.44 L 499.71 546.36" stroke="#f87171" stroke-width="1" fill="none" opacity="0.7" inkscape:label="MOUTH_RIGHT" data-landmark="MOUTH_RIGHT" />
      </g>
      <g inkscape:label="left eye" id="body_face_left_eye">
        <path d="M 721.86 74.47 L 712.95 75.18 L 689.18 75.12 L 662.89 73.28 L 637.71 74.80 L 611.41 76.69 L 582.91 81.78 L 555.66 90.95 L 528.87 105.09 L 498.17 132.15 L 469.12 162.36 L 449.60 194.52 L 432.08 228.06 L 419.13 263.28 L 410.69 297.94 L 402.76 325.14 L 398.27 349.90 L 393.74 370.10 L 389.03 387.11 L 384.87 400.52 L 381.01 410.11 L 377.69 415.12 L 374.15 416.29 L 370.66 417.00 L 368.02 418.40 L 366.57 418.79 L 366.08 419.71 L 368.13 420.76 L 370.23 421.69 L 371.76 425.90 L 374.49 431.02 L 382.91 438.95 L 396.77 446.34 L 405.59 457.11 L 414.83 471.64 L 424.74 482.56 L 432.55 494.58 L 441.02 502.42 L 451.55 499.78 L 474.11 507.68 L 490.47 516.08 L 494.88 522.63 L 493.99 523.01 L 507.61 525.79 L 519.45 530.63 L 529.28 537.49 L 544.06 542.47 L 555.07 545.15 L 561.45 544.44 L 571.01 543.94 L 580.48 553.86 L 592.95 560.60 L 600.42 559.98 L 631.82 581.78 L 645.80 581.78 L 666.04 579.16 L 719.18 557.63 L 727.48 562.76 L 739.25 564.41 L 734.19 557.23 L 738.36 549.73 L 739.31 551.08 L 758.17 551.20 L 765.65 542.37 L 772.85 544.60 L 777.49 540.74 L 782.57 538.53 L 783.66 537.47 L 789.55 537.06 L 801.06 534.25 L 809.39 532.30 L 815.20 529.98 L 826.05 527.54 L 824.74 519.42 L 820.82 515.44 L 821.83 511.84 L 824.64 506.78 L 825.33 504.42 L 825.45 492.10 L 823.61 471.95 L 821.10 447.60 L 814.20 421.61 L 801.56 392.21 L 774.96 361.17 L 757.08 335.38 L 725.93 310.85 L 693.15 280.27 L 655.86 272.03 L 622.57 282.87 L 609.95 289.19 L 597.80 298.46 L 591.39 306.99 L 584.49 307.60 L 578.49 312.34 L 567.05 314.70 L 552.47 329.91 L 543.07 340.33 L 533.17 345.98 L 522.32 353.23 L 509.52 359.70 L 499.20 364.96 L 491.00 370.86 L 483.26 374.06 L 477.38 376.99 L 471.56 382.86 L 464.15 385.32 L 459.90 386.34 L 458.80 388.99 L 456.80 392.68 L 453.81 393.57 L 452.44 394.80 L 451.33 396.82 L 450.36 397.83 L 450.51 397.43 L 451.66 397.66 L 453.51 397.52 L 454.14 396.71 L 458.94 396.89 L 464.77 396.99 L 472.41 397.17 L 479.64 397.26 L 489.17 397.29 L 499.72 397.89 L 512.09 397.95 L 523.10 398.59 L 534.94 398.52 L 545.84 398.49 L 558.32 398.46 L 572.38 397.87 L 587.08 396.45 L 601.10 391.53 L 617.63 385.88 L 632.86 381.26 L 647.94 376.41 L 661.02 371.74 L 675.42 370.61 L 690.27 371.86 L 704.69 372.92 L 718.81 373.71 L 733.83 374.64 L 747.45 375.21 L 760.09 379.72 L 773.05 383.20 L 786.78 389.95 L 799.02 394.97 L 810.14 400.12 L 823.16 405.99 L 836.26 412.52 L 847.60 419.64 L 858.01 430.58 L 869.39 438.83 L 879.44 452.99 L 875.97 477.61 L 877.45 505.43 L 868.70 512.92 L 860.82 511.73 L 859.98 506.89 L 847.29 497.18 L 828.69 495.08 L 813.59 469.73 L 797.11 444.94 L 777.38 424.69 L 750.81 413.63 L 722.85 407.08 L 694.94 404.98 L 667.44 404.55 L 641.88 410.15 L 628.01 458.08 L 609.92 452.18 L 583.97 449.96 L 573.17 456.28 L 581.13 494.38 L 572.45 498.29 L 531.06 489.01 L 530.49 495.73 L 536.49 510.12 L 521.81 519.50 L 510.15 526.88 L 509.67 533.10 L 505.90 540.07 L 499.15 540.51 L 496.22 544.13 L 491.84 548.24 L 489.07 549.18 L 484.42 548.47 L 480.72 546.63 L 477.36 546.58" stroke="#f87171" stroke-width="1" fill="none" opacity="0.7" inkscape:label="LEFT_EYE_INNER" data-landmark="LEFT_EYE_INNER" />
        <path d="M 721.35 74.41 L 712.55 75.03 L 688.85 74.99 L 663.84 73.25 L 638.58 74.79 L 612.36 76.68 L 583.49 82.05 L 556.29 91.01 L 529.96 104.89 L 499.25 131.77 L 470.24 161.84 L 451.02 193.73 L 433.45 226.96 L 420.20 262.13 L 411.50 296.53 L 403.29 323.71 L 398.76 348.19 L 394.10 368.52 L 389.41 385.38 L 385.16 398.99 L 381.23 408.58 L 377.88 413.29 L 374.26 414.54 L 370.70 415.31 L 367.99 416.82 L 366.58 417.14 L 366.14 418.06 L 368.30 418.97 L 370.38 419.84 L 371.95 424.20 L 374.83 429.22 L 383.07 437.23 L 397.00 444.95 L 406.25 455.79 L 416.03 470.54 L 425.88 482.38 L 433.64 494.53 L 442.52 503.45 L 452.32 502.28 L 475.04 510.11 L 490.71 519.78 L 495.11 526.02 L 493.59 526.85 L 506.57 529.52 L 518.45 533.94 L 528.26 541.06 L 542.64 546.31 L 553.63 549.53 L 559.95 548.16 L 569.44 547.32 L 579.78 557.41 L 591.89 565.36 L 599.36 563.93 L 630.50 580.58 L 644.36 580.48 L 664.64 577.13 L 717.83 556.27 L 725.72 562.09 L 738.59 564.05 L 733.36 556.54 L 737.70 549.15 L 738.84 550.47 L 757.91 549.78 L 761.56 538.55 L 771.22 541.82 L 775.50 537.72 L 780.94 534.83 L 782.33 534.13 L 788.11 533.64 L 799.59 530.49 L 807.83 528.25 L 814.08 525.98 L 825.14 524.03 L 823.40 515.82 L 819.83 512.29 L 821.20 509.00 L 824.31 503.89 L 825.26 502.06 L 825.04 489.68 L 823.22 470.06 L 820.56 446.09 L 813.59 420.08 L 800.71 390.90 L 773.92 360.16 L 755.84 334.53 L 724.74 310.32 L 691.78 280.76 L 653.93 272.96 L 620.24 284.52 L 607.83 291.15 L 595.99 300.07 L 589.67 308.63 L 582.28 309.45 L 576.22 314.03 L 565.36 316.56 L 551.63 330.42 L 542.49 340.12 L 532.51 345.61 L 521.98 352.70 L 509.29 359.16 L 499.12 364.64 L 491.07 370.49 L 483.29 373.72 L 477.70 376.44 L 472.13 382.03 L 464.95 384.60 L 460.93 385.29 L 459.69 387.86 L 457.70 391.67 L 454.75 392.63 L 453.32 393.89 L 452.18 395.80 L 451.16 396.77 L 451.32 396.36 L 452.46 396.57 L 454.27 396.52 L 454.74 395.73 L 459.65 395.87 L 465.71 395.92 L 473.40 396.07 L 480.55 396.22 L 490.12 396.23 L 500.73 396.80 L 513.09 396.96 L 524.29 397.65 L 536.23 397.60 L 547.17 397.57 L 559.82 397.51 L 574.04 397.03 L 588.69 395.77 L 602.54 391.07 L 619.09 385.42 L 634.31 380.82 L 649.47 376.05 L 662.55 371.50 L 677.11 370.33 L 692.00 371.65 L 706.31 372.78 L 720.69 373.64 L 735.61 374.47 L 749.12 374.97 L 761.92 379.79 L 774.85 383.50 L 788.92 390.48 L 801.02 395.62 L 812.23 400.95 L 825.38 406.88 L 838.55 413.62 L 849.27 420.69 L 859.54 431.85 L 870.32 440.13 L 880.55 454.67 L 876.58 477.92 L 877.37 505.70 L 868.48 512.37 L 860.93 510.89 L 858.44 506.24 L 846.15 496.49 L 828.31 492.10 L 813.23 467.83 L 796.63 443.72 L 776.81 423.35 L 750.13 412.53 L 722.31 406.00 L 694.33 403.89 L 666.67 403.92 L 640.90 409.97 L 627.24 457.21 L 608.98 452.13 L 601.63 462.56 L 593.37 471.72 L 580.37 495.37 L 542.92 481.76 L 529.02 486.34 L 529.79 494.95 L 533.80 512.85 L 520.32 519.03 L 508.36 526.75 L 507.60 532.44 L 503.63 539.01 L 496.66 539.73 L 492.97 544.13 L 489.32 548.05 L 487.09 549.01 L 482.49 547.92 L 476.02 545.53 L 475.17 545.72" stroke="#f87171" stroke-width="1" fill="none" opacity="0.7" inkscape:label="LEFT_EYE" data-landmark="LEFT_EYE" />
        <path d="M 720.99 74.30 L 712.09 74.84 L 688.38 74.81 L 664.68 73.17 L 639.40 74.77 L 613.34 76.64 L 584.13 82.28 L 557.02 90.99 L 531.18 104.64 L 500.46 131.29 L 471.48 161.25 L 452.53 192.75 L 434.91 225.71 L 421.31 260.86 L 412.44 294.96 L 403.90 322.12 L 399.33 346.32 L 394.44 366.90 L 389.74 383.56 L 385.43 397.26 L 381.43 406.82 L 378.00 411.22 L 374.32 412.56 L 370.70 413.41 L 367.90 415.03 L 366.53 415.29 L 366.14 416.21 L 368.43 417.01 L 370.50 417.79 L 372.15 422.25 L 375.27 427.20 L 383.30 435.32 L 397.21 443.41 L 406.90 454.34 L 417.27 469.32 L 427.18 482.08 L 434.89 494.70 L 443.89 505.03 L 453.19 505.15 L 475.86 513.32 L 490.96 523.61 L 495.37 529.45 L 493.57 530.86 L 505.71 533.10 L 517.59 537.16 L 527.39 544.37 L 541.44 550.00 L 552.52 553.57 L 558.50 552.22 L 567.63 551.61 L 579.10 561.26 L 591.13 569.37 L 598.13 568.41 L 629.22 579.36 L 642.93 579.05 L 663.26 575.03 L 716.48 554.88 L 723.96 561.40 L 737.91 563.67 L 732.52 555.83 L 737.01 548.53 L 738.35 549.80 L 757.61 548.25 L 760.53 536.88 L 769.02 538.22 L 771.55 534.16 L 779.07 531.98 L 781.08 530.67 L 786.62 530.15 L 798.09 526.73 L 806.09 524.31 L 812.89 522.08 L 824.03 520.48 L 822.02 512.76 L 818.75 509.22 L 820.48 506.32 L 823.72 500.98 L 825.02 499.53 L 824.43 486.96 L 822.68 467.91 L 819.90 444.34 L 812.90 418.44 L 799.69 389.41 L 772.72 359.12 L 754.37 333.70 L 723.45 310.04 L 690.33 281.38 L 652.18 274.07 L 618.45 286.16 L 606.22 293.18 L 594.57 301.71 L 588.21 310.30 L 580.24 311.41 L 573.99 315.83 L 563.72 318.42 L 550.85 330.98 L 541.95 339.97 L 531.89 345.27 L 521.72 352.21 L 509.10 358.62 L 499.04 364.28 L 491.23 370.08 L 483.29 373.35 L 478.00 375.82 L 472.67 381.22 L 465.77 383.88 L 461.97 384.29 L 460.57 386.67 L 458.67 390.64 L 455.78 391.63 L 454.39 392.90 L 453.22 394.68 L 452.16 395.62 L 452.33 395.16 L 453.38 395.38 L 455.13 395.44 L 455.38 394.67 L 460.38 394.76 L 466.67 394.76 L 474.37 394.87 L 481.47 395.06 L 491.14 395.05 L 501.81 395.59 L 514.22 395.84 L 525.58 396.58 L 537.62 396.56 L 548.63 396.51 L 561.46 396.46 L 575.84 396.05 L 590.52 394.95 L 604.23 390.57 L 620.90 384.86 L 635.89 380.40 L 651.20 375.73 L 664.27 371.31 L 678.89 370.12 L 693.96 371.41 L 708.24 372.60 L 722.74 373.46 L 737.77 374.22 L 751.07 374.69 L 764.06 379.69 L 777.02 383.69 L 791.17 390.77 L 803.19 396.03 L 814.50 401.50 L 827.89 407.57 L 840.94 414.71 L 851.22 421.70 L 861.17 433.07 L 871.43 441.43 L 881.78 456.42 L 877.23 478.20 L 877.27 505.97 L 868.28 511.80 L 861.17 509.93 L 857.15 505.42 L 845.13 495.58 L 827.91 489.25 L 812.83 465.86 L 796.03 442.28 L 776.16 421.85 L 749.24 411.24 L 721.55 404.78 L 693.51 402.77 L 665.77 403.43 L 639.92 410.02 L 617.68 425.98 L 603.30 439.61 L 601.90 460.80 L 591.39 471.82 L 578.46 495.43 L 568.01 498.16 L 524.92 487.43 L 527.21 493.21 L 530.30 509.78 L 519.16 517.97 L 506.53 526.47 L 505.37 531.71 L 499.05 539.13 L 493.17 538.30 L 488.95 542.47 L 486.59 547.39 L 485.03 548.50 L 478.81 545.61 L 474.29 544.55 L 471.61 543.46" stroke="#f87171" stroke-width="1" fill="none" opacity="0.7" inkscape:label="LEFT_EYE_OUTER" data-landmark="LEFT_EYE_OUTER" />
      </g>
      <path d="M 727.68 85.69 L 707.10 85.81 L 683.11 85.35 L 656.25 83.15 L 631.37 84.90 L 605.31 87.19 L 577.77 92.95 L 551.46 102.72 L 523.61 117.75 L 495.77 146.33 L 469.45 177.11 L 451.13 210.01 L 435.28 243.74 L 424.28 277.27 L 417.51 311.06 L 409.90 337.46 L 406.85 360.79 L 403.59 379.51 L 399.42 395.55 L 395.33 408.98 L 391.88 417.71 L 388.25 422.72 L 384.79 424.21 L 381.33 425.04 L 378.69 425.75 L 377.02 426.43 L 376.32 427.69 L 378.23 428.53 L 380.30 429.53 L 381.38 432.93 L 384.12 439.32 L 392.66 447.05 L 406.73 453.17 L 414.38 464.12 L 421.64 478.56 L 432.44 489.06 L 438.13 501.58 L 443.13 506.56 L 458.81 502.73 L 480.00 506.45 L 493.95 513.72 L 498.01 520.94 L 500.82 518.80 L 516.23 521.93 L 525.85 527.11 L 534.42 533.36 L 548.39 537.92 L 555.90 538.95 L 562.70 538.04 L 571.87 538.01 L 579.53 547.90 L 590.04 554.49 L 598.77 553.77 L 637.56 581.71 L 652.08 581.85 L 672.69 580.69 L 720.69 558.90 L 727.65 560.96 L 736.40 564.15 L 733.57 560.56 L 737.79 555.22 L 738.51 554.49 L 758.85 555.01 L 766.88 542.68 L 773.49 546.26 L 776.33 545.79 L 781.15 542.87 L 779.99 542.10 L 785.75 542.70 L 796.87 540.44 L 804.75 539.16 L 810.27 536.63 L 821.20 532.67 L 817.87 524.30 L 814.66 520.66 L 814.92 516.30 L 816.69 512.52 L 817.34 513.09 L 818.19 502.62 L 816.65 482.53 L 814.56 459.74 L 808.73 433.48 L 798.88 404.85 L 774.52 374.48 L 758.48 348.01 L 730.98 323.74 L 702.55 286.16 L 667.52 276.35 L 635.94 283.95 L 620.72 291.50 L 607.91 302.57 L 599.30 311.76 L 591.47 312.02 L 584.37 317.45 L 571.88 322.46 L 556.53 341.40 L 546.26 352.89 L 536.47 358.42 L 525.06 365.93 L 513.11 372.36 L 502.76 377.42 L 495.00 384.02 L 486.78 386.76 L 479.86 389.57 L 474.86 396.33 L 467.04 398.33 L 463.34 398.82 L 462.62 401.54 L 460.71 404.75 L 457.51 405.72 L 456.08 406.63 L 455.52 408.63 L 454.76 409.64 L 454.94 409.23 L 455.89 409.56 L 457.54 409.49 L 458.64 408.66 L 462.72 408.78 L 467.46 408.83 L 475.21 408.99 L 482.51 408.96 L 491.70 409.04 L 501.49 409.79 L 513.00 409.91 L 523.58 410.61 L 534.27 410.52 L 544.75 410.43 L 556.38 410.20 L 569.83 409.45 L 584.52 408.28 L 598.86 403.17 L 615.11 396.93 L 629.61 392.58 L 643.94 388.03 L 656.81 382.62 L 670.36 381.42 L 685.63 383.09 L 699.75 383.65 L 713.36 383.69 L 728.42 384.99 L 740.36 385.49 L 752.72 389.93 L 764.60 393.02 L 778.18 399.44 L 790.20 403.97 L 800.59 408.13 L 812.91 412.86 L 823.90 417.99 L 835.37 422.90 L 846.69 432.19 L 859.26 437.91 L 868.87 450.56 L 864.89 475.13 L 869.39 509.67 L 861.17 518.53 L 852.73 518.47 L 850.84 514.42 L 840.71 504.37 L 821.95 498.41 L 809.22 479.16 L 795.64 454.70 L 779.19 433.91 L 752.25 424.55 L 725.77 418.05 L 700.68 413.86 L 675.80 412.51 L 651.67 416.02 L 628.33 436.10 L 619.58 455.11 L 591.90 453.79 L 581.12 456.48 L 587.88 494.92 L 581.78 498.79 L 544.01 489.50 L 542.04 496.03 L 546.29 513.24 L 538.81 517.13 L 520.24 522.88 L 520.54 530.90 L 516.04 535.81 L 509.95 536.04 L 507.14 539.59 L 502.48 543.01 L 499.65 544.31 L 495.48 544.50 L 491.21 543.32 L 488.11 543.33" stroke="#f87171" stroke-width="1" fill="none" opacity="0.7" inkscape:label="NOSE" data-landmark="NOSE" />
    </g>
    <g inkscape:label="left arm" id="body_left_arm">
      <g inkscape:label="left hand" id="body_left_arm_left_hand">
        <path d="M 362.09 165.45 L 348.95 237.39 L 358.31 305.56 L 359.66 374.66 L 377.53 425.17 L 392.60 472.42 L 404.12 499.85 L 412.20 524.27 L 417.14 541.30 L 421.28 557.19 L 421.71 575.35 L 422.57 582.73 L 419.17 594.18 L 412.90 598.57 L 407.84 603.02 L 407.15 602.69 L 407.49 600.63 L 401.85 605.26 L 402.23 606.13 L 401.97 606.29 L 401.82 606.09 L 401.67 607.06 L 402.04 606.99 L 401.41 608.21 L 401.71 608.59 L 401.22 610.14 L 399.34 610.86 L 399.53 612.08 L 400.32 610.93 L 400.55 610.92 L 400.63 611.00 L 400.71 610.49 L 400.74 609.72 L 399.08 609.56 L 390.46 609.17 L 387.20 608.05 L 385.16 605.40 L 381.43 603.65 L 379.23 603.51 L 380.50 604.11 L 382.02 604.17 L 382.72 604.20 L 388.87 602.25 L 480.67 523.89 L 470.11 537.67 L 440.70 559.48 L 624.79 562.47 L 637.15 573.59 L 677.19 549.90 L 646.78 458.43 L 657.63 452.76 L 697.87 449.25 L 712.01 449.90 L 779.38 492.98 L 753.34 452.74 L 782.98 478.53 L 774.11 447.96 L 786.17 448.14 L 797.97 449.67 L 806.79 461.51 L 814.92 482.91 L 815.71 504.40 L 816.99 516.51 L 813.47 507.02 L 805.48 499.60 L 798.17 508.99 L 824.98 580.76 L 820.93 585.92 L 820.73 590.36 L 820.93 594.07 L 820.60 594.31 L 818.14 594.26 L 817.14 593.88 L 817.29 594.56 L 816.82 590.51 L 813.19 587.71 L 743.21 543.93 L 772.65 531.15 L 768.54 520.13 L 512.90 509.62 L 488.28 533.21 L 471.33 553.34 L 462.02 562.26 L 464.52 568.48 L 469.35 571.83 L 474.61 576.64 L 477.82 583.19 L 481.25 586.26 L 483.78 589.49 L 483.05 590.07 L 485.77 591.97 L 487.64 591.13 L 484.77 593.23 L 484.25 594.19 L 484.27 595.15 L 483.16 594.98 L 483.51 594.09 L 483.77 594.38 L 483.99 594.15 L 483.53 594.16 L 483.53 594.30 L 483.80 594.18 L 484.00 594.14 L 484.13 594.03 L 484.20 594.10 L 484.70 594.03 L 484.76 594.08 L 484.80 594.04 L 485.06 593.98 L 484.77 594.67 L 484.78 594.89 L 484.27 595.83 L 481.70 596.77 L 481.88 596.77 L 481.31 596.75 L 481.42 596.47 L 481.43 596.46 L 486.48 591.04 L 495.26 588.17 L 512.64 584.49 L 533.99 582.00 L 547.29 581.63 L 567.59 582.84 L 588.67 584.55 L 613.95 592.82 L 640.84 598.36 L 667.08 604.32 L 688.67 605.73 L 706.27 607.06 L 722.16 608.18 L 735.53 609.18 L 757.58 608.64 L 775.62 609.42 L 787.63 608.71 L 803.58 608.12 L 811.99 606.41 L 814.56 606.05 L 813.16 605.51 L 808.81 605.27 L 806.30 605.18 L 801.88 601.68 L 797.98 595.68 L 794.83 588.61 L 744.47 566.15 L 732.16 555.95 L 733.07 546.14 L 736.87 557.98 L 736.04 552.83" stroke="#fb923c" stroke-width="1" fill="none" opacity="0.7" inkscape:label="LEFT_PINKY" data-landmark="LEFT_PINKY" />
        <path d="M 364.98 155.18 L 349.25 229.86 L 356.64 300.56 L 356.69 368.25 L 372.04 421.98 L 386.06 471.40 L 398.38 501.16 L 408.03 525.57 L 412.88 541.11 L 417.54 558.57 L 419.86 575.01 L 420.57 582.67 L 415.47 592.45 L 409.45 597.53 L 404.13 602.85 L 404.07 603.02 L 405.74 600.14 L 400.18 604.45 L 400.03 605.45 L 399.64 605.58 L 399.72 605.04 L 399.65 605.46 L 399.48 605.46 L 397.71 606.73 L 397.40 606.86 L 396.10 607.61 L 395.04 607.42 L 395.55 607.63 L 396.00 606.84 L 396.14 606.01 L 395.90 605.53 L 396.02 603.94 L 396.17 602.71 L 395.15 602.09 L 389.64 601.46 L 387.00 599.71 L 385.54 597.83 L 383.28 596.18 L 380.77 596.39 L 381.50 597.15 L 382.65 597.33 L 383.88 597.63 L 388.67 597.11 L 486.97 514.34 L 474.97 528.69 L 443.40 552.95 L 626.41 567.89 L 636.59 577.83 L 676.75 557.04 L 654.75 462.59 L 666.80 459.59 L 706.50 455.38 L 717.15 455.47 L 783.31 499.42 L 757.58 460.96 L 785.24 490.59 L 777.49 457.16 L 786.35 458.07 L 797.16 462.14 L 804.89 475.34 L 812.00 496.35 L 813.32 511.48 L 813.51 522.67 L 812.63 520.90 L 811.58 510.03 L 801.64 516.59 L 825.05 583.21 L 821.70 591.45 L 821.65 593.45 L 821.32 595.77 L 820.48 595.84 L 817.85 594.05 L 816.54 594.27 L 816.09 595.36 L 815.51 592.62 L 813.33 588.89 L 749.07 546.12 L 775.37 534.35 L 770.10 521.44 L 738.19 506.34 L 511.07 510.03 L 486.85 534.34 L 470.71 552.59 L 460.13 561.75 L 462.77 568.93 L 468.40 573.56 L 474.78 577.18 L 478.46 581.99 L 481.93 584.35 L 483.77 585.85 L 483.45 585.99 L 486.28 587.45 L 488.17 586.40 L 485.04 588.47 L 484.67 589.23 L 484.03 591.09 L 483.48 591.72 L 484.29 591.28 L 484.41 591.66 L 484.49 591.42 L 484.07 591.35 L 484.25 591.44 L 484.50 591.33 L 484.68 591.28 L 484.81 591.20 L 484.80 591.35 L 485.21 591.29 L 485.25 591.29 L 484.46 591.31 L 484.48 591.03 L 483.41 591.17 L 483.12 591.44 L 481.85 592.21 L 479.54 592.88 L 479.83 593.07 L 479.14 593.05 L 479.18 593.02 L 478.33 593.01 L 481.04 589.72 L 490.21 586.63 L 507.36 583.01 L 528.90 580.16 L 542.42 579.11 L 560.33 580.30 L 581.61 580.39 L 608.83 588.91 L 636.37 595.06 L 661.99 601.16 L 680.24 601.99 L 699.33 602.94 L 715.65 603.53 L 730.63 604.34 L 751.85 603.81 L 768.57 604.39 L 781.11 604.17 L 800.34 603.91 L 812.52 603.66 L 816.52 603.70 L 815.60 603.57 L 810.15 603.45 L 807.96 603.44 L 805.86 602.31 L 805.71 599.93 L 800.01 594.40 L 749.99 573.62 L 738.69 562.87 L 739.70 551.88 L 740.57 562.23 L 743.95 556.21" stroke="#fb923c" stroke-width="1" fill="none" opacity="0.7" inkscape:label="LEFT_INDEX" data-landmark="LEFT_INDEX" />
        <path d="M 377.12 156.86 L 360.95 229.64 L 368.35 297.04 L 367.51 364.55 L 381.78 416.05 L 393.59 465.01 L 405.80 494.04 L 414.80 521.35 L 419.94 534.62 L 424.39 552.92 L 426.51 569.02 L 426.70 577.26 L 421.43 588.43 L 415.43 593.41 L 411.79 598.51 L 411.94 598.69 L 413.47 595.71 L 408.95 600.52 L 408.98 601.67 L 408.31 601.75 L 408.32 600.65 L 407.78 601.26 L 407.63 601.31 L 405.87 603.25 L 405.25 603.64 L 403.59 604.90 L 402.33 605.12 L 402.94 605.26 L 404.01 604.83 L 404.26 604.69 L 403.95 603.34 L 403.97 598.25 L 404.13 596.57 L 403.85 594.04 L 397.58 594.15 L 395.27 594.13 L 393.90 593.94 L 390.95 593.96 L 388.12 594.60 L 388.82 597.03 L 390.05 598.11 L 391.45 599.07 L 398.36 599.00 L 495.99 514.74 L 483.30 527.79 L 451.03 551.96 L 626.94 567.77 L 637.03 578.43 L 676.07 559.40 L 650.01 471.10 L 659.11 468.53 L 706.64 462.41 L 715.67 459.08 L 780.11 504.52 L 756.00 462.33 L 780.82 493.35 L 773.00 457.11 L 782.10 459.33 L 793.24 459.63 L 800.90 473.72 L 808.06 496.64 L 809.70 511.23 L 808.65 521.51 L 808.43 520.28 L 804.73 513.26 L 796.69 520.10 L 821.98 578.46 L 815.65 585.40 L 814.15 589.60 L 813.63 593.99 L 812.24 595.09 L 809.45 592.60 L 808.16 593.10 L 807.50 593.29 L 807.01 590.40 L 804.16 589.72 L 746.84 547.23 L 766.59 531.39 L 766.20 518.25 L 736.78 501.35 L 493.39 529.58 L 476.43 547.87 L 467.04 557.57 L 468.89 564.33 L 474.04 569.26 L 481.35 572.61 L 485.96 577.46 L 489.81 580.03 L 491.77 583.83 L 491.38 584.18 L 494.37 584.64 L 495.91 583.31 L 492.66 586.57 L 492.08 587.35 L 492.39 588.45 L 491.91 588.86 L 492.88 588.23 L 492.84 588.92 L 492.76 588.65 L 492.17 588.57 L 492.15 588.80 L 492.36 588.63 L 492.51 588.56 L 492.62 588.51 L 492.49 588.79 L 492.82 588.74 L 492.86 589.05 L 491.94 589.20 L 491.97 588.97 L 491.02 589.19 L 490.12 589.67 L 488.46 590.25 L 486.81 590.77 L 487.11 590.86 L 486.42 590.85 L 486.30 590.84 L 485.46 590.88 L 487.50 587.81 L 496.19 584.85 L 513.28 581.18 L 534.97 577.82 L 546.89 577.47 L 567.38 578.27 L 587.30 578.97 L 613.92 585.14 L 641.38 591.64 L 667.31 597.50 L 686.73 598.17 L 704.42 598.54 L 721.22 598.70 L 734.70 599.77 L 754.50 599.13 L 770.21 599.61 L 782.28 599.64 L 799.07 599.69 L 809.71 599.48 L 811.85 600.57 L 809.37 600.81 L 803.97 600.86 L 802.54 601.08 L 799.03 600.90 L 795.87 597.79 L 791.72 591.36 L 748.37 572.97 L 737.07 562.66 L 737.90 552.55 L 740.77 558.96 L 739.13 562.95" stroke="#fb923c" stroke-width="1" fill="none" opacity="0.7" inkscape:label="LEFT_THUMB" data-landmark="LEFT_THUMB" />
      </g>
      <path d="M 688.21 137.58 L 674.10 132.23 L 658.61 128.59 L 727.00 129.09 L 632.47 129.51 L 605.66 132.32 L 584.50 141.03 L 569.07 151.41 L 551.08 170.70 L 533.08 189.77 L 515.80 213.71 L 507.02 240.95 L 494.05 268.55 L 482.91 295.65 L 475.99 319.15 L 468.97 338.79 L 466.12 351.84 L 464.54 367.95 L 459.31 378.29 L 455.27 388.59 L 449.24 394.45 L 442.82 399.50 L 436.18 400.37 L 431.50 401.46 L 426.21 403.45 L 424.58 404.95 L 425.03 408.00 L 428.31 409.41 L 431.31 412.46 L 433.20 415.34 L 439.94 422.43 L 448.42 433.26 L 459.75 445.00 L 469.71 464.14 L 484.81 486.18 L 500.27 508.62 L 503.08 523.33 L 506.47 541.81 L 514.20 558.13 L 524.98 561.98 L 531.45 570.71 L 535.49 576.50 L 535.90 581.80 L 537.86 585.83 L 540.63 591.04 L 548.06 596.94 L 550.58 597.55 L 552.81 597.46 L 558.17 599.00 L 564.78 603.60 L 579.10 605.81 L 583.10 608.14 L 580.84 605.96 L 619.02 569.46 L 632.53 568.42 L 651.81 558.74 L 673.82 554.97 L 673.43 553.88 L 700.24 557.31 L 696.15 551.83 L 711.14 552.23 L 710.83 549.86 L 720.29 533.65 L 715.90 525.72 L 726.40 521.70 L 735.51 519.29 L 724.43 510.01 L 725.39 509.44 L 729.18 499.37 L 737.67 494.39 L 743.82 491.98 L 757.61 496.96 L 770.09 485.09 L 772.74 483.96 L 769.80 482.38 L 772.89 476.83 L 770.00 468.31 L 767.67 463.92 L 764.01 461.07 L 762.30 453.52 L 759.43 445.27 L 749.93 433.38 L 738.66 423.75 L 715.63 399.91 L 707.03 392.98 L 694.27 380.46 L 678.99 355.66 L 656.50 344.93 L 625.51 351.17 L 609.60 358.85 L 601.31 360.12 L 599.95 366.38 L 590.81 370.75 L 584.20 374.98 L 576.58 382.55 L 569.20 385.78 L 562.54 385.68 L 552.07 387.57 L 544.54 391.93 L 536.47 397.71 L 529.59 403.01 L 524.70 407.51 L 518.70 410.42 L 515.31 409.95 L 513.50 412.65 L 513.45 413.90 L 512.08 414.83 L 512.79 414.53 L 513.27 414.94 L 512.44 415.42 L 510.66 416.20 L 508.78 416.09 L 507.24 416.41 L 505.95 416.58 L 505.91 417.13 L 506.54 418.26 L 507.36 419.10 L 508.29 420.30 L 512.65 422.76 L 518.02 424.18 L 525.05 428.55 L 536.63 428.67 L 547.83 429.22 L 556.78 434.99 L 566.29 439.15 L 577.22 443.11 L 589.04 444.54 L 599.95 448.80 L 613.74 450.54 L 627.86 449.39 L 639.13 447.61 L 656.02 447.34 L 666.87 445.99 L 679.69 442.82 L 691.99 441.27 L 708.62 441.25 L 723.75 441.25 L 742.39 440.74 L 759.09 440.73 L 777.46 441.68 L 792.82 443.29 L 806.25 448.94 L 817.66 453.64 L 827.91 459.20 L 835.82 464.82 L 842.45 471.33 L 849.06 476.83 L 853.02 483.16 L 854.92 487.26 L 853.30 488.61 L 851.12 487.74 L 848.75 487.32 L 843.37 485.71 L 827.27 489.86 L 808.57 489.78 L 798.81 488.27 L 790.08 485.43 L 779.55 474.79 L 767.70 465.24 L 753.20 454.10 L 743.76 442.97 L 729.43 417.01 L 712.77 437.13 L 696.92 440.56 L 681.55 442.59 L 655.64 436.00 L 639.75 432.26 L 624.75 461.96 L 602.45 472.34 L 599.87 487.00 L 570.12 488.51 L 569.38 504.58 L 567.24 509.49 L 553.75 517.65 L 559.57 521.75 L 573.47 536.21 L 543.10 544.15 L 518.67 541.10 L 508.48 554.45 L 517.57 551.64 L 507.63 549.51 L 511.21 551.84 L 526.48 555.59 L 528.73 555.97 L 510.26 533.47 L 493.91 529.68 L 488.96 527.31" stroke="#fb923c" stroke-width="1" fill="none" opacity="0.7" inkscape:label="LEFT_SHOULDER" data-landmark="LEFT_SHOULDER" />
      <path d="M 502.02 127.59 L 475.51 161.69 L 463.37 207.88 L 460.35 246.79 L 448.02 296.03 L 448.82 332.79 L 450.82 367.13 L 452.74 393.51 L 454.39 419.29 L 457.33 438.47 L 462.45 449.21 L 461.03 468.88 L 460.34 478.06 L 454.84 492.64 L 445.31 496.61 L 438.78 502.73 L 436.66 499.90 L 431.86 502.71 L 428.69 509.56 L 427.48 510.90 L 428.04 512.26 L 428.94 513.83 L 430.44 515.00 L 431.76 516.31 L 436.58 522.47 L 445.57 527.32 L 456.99 537.38 L 461.37 556.35 L 470.91 571.15 L 490.56 588.48 L 492.97 589.10 L 488.38 588.86 L 490.37 594.74 L 485.69 590.85 L 484.91 596.04 L 483.37 604.44 L 482.53 607.05 L 479.25 606.09 L 477.39 606.44 L 477.21 605.87 L 477.32 605.94 L 479.66 605.27 L 482.77 605.53 L 485.79 606.08 L 538.54 577.23 L 538.30 582.78 L 518.30 590.37 L 609.28 551.90 L 620.48 560.19 L 649.06 546.17 L 634.78 509.88 L 634.69 501.96 L 669.41 508.12 L 685.95 499.83 L 720.00 525.43 L 708.25 503.51 L 726.29 487.65 L 709.43 462.24 L 701.89 432.00 L 716.31 429.44 L 735.19 430.49 L 755.88 437.81 L 768.74 444.92 L 772.56 448.12 L 770.95 460.32 L 752.66 480.79 L 755.10 495.86 L 778.77 522.58 L 768.53 521.57 L 778.65 515.57 L 781.88 515.63 L 529.61 463.33 L 522.49 469.42 L 516.28 470.49 L 510.02 476.80 L 507.09 484.76 L 510.80 492.52 L 516.40 498.09 L 511.74 499.96 L 509.32 503.32 L 507.88 504.81 L 508.23 509.95 L 506.48 509.09 L 505.55 511.24 L 505.41 510.05 L 506.36 509.65 L 506.64 509.92 L 505.99 509.74 L 505.76 510.07 L 505.66 510.49 L 505.81 510.69 L 506.03 510.62 L 506.06 510.56 L 505.85 510.55 L 506.12 510.75 L 510.13 513.72 L 512.54 513.62 L 515.71 516.14 L 521.56 515.97 L 528.70 515.66 L 532.90 518.23 L 536.00 521.03 L 543.63 521.38 L 550.56 524.52 L 555.44 526.30 L 558.77 525.27 L 566.91 519.40 L 575.86 514.86 L 592.47 511.86 L 606.67 512.05 L 624.24 512.60 L 641.91 516.83 L 663.90 519.75 L 682.94 522.99 L 704.32 524.51 L 728.57 527.70 L 753.73 529.30 L 775.93 531.05 L 793.76 537.90 L 809.67 543.60 L 823.37 544.74 L 831.62 548.03 L 837.37 550.86 L 840.72 548.63 L 840.63 546.99 L 839.90 545.99 L 835.61 545.29 L 830.63 544.86 L 825.78 544.59 L 821.80 540.10 L 786.85 542.42 L 772.06 535.13 L 750.12 517.69 L 730.65 510.35 L 723.71 504.33 L 738.88 510.29" stroke="#fb923c" stroke-width="1" fill="none" opacity="0.7" inkscape:label="LEFT_ELBOW" data-landmark="LEFT_ELBOW" />
      <path d="M 391.36 163.08 L 374.26 232.39 L 382.28 294.43 L 382.96 357.74 L 397.03 406.59 L 409.72 449.27 L 418.54 475.31 L 424.47 505.30 L 429.24 521.39 L 433.46 537.88 L 435.14 554.72 L 435.89 565.54 L 432.54 578.59 L 425.89 585.12 L 421.12 588.86 L 419.93 589.45 L 420.08 588.47 L 417.09 594.81 L 417.83 596.07 L 416.58 595.88 L 415.77 595.72 L 415.59 595.12 L 416.04 595.25 L 416.46 598.49 L 416.76 598.47 L 417.04 601.19 L 417.10 604.28 L 417.22 605.29 L 420.53 603.27 L 420.50 602.94 L 420.19 602.42 L 420.26 601.89 L 420.21 600.99 L 416.68 600.49 L 408.64 600.40 L 405.03 600.27 L 404.90 600.20 L 403.57 600.42 L 402.23 601.28 L 403.33 603.48 L 403.45 604.40 L 407.04 604.90 L 414.01 604.72 L 498.41 530.77 L 487.68 542.22 L 459.25 561.76 L 623.27 561.75 L 634.86 572.31 L 673.98 552.35 L 637.29 470.75 L 643.17 468.94 L 696.31 466.32 L 719.84 459.85 L 771.67 504.80 L 743.31 454.23 L 772.15 480.72 L 765.12 446.75 L 774.63 446.74 L 787.02 451.93 L 796.26 452.33 L 805.22 474.88 L 807.65 496.35 L 806.69 508.21 L 801.72 505.47 L 792.36 500.68 L 786.92 510.39 L 812.46 565.80 L 809.31 572.47 L 803.48 585.30 L 801.93 588.96 L 799.80 588.53 L 799.08 588.97 L 799.11 586.73 L 799.36 581.90 L 795.54 573.27 L 755.95 529.40 L 769.95 520.48 L 504.37 513.27 L 485.96 535.98 L 476.91 544.91 L 477.39 550.24 L 479.04 556.90 L 482.95 565.09 L 487.39 573.85 L 492.13 575.83 L 496.61 582.43 L 495.77 584.72 L 498.38 587.44 L 500.62 587.73 L 499.55 588.35 L 499.28 589.05 L 500.58 591.43 L 499.88 589.34 L 500.11 587.53 L 500.26 588.18 L 500.03 587.82 L 499.13 588.16 L 498.91 588.75 L 499.03 588.63 L 499.18 588.55 L 499.27 588.38 L 499.35 588.34 L 499.48 588.26 L 499.58 588.54 L 499.61 588.37 L 500.16 588.05 L 500.27 588.43 L 500.38 588.48 L 500.37 588.53 L 500.30 589.19 L 500.96 589.16 L 501.06 589.14 L 501.94 588.83 L 501.95 588.83 L 505.68 580.34 L 513.28 575.98 L 528.83 571.30 L 548.60 569.36 L 563.03 569.53 L 584.40 571.39 L 605.98 572.88 L 631.72 581.14 L 658.35 588.26 L 683.65 593.96 L 705.14 594.95 L 723.18 595.74 L 741.35 596.70 L 753.81 598.26 L 772.46 597.02 L 785.05 597.84 L 794.33 598.45 L 803.40 597.87 L 807.20 597.55 L 805.93 597.72 L 802.86 598.14 L 798.59 598.12 L 795.97 598.02 L 792.27 596.45 L 788.31 591.94 L 781.24 584.90 L 743.89 560.73 L 728.94 550.87 L 727.60 542.85 L 738.15 550.56 L 732.29 555.88" stroke="#fb923c" stroke-width="1" fill="none" opacity="0.7" inkscape:label="LEFT_WRIST" data-landmark="LEFT_WRIST" />
    </g>
    <g inkscape:label="hips" id="body_hips">
      <path d="M 670.11 314.91 L 670.12 312.58 L 671.96 309.40 L 694.45 313.63 L 680.39 312.67 L 662.17 312.71 L 645.55 314.22 L 636.91 318.46 L 632.12 322.61 L 626.29 328.26 L 619.78 335.75 L 621.19 341.55 L 618.59 351.02 L 616.57 361.08 L 612.10 371.08 L 607.74 377.66 L 607.26 386.57 L 605.31 394.27 L 600.74 402.77 L 596.32 407.74 L 590.38 411.56 L 584.77 413.53 L 579.29 413.61 L 576.98 414.05 L 574.25 416.13 L 572.49 416.72 L 572.56 418.48 L 574.23 421.17 L 576.17 425.95 L 577.98 433.54 L 584.93 444.48 L 587.01 455.59 L 594.65 471.18 L 599.29 489.02 L 602.39 506.96 L 601.89 523.28 L 602.70 531.99 L 602.98 543.69 L 604.29 554.12 L 610.40 563.67 L 612.81 569.51 L 613.11 570.50 L 613.10 575.02 L 615.26 581.57 L 613.82 584.85 L 613.25 588.66 L 612.74 590.91 L 607.18 589.21 L 594.73 589.91 L 583.62 586.90 L 588.38 588.44 L 605.61 594.73 L 635.00 601.28 L 641.15 563.12 L 652.58 563.31 L 662.15 564.56 L 635.06 564.76 L 631.36 564.50 L 634.75 561.87 L 632.90 559.73 L 635.86 555.48 L 637.38 553.06 L 646.87 552.17 L 645.31 550.86 L 648.87 547.13 L 652.73 544.01 L 649.99 543.26 L 649.40 541.14 L 648.12 537.15 L 648.87 533.72 L 648.24 531.43 L 650.22 530.03 L 654.57 529.66 L 653.08 530.10 L 643.37 528.40 L 638.88 522.52 L 627.90 520.24 L 620.56 519.90 L 612.82 521.33 L 612.92 520.86 L 618.44 521.39 L 621.00 519.40 L 621.93 517.42 L 621.01 513.93 L 621.89 512.59 L 620.74 510.09 L 621.18 505.39 L 621.64 506.24 L 621.84 505.90 L 627.19 500.17 L 628.64 495.33 L 634.32 491.23 L 637.12 488.11 L 640.60 488.39 L 643.93 489.30 L 645.54 490.46 L 648.32 486.40 L 648.65 486.07 L 647.60 486.19 L 647.28 485.79 L 648.19 485.05 L 648.18 481.15 L 649.53 477.69 L 652.81 473.33 L 658.45 469.96 L 663.28 465.20 L 669.59 460.69 L 671.79 457.66 L 674.27 455.85 L 672.31 454.49 L 670.49 453.17 L 669.48 451.92 L 668.99 452.06 L 664.98 453.09 L 662.74 454.96 L 661.07 461.48 L 660.98 469.00 L 660.72 477.14 L 660.26 488.22 L 660.84 500.26 L 662.23 512.86 L 667.47 515.74 L 671.57 519.13 L 672.19 527.84 L 676.05 534.05 L 679.20 540.64 L 685.06 549.17 L 689.09 554.76 L 696.20 560.76 L 703.76 565.02 L 705.75 565.72 L 706.25 566.99 L 705.18 567.28 L 704.70 569.35 L 704.13 571.46 L 704.21 573.60 L 703.72 574.17 L 704.63 573.50 L 706.13 574.41 L 708.96 572.95 L 716.32 571.65 L 719.96 572.66 L 721.18 573.22 L 721.29 574.02 L 720.06 574.15 L 718.88 573.80 L 718.15 572.84 L 717.44 571.88 L 713.72 570.77 L 705.82 565.03 L 698.63 559.95 L 693.58 554.74 L 691.17 542.09 L 684.03 534.81 L 669.52 534.94 L 667.68 539.99 L 671.02 541.64 L 669.51 535.61 L 672.78 531.38 L 674.45 517.36 L 670.00 509.37 L 670.13 490.00 L 646.94 503.93 L 641.87 500.37 L 636.02 505.06 L 633.91 495.94 L 626.22 492.26 L 623.16 498.29 L 621.45 499.66 L 607.87 511.68 L 594.21 514.51 L 595.97 519.32 L 603.76 517.96 L 602.28 521.59 L 593.83 536.49 L 600.73 541.13 L 592.45 546.50 L 568.26 551.47 L 563.70 557.63 L 570.24 548.97 L 569.01 546.04 L 561.21 554.16 L 561.90 561.92 L 554.37 563.85 L 540.50 543.29 L 534.38 530.70 L 537.76 521.93" stroke="#71717a" stroke-width="1" fill="none" opacity="0.7" inkscape:label="LEFT_HIP" data-landmark="LEFT_HIP" />
      <path d="M 708.83 318.99 L 710.44 318.57 L 710.41 314.37 L 684.70 314.43 L 696.82 312.06 L 697.14 311.41 L 698.02 311.77 L 690.20 312.55 L 679.02 314.42 L 674.19 317.71 L 667.84 322.77 L 663.07 330.00 L 657.83 338.11 L 652.46 349.24 L 649.05 359.14 L 643.07 363.00 L 637.99 372.02 L 631.47 381.07 L 624.36 391.13 L 616.27 399.49 L 608.73 405.31 L 603.02 407.21 L 598.54 405.38 L 594.85 403.39 L 593.33 401.92 L 591.42 401.08 L 590.89 400.63 L 590.70 401.44 L 590.59 405.19 L 591.33 412.56 L 592.00 426.05 L 593.06 433.73 L 593.76 449.23 L 586.20 466.74 L 581.28 482.51 L 580.27 484.07 L 581.92 488.16 L 584.08 491.91 L 596.13 497.26 L 600.64 511.60 L 611.05 514.76 L 619.14 516.23 L 624.30 519.44 L 634.20 526.50 L 637.73 532.93 L 640.66 537.86 L 643.81 538.80 L 638.11 538.12 L 637.23 538.35 L 636.79 538.46 L 635.34 543.01 L 640.29 549.01 L 669.44 556.29 L 653.66 580.91 L 663.52 581.20 L 671.94 588.53 L 650.67 585.61 L 647.22 584.56 L 650.60 577.98 L 651.08 579.02 L 648.61 576.23 L 651.01 572.52 L 649.15 570.18 L 651.34 572.07 L 651.32 576.13 L 654.53 577.71 L 660.66 582.60 L 663.08 584.03 L 665.18 584.14 L 667.17 584.22 L 666.89 584.15 L 668.72 583.98 L 673.23 583.08 L 673.77 582.44 L 670.77 579.97 L 660.25 575.67 L 643.32 570.60 L 635.59 561.89 L 634.37 561.71 L 629.81 558.46 L 621.28 550.14 L 618.12 543.08 L 618.25 533.71 L 621.47 529.76 L 625.42 519.79 L 631.10 520.18 L 639.01 517.88 L 647.91 512.45 L 655.97 507.32 L 666.83 499.86 L 676.20 493.74 L 679.15 482.85 L 687.31 470.68 L 693.12 470.31 L 699.10 473.29 L 703.56 474.62 L 700.44 471.85 L 699.49 468.79 L 698.25 465.51 L 696.86 462.00 L 695.79 458.99 L 694.77 455.13 L 694.19 453.18 L 694.13 452.33 L 694.32 452.15 L 695.22 451.98 L 695.02 450.94 L 695.01 449.37 L 694.45 448.46 L 692.21 448.38 L 688.63 447.33 L 686.54 445.81 L 684.03 444.50 L 680.23 445.14 L 677.77 447.76 L 674.65 450.56 L 675.98 456.90 L 676.86 463.74 L 676.57 475.37 L 676.28 483.96 L 676.94 492.36 L 676.42 502.79 L 675.56 506.21 L 675.57 513.01 L 675.73 519.88 L 675.85 524.44 L 679.05 532.78 L 684.23 535.74 L 692.72 543.15 L 698.79 550.75 L 700.81 550.95 L 701.15 552.45 L 701.29 553.25 L 702.03 556.14 L 702.69 558.10 L 701.43 557.86 L 701.55 557.32 L 704.07 558.87 L 704.71 558.86 L 704.65 557.17 L 708.65 555.53 L 710.44 554.61 L 710.91 554.54 L 710.98 557.02 L 711.16 558.76 L 710.79 558.51 L 709.54 559.99 L 705.74 560.27 L 704.62 560.72 L 706.86 561.54 L 706.69 560.89 L 705.02 562.80 L 705.59 566.79 L 705.61 565.97 L 686.18 566.76 L 681.39 567.19 L 686.10 566.80 L 688.45 562.98 L 676.57 551.41 L 666.51 538.75 L 657.02 533.06 L 659.37 525.79 L 637.68 522.53 L 628.75 518.29 L 627.09 524.68 L 628.79 527.25 L 625.80 525.89 L 621.23 527.93 L 626.17 528.32 L 605.20 531.09 L 607.40 538.12 L 608.95 543.13 L 615.42 541.77 L 618.24 542.43 L 615.53 554.87 L 616.86 561.10 L 614.71 570.81 L 587.64 571.70 L 588.15 580.70 L 592.87 574.17 L 589.58 574.88 L 584.01 574.65 L 575.43 573.62 L 569.70 573.76 L 575.42 575.44 L 576.23 576.28 L 578.84 575.38" stroke="#71717a" stroke-width="1" fill="none" opacity="0.7" inkscape:label="RIGHT_HIP" data-landmark="RIGHT_HIP" />
    </g>
    <g inkscape:label="right leg" id="body_right_leg">
      <path d="M 778.14 439.03 L 778.77 439.03 L 778.76 438.96 L 699.18 438.54 L 731.04 437.09 L 740.47 437.83 L 746.37 442.19 L 742.82 445.77 L 738.32 448.72 L 730.94 449.57 L 725.77 453.01 L 720.96 459.21 L 717.24 466.03 L 718.54 469.76 L 715.86 473.77 L 713.24 479.58 L 711.70 484.33 L 705.42 486.95 L 700.90 490.85 L 697.65 493.80 L 694.34 496.01 L 691.09 495.43 L 684.87 492.86 L 677.67 490.62 L 671.62 486.70 L 661.73 482.10 L 648.70 477.40 L 632.46 474.10 L 565.87 468.97 L 478.59 463.92 L 468.08 462.80 L 500.93 464.07 L 490.15 466.99 L 475.03 472.82 L 675.60 500.88 L 740.13 583.60 L 740.84 586.50 L 749.27 585.33 L 759.80 584.70 L 764.33 584.44 L 768.02 583.98 L 768.18 583.27 L 763.28 580.19 L 760.83 580.73 L 758.98 580.66 L 747.01 577.21 L 741.68 554.36 L 749.48 551.37 L 771.91 555.36 L 787.84 550.71 L 793.47 538.31 L 805.69 532.47 L 808.05 527.81 L 809.29 526.66 L 804.05 523.51 L 798.18 524.59 L 795.57 524.26 L 785.12 526.03 L 773.77 527.99 L 764.47 536.82 L 756.73 548.58 L 751.95 551.44 L 748.59 551.12 L 750.29 549.77 L 753.30 548.25 L 754.69 539.69 L 754.09 532.54 L 748.16 530.90 L 734.22 531.55 L 718.96 532.30 L 696.19 536.71 L 667.09 538.34 L 637.89 544.94 L 600.00 545.98 L 605.23 526.87 L 589.56 527.14 L 583.69 527.67 L 573.29 534.99 L 576.99 536.32 L 579.39 537.73 L 581.34 540.45 L 594.33 540.32 L 597.98 551.72 L 697.80 524.54 L 695.01 529.61 L 696.58 531.78 L 700.68 536.20 L 716.27 527.21 L 681.07 532.04 L 686.09 531.20 L 688.36 525.42 L 690.08 520.60 L 684.40 508.12 L 676.06 511.33 L 678.85 531.11 L 662.67 550.48 L 629.26 569.73 L 634.96 581.42 L 628.66 566.54 L 627.09 569.04 L 628.57 583.62 L 620.05 588.05 L 615.88 584.39 L 599.94 581.03 L 607.74 580.81 L 589.61 575.71" stroke="#3b82f6" stroke-width="1" fill="none" opacity="0.7" inkscape:label="RIGHT_KNEE" data-landmark="RIGHT_KNEE" />
      <path d="M 791.91 576.72 L 791.85 577.58 L 791.84 577.73 L 713.50 574.51 L 764.24 574.52 L 780.32 575.01 L 784.48 575.16 L 785.89 577.73 L 785.97 577.72 L 784.79 578.05 L 780.72 578.40 L 776.75 578.93 L 776.84 579.61 L 778.73 579.40 L 782.98 579.39 L 785.96 579.81 L 785.89 579.80 L 785.62 579.34 L 785.35 578.21 L 784.34 574.19 L 784.07 570.39 L 783.76 565.62 L 780.13 559.08 L 771.46 553.83 L 758.79 549.59 L 738.63 544.04 L 717.60 539.24 L 690.18 536.68 L 662.10 529.20 L 587.94 527.78 L 571.37 534.53 L 571.28 534.95 L 532.12 553.92 L 518.60 558.12 L 521.57 565.51 L 523.21 565.40 L 503.28 546.27 L 607.35 581.05 L 615.95 582.32 L 624.84 581.92 L 627.75 582.28 L 629.81 582.80 L 636.49 582.61 L 636.59 582.87 L 633.99 584.68 L 666.33 583.89 L 697.58 577.80 L 759.30 577.97 L 798.05 578.30 L 869.20 580.17 L 900.86 579.43 L 909.07 575.95 L 920.69 576.19 L 921.23 576.59 L 920.75 576.75 L 915.76 576.17 L 910.84 573.88 L 905.07 569.10 L 896.32 565.68 L 889.00 562.71 L 885.08 564.08 L 882.82 564.81 L 875.04 565.64 L 870.64 565.88 L 870.69 565.51 L 872.48 564.42 L 872.37 562.88 L 867.61 560.96 L 855.58 559.81 L 839.94 559.54 L 821.36 558.99 L 802.83 559.37 L 779.19 559.44 L 752.18 559.50 L 718.15 557.42 L 710.27 555.15 L 700.15 555.58 L 689.78 555.88 L 681.87 557.89 L 668.45 558.50 L 643.03 560.46 L 609.52 569.96 L 555.27 558.95 L 525.39 565.47 L 500.41 583.10 L 505.60 585.88 L 662.77 577.13 L 656.29 574.56 L 654.78 572.47 L 646.16 571.95 L 648.04 572.00 L 681.04 568.01 L 736.82 572.13 L 747.50 567.78 L 758.98 575.44 L 772.72 571.84 L 751.93 571.53 L 764.17 558.18 L 747.39 559.03 L 780.05 552.19 L 776.58 535.17 L 791.41 524.04 L 783.18 508.36 L 785.74 522.62 L 786.96 528.15 L 777.89 552.46 L 748.16 591.61 L 750.53 596.43 L 738.17 589.90 L 741.14 583.26 L 743.19 604.07 L 741.41 599.17 L 725.45 603.71 L 673.01 601.55 L 705.80 595.39 L 649.17 584.18" stroke="#3b82f6" stroke-width="1" fill="none" opacity="0.7" inkscape:label="RIGHT_ANKLE" data-landmark="RIGHT_ANKLE" />
      <path d="M 782.48 600.55 L 782.29 600.57 L 782.04 600.44 L 724.60 600.19 L 758.76 599.82 L 771.77 600.32 L 776.42 600.54 L 779.97 603.01 L 781.00 602.93 L 781.75 602.89 L 781.77 601.85 L 781.69 601.50 L 782.64 601.36 L 789.21 599.36 L 796.11 597.16 L 798.99 597.03 L 800.24 596.34 L 799.08 594.54 L 799.73 591.82 L 800.29 587.02 L 801.96 581.45 L 803.44 575.63 L 798.55 564.08 L 785.33 555.69 L 770.95 551.33 L 750.25 545.46 L 730.37 542.86 L 702.15 540.12 L 672.59 534.23 L 630.74 524.54 L 594.79 535.74 L 589.14 538.62 L 550.65 563.97 L 536.10 567.94 L 537.35 576.25 L 536.85 574.54 L 509.00 553.48 L 514.13 530.75 L 525.97 518.14 L 612.35 566.19 L 601.53 567.80 L 598.89 568.20 L 606.62 569.52 L 614.16 569.52 L 615.44 569.56 L 617.58 570.46 L 618.47 570.51 L 620.22 570.85 L 620.97 572.31 L 661.72 572.30 L 693.09 566.58 L 752.97 577.08 L 795.79 582.41 L 875.06 581.79 L 908.39 578.73 L 915.20 574.36 L 926.85 575.37 L 929.61 582.12 L 933.15 586.33 L 925.41 584.97 L 921.85 582.15 L 915.36 573.71 L 906.43 564.71 L 900.03 558.69 L 893.99 560.70 L 888.72 558.47 L 882.41 558.88 L 878.80 559.08 L 878.84 557.44 L 881.45 556.70 L 881.68 556.39 L 878.24 556.04 L 867.82 554.17 L 849.99 552.96 L 828.56 552.16 L 807.96 550.95 L 782.50 550.13 L 757.64 549.44 L 728.22 546.65 L 714.86 545.98 L 703.91 546.59 L 691.17 555.81 L 683.57 560.46 L 648.90 570.05 L 646.55 568.22 L 611.22 578.27 L 548.49 574.49 L 514.86 578.19 L 489.37 597.21 L 494.35 600.11 L 477.30 597.73 L 457.39 591.50 L 638.58 559.39 L 656.21 560.33 L 664.12 565.89 L 650.73 561.53 L 638.44 560.45 L 633.93 560.68 L 645.08 563.02 L 673.72 563.95 L 740.69 583.24 L 755.08 578.92 L 769.42 587.64 L 784.74 583.26 L 756.84 580.79 L 767.73 568.41 L 759.28 568.24 L 793.38 562.85 L 791.50 544.91 L 809.06 530.41 L 800.53 516.82 L 805.31 529.37 L 805.42 536.51 L 794.41 555.99 L 749.40 588.09 L 759.26 606.55 L 753.25 581.46 L 763.02 583.28 L 763.07 606.89 L 750.90 610.38 L 740.05 606.40 L 678.82 599.59 L 709.41 599.06 L 653.16 588.60" stroke="#3b82f6" stroke-width="1" fill="none" opacity="0.7" inkscape:label="RIGHT_HEEL" data-landmark="RIGHT_HEEL" />
      <path d="M 847.91 604.33 L 846.33 604.30 L 843.28 604.23 L 668.83 594.12 L 799.57 595.22 L 828.50 595.72 L 835.05 596.40 L 836.81 595.47 L 835.79 595.60 L 820.17 594.79 L 798.60 595.10 L 791.60 595.32 L 786.61 595.03 L 789.86 594.93 L 789.76 596.06 L 791.61 595.96 L 787.85 595.98 L 788.28 594.92 L 788.56 594.78 L 789.66 594.94 L 791.49 595.17 L 791.81 594.14 L 798.30 592.43 L 797.75 588.88 L 788.11 584.96 L 767.31 580.00 L 736.16 571.51 L 698.97 565.23 L 663.81 557.05 L 572.38 561.67 L 552.18 573.70 L 550.75 567.99 L 491.49 584.55 L 480.93 583.84 L 481.35 588.42 L 504.80 588.90 L 479.12 555.35 L 490.83 532.57 L 500.00 516.01 L 553.71 594.01 L 558.25 594.95 L 564.99 595.70 L 570.37 598.17 L 574.86 599.25 L 583.67 631.14 L 583.55 622.09 L 585.13 615.23 L 626.38 610.87 L 695.77 609.11 L 762.33 608.68 L 838.81 607.95 L 905.90 607.29 L 945.04 607.22 L 964.99 606.99 L 972.62 606.89 L 973.89 606.22 L 969.05 605.75 L 963.47 601.97 L 955.76 600.96 L 949.76 598.95 L 941.15 596.32 L 931.78 595.26 L 924.49 593.64 L 921.20 592.83 L 918.64 591.65 L 916.52 590.76 L 917.74 590.31 L 921.39 589.62 L 920.33 588.17 L 913.99 587.93 L 900.70 587.84 L 884.59 585.55 L 868.14 583.26 L 851.38 580.32 L 822.70 577.30 L 793.93 574.58 L 758.27 568.87 L 745.29 566.65 L 747.31 569.21 L 667.66 580.26 L 667.10 584.03 L 644.41 583.15 L 644.77 571.75 L 600.02 571.80 L 532.41 532.03 L 499.02 537.40 L 464.84 547.90 L 466.75 550.43 L 432.70 552.03 L 611.23 574.78 L 603.09 573.59 L 608.07 573.63 L 618.33 572.82 L 626.37 573.05 L 645.27 573.92 L 661.92 590.67 L 707.55 586.85 L 765.70 575.67 L 765.53 554.94 L 780.49 560.15 L 791.82 558.51 L 773.92 559.38 L 785.73 542.64 L 759.09 546.96 L 792.70 522.55 L 785.74 501.27 L 799.54 492.43 L 792.09 473.14 L 796.01 489.87 L 800.97 502.91 L 793.75 527.11 L 754.26 579.48 L 760.64 594.20 L 749.77 574.36 L 756.72 574.10 L 761.13 588.46 L 761.87 591.13 L 759.51 591.72 L 697.67 574.04 L 725.37 576.06 L 665.99 562.12" stroke="#3b82f6" stroke-width="1" fill="none" opacity="0.7" inkscape:label="RIGHT_FOOT_INDEX" data-landmark="RIGHT_FOOT_INDEX" />
    </g>
    <g inkscape:label="right arm" id="body_right_arm">
      <g inkscape:label="right hand" id="body_right_arm_right_hand">
        <path d="M 909.54 237.50 L 928.25 199.17 L 935.92 157.06 L 572.18 29.65 L 861.13 86.90 L 868.13 75.77 L 841.68 71.62 L 791.23 77.34 L 734.79 87.78 L 673.17 100.54 L 617.31 117.47 L 523.79 344.36 L 507.47 384.87 L 536.21 399.15 L 512.20 410.53 L 444.92 374.83 L 386.68 425.51 L 386.36 455.74 L 498.67 362.76 L 523.01 349.10 L 569.82 344.25 L 604.47 339.42 L 645.89 340.77 L 682.71 350.57 L 612.57 471.11 L 596.80 489.06 L 638.00 461.59 L 673.10 605.36 L 692.45 604.97 L 702.27 606.45 L 774.90 549.58 L 782.85 579.78 L 800.19 572.36 L 804.43 577.45 L 801.15 576.98 L 758.75 529.33 L 719.54 606.80 L 738.30 596.50 L 797.14 567.87 L 808.65 526.69 L 821.36 427.59 L 861.92 395.67 L 863.36 354.36 L 847.34 337.15 L 831.93 333.14 L 780.03 346.04 L 720.64 367.45 L 688.73 363.45 L 674.17 448.96 L 665.70 476.45 L 535.20 557.57 L 527.23 554.07 L 521.64 554.33 L 519.46 556.62 L 522.01 556.99 L 523.77 556.07 L 525.29 559.50 L 524.74 563.31 L 526.82 562.23 L 527.37 562.31 L 527.60 562.48 L 527.61 562.70 L 527.31 563.42 L 528.12 562.74 L 528.63 562.61 L 528.76 561.35 L 529.79 560.89 L 544.80 550.50 L 534.78 548.96 L 522.21 549.73 L 524.04 555.33 L 809.11 606.73 L 810.69 607.48 L 809.23 608.14 L 808.37 607.72 L 807.17 607.50 L 806.60 607.28 L 797.98 603.53 L 735.20 559.69 L 737.45 575.69 L 755.15 602.86 L 666.60 600.72 L 733.87 610.65 L 760.90 612.87 L 767.50 613.35 L 768.96 616.16 L 766.33 613.78 L 762.35 613.76 L 757.15 613.61 L 626.71 595.58 L 659.78 579.03 L 740.41 593.56 L 758.59 600.72 L 755.41 585.91 L 744.45 566.38 L 716.87 555.82 L 731.51 579.63 L 735.11 590.98 L 735.75 596.87" stroke="#facc15" stroke-width="1" fill="none" opacity="0.7" inkscape:label="RIGHT_PINKY" data-landmark="RIGHT_PINKY" />
        <path d="M 910.47 235.82 L 929.36 199.34 L 938.15 154.02 L 575.04 28.31 L 860.96 84.05 L 867.69 72.71 L 840.58 69.33 L 792.61 73.11 L 734.93 84.85 L 669.28 98.80 L 613.84 120.20 L 517.13 348.86 L 500.54 390.83 L 530.91 405.76 L 505.45 417.50 L 455.71 379.41 L 387.91 427.02 L 387.56 457.82 L 478.22 391.34 L 495.35 371.09 L 517.50 354.32 L 558.96 344.85 L 598.04 338.96 L 636.69 338.28 L 673.69 348.72 L 612.62 473.91 L 598.55 495.37 L 637.08 466.25 L 670.49 601.05 L 688.61 601.03 L 698.68 603.35 L 769.03 540.12 L 777.79 568.87 L 798.70 562.71 L 802.97 572.35 L 760.12 520.93 L 727.98 602.69 L 744.66 597.79 L 799.53 568.03 L 807.57 526.81 L 820.06 428.48 L 862.36 394.62 L 865.47 353.11 L 848.96 336.08 L 829.31 334.42 L 777.34 349.02 L 714.64 369.58 L 675.97 364.38 L 664.25 452.60 L 655.62 482.19 L 531.96 558.75 L 524.64 555.02 L 520.19 556.25 L 518.16 558.89 L 520.69 559.00 L 522.51 558.06 L 525.03 561.71 L 524.87 565.24 L 526.54 564.03 L 526.96 564.13 L 527.41 564.35 L 527.36 564.49 L 527.06 565.04 L 527.74 564.40 L 528.16 564.29 L 528.33 563.02 L 530.52 562.25 L 541.71 552.13 L 532.97 551.48 L 522.07 552.30 L 522.98 556.67 L 812.63 602.73 L 813.38 602.94 L 812.88 603.87 L 812.34 603.43 L 810.72 602.99 L 810.07 600.26 L 788.26 583.01 L 735.66 545.36 L 738.25 564.22 L 752.98 593.73 L 667.27 592.70 L 740.74 604.16 L 769.47 608.13 L 774.89 608.66 L 775.60 611.15 L 774.71 609.03 L 771.82 609.35 L 755.55 608.08 L 627.20 590.65 L 659.58 569.99 L 742.26 585.68 L 758.44 591.01 L 752.08 576.75 L 737.69 561.33 L 711.33 551.88 L 728.55 562.98 L 733.05 581.89 L 733.54 588.94" stroke="#facc15" stroke-width="1" fill="none" opacity="0.7" inkscape:label="RIGHT_INDEX" data-landmark="RIGHT_INDEX" />
        <path d="M 906.05 231.33 L 921.28 194.99 L 929.83 150.75 L 575.76 34.81 L 850.01 84.08 L 852.61 72.89 L 833.03 69.38 L 783.53 74.37 L 728.69 86.75 L 663.03 98.92 L 612.12 123.09 L 519.70 345.91 L 502.51 389.60 L 531.56 403.39 L 507.10 417.57 L 460.53 383.03 L 393.71 425.03 L 482.78 393.48 L 500.70 373.49 L 524.02 356.40 L 563.05 346.61 L 600.34 341.94 L 639.84 342.61 L 676.42 355.15 L 611.43 481.30 L 597.52 503.13 L 634.43 474.16 L 668.32 599.63 L 685.18 599.53 L 696.03 601.47 L 761.69 539.35 L 769.30 565.80 L 729.63 599.14 L 744.21 591.00 L 793.43 562.35 L 803.63 523.79 L 812.58 423.52 L 857.42 392.39 L 860.94 351.56 L 843.10 335.28 L 819.92 331.62 L 771.49 345.52 L 713.27 367.59 L 674.76 366.85 L 663.71 450.89 L 655.63 479.86 L 527.76 556.57 L 523.18 558.15 L 521.69 560.63 L 524.68 561.40 L 526.26 560.22 L 528.53 563.41 L 528.42 566.96 L 529.57 565.70 L 529.98 565.95 L 530.60 566.13 L 530.56 566.08 L 530.24 566.49 L 530.87 565.63 L 531.13 565.34 L 531.16 563.23 L 532.64 562.51 L 542.89 553.40 L 537.52 553.51 L 527.98 553.65 L 524.70 558.33 L 806.99 600.28 L 807.32 601.30 L 806.33 601.03 L 805.12 599.76 L 805.00 595.99 L 780.72 577.19 L 730.80 540.75 L 732.74 560.03 L 755.32 588.90 L 666.11 588.22 L 722.76 599.61 L 756.84 604.57 L 764.24 605.09 L 765.85 607.53 L 761.81 604.18 L 754.90 605.91 L 742.84 604.20 L 625.36 589.13 L 656.20 569.86 L 735.40 577.96 L 751.89 581.16 L 744.94 574.77 L 731.48 559.86 L 706.12 550.95 L 719.71 568.69 L 723.63 580.24 L 724.19 585.27" stroke="#facc15" stroke-width="1" fill="none" opacity="0.7" inkscape:label="RIGHT_THUMB" data-landmark="RIGHT_THUMB" />
      </g>
      <path d="M 752.36 151.00 L 754.92 142.82 L 753.98 137.02 L 650.65 132.90 L 694.24 127.41 L 704.21 123.35 L 688.82 122.70 L 655.53 125.62 L 619.32 136.53 L 589.96 153.48 L 564.71 175.90 L 545.85 205.96 L 528.39 231.78 L 512.67 257.67 L 502.46 278.38 L 489.82 299.15 L 470.71 321.62 L 463.54 336.51 L 455.27 353.26 L 449.01 368.33 L 445.32 379.88 L 443.56 381.79 L 440.73 379.71 L 436.77 379.08 L 434.90 380.48 L 432.79 382.67 L 431.91 383.39 L 431.87 383.59 L 434.55 384.39 L 437.48 386.88 L 438.13 399.10 L 445.97 400.27 L 454.45 408.54 L 457.12 424.17 L 459.65 439.74 L 472.44 438.54 L 485.07 441.11 L 491.06 445.09 L 506.68 449.45 L 522.27 459.95 L 545.51 460.80 L 558.95 463.46 L 568.13 464.75 L 581.45 478.93 L 584.54 479.28 L 607.28 493.28 L 618.73 503.17 L 620.68 513.04 L 632.16 520.15 L 639.79 527.27 L 621.53 522.83 L 621.27 525.30 L 637.42 523.76 L 641.21 598.92 L 655.21 597.30 L 672.50 600.80 L 716.38 606.37 L 715.13 606.50 L 725.44 593.49 L 724.67 594.43 L 731.18 595.91 L 730.75 590.27 L 728.98 593.20 L 737.89 594.20 L 738.31 596.68 L 743.30 597.10 L 744.18 597.70 L 743.85 596.65 L 755.83 597.86 L 762.72 598.35 L 763.17 598.41 L 766.50 596.11 L 775.47 589.30 L 785.13 571.46 L 774.96 566.77 L 771.59 552.96 L 771.28 545.44 L 757.28 530.70 L 752.95 523.08 L 749.93 503.61 L 745.93 479.44 L 738.24 455.70 L 733.19 433.07 L 729.39 409.39 L 725.23 384.68 L 706.62 359.59 L 700.98 342.55 L 694.53 330.37 L 685.83 322.48 L 679.81 318.04 L 675.75 320.78 L 672.91 326.26 L 669.35 330.30 L 661.88 338.15 L 648.96 343.50 L 639.19 346.56 L 628.73 363.73 L 616.30 372.13 L 603.45 380.01 L 593.18 382.06 L 583.38 383.61 L 575.54 387.07 L 568.68 389.81 L 562.65 393.14 L 555.58 393.91 L 551.31 397.86 L 542.08 400.24 L 542.51 402.01 L 540.26 403.10 L 541.21 403.46 L 538.75 403.69 L 537.86 404.32 L 536.27 405.28 L 535.36 405.77 L 535.70 406.58 L 534.90 407.08 L 536.38 407.20 L 537.35 408.52 L 537.61 411.11 L 540.63 411.10 L 545.44 412.01 L 551.33 417.65 L 560.49 422.26 L 570.72 426.09 L 580.33 430.06 L 590.34 431.39 L 600.37 434.51 L 612.52 436.09 L 624.54 439.52 L 635.39 442.22 L 649.06 440.48 L 659.68 440.12 L 673.30 439.15 L 686.13 438.52 L 698.43 438.07 L 711.22 437.80 L 725.69 437.69 L 742.87 437.39 L 758.36 437.49 L 766.48 437.56 L 774.63 437.48 L 787.67 440.35 L 795.48 446.63 L 803.23 454.03 L 812.59 460.44 L 819.42 465.94 L 825.88 472.04 L 826.73 476.98 L 834.15 484.92 L 839.14 490.40 L 841.23 491.13 L 838.30 495.21 L 835.65 504.41 L 832.07 500.95 L 828.61 497.76 L 819.64 495.08 L 804.88 493.88 L 795.83 488.79 L 770.79 478.71 L 745.83 478.35 L 729.21 479.60 L 727.43 485.43 L 702.51 469.88 L 685.95 470.20 L 678.52 477.95 L 672.58 492.03 L 663.64 493.57 L 640.86 507.96 L 635.03 522.00 L 609.05 512.25 L 618.33 526.04 L 616.55 539.64 L 605.88 546.49 L 596.16 554.96 L 611.74 557.57 L 616.62 560.58 L 590.66 573.10 L 571.53 571.19 L 567.02 579.01 L 573.06 579.67 L 577.41 578.15 L 571.04 573.34 L 569.63 567.60 L 564.86 566.76 L 569.66 571.23 L 564.70 574.79 L 561.68 576.05" stroke="#facc15" stroke-width="1" fill="none" opacity="0.7" inkscape:label="RIGHT_SHOULDER" data-landmark="RIGHT_SHOULDER" />
      <path d="M 826.25 181.70 L 834.79 165.56 L 835.18 145.97 L 616.94 82.17 L 740.27 106.84 L 767.20 103.88 L 755.60 101.59 L 716.92 106.07 L 669.81 114.08 L 632.13 120.29 L 602.07 145.73 L 574.25 270.70 L 554.02 304.72 L 556.53 316.32 L 542.34 333.36 L 517.28 329.64 L 455.65 358.92 L 577.82 398.49 L 600.14 403.39 L 610.81 419.11 L 621.08 426.35 L 640.43 427.22 L 659.51 440.55 L 607.18 495.39 L 602.39 503.37 L 636.20 494.19 L 651.33 612.48 L 663.56 612.35 L 680.28 615.66 L 721.49 591.02 L 721.46 605.90 L 713.39 544.78 L 736.24 510.96 L 747.54 486.92 L 770.46 447.47 L 757.63 395.93 L 777.74 358.96 L 773.28 328.86 L 767.53 313.64 L 750.72 310.43 L 741.88 321.33 L 728.32 345.99 L 705.68 364.90 L 691.07 396.23 L 680.50 416.90 L 663.39 427.35 L 629.09 450.70 L 549.18 484.59 L 551.98 487.17 L 553.67 486.90 L 554.04 487.01 L 553.98 487.01 L 553.18 486.37 L 552.20 485.80 L 552.00 485.34 L 552.16 485.05 L 552.74 484.86 L 554.24 486.08 L 561.21 483.61 L 742.99 558.07 L 740.20 560.09 L 727.58 557.87 L 714.96 546.21 L 710.54 546.17 L 701.88 545.26 L 682.96 532.52 L 683.44 531.17 L 690.18 543.36 L 646.02 533.66 L 662.93 567.02 L 666.52 579.69 L 669.87 580.82 L 673.50 586.44 L 673.89 581.97 L 673.33 582.83 L 667.10 588.93 L 607.28 587.06 L 615.37 590.08 L 633.61 593.09 L 656.64 590.84 L 656.82 573.85 L 649.13 538.52 L 639.46 534.95 L 642.48 562.49 L 642.70 575.35 L 640.41 582.97" stroke="#facc15" stroke-width="1" fill="none" opacity="0.7" inkscape:label="RIGHT_ELBOW" data-landmark="RIGHT_ELBOW" />
      <path d="M 894.42 220.06 L 908.61 184.03 L 913.71 146.63 L 589.45 41.23 L 821.89 83.45 L 832.39 74.17 L 817.73 70.33 L 766.51 80.21 L 715.00 91.24 L 661.24 100.92 L 613.64 124.61 L 532.41 335.35 L 515.85 378.53 L 540.05 390.50 L 519.13 405.79 L 453.97 378.11 L 401.42 413.93 L 395.37 442.28 L 513.17 367.30 L 540.43 355.77 L 577.65 349.04 L 610.69 348.68 L 651.29 351.51 L 688.03 363.89 L 611.59 480.95 L 595.58 498.15 L 634.81 473.34 L 667.19 603.65 L 684.65 603.50 L 697.15 605.09 L 760.05 551.92 L 765.16 577.49 L 794.82 568.39 L 749.47 530.32 L 718.19 600.11 L 729.29 581.82 L 784.49 551.93 L 809.16 522.00 L 813.38 419.30 L 847.99 386.30 L 845.49 345.72 L 829.13 328.90 L 806.17 322.77 L 767.59 334.62 L 720.56 361.03 L 687.17 369.21 L 676.02 444.21 L 666.74 471.65 L 551.02 543.36 L 544.82 555.77 L 539.96 552.46 L 534.39 551.42 L 532.21 553.63 L 534.87 556.63 L 536.59 555.47 L 538.21 558.23 L 539.16 562.61 L 540.37 561.58 L 540.92 562.11 L 541.50 562.41 L 541.17 562.21 L 540.09 562.83 L 540.43 561.54 L 540.26 559.72 L 540.52 555.89 L 541.08 555.47 L 550.93 546.68 L 546.88 546.28 L 541.21 546.86 L 538.67 550.49 L 792.16 601.10 L 791.87 600.66 L 792.58 601.04 L 791.76 600.75 L 791.54 599.66 L 789.76 598.17 L 765.18 584.04 L 722.37 549.14 L 725.25 563.68 L 745.38 592.03 L 662.55 587.21 L 711.43 599.21 L 735.01 602.63 L 741.84 604.15 L 743.72 606.63 L 744.65 604.36 L 743.13 605.51 L 731.98 606.08 L 624.45 592.10 L 652.89 578.76 L 719.26 591.70 L 741.16 593.38 L 739.49 582.62 L 731.58 561.04 L 705.69 551.83 L 715.10 573.26 L 715.15 582.98 L 715.11 587.98" stroke="#facc15" stroke-width="1" fill="none" opacity="0.7" inkscape:label="RIGHT_WRIST" data-landmark="RIGHT_WRIST" />
    </g>
    <g inkscape:label="left leg" id="body_left_leg">
      <path d="M 667.70 442.76 L 649.54 442.89 L 628.61 441.88 L 669.13 445.33 L 601.41 443.67 L 584.06 440.83 L 575.01 440.51 L 569.24 441.63 L 560.09 442.72 L 550.88 443.22 L 540.10 444.05 L 529.18 444.06 L 522.35 444.19 L 511.70 446.52 L 505.02 448.68 L 498.11 453.35 L 484.67 452.63 L 477.44 454.95 L 475.58 459.19 L 473.25 463.14 L 477.26 461.49 L 471.98 461.66 L 458.97 465.57 L 456.22 467.39 L 454.97 469.32 L 453.47 471.50 L 453.33 472.25 L 455.50 473.85 L 456.00 475.73 L 457.91 478.19 L 459.26 482.19 L 464.47 481.75 L 474.90 486.58 L 484.17 485.58 L 502.64 506.69 L 521.48 558.34 L 537.11 576.03 L 533.83 567.44 L 535.07 562.32 L 536.91 580.74 L 540.25 587.21 L 555.87 594.97 L 559.90 598.59 L 548.20 608.40 L 543.64 604.52 L 516.06 597.29 L 603.10 518.32 L 587.79 514.71 L 583.50 509.12 L 580.98 509.69 L 581.65 506.52 L 583.63 510.04 L 583.15 512.99 L 573.46 522.25 L 569.44 528.36 L 576.07 533.95 L 605.51 536.38 L 625.14 534.27 L 658.00 526.52 L 743.94 539.17 L 742.64 557.93 L 739.34 560.33 L 648.13 545.01 L 650.55 559.35 L 642.79 560.43 L 638.01 564.28 L 638.55 569.58 L 638.53 572.66 L 639.38 576.60 L 641.41 575.95 L 642.36 574.74 L 642.37 574.13 L 642.76 574.26 L 643.09 574.02 L 643.32 575.00 L 643.54 574.83 L 642.45 574.65 L 637.98 574.53 L 628.12 574.00 L 615.51 571.12 L 599.72 566.25 L 585.81 557.52 L 571.77 550.43 L 567.97 546.75 L 556.09 548.89 L 555.14 550.83 L 551.63 550.60 L 555.45 551.47 L 555.39 550.37 L 556.77 551.51 L 560.22 553.13 L 561.69 554.96 L 562.38 556.87 L 564.51 561.49 L 572.15 564.78 L 580.29 568.15 L 586.47 570.32 L 585.08 569.44 L 585.08 568.41 L 588.84 565.88 L 586.83 566.03 L 583.55 562.37 L 578.98 562.36 L 578.24 562.10 L 577.93 562.13 L 578.70 562.20 L 579.85 561.54 L 582.08 558.12 L 586.23 552.41 L 588.30 545.98 L 590.31 535.20 L 590.40 524.65 L 591.65 514.10 L 592.14 509.32 L 594.72 504.29 L 598.22 499.78 L 605.25 494.47 L 617.87 494.47 L 632.46 500.66 L 639.11 528.35 L 633.21 541.75 L 649.91 554.97 L 676.60 545.11 L 670.13 542.99 L 699.49 554.51 L 699.54 557.82" stroke="#06b6d4" stroke-width="1" fill="none" opacity="0.7" inkscape:label="LEFT_KNEE" data-landmark="LEFT_KNEE" />
      <path d="M 636.72 562.59 L 608.83 562.40 L 582.24 562.42 L 638.56 566.83 L 546.11 566.56 L 533.54 567.47 L 534.51 572.94 L 533.43 578.02 L 530.13 579.93 L 529.35 579.86 L 528.40 578.93 L 529.63 578.36 L 529.80 579.34 L 527.27 579.80 L 525.51 579.44 L 525.42 579.26 L 525.43 579.13 L 523.48 578.14 L 522.97 577.99 L 520.84 577.83 L 520.80 578.14 L 521.59 577.88 L 521.32 577.26 L 519.54 576.98 L 518.01 576.07 L 518.32 575.17 L 518.68 574.47 L 518.85 573.76 L 519.30 573.74 L 519.34 573.75 L 524.60 574.69 L 525.48 575.99 L 525.41 576.15 L 522.64 576.13 L 517.56 577.60 L 518.08 584.09 L 506.67 583.10 L 509.61 568.45 L 517.16 564.99 L 537.91 575.53 L 548.87 597.83 L 571.59 592.57 L 493.39 596.17 L 562.70 546.32 L 549.49 546.22 L 537.51 545.88 L 527.47 545.19 L 522.94 544.19 L 521.94 545.47 L 522.11 549.98 L 527.81 554.85 L 529.97 561.83 L 535.70 567.13 L 542.10 570.67 L 557.64 570.56 L 575.25 567.24 L 623.48 566.37 L 612.02 565.51 L 621.40 568.05 L 627.27 572.91 L 636.25 578.99 L 640.73 578.54 L 647.90 576.96 L 658.32 568.39 L 658.50 569.69 L 668.33 572.56 L 685.42 576.57 L 699.28 578.80 L 709.86 579.72 L 719.12 581.04 L 726.84 581.75 L 730.64 581.47 L 739.29 581.28 L 748.86 580.60 L 751.64 576.99 L 753.46 575.70 L 757.31 575.69 L 758.83 575.71 L 761.76 574.55 L 760.75 570.01 L 755.52 563.00 L 744.26 560.00 L 726.35 559.69 L 704.16 558.46 L 680.95 558.74 L 666.50 558.48 L 646.86 558.03 L 628.61 557.15 L 647.03 549.11 L 660.64 547.92 L 670.46 555.75 L 533.71 553.22 L 533.04 553.38 L 531.99 555.75 L 487.16 573.96 L 491.64 595.64 L 470.91 601.24 L 473.19 599.37 L 486.67 599.83 L 500.08 598.38 L 482.91 595.05 L 461.53 588.39 L 485.32 584.26 L 513.04 578.44 L 471.93 578.67 L 466.85 578.94 L 456.38 579.31 L 462.88 579.29 L 457.37 579.43 L 456.68 578.44 L 460.72 577.23 L 463.62 574.58 L 465.63 573.09 L 466.49 572.30 L 471.66 571.25 L 477.37 568.11 L 482.36 564.04 L 490.41 559.14 L 498.99 554.38 L 512.33 551.97 L 522.72 549.57 L 544.91 549.77 L 579.67 551.34 L 601.76 552.29 L 616.88 553.35 L 627.03 556.12 L 638.10 558.64 L 647.29 560.72 L 661.31 557.78 L 661.12 556.23 L 672.61 553.85 L 674.87 556.81 L 769.59 523.14 L 782.93 501.19 L 732.56 509.16 L 715.66 546.39 L 757.23 497.20 L 753.74 488.46 L 685.80 568.85 L 703.33 577.65 L 707.91 423.18 L 710.04 444.79 L 702.46 563.15 L 689.39 592.10 L 673.65 585.54 L 587.79 392.22" stroke="#06b6d4" stroke-width="1" fill="none" opacity="0.7" inkscape:label="LEFT_ANKLE" data-landmark="LEFT_ANKLE" />
      <path d="M 633.22 581.62 L 612.14 581.67 L 587.24 582.22 L 637.12 588.97 L 552.32 588.30 L 543.76 589.16 L 541.89 593.62 L 543.67 601.21 L 541.49 603.65 L 539.48 602.33 L 539.93 601.78 L 542.97 600.88 L 542.34 601.76 L 539.67 602.59 L 539.90 602.51 L 540.91 602.47 L 542.48 602.18 L 541.19 598.59 L 541.52 598.19 L 541.63 597.48 L 541.60 597.42 L 541.76 596.40 L 541.95 594.72 L 541.94 594.31 L 540.97 593.45 L 540.78 592.75 L 540.86 591.75 L 541.68 590.86 L 543.18 590.84 L 545.88 590.85 L 551.73 590.93 L 551.52 590.97 L 551.36 590.57 L 545.53 589.40 L 540.43 589.45 L 529.59 589.50 L 507.14 585.65 L 512.89 565.48 L 518.71 566.43 L 542.88 567.97 L 553.93 596.41 L 579.89 592.94 L 492.99 594.18 L 558.44 552.23 L 541.88 550.53 L 531.24 549.29 L 520.93 549.22 L 517.33 551.03 L 516.63 554.56 L 518.39 560.34 L 524.19 566.60 L 528.53 567.58 L 534.75 569.29 L 544.45 567.90 L 558.61 566.52 L 571.93 565.53 L 615.23 557.06 L 611.11 555.81 L 611.18 555.77 L 614.48 558.38 L 608.45 561.24 L 602.07 561.06 L 602.95 560.92 L 600.93 564.94 L 602.35 570.52 L 619.99 569.28 L 631.00 569.31 L 632.72 564.54 L 640.79 568.16 L 644.73 570.25 L 662.85 569.83 L 660.13 574.96 L 667.02 576.45 L 683.80 576.42 L 697.37 575.54 L 709.22 574.97 L 722.11 575.00 L 729.05 574.82 L 736.12 573.53 L 746.08 572.77 L 753.79 571.81 L 756.56 569.67 L 760.62 566.01 L 763.69 566.04 L 764.44 565.94 L 766.53 563.07 L 766.42 558.61 L 760.79 553.35 L 750.86 550.01 L 735.87 550.65 L 713.62 548.86 L 692.99 548.88 L 677.79 549.95 L 659.22 550.49 L 640.98 550.94 L 653.54 538.35 L 669.75 536.35 L 675.21 545.98 L 532.36 551.93 L 530.45 555.10 L 527.36 559.13 L 477.40 583.45 L 484.96 604.68 L 462.35 612.85 L 461.07 612.10 L 476.47 613.42 L 493.73 610.27 L 466.13 609.53 L 455.83 601.31 L 461.22 592.99 L 507.84 588.82 L 462.02 586.43 L 455.15 586.44 L 444.00 586.34 L 456.55 594.13 L 449.26 592.59 L 450.16 592.02 L 453.33 591.91 L 456.32 589.38 L 460.03 589.30 L 462.71 589.09 L 468.11 589.06 L 472.41 586.77 L 477.69 582.73 L 487.11 576.75 L 497.40 570.57 L 509.13 567.46 L 517.30 562.19 L 540.86 560.67 L 576.97 558.01 L 597.33 544.92 L 616.01 550.97 L 631.09 553.45 L 641.73 555.11 L 649.05 555.87 L 654.53 547.76 L 654.48 549.69 L 666.77 550.89 L 672.49 557.76 L 722.19 579.50 L 738.02 576.87 L 789.06 566.06 L 812.00 556.12 L 788.94 552.06 L 798.83 546.19 L 783.31 557.23 L 790.95 536.19 L 807.48 511.87 L 753.52 518.54 L 736.94 555.19 L 782.42 504.86 L 776.09 496.27 L 702.66 579.04 L 722.85 591.69 L 726.21 421.43 L 730.46 446.83 L 722.19 572.18 L 704.69 599.28 L 689.35 592.73" stroke="#06b6d4" stroke-width="1" fill="none" opacity="0.7" inkscape:label="LEFT_HEEL" data-landmark="LEFT_HEEL" />
      <path d="M 633.13 580.92 L 577.12 581.27 L 541.60 581.52 L 624.30 591.69 L 494.50 591.28 L 486.63 594.94 L 482.43 595.95 L 480.73 595.76 L 480.71 596.20 L 478.67 597.48 L 476.62 596.90 L 476.85 597.70 L 475.74 597.33 L 472.47 598.05 L 468.46 598.78 L 472.61 599.98 L 474.10 601.18 L 476.91 601.43 L 478.33 602.30 L 479.19 604.11 L 478.62 606.36 L 478.35 606.05 L 478.67 605.92 L 478.11 605.70 L 473.17 604.61 L 472.44 603.42 L 472.54 601.96 L 473.16 601.45 L 473.33 601.46 L 477.69 601.58 L 483.99 602.35 L 485.35 603.51 L 484.74 603.51 L 483.45 602.63 L 483.25 601.28 L 483.24 599.50 L 472.01 587.97 L 479.59 567.84 L 489.34 558.89 L 515.16 564.05 L 532.41 599.03 L 552.81 600.56 L 492.31 539.68 L 483.42 540.65 L 484.17 547.35 L 482.43 554.58 L 487.22 561.71 L 487.26 569.93 L 498.36 580.19 L 521.50 582.05 L 533.64 583.36 L 539.28 585.27 L 590.82 579.37 L 580.05 579.85 L 573.74 580.89 L 571.22 585.46 L 565.80 590.86 L 599.48 597.10 L 604.11 599.30 L 612.10 598.86 L 625.98 598.53 L 647.16 597.11 L 665.68 596.92 L 692.54 599.71 L 712.37 602.95 L 733.71 605.07 L 753.65 605.49 L 767.27 607.13 L 774.31 606.49 L 783.40 605.88 L 792.02 604.44 L 801.76 603.52 L 803.19 600.64 L 805.62 597.15 L 809.97 594.73 L 811.82 592.11 L 811.89 590.24 L 809.25 587.86 L 802.98 584.14 L 792.63 580.91 L 769.38 578.59 L 734.57 576.23 L 700.52 575.24 L 677.37 570.81 L 661.17 567.57 L 661.62 564.33 L 672.24 551.77 L 685.85 556.66 L 686.70 572.84 L 510.25 541.03 L 517.01 541.14 L 511.33 542.32 L 415.82 547.40 L 453.57 570.95 L 404.23 569.13 L 409.89 567.94 L 426.64 567.59 L 456.95 566.59 L 440.95 560.31 L 444.80 552.60 L 455.16 549.16 L 475.72 549.13 L 452.80 550.63 L 441.54 558.47 L 434.81 553.55 L 419.73 553.62 L 402.55 554.51 L 398.59 554.55 L 401.91 554.58 L 405.25 555.59 L 406.99 558.89 L 409.54 560.91 L 412.73 562.79 L 414.10 563.10 L 422.15 562.99 L 431.81 560.28 L 448.84 559.31 L 463.51 559.20 L 474.65 558.95 L 502.80 559.08 L 543.32 559.09 L 582.18 557.92 L 592.78 559.00 L 585.32 564.72 L 595.40 568.00 L 617.06 568.07 L 656.50 562.52 L 668.75 565.58 L 687.98 567.02 L 693.99 568.11 L 748.79 568.77 L 751.80 566.89 L 793.25 545.53 L 818.92 538.33 L 808.23 533.06 L 814.26 524.33 L 771.66 528.02 L 782.50 536.68 L 781.91 509.62 L 789.68 488.76 L 728.64 492.85 L 720.27 529.22 L 773.03 470.89 L 767.54 457.82 L 697.15 557.28 L 717.28 559.87 L 713.53 391.91 L 712.25 415.51 L 715.11 543.91 L 712.53 577.64 L 697.00 573.73" stroke="#06b6d4" stroke-width="1" fill="none" opacity="0.7" inkscape:label="LEFT_FOOT_INDEX" data-landmark="LEFT_FOOT_INDEX" />
    </g>
  </g>
  <g id="legend">
    <rect x="10" y="10" width="200" height="150" fill="white" stroke="black" opacity="0.9" />
    <text x="20" y="30" font-family="Arial, sans-serif" font-size="14" font-weight="bold">Body Regions</text>
    <line x1="20" y1="50" x2="35" y2="50" stroke="#f87171" stroke-width="3" />
    <text x="40" y="54" font-family="Arial, sans-serif" font-size="12">Face</text>
    <line x1="20" y1="70" x2="35" y2="70" stroke="#fb923c" stroke-width="3" />
    <text x="40" y="74" font-family="Arial, sans-serif" font-size="12">Left Arm</text>
    <line x1="20" y1="90" x2="35" y2="90" stroke="#facc15" stroke-width="3" />
    <text x="40" y="94" font-family="Arial, sans-serif" font-size="12">Right Arm</text>
    <line x1="20" y1="110" x2="35" y2="110" stroke="#71717a" stroke-width="3" />
    <text x="40" y="114" font-family="Arial, sans-serif" font-size="12">Hips</text>
    <line x1="20" y1="130" x2="35" y2="130" stroke="#06b6d4" stroke-width="3" />
    <text x="40" y="134" font-family="Arial, sans-serif" font-size="12">Left Leg</text>
    <line x1="20" y1="150" x2="35" y2="150" stroke="#3b82f6" stroke-width="3" />
    <text x="40" y="154" font-family="Arial, sans-serif" font-size="12">Right Leg</text>
  </g>
</svg>