<?xml version="1.0" encoding="UTF-8" standalone="no"?>
<!-- Created with Inkscape (http://www.inkscape.org/) -->

<svg
   width="20.396729mm"
   height="20.396727mm"
   viewBox="0 0 20.396729 20.396728"
   version="1.1"
   id="svg5"
   xml:space="preserve"
   xmlns="http://www.w3.org/2000/svg"
   xmlns:svg="http://www.w3.org/2000/svg"><defs
     id="defs2" /><g
     id="layer1"
     transform="translate(-22.383122,30.283808)"><g
       id="g3793"
       transform="translate(1.8431206)"><path
         style="fill:#d8a323;fill-opacity:1;stroke-width:0.425999;stroke-dasharray:none"
         d="m 20.718468,-12.878354 c 0,0.337843 0,0.450457 0.56307,0.450457 h 15.765985 v -12.162331 c 0,-0.675685 -0.112614,-0.788299 -0.788299,-0.788299 h -5.968551 c -0.450457,0 -2.027055,-2.364898 -2.364898,-2.364898 h -6.644237 c -0.56307,0 -0.56307,0 -0.56307,0.450457 z"
         id="path502-5" /><path
         style="fill:#f4bd36;fill-opacity:1;stroke-width:0.425999;stroke-dasharray:none"
         d="m 21.281538,-12.427914 c 0.795399,0.07363 3.038178,-8.921937 3.038178,-8.921937 0.11502,-0.312408 0.565476,-0.988093 1.46639,-0.988093 h 14.302 c 0,0 0.99058,-0.114375 0.563071,1.35137 0,0 0,0 -2.364898,8.10822 -0.07051,0.241741 -0.112614,0.450457 -1.013527,0.450457 H 21.281538 Z"
         id="path504-6" /></g><rect
       style="fill:none;stroke:none;stroke-width:0.103275;stroke-linecap:round;stroke-linejoin:round;stroke-dasharray:none;stroke-opacity:1"
       id="rect595-2"
       width="20.396727"
       height="20.396725"
       x="22.383121"
       y="-30.283808" /></g></svg>
