<svg xmlns="http://www.w3.org/2000/svg" width="162" height="192" fill="none"><circle cx="81" cy="97.425" r="80.039" fill="url(#a)"/><ellipse cx="81" cy="99.544" fill="url(#b)" opacity=".7" rx="80.039" ry="25.734"/><path stroke="#A9A8AF" stroke-linecap="round" stroke-linejoin="bevel" d="M81.037 20.126v77.043"/><path fill="#A9A8AF" d="M82.176 20.729a4.314 4.314 0 0 1-2.38-.027c-.228-.069-.34-.31-.283-.54l1.017-4.056c.127-.507.849-.504.971.004l.98 4.061a.458.458 0 0 1-.305.558Z"/><path fill="#A9A8AF" d="M82.445 20.043c-1.38.111-2.414.286-2.912.047l1.49-5.957 1.422 5.91Z"/><path stroke="#A9A8AF" stroke-linecap="round" stroke-linejoin="bevel" d="M137.44 82.894 81.012 97.11"/><path fill="#A9A8AF" d="M137.669 84.19c-.975-.689-1.129-2.078-.607-2.672a.379.379 0 0 1 .31-.113l3.263.16a.5.5 0 0 1 .241.924l-2.722 1.698a.439.439 0 0 1-.485.003Z"/><path fill="#A9A8AF" d="M138.279 84.096c-1.275-.658-1.26-2.129-.54-2.663l4.493.21-3.953 2.453Z"/><path stroke="#A9A8AF" stroke-linecap="round" stroke-linejoin="bevel" d="M133.262 118.162 81.049 97.158"/><path fill="#A9A8AF" d="M131.366 118.837c-.18-1.019.61-1.859 1.233-2.294a.455.455 0 0 1 .55.037l2.565 2.129c.383.318.117.939-.377.882l-3.583-.418c-.189-.022-.355-.148-.388-.336Z"/><path fill="#A9A8AF" d="M132.076 119.228c-.476-1.326 1.069-1.699 1.747-2.072l3.188 2.63-4.935-.558ZM82.146 4.532c-.08 0-.292-.044-.636-.132-.344-.088-.596-.133-.757-.133-.16 0-.296.017-.408.049a.987.987 0 0 0-.276.12.474.474 0 0 0-.144.132c-.024.04-.052.084-.084.132l-.024.048c-.024.024-.084.036-.18.036-.168 0-.252-.032-.252-.096 0-.04.012-.096.036-.168.104-.313.276-.58.516-.805a1.516 1.516 0 0 1 .997-.432c.2 0 .38.068.54.204.16.136.312.268.456.396a.737.737 0 0 0 .456.204c.176 0 .353-.132.529-.396.176-.264.268-.396.276-.396a.599.599 0 0 1 .18-.012h.156c.048.048.072.08.072.096 0 .032-.02.088-.06.168-.04.08-.096.164-.168.252-.072.088-.14.176-.204.264l-.168.229-.084.108c-.345.408-.889.948-1.633 1.62-.745.673-1.205 1.105-1.38 1.297l-.145.144.18.012c.176 0 .432.044.769.132.336.088.588.132.756.132.304 0 .584-.076.84-.228.256-.152.424-.352.504-.6.033-.072.06-.116.085-.132.024-.016.084-.024.18-.024.152 0 .228.04.228.12 0 .04-.004.076-.012.108-.136.496-.4.908-.793 1.236-.392.329-.784.497-1.176.505a.828.828 0 0 1-.552-.204c-.16-.136-.317-.273-.469-.409-.152-.136-.304-.204-.456-.204-.352 0-.668.24-.948.72a.24.24 0 0 1-.204.097h-.217c-.048-.048-.072-.084-.072-.108 0-.12.232-.465.697-1.033.312-.36.84-.88 1.585-1.56.744-.681 1.204-1.113 1.38-1.297.096-.128.124-.192.084-.192ZM145.375 78.016c0-.112.06-.304.18-.576.12-.272.312-.557.576-.853.264-.296.561-.44.889-.432.328 0 .592.092.792.276.2.184.304.44.312.769a1.61 1.61 0 0 1-.036.252c0 .024-.064.208-.192.552-.128.344-.26.732-.396 1.164-.136.433-.2.777-.192 1.033 0 .344.056.584.168.72.112.136.28.208.504.216.184 0 .356-.043.517-.132.16-.088.284-.18.372-.276.088-.096.196-.228.324-.396a22.372 22.372 0 0 0 .228-.948c.072-.32.148-.617.228-.889.304-1.2.472-1.829.504-1.885a.533.533 0 0 1 .517-.324c.104 0 .188.028.252.084a.67.67 0 0 1 .132.144c.024.04.032.076.024.108 0 .104-.196.945-.588 2.521-.393 1.577-.617 2.442-.673 2.594a3.109 3.109 0 0 1-1.164 1.585c-.553.392-1.105.592-1.657.6-.36 0-.677-.088-.949-.264-.272-.176-.408-.44-.408-.793 0-.176.028-.324.084-.444a.575.575 0 0 1 .228-.264c.096-.056.176-.096.24-.12a.576.576 0 0 1 .204-.036c.353 0 .529.168.529.504 0 .16-.048.3-.144.42a.808.808 0 0 1-.276.24.703.703 0 0 1-.157.06l-.036.013c.016.04.093.088.229.144.136.056.272.084.408.084h.096c.136 0 .24-.008.312-.024.264-.072.508-.224.732-.457.224-.232.397-.48.517-.744s.212-.488.276-.672c.064-.184.096-.304.096-.36l-.072.047a3.039 3.039 0 0 1-.541.277c-.16.04-.316.06-.468.06-.368 0-.692-.088-.972-.264-.28-.177-.464-.46-.553-.853a3.458 3.458 0 0 1-.012-.372c0-.456.141-1.053.421-1.789s.42-1.204.42-1.405V76.743c0-.024-.016-.052-.048-.084a.178.178 0 0 0-.132-.048h-.048a.7.7 0 0 0-.504.228 1.876 1.876 0 0 0-.361.493 3.174 3.174 0 0 0-.204.504c-.048.16-.08.248-.096.264-.016.016-.08.024-.192.024h-.168c-.048-.048-.072-.084-.072-.108ZM138.507 119.176c.056-.337.272-.725.648-1.165.376-.44.841-.664 1.393-.672.28 0 .536.072.768.216.232.144.404.324.516.54.337-.504.741-.756 1.213-.756.296 0 .552.088.768.264a.898.898 0 0 1 .337.708c0 .232-.056.42-.168.564-.113.145-.221.233-.325.265a.954.954 0 0 1-.276.048.529.529 0 0 1-.372-.132.453.453 0 0 1-.144-.349c0-.368.2-.62.6-.756-.088-.104-.248-.156-.48-.156a.784.784 0 0 0-.228.024c-.304.128-.528.392-.672.792-.481 1.769-.721 2.802-.721 3.098 0 .224.064.384.192.48a.686.686 0 0 0 .421.144c.296 0 .588-.132.876-.396.288-.264.484-.588.588-.973.024-.08.048-.124.072-.132a1.14 1.14 0 0 1 .192-.024h.048c.12 0 .18.032.18.096 0 .008-.008.052-.024.132a2.649 2.649 0 0 1-.744 1.213 1.8 1.8 0 0 1-1.285.528c-.56 0-.984-.252-1.272-.756-.328.496-.704.744-1.129.744h-.072c-.392 0-.672-.104-.84-.312a1.098 1.098 0 0 1-.264-.66c0-.256.076-.464.228-.624a.718.718 0 0 1 .54-.241c.344 0 .516.169.516.505 0 .16-.048.3-.144.42a.808.808 0 0 1-.276.24.705.705 0 0 1-.156.06l-.036.012c0 .008.024.024.072.048.048.024.112.052.192.084a.47.47 0 0 0 .228.036c.288 0 .537-.18.745-.54.072-.128.164-.4.276-.817a74.38 74.38 0 0 0 .528-2.089c.04-.216.06-.372.06-.468 0-.224-.06-.384-.18-.48a.636.636 0 0 0-.408-.144c-.32 0-.621.128-.901.384s-.476.584-.588.985c-.016.072-.036.112-.06.12a1.14 1.14 0 0 1-.192.024h-.168c-.048-.048-.072-.092-.072-.132Z"/><path stroke="#F2995B" stroke-dasharray="1.5 3" stroke-linecap="round" d="M161.038 100.665c-.049-.57-3.414-4.161-4.079-3.317-.562.714-.688 2.063-1.061 2.917-.355.812-.651 2.093-.944 2.932-.608 1.737-3.689.932-4.826.932-.689 0-1.301 1.108-1.889 1.54-.693.51-1.167 1.268-1.935 1.658-.744.378-1.533.655-2.261 1.066-2.184 1.233-4.996 1.448-7.239.815-2.25-.635-3.659-2.822-5.036-4.96-1.089-1.691-1.175-4.617-2.518-5.982-1.377-1.4-2.948 2.453-3.975 3.198-1.832 1.331-4.244 2.67-6.294 1.333a32.298 32.298 0 0 1-4.64-3.672c-.353-.336-.909-1.059-1.352-1.125-.102-.015-.721-.253-.793-.326-.617-.627-1.626 1.277-1.935 1.866-.516.984-.419 1.909-.419 3.05 0 1.843-.847 1.915-2.145 2.132-1.653.275-3.733.534-5.246-.593-.618-.46-1.371-.613-1.935-1.199-.421-.437-.888-1.008-1.375-1.318-.687-.436-1.514.287-1.982 1.052-1.138 1.858-3.895.666-5.456.666-1.261 0-1.626-.178-2.855.681-1.318.921-2.58 1.709-3.975 2.398-1.992.984-3.894 1.984-6.085 1.984-3.257 0-6.483.533-9.734.533-1.431 0-3.382.828-4.744.06-.266-.15-.788-.141-1.003-.385-.387-.443-.418-1.786-.513-2.399-.464-3.014.612-6.816-1.212-9.268-1.7-2.285-4.1-2.475-6.516-2.68-.92-.078-1.825-.197-2.751-.266-.514-.039-2.39.103-2.786-.4-.798-1.014-1.166-3.671-1.166-5.049 0-2.366 1.393-4.677-.256-6.855-1.741-2.3-4.01-3.879-5.782-6.13-.767-.973-1.442-2.067-2.308-2.871-.335-.312-1.467-2.139-1.515-2.665-.293-3.16 2.258-1.758 3.94-1.6.78.074 1.475.534 2.273.534 1.478 0 3.74-.58 4.896-1.866 1.562-1.736 2.352-6.495 1.468-8.927-1.103-3.037-4.176-3.505-6.283-4.546-1.773-.876-6.084-.928-6.084-4.382 0-1.767.229-2.386 1.142-3.79.567-.873 1.923-2.874 2.89-3.346.883-.431 2.025-1.27 2.845-1.925.561-.449 1.254-.77 1.469-1.658.28-1.16.046-2.546.42-3.672.253-.766.442-2.417.466-3.257.067-2.39-.722-4.727-2.308-6.07"/><circle cx="46.494" cy="26.024" r="6.003" fill="#76AAEF" opacity=".5" transform="rotate(154.236 46.494 26.024)"/><circle cx="46.494" cy="26.024" r="3.001" fill="#76AAEF" transform="rotate(154.236 46.494 26.024)"/><path stroke="#4B7AD9" stroke-linecap="round" d="m46.068 25.146 34.78 72.06"/><defs><linearGradient id="a" x1="81" x2="81" y1="17.386" y2="177.464" gradientUnits="userSpaceOnUse"><stop stop-color="#55545D"/><stop offset="1" stop-color="#35343C"/></linearGradient><linearGradient id="b" x1="81" x2="81" y1="73.81" y2="125.278" gradientUnits="userSpaceOnUse"><stop stop-color="#35343C"/><stop offset="1" stop-color="#222128"/></linearGradient></defs></svg>
