<svg fill="none" xmlns="http://www.w3.org/2000/svg" viewBox="0 0 184 200"><circle cx="92.21" cy="107.83" fill="url(#a)" r="90.23"/><ellipse opacity=".7" cx="92.21" cy="110.22" rx="90.23" ry="29.01" fill="url(#b)"/><path d="M92.25 20.7v86.85m63.59-16.1-63.62 16.03m58.91 23.73-58.86-23.68" stroke="#A8A3A7" stroke-width="1.83" stroke-linecap="round" stroke-linejoin="bevel"/><path d="M93.24 21.44c-.8.17-1.55.1-2.1-.02-.43-.1-.64-.55-.53-.97l.72-2.9c.24-.93 1.56-.92 1.78.01l.7 2.89c.1.44-.12.9-.57 1" fill="#A8A3A7"/><path d="M93.84 20.6c-1.55.12-2.72.32-3.28.05l1.68-6.72zm62.1 72.2c-.91-.78-1.07-2.12-.6-2.8.11-.17.33-.23.55-.22l2.42.12a.92.92 0 0 1 .44 1.7l-1.94 1.2c-.27.17-.63.2-.87 0" fill="#A8A3A7"/><path d="M156.78 92.8c-1.44-.73-1.42-2.4-.6-3l5.06.24zm-7.81 38.96c-.06-.95.6-1.75 1.22-2.23.3-.23.7-.19 1 .05l1.79 1.49c.7.58.21 1.72-.7 1.62l-2.63-.31c-.35-.04-.66-.28-.69-.62" fill="#A8A3A7"/><path d="M149.8 132.41c-.54-1.5 1.2-1.91 1.96-2.33l3.6 2.96z" fill="#A8A3A7"/><g clip-path="url(#c)"><path d="M90.7 6.69c.74-.9 1.2-1.35 1.8-1.8 0 0 .9-.76 1.5-1.36 1.35-1.35 1.65-2.1 1.65-2.1 0-.15-.15-.15-.15-.15l-.15.15c-.45.75-.75.9-1.2.9-.3 0-.45-.15-.75-.45s-.45-.6-1.05-.6c-1.06 0-1.8 1.35-1.8 1.65l.14.15.15-.15c.3-.75 1.2-.75 1.2-.75.3 0 .6.15.9.15.76.45.9.45 1.36.45-.6.6-1.8 1.65-2.1 1.95l-1.36 1.2C89.8 7 89.34 7.75 89.34 7.9s.15.15.15.15c.15 0 .15 0 .3-.15.3-.6.75-.9 1.2-.9.3 0 .45.15.9.6.3.3.46.6.9.6 1.51 0 2.41-1.95 2.41-2.25l-.15-.3-.3.15c-.3 1.05-1.2 1.2-1.65 1.2-.3 0-.6-.15-.9-.15-.6-.15-.76-.3-1.06-.3z" fill="#514B4F"/></g><g clip-path="url(#d)"><path d="M169.83 85.94v-.21q0-.32-.32-.32c-.1 0-.32.1-.32.21 0 0-.1.42-.1.53-.22.32-.22.63-.32.95l-.43 1.8c0 .1-.52.85-1.16.85-.53 0-.63-.43-.63-.85 0-.53.2-1.16.53-2.12.1-.31.1-.42.1-.63a.83.83 0 0 0-.84-.85c-.96 0-1.38 1.48-1.38 1.6 0 .1.1.1.1.1.11 0 .11 0 .22-.22.31-.95.74-1.26 1.06-1.26.1 0 .2 0 .2.31 0 .21-.1.53-.2.74-.32 1.17-.53 1.8-.53 2.22 0 .96.63 1.27 1.27 1.27.42 0 .74-.2 1.05-.42-.1.53-.2 1.06-.63 1.59-.32.31-.74.63-1.16.63-.11 0-.64 0-.85-.42.21 0 .32 0 .42-.1s.21-.22.21-.43c0-.32-.31-.32-.42-.32-.21 0-.63.21-.63.64 0 .52.42.95 1.16.95 1.06 0 2.22-.95 2.43-2.12z" fill="#514B4F"/></g><g clip-path="url(#e)"><path d="M160.47 132.34c.13-.4.4-1.6 1.33-1.6.13 0 .4 0 .66.13-.4.14-.66.4-.66.8 0 .13.26.4.53.4s.8-.13.8-.66c0-.8-.8-.93-1.33-.93-.66 0-1.2.66-1.33 1.06-.4-.93-1.06-1.06-1.46-1.06-1.32 0-2.12 1.72-2.12 1.99 0 .13.13.13.13.13l.13-.13c.4-1.46 1.33-1.73 1.73-1.73.27 0 .66.13.66.93 0 .4-.26 1.33-.66 3.19-.26.8-.66 1.32-1.2 1.32-.13 0-.4 0-.66-.13.27-.13.67-.4.67-.66 0-.4-.27-.4-.53-.4-.4-.13-.67.13-.67.66 0 .66.66.93 1.2.93.93 0 1.32-.93 1.32-1.06.14.53.67 1.06 1.46 1.06 1.33 0 2.13-1.72 2.13-1.99 0-.13-.14-.13-.14-.13h-.13c-.4 1.46-1.33 1.72-1.73 1.72-.53 0-.8-.4-.8-.93 0-.26.14-.53.27-1.19z" fill="#514B4F"/></g><path d="M181.77 112.7c-1.54-1.85-2.5-3.22-5.5-2.35-1.02.3-1.15.7-1.43 1.48-.29.81-.5 1.76-.72 2.58-.4 1.6-3.07 2.92-4.92 2.63-1.8-.29-4.6-.71-5.72.93-.92 1.36-4.12 2.67-5.75 3.34a14 14 0 0 1-4.76 1.02c-1.26 0-1.93-.49-3.04-.92-1.2-.46-4.67-1.98-5.15-3.13-.77-1.84-.8-3.54-.8-5.47 0-.6.26-1.79-.2-2.23-1.21-1.17-3.93-1.63-5.4-.46-1 .78-1.19.96-1.26 2.11-.06.88-.39 1.9-.94 2.66-2.24 3.05-8.76-.66-11.25-1.52-1.29-.45-7.01-4.03-8.42-2.23-1.24 1.58.63 2.69.52 4.3-.02.4-1.02 1.2-1.26 1.61-.6 1.04-2.64.92-3.75.92-2.46 0-3.26-2.8-5.42-3.22-1.31-.26-1.62-.05-2.66.47-1.06.53-1.94 1.6-3.29 1.6-1.34 0-2.47-.69-3.81-.69-1.88 0-3.93.62-5.55 1.38-1.59.75-3.05 1.9-4.58 2.75-3.65 2.05-7.7 3.27-12.1 2.52-2.77-.48-5.45-1.32-8.22-1.8-1.87-.33-4.09-1-5.74-1.86-1.25-.67-1.63-1.8-2-2.96a6 6 0 0 0-.67-1.29c-.32-.5.23-.67.4-1.14.18-.5.76-.8.76-1.38 0-.56-.53-1.04-.82-1.5-.88-1.37-3.48-2.45-5.17-2.7-3.4-.49-6.8-.82-10.15-1.47-4.18-.8-.9-2.94.44-4.43 1.12-1.25.38-3.41-.52-4.81-.76-1.2-1.44-1.54-2.79-2.3-.65-.37-3.14-1.93-2.23-2.88.39-.4 0-1.4-.28-1.8-.46-.7-2.44-.98-3.23-1.17-1.78-.43-3.88-.67-4.81-2.3-.7-1.2-.92-2.57-1.58-3.79-1.63-3 1.25-1.7 3.18-1.7 2.9 0 4.97.34 7.78-.81 1.86-.76 2.74-1.2 3.58-2.93 1.34-2.76 3.38-8.8-.78-10.6-4.03-1.75-8.4-3.33-12.97-3.33-1.48 0-2.13-.64-.65-1.53 1.54-.93 4.03-.69 4.08-2.65.05-1.97.2-5.13 2.13-6.5 1.3-.91 3.14-.93 4.48-1.84 1.6-1.1 2.11-3.02 2.11-4.7 0-2.75-1.29-5.21-2.64-7.56" stroke="#E98F54" stroke-linecap="round" stroke-linejoin="round" stroke-dasharray="3 3"/><circle opacity=".5" cx="37.49" cy="38.44" r="6.77" transform="rotate(141.53 37.5 38.44)" fill="#4177D8"/><circle cx="37.49" cy="38.44" transform="rotate(141.53 37.5 38.44)" fill="#4177D8" r="3.38"/><path d="m92.6 107.75-55.7-70.1" stroke="#4177D8" stroke-width="1.83" stroke-linecap="round" stroke-linejoin="bevel"/><defs><clipPath id="c"><path fill="#fff" d="M89.34 1.28h6.32v6.77h-6.32z"/></clipPath><clipPath id="d"><path fill="#fff" d="M164.96 85.3h4.86v6.77h-4.86z"/></clipPath><clipPath id="e"><path fill="#fff" d="M156.4 130.48h6.77v6.77h-6.77z"/></clipPath><linearGradient id="a" x1="92.21" y1="17.6" x2="92.21" y2="198.07" gradientUnits="userSpaceOnUse"><stop stop-color="#F8F6F9"/><stop offset="1" stop-color="#E9E7EA"/></linearGradient><linearGradient id="b" x1="92.21" y1="81.21" x2="92.21" y2="139.24" gradientUnits="userSpaceOnUse"><stop stop-color="#E9E7EA"/><stop offset="1" stop-color="#CFCBCE"/></linearGradient></defs></svg>
