<svg data-name="Layer 1" viewBox="0 0 245.96 245.96" xmlns="http://www.w3.org/2000/svg"><defs><radialGradient id="prefix__c" cx="1463.1" cy="-1042" r="65.68" gradientTransform="rotate(-45 2130.2 1129.5)" gradientUnits="userSpaceOnUse"><stop stop-color="#381e43" offset=".42"/><stop stop-color="#5d02c1" offset=".61"/><stop stop-color="#690eea" offset=".83"/><stop stop-color="#b50eea" offset="1"/></radialGradient><radialGradient id="prefix__o" cx="1482.8" cy="-1001.5" r="64.24" href="#prefix__c"/><radialGradient id="prefix__i" cx="1422.6" cy="-1061.8" r="64.24" href="#prefix__c"/><radialGradient id="prefix__h" cx="1382.1" cy="-1042" r="65.68" href="#prefix__c"/><radialGradient id="prefix__g" cx="1362.4" cy="-1001.5" r="64.24" href="#prefix__c"/><radialGradient id="prefix__f" cx="1382.1" cy="-961.01" r="65.68" href="#prefix__c"/><radialGradient id="prefix__e" cx="1422.6" cy="-941.29" r="64.24" href="#prefix__c"/><radialGradient id="prefix__d" cx="1463.1" cy="-961.01" r="65.66" href="#prefix__c"/><radialGradient id="prefix__a" cx="1447.4" cy="-1026.3" r="43.5" gradientTransform="rotate(-45 2130.2 1129.5)" gradientUnits="userSpaceOnUse"><stop stop-color="#381e43" offset=".42"/><stop stop-color="#5d02c1" offset=".61"/><stop stop-color="#690eea" offset=".83"/><stop stop-color="#b50eea" offset="1"/></radialGradient><radialGradient id="prefix__x" cx="1462.5" cy="-1001.5" r="41.17" href="#prefix__a"/><radialGradient id="prefix__w" cx="1447.4" cy="-976.7" r="43.5" href="#prefix__a"/><radialGradient id="prefix__v" cx="1422.6" cy="-961.63" r="41.17" href="#prefix__a"/><radialGradient id="prefix__u" cx="1397.8" cy="-976.71" r="43.5" href="#prefix__a"/><radialGradient id="prefix__t" cx="1382.7" cy="-1001.5" r="41.17" href="#prefix__a"/><radialGradient id="prefix__s" cx="1397.8" cy="-1026.3" r="43.48" href="#prefix__a"/><radialGradient id="prefix__r" cx="1422.6" cy="-1041.4" r="41.17" href="#prefix__a"/><radialGradient id="prefix__b" cx="1108.9" cy="3149.7" r="16.19" gradientTransform="rotate(90 2130.2 1129.5)" gradientUnits="userSpaceOnUse"><stop stop-color="#381e43" offset=".17"/><stop stop-color="#5d02c1" offset=".48"/><stop stop-color="#690eea" offset=".79"/><stop stop-color="#b50eea" offset="1"/></radialGradient><radialGradient id="prefix__q" cx="-15.63" cy="1850.1" r="16.19" gradientTransform="rotate(45 2130.13 1129.53)" href="#prefix__b"/><radialGradient id="prefix__p" cx="108.19" cy="135.97" r="16.19" href="#prefix__b"/><radialGradient id="prefix__n" cx="1407.8" cy="-988.54" r="16.19" gradientTransform="rotate(-45 2130.2 1129.5)" href="#prefix__b"/><radialGradient id="prefix__m" cx="3121.9" cy="-864.72" r="16.19" gradientTransform="rotate(-90 2130.2 1129.5)" href="#prefix__b"/><radialGradient id="prefix__l" cx="4246.4" cy="434.9" r="16.19" gradientTransform="rotate(-135 2130.2 1129.52)" href="#prefix__b"/><radialGradient id="prefix__k" cx="4122.6" cy="2149" r="16.19" gradientTransform="rotate(180 2130.2 1129.5)" href="#prefix__b"/><radialGradient id="prefix__j" cx="2823" cy="3273.5" r="16.19" gradientTransform="rotate(135 2130.17 1129.5)" href="#prefix__b"/><style>.prefix__cls-25{opacity:.7}</style></defs><path d="M122.98 0a65.77 65.77 0 0 0-65.7 65.69 65.2 65.2 0 0 0 19.24 46.45 66 66 0 0 0 19.33 13.4 27.3 27.3 0 0 1 3-15.25 51 51 0 0 1-11.72-8.76 50.4 50.4 0 0 1-14.85-35.85c0-13.98 5.68-26.65 14.86-35.83s21.85-14.87 35.83-14.86a50.4 50.4 0 0 1 35.85 14.85 50.4 50.4 0 0 1 14.85 35.85 50.7 50.7 0 0 1-26.57 44.58 27.3 27.3 0 0 1 3.02 15.22 66 66 0 0 0 19.29-13.37 65.5 65.5 0 0 0 19.26-46.43 65.2 65.2 0 0 0-19.24-46.45A65.3 65.3 0 0 0 122.98 0" stroke-width="0" opacity=".7" fill="url(#prefix__c)"/><path d="M117.03 36.02a65.8 65.8 0 0 0-15.02 69.56 27 27 0 0 1 12.9-8.63 50.8 50.8 0 0 1 12.73-50.33 50.74 50.74 0 0 1 71.69 0 50.74 50.74 0 0 1 0 71.69 50.7 50.7 0 0 1-50.32 12.73 27.3 27.3 0 0 1-8.62 12.9 65.8 65.8 0 0 0 69.55-15.02 65.8 65.8 0 0 0 0-92.91 65.77 65.77 0 0 0-92.91 0Z" stroke-width="0" opacity=".7" fill="url(#prefix__o)"/><path d="M36.02 36.02a65.8 65.8 0 0 0 0 92.91 65.8 65.8 0 0 0 69.56 15.02 27 27 0 0 1-8.63-12.9 50.8 50.8 0 0 1-50.33-12.73c-19.77-19.77-19.77-51.93 0-71.69s51.93-19.77 71.69 0a50.7 50.7 0 0 1 12.73 50.32 27.3 27.3 0 0 1 12.9 8.62 65.8 65.8 0 0 0-15.02-69.55 65.77 65.77 0 0 0-92.91 0Z" stroke-width="0" opacity=".7" fill="url(#prefix__i)"/><path d="M110.3 147.11a51 51 0 0 1-8.76 11.72 50.4 50.4 0 0 1-35.85 14.85A50.75 50.75 0 0 1 15 122.99a50.4 50.4 0 0 1 14.85-35.85A50.4 50.4 0 0 1 65.7 72.29a50.7 50.7 0 0 1 44.58 26.57 27.3 27.3 0 0 1 15.22-3.02 65.8 65.8 0 0 0-59.8-38.55 65.3 65.3 0 0 0-46.45 19.24A65.2 65.2 0 0 0 0 122.99a65.8 65.8 0 0 0 65.7 65.7 65.3 65.3 0 0 0 46.45-19.24 66 66 0 0 0 13.4-19.33 27.3 27.3 0 0 1-15.25-3Z" stroke-width="0" opacity=".7" fill="url(#prefix__h)"/><path d="M142.25 142.25a27 27 0 0 1-11.2 6.76 50.8 50.8 0 0 1-12.73 50.33 50.74 50.74 0 0 1-71.69 0 50.74 50.74 0 0 1 0-71.69 50.7 50.7 0 0 1 50.32-12.73 27.3 27.3 0 0 1 8.62-12.9 65.8 65.8 0 0 0-69.55 15.02 65.8 65.8 0 0 0 0 92.91 65.8 65.8 0 0 0 92.91 0 65.8 65.8 0 0 0 15.02-69.56q-.8.97-1.7 1.87Z" stroke-width="0" opacity=".7" fill="url(#prefix__g)"/><path d="M147.1 135.69a50.7 50.7 0 0 1 26.58 44.58 50.4 50.4 0 0 1-14.85 35.85 50.4 50.4 0 0 1-35.85 14.85 50.75 50.75 0 0 1-50.69-50.69 50.4 50.4 0 0 1 14.85-35.85 51 51 0 0 1 11.71-8.75 27.3 27.3 0 0 1-3-15.25 66 66 0 0 0-19.31 13.39 65.3 65.3 0 0 0-19.24 46.45 65.8 65.8 0 0 0 65.7 65.7c17.55 0 34.04-6.83 46.45-19.24s19.24-28.91 19.24-46.45a65.8 65.8 0 0 0-38.56-59.81c.48 5.19-.53 10.5-3.02 15.22z" stroke-width="0" opacity=".7" fill="url(#prefix__f)"/><path d="M140.39 102.01a27 27 0 0 1 8.63 12.9 50.8 50.8 0 0 1 50.33 12.73 50.74 50.74 0 0 1 0 71.69 50.74 50.74 0 0 1-71.69 0 50.7 50.7 0 0 1-12.73-50.32 27.3 27.3 0 0 1-12.9-8.62 65.8 65.8 0 0 0 15.02 69.55c25.61 25.61 67.29 25.61 92.91 0s25.61-67.29 0-92.91a65.8 65.8 0 0 0-69.56-15.02Z" stroke-width="0" opacity=".7" fill="url(#prefix__e)"/><path d="M180.27 57.28a65.8 65.8 0 0 0-59.81 38.56c5.19-.48 10.5.53 15.22 3.02a51 51 0 0 1 8.75-11.72 50.5 50.5 0 0 1 35.83-14.86 50.75 50.75 0 0 1 50.69 50.69c0 13.98-5.68 26.65-14.86 35.83s-21.86 14.86-35.83 14.86a50.7 50.7 0 0 1-44.58-26.57 27.3 27.3 0 0 1-15.22 3.02 65.8 65.8 0 0 0 59.8 38.55 65.5 65.5 0 0 0 46.43-19.26 65.5 65.5 0 0 0 19.26-46.43 65.8 65.8 0 0 0-65.7-65.7z" stroke-width="0" fill="url(#prefix__d)" opacity=".7"/><path d="M122.98 44.38a43.55 43.55 0 0 0-43.5 43.5 43.2 43.2 0 0 0 16.28 33.93 27 27 0 0 1 5.58-15.39 28.3 28.3 0 0 1-6.86-18.54 28.53 28.53 0 0 1 28.5-28.5c7.61 0 14.77 2.97 20.15 8.35s8.35 12.54 8.35 20.15a28.3 28.3 0 0 1-6.86 18.53 27 27 0 0 1 5.59 15.39q1.83-1.47 3.53-3.16c8.22-8.22 12.74-19.14 12.74-30.76s-4.53-22.54-12.74-30.76a43.2 43.2 0 0 0-30.76-12.74" stroke-width="0" opacity=".7" fill="url(#prefix__a)"/><path d="M117.03 67.4a43.5 43.5 0 0 0-12.46 35.49 27 27 0 0 1 14.82-6.92 28.4 28.4 0 0 1 8.24-17.96c11.11-11.11 29.2-11.11 40.31 0s11.11 29.2 0 40.31c-5 5-11.4 7.74-17.95 8.24a27 27 0 0 1-6.91 14.82 43.4 43.4 0 0 0 35.47-12.46c16.96-16.96 16.96-44.56 0-61.52s-44.56-16.96-61.52 0" stroke-width="0" opacity=".7" fill="url(#prefix__x)"/><path d="M158.08 79.47a43.4 43.4 0 0 0-33.9 16.28c5.44.24 10.83 2.1 15.37 5.59a28.4 28.4 0 0 1 18.53-6.87c7.61 0 14.77 2.97 20.15 8.35s8.35 12.54 8.35 20.15-2.97 14.77-8.35 20.15-12.54 8.35-20.15 8.35a28.3 28.3 0 0 1-18.53-6.86 27 27 0 0 1-15.39 5.59q1.47 1.83 3.16 3.53c8.22 8.22 19.14 12.74 30.76 12.74s22.54-4.52 30.76-12.74 12.74-19.14 12.74-30.76-4.53-22.54-12.74-30.76a43.2 43.2 0 0 0-30.76-12.74" stroke-width="0" opacity=".7" fill="url(#prefix__w)"/><path d="M143.08 104.58A27 27 0 0 1 150 119.4c6.55.5 12.96 3.24 17.96 8.24 11.11 11.11 11.11 29.2 0 40.31s-29.2 11.11-40.31 0c-5-5-7.74-11.4-8.24-17.95a27 27 0 0 1-14.82-6.91 43.4 43.4 0 0 0 12.46 35.47c16.96 16.96 44.56 16.96 61.52 0s16.96-44.56 0-61.52a43.5 43.5 0 0 0-35.49-12.46" stroke-width="0" opacity=".7" fill="url(#prefix__v)"/><path d="M144.63 139.54a28.3 28.3 0 0 1 6.86 18.54 28.53 28.53 0 0 1-28.5 28.5c-7.61 0-14.77-2.97-20.15-8.35s-8.35-12.54-8.35-20.15c0-6.87 2.42-13.37 6.86-18.53a27 27 0 0 1-5.59-15.39q-1.83 1.47-3.53 3.16c-8.22 8.22-12.74 19.14-12.74 30.76s4.53 22.54 12.74 30.76a43.2 43.2 0 0 0 30.76 12.74c11.99 0 22.87-4.88 30.75-12.76s12.76-18.75 12.76-30.75a43.2 43.2 0 0 0-16.28-33.93 27 27 0 0 1-5.58 15.39z" stroke-width="0" opacity=".7" fill="url(#prefix__u)"/><path d="M126.57 150a28.4 28.4 0 0 1-8.24 17.96c-11.11 11.11-29.2 11.11-40.31 0s-11.11-29.2 0-40.31c5-5 11.4-7.74 17.95-8.24a27 27 0 0 1 6.91-14.82 43.4 43.4 0 0 0-35.47 12.46c-16.96 16.96-16.96 44.56 0 61.52s44.56 16.96 61.52 0a43.5 43.5 0 0 0 12.46-35.49 27 27 0 0 1-14.82 6.92" stroke-width="0" opacity=".7" fill="url(#prefix__t)"/><path d="M106.42 144.62a28.4 28.4 0 0 1-18.53 6.87 28.53 28.53 0 0 1-28.5-28.5 28.53 28.53 0 0 1 28.5-28.5c7.07 0 13.54 2.59 18.52 6.87a27 27 0 0 1 15.37-5.6 43.4 43.4 0 0 0-33.89-16.27 43.55 43.55 0 0 0-43.5 43.5 43.55 43.55 0 0 0 43.5 43.5 43.4 43.4 0 0 0 33.9-16.29 27 27 0 0 1-15.37-5.59z" stroke-width="0" opacity=".7" fill="url(#prefix__s)"/><path d="M67.4 67.41a43.55 43.55 0 0 0 0 61.52 43.5 43.5 0 0 0 35.49 12.46 27 27 0 0 1-6.92-14.82 28.4 28.4 0 0 1-17.96-8.24c-11.11-11.11-11.11-29.2 0-40.31s29.2-11.11 40.31 0c5 5 7.74 11.4 8.24 17.95a27 27 0 0 1 14.82 6.91 43.4 43.4 0 0 0-12.46-35.47 43.55 43.55 0 0 0-61.52 0" stroke-width="0" opacity=".7" fill="url(#prefix__r)"/><path d="M95.73 122.98a27.25 27.25 0 0 1 29.29-27.17 21.3 21.3 0 0 0-26.16 3.06 21.2 21.2 0 0 0-3.05 26.17q-.08-1.02-.09-2.06Z" stroke-width="0" opacity=".7" fill="url(#prefix__b)"/><path d="M103.71 142.25a27.26 27.26 0 0 1 1.5-39.92 21.3 21.3 0 0 0-16.33 20.66 21.2 21.2 0 0 0 16.35 20.66q-.78-.67-1.52-1.4" stroke-width="0" fill="url(#prefix__q)" class="prefix__cls-25"/><path d="M122.98 150.24a27.25 27.25 0 0 1-27.17-29.29 21.3 21.3 0 0 0 3.06 26.16 21.2 21.2 0 0 0 26.17 3.05q-1.02.08-2.06.09Z" stroke-width="0" fill="url(#prefix__p)" class="prefix__cls-25"/><path d="M142.25 142.25a27.26 27.26 0 0 1-39.92-1.5 21.3 21.3 0 0 0 20.66 16.33 21.2 21.2 0 0 0 20.66-16.35q-.67.78-1.4 1.52" stroke-width="0" fill="url(#prefix__n)" class="prefix__cls-25"/><path d="M150.24 122.98a27.25 27.25 0 0 1-29.29 27.17 21.3 21.3 0 0 0 26.16-3.06 21.2 21.2 0 0 0 3.05-26.17q.08 1.02.09 2.06Z" stroke-width="0" fill="url(#prefix__m)" class="prefix__cls-25"/><path d="M142.25 103.71a27.26 27.26 0 0 1-1.5 39.92 21.3 21.3 0 0 0 16.33-20.66 21.2 21.2 0 0 0-16.35-20.66q.78.67 1.52 1.4" stroke-width="0" fill="url(#prefix__l)" class="prefix__cls-25"/><path d="M122.98 95.73a27.25 27.25 0 0 1 27.17 29.29 21.3 21.3 0 0 0-3.06-26.16 21.2 21.2 0 0 0-26.17-3.05q1.02-.08 2.06-.09Z" stroke-width="0" fill="url(#prefix__k)" class="prefix__cls-25"/><path d="M103.71 103.71a27.26 27.26 0 0 1 39.92 1.5 21.3 21.3 0 0 0-20.66-16.33 21.2 21.2 0 0 0-20.66 16.35q.67-.78 1.4-1.52" fill="url(#prefix__j)" stroke-width="0" class="prefix__cls-25"/></svg>
